<?xml version="1.0" encoding="UTF-8" standalone="no"?>
<svg
   height="16"
   width="16"
   viewBox="0 0 16 16"
   version="1.1"
   id="svg1"
   sodipodi:docname="olympus.svg"
   inkscape:version="1.3.2 (091e20e, 2023-11-25, custom)"
   xmlns:inkscape="http://www.inkscape.org/namespaces/inkscape"
   xmlns:sodipodi="http://sodipodi.sourceforge.net/DTD/sodipodi-0.dtd"
   xmlns="http://www.w3.org/2000/svg"
   xmlns:svg="http://www.w3.org/2000/svg">
   <defs
      id="defs1" />
   <sodipodi:namedview
      id="namedview1"
      pagecolor="#505050"
      bordercolor="#eeeeee"
      borderopacity="1"
      inkscape:showpageshadow="0"
      inkscape:pageopacity="0"
      inkscape:pagecheckerboard="0"
      inkscape:deskcolor="#505050"
      inkscape:zoom="35.929863"
      inkscape:cx="5.5803162"
      inkscape:cy="7.0554123"
      inkscape:window-width="1920"
      inkscape:window-height="1009"
      inkscape:window-x="1912"
      inkscape:window-y="-8"
      inkscape:window-maximized="1"
      inkscape:current-layer="svg1" />
   <!--!Font
   Awesome Free 6.5.1 by @fontawesome - https://fontawesome.com License -
   https://fontawesome.com/license/free Copyright 2023 Fonticons, Inc.-->
   <path
      fill="#000000"
      d="m 0.12088324,6.9633961 c 0,-3.8330142 3.10734636,-6.95276438 6.94656096,-6.95276438 h 0.744276 c 2.9522888,0 5.6192728,2.14909138 6.1185578,4.96803198 0.07132,0.4031484 0.210875,0.7969952 0.468272,1.1164118 l 1.30248,1.6312018 c 0.192271,0.2418893 0.297709,0.5395986 0.297709,0.8497136 0,0.7504767 -0.607824,1.358301 -1.358301,1.358301 h -0.626431 v 1.9847321 c 0,1.094704 -0.890029,1.984732 -1.984732,1.984732 h -1.984732 v 0.992367 c 0,0.548902 -0.443463,0.992365 -0.9923651,0.992365 H 3.0979803 c -0.5489022,0 -0.9923651,-0.443463 -0.9923651,-0.992365 V 12.64159 c 0,-0.51789 -0.2139791,-1.007871 -0.530297,-1.420323 C 0.63567188,10.00872 0.12088324,8.5108657 0.12088324,6.9633961 Z M 7.0674442,1.9953635 c -0.272899,0 -0.4961817,0.2232826 -0.4961817,0.4961818 0,1.0233783 -1.2373571,1.5350675 -1.9599237,0.8125014 -0.1922716,-0.1922715 -0.5085876,-0.1922715 -0.7008591,0 -0.1922697,0.1922691 -0.1922697,0.5085874 0,0.7008565 0.7225667,0.7225673 0.2108786,1.9599243 -0.8124994,1.9599243 -0.2729008,0 -0.4961835,0.2232826 -0.4961835,0.496183 0,0.2729016 0.2232827,0.4961822 0.4961835,0.4961822 1.023378,0 1.5350661,1.237357 0.8124994,1.9599243 -0.1922697,0.1922714 -0.1922697,0.5085874 0,0.7008589 0.1922715,0.1922691 0.5085875,0.1922691 0.7008591,0 0.7225666,-0.7225673 1.9599237,-0.2108781 1.9599237,0.8124991 0,0.272901 0.2232827,0.496184 0.4961817,0.496184 0.2729008,0 0.4961834,-0.223283 0.4961834,-0.496184 0,-1.0233772 1.2373571,-1.5350664 1.9599238,-0.8124991 0.1922696,0.1922691 0.5085876,0.1922691 0.7008586,0 0.19227,-0.1922715 0.19227,-0.5085875 0,-0.7008589 -0.7225662,-0.7225673 -0.210878,-1.9599243 0.8125,-1.9599243 0.272901,0 0.496182,-0.2232806 0.496182,-0.4961822 0,-0.2729004 -0.223281,-0.496183 -0.496182,-0.496183 -1.023378,0 -1.5350662,-1.237357 -0.8125,-1.9599243 0.19227,-0.1922691 0.19227,-0.5085874 0,-0.7008565 -0.192271,-0.1922715 -0.508589,-0.1922715 -0.7008586,0 C 8.8009847,4.0266128 7.5636276,3.5149236 7.5636276,2.4915453 7.5636276,2.2186461 7.340345,1.9953635 7.0674442,1.9953635 Z M 6.3231699,4.9724603 a 0.74427515,0.74427515 0 1 1 0,1.4885502 0.74427515,0.74427515 0 1 1 0,-1.4885502 z m 1.2404577,2.4809166 a 0.49618347,0.49618347 0 1 1 0.9923669,0 0.49618347,0.49618347 0 1 1 -0.9923669,0 z"
      id="path1"
      style="stroke-width:0.0310115" />
</svg>