<?xml version="1.0" encoding="UTF-8" standalone="no"?>
<svg
   width="50"
   height="50"
   version="1.1"
   viewBox="0 0 50 50"
   xml:space="preserve"
   id="svg2"
   sodipodi:docname="artillery.svg"
   inkscape:version="1.3.2 (091e20e, 2023-11-25, custom)"
   xmlns:inkscape="http://www.inkscape.org/namespaces/inkscape"
   xmlns:sodipodi="http://sodipodi.sourceforge.net/DTD/sodipodi-0.dtd"
   xmlns="http://www.w3.org/2000/svg"
   xmlns:svg="http://www.w3.org/2000/svg"><defs
     id="defs2" /><sodipodi:namedview
     id="namedview2"
     pagecolor="#ffffff"
     bordercolor="#000000"
     borderopacity="0.25"
     inkscape:showpageshadow="2"
     inkscape:pageopacity="0.0"
     inkscape:pagecheckerboard="0"
     inkscape:deskcolor="#d1d1d1"
     inkscape:zoom="11.73"
     inkscape:cx="30.051151"
     inkscape:cy="16.325661"
     inkscape:window-width="2560"
     inkscape:window-height="1369"
     inkscape:window-x="-8"
     inkscape:window-y="-8"
     inkscape:window-maximized="1"
     inkscape:current-layer="svg2" /><path
     d="m 25.042626,4.9834433 c 1.386884,0 2.50734,1.1204928 2.50734,2.5073392 V 8.3056781 C 34.89187,9.3948151 40.690261,15.20096 41.779243,22.534956 h 0.814896 c 1.386886,0 2.50734,1.120493 2.50734,2.50734 0,1.386848 -1.120493,2.50734 -2.50734,2.50734 h -0.814896 c -1.089135,7.341904 -6.89528,13.140295 -14.229277,14.229277 v 0.814896 c 0,1.386886 -1.120492,2.50734 -2.50734,2.50734 -1.386847,0 -2.50734,-1.120493 -2.50734,-2.50734 V 41.778913 C 15.193383,40.689778 9.3949904,34.89154 8.3060081,27.549636 H 7.4911125 c -1.3868851,0 -2.5073392,-1.120492 -2.5073392,-2.50734 0,-1.386847 1.1204928,-2.50734 2.5073392,-2.50734 H 8.3060081 C 9.3951451,15.193053 15.193383,9.3946604 22.535286,8.3056781 V 7.4907825 c 0,-1.3868851 1.120493,-2.5073392 2.50734,-2.5073392 z M 13.398981,27.549886 c 0.979447,4.568056 4.575963,8.156857 9.136305,9.136305 v -1.614133 c 0,-1.386885 1.120493,-2.507338 2.50734,-2.507338 1.386848,0 2.50734,1.120492 2.50734,2.507338 v 1.614133 c 4.568056,-0.979448 8.156856,-4.575964 9.136303,-9.136305 h -1.614131 c -1.386885,0 -2.507338,-1.120492 -2.507338,-2.507339 0,-1.386847 1.120492,-2.50734 2.507338,-2.50734 h 1.614131 C 35.706822,17.96715 32.118214,14.378349 27.549966,13.398902 v 1.614131 c 0,1.386885 -1.120492,2.507341 -2.50734,2.507341 -1.386847,0 -2.50734,-1.120493 -2.50734,-2.507341 v -1.614131 c -4.568056,0.979447 -8.156858,4.568056 -9.136305,9.136305 h 1.614132 c 1.386885,0 2.50734,1.120493 2.50734,2.50734 0,1.386847 -1.120493,2.507339 -2.50734,2.507339 z m 11.643645,-5.014679 a 2.5073398,2.5073398 0 1 1 0,5.014679 2.5073398,2.5073398 0 1 1 0,-5.014679 z"
     fill="#082e44"
     stroke="#082e44"
     stroke-width="0.0783558"
     id="path2" /></svg>
