<?xml version="1.0" encoding="UTF-8" standalone="no"?>
<svg
   width="50"
   height="50"
   version="1.1"
   viewBox="0 0 50 50"
   id="svg2"
   sodipodi:docname="infantry.svg"
   inkscape:version="1.3.2 (091e20e, 2023-11-25, custom)"
   xmlns:inkscape="http://www.inkscape.org/namespaces/inkscape"
   xmlns:sodipodi="http://sodipodi.sourceforge.net/DTD/sodipodi-0.dtd"
   xmlns="http://www.w3.org/2000/svg"
   xmlns:svg="http://www.w3.org/2000/svg">
  <defs
     id="defs2" />
  <sodipodi:namedview
     id="namedview2"
     pagecolor="#ffffff"
     bordercolor="#000000"
     borderopacity="0.25"
     inkscape:showpageshadow="2"
     inkscape:pageopacity="0.0"
     inkscape:pagecheckerboard="0"
     inkscape:deskcolor="#d1d1d1"
     inkscape:zoom="23.46"
     inkscape:cx="25"
     inkscape:cy="25"
     inkscape:window-width="2560"
     inkscape:window-height="1369"
     inkscape:window-x="-8"
     inkscape:window-y="-8"
     inkscape:window-maximized="1"
     inkscape:current-layer="svg2" />
  <path
     d="m 23.94212,20.425236 c 1.815812,0 3.560113,0.507579 5.061418,1.422608 V 43.301568 H 15.277723 V 30.841297 l -3.831679,6.476739 C 10.64539,38.67632 8.8867161,39.126686 7.5283812,38.326033 6.1700967,37.525354 5.7197307,35.766705 6.5204095,34.40837 L 11.96787,25.200589 c 1.751462,-2.959491 4.932568,-4.775479 8.371145,-4.775479 z m -7.520642,-8.006788 a 5.7190265,5.7190265 0 1 1 11.438053,0 5.7190265,5.7190265 0 1 1 -11.438053,0 z M 37.010073,6.699422 c 0.629091,0 1.143806,0.5147149 1.143806,1.1438053 v 8.3141597 c 0.686303,0.393203 1.143805,1.136669 1.143805,1.980214 v 7.81364 l 1.143805,-0.378881 v -4.003394 c 0,-0.629091 0.514715,-1.143805 1.143805,-1.143805 H 42.7291 c 0.62909,0 1.143805,0.514714 1.143805,1.143805 v 6.04077 c 0,0.493257 -0.314533,0.929351 -0.779221,1.086618 l -3.796126,1.25818 v 1.908729 h 3.431516 c 0.629091,0 1.143806,0.514715 1.143806,1.143806 v 1.143805 c 0,0.62909 -0.514715,1.143805 -1.143806,1.143805 h -3.145577 l 1.644223,6.584155 c 0.178724,0.722033 -0.36461,1.422608 -1.108076,1.422608 h -4.253527 c -0.62909,0 -1.143805,-0.514715 -1.143805,-1.143805 v -6.862781 h -1.143806 c -1.265341,0 -2.28761,-1.022269 -2.28761,-2.287611 V 22.712948 c 0,-1.265342 1.022269,-2.287611 2.28761,-2.287611 v -2.287636 c 0,-0.843544 0.457528,-1.587035 1.143806,-1.980213 V 8.9873351 c -0.629091,0 -1.143806,-0.5147149 -1.143806,-1.1438052 0,-0.6291156 0.514715,-1.1438053 1.143806,-1.1438053 h 1.143805 z"
     fill="none"
     stroke="#082e44"
     id="path2"
     style="stroke-width:2.52151" />
</svg>
