<?xml version="1.0" encoding="UTF-8" standalone="no"?>
<svg
   viewBox="0 0 384 512"
   version="1.1"
   id="svg1"
   sodipodi:docname="left-click.svg"
   inkscape:version="1.3.2 (091e20e, 2023-11-25, custom)"
   xmlns:inkscape="http://www.inkscape.org/namespaces/inkscape"
   xmlns:sodipodi="http://sodipodi.sourceforge.net/DTD/sodipodi-0.dtd"
   xmlns="http://www.w3.org/2000/svg"
   xmlns:svg="http://www.w3.org/2000/svg">
  <defs
     id="defs1" />
  <sodipodi:namedview
     id="namedview1"
     pagecolor="#505050"
     bordercolor="#eeeeee"
     borderopacity="1"
     inkscape:showpageshadow="0"
     inkscape:pageopacity="0"
     inkscape:pagecheckerboard="0"
     inkscape:deskcolor="#505050"
     inkscape:zoom="0.070175513"
     inkscape:cx="-4723.87"
     inkscape:cy="2258.6226"
     inkscape:window-width="1920"
     inkscape:window-height="1009"
     inkscape:window-x="1912"
     inkscape:window-y="-8"
     inkscape:window-maximized="1"
     inkscape:current-layer="svg1" />
  <!--!Font Awesome Free 6.6.0 by @fontawesome - https://fontawesome.com License - https://fontawesome.com/license/free Copyright 2024 Fonticons, Inc.-->
  <path
     id="path3"
     d="M 208 0 L 208 192 L 384 192 L 384 160 C 384 71.600088 312.39991 0 224 0 L 208 0 z M 225.04688 23.025391 L 237.37305 23.025391 C 305.47613 23.025391 360.63672 78.185981 360.63672 146.28906 L 360.63672 170.94141 L 225.04688 170.94141 L 225.04688 23.025391 z " />
  <path
     d="m 0,224 v 128 c 0,88.4 71.6,160 160,160 h 64 c 88.4,0 160,-71.6 160,-160 V 224 H 192 Z"
     id="path2" />
  <path
     d="M 0,192 H 176 V 0 H 160 C 71.6,0 0,71.6 0,160 Z"
     id="path1" />
</svg>
