<?xml version="1.0" encoding="UTF-8" standalone="no"?>
<svg
   xmlns:dc="http://purl.org/dc/elements/1.1/"
   xmlns:cc="http://creativecommons.org/ns#"
   xmlns:rdf="http://www.w3.org/1999/02/22-rdf-syntax-ns#"
   xmlns:svg="http://www.w3.org/2000/svg"
   xmlns="http://www.w3.org/2000/svg"
   xmlns:sodipodi="http://sodipodi.sourceforge.net/DTD/sodipodi-0.dtd"
   xmlns:inkscape="http://www.inkscape.org/namespaces/inkscape"
   width="16"
   height="16"
   viewBox="0 0 16 16"
   fill="none"
   version="1.1"
   id="svg14"
   sodipodi:docname="line-abreast.svg"
   inkscape:version="1.0 (4035a4fb49, 2020-05-01)">
   <metadata
      id="metadata20">
      <rdf:RDF>
         <cc:Work
            rdf:about="">
            <dc:format>image/svg+xml</dc:format>
            <dc:type
               rdf:resource="http://purl.org/dc/dcmitype/StillImage" />
            <dc:title></dc:title>
         </cc:Work>
      </rdf:RDF>
   </metadata>
   <defs
      id="defs18" />
   <sodipodi:namedview
      inkscape:document-rotation="0"
      pagecolor="#ffffff"
      bordercolor="#666666"
      borderopacity="1"
      objecttolerance="10"
      gridtolerance="10"
      guidetolerance="10"
      inkscape:pageopacity="0"
      inkscape:pageshadow="2"
      inkscape:window-width="1920"
      inkscape:window-height="1017"
      id="namedview16"
      showgrid="false"
      inkscape:zoom="34.345186"
      inkscape:cx="9.7964424"
      inkscape:cy="8.7196642"
      inkscape:window-x="1912"
      inkscape:window-y="-8"
      inkscape:window-maximized="1"
      inkscape:current-layer="svg14" />
   <path
      inkscape:transform-center-y="-0.37851011"
      inkscape:transform-center-x="-0.37851011"
      d="m 3.8116238,3.5888127 c 0.03507,-0.081921 0.116519,-0.1346844 0.20644,-0.1346844 0.08985,0 0.171299,0.052763 0.206441,0.1346844 l 0.619253,1.428724 c 0.04782,0.1110719 0.07304,0.2290997 0.07304,0.3498999 V 6.4365323 L 6.9391023,7.6028429 V 7.341854 c 0,-0.1846888 0.150282,-0.3332707 0.337016,-0.3332707 0.186803,0 0.337085,0.1485819 0.337085,0.3332707 v 0.7775174 0.4443158 0.3332024 c 0,0.1846885 -0.150282,0.3332711 -0.337085,0.3332711 -0.186734,0 -0.337016,-0.1485826 -0.337016,-0.3332711 V 8.7858449 H 4.9167968 v 0.4539895 l 0.821559,0.7123218 c 0.04913,0.041627 0.07724,0.1027328 0.07724,0.1665678 v 0.222157 c 0,0.122217 -0.101084,0.222157 -0.224701,0.222157 H 4.2426958 V 9.6744078 c 0,-0.1221494 -0.101085,-0.22209 -0.224632,-0.22209 -0.123616,0 -0.2247,0.099941 -0.2247,0.22209 v 0.8886302 h -1.348203 c -0.123616,0 -0.2247,-0.09994 -0.2247,-0.222157 v -0.222157 c 0,-0.06383 0.02804,-0.1249433 0.07717,-0.1665678 L 3.1192628,9.2398344 V 8.7858449 H 1.0969583 v 0.1110447 c 0,0.1846885 -0.15028273,0.3332711 -0.33701623,0.3332711 -0.1868027,0 -0.3370854,-0.1485826 -0.3370854,-0.3332711 V 8.5636872 8.1193714 7.341854 c 0,-0.1846888 0.1502827,-0.3332707 0.3370854,-0.3332707 0.1867335,0 0.33701623,0.1485819 0.33701623,0.3332707 V 7.6028429 L 3.1192628,6.4365323 V 5.3674366 c 0,-0.1208002 0.02529,-0.238828 0.07304,-0.3498999 z"
      fill="#202831"
      id="path2"
      style="fill:#000000;fill-opacity:1;stroke-width:0.685147" />
   <path
      style="fill:#000000;fill-opacity:1;stroke-width:0.685147"
      id="path2-4"
      fill="#202831"
      d="m 11.763569,3.5972246 c 0.03507,-0.081921 0.116519,-0.1346843 0.206441,-0.1346843 0.08985,0 0.171299,0.052763 0.206441,0.1346843 l 0.619252,1.4287241 c 0.04782,0.1110721 0.07304,0.2291001 0.07304,0.3499001 v 1.069096 l 2.022304,1.166311 v -0.26099 c 0,-0.184688 0.150282,-0.33327 0.337016,-0.33327 0.186803,0 0.337085,0.148582 0.337085,0.33327 v 0.777518 0.444316 0.333202 c 0,0.184689 -0.150282,0.333271 -0.337085,0.333271 -0.186734,0 -0.337016,-0.148582 -0.337016,-0.333271 v -0.111044 h -2.022305 v 0.453989 l 0.821559,0.712322 c 0.04913,0.04163 0.07724,0.1027332 0.07724,0.1665672 v 0.222157 c 0,0.122218 -0.101084,0.222158 -0.2247,0.222158 H 12.194638 V 9.6828198 c 0,-0.122149 -0.101084,-0.22209 -0.224631,-0.22209 -0.123616,0 -0.224701,0.09994 -0.224701,0.22209 v 0.8886312 h -1.348202 c -0.123616,0 -0.224701,-0.09994 -0.224701,-0.222158 v -0.222157 c 0,-0.06383 0.02804,-0.124943 0.07717,-0.1665672 l 0.821635,-0.712322 V 8.7942578 H 9.0489044 v 0.111044 c 0,0.184689 -0.150283,0.333271 -0.337016,0.333271 -0.186803,0 -0.337085,-0.148582 -0.337085,-0.333271 v -0.333202 -0.444316 -0.777518 c 0,-0.184688 0.150282,-0.33327 0.337085,-0.33327 0.186733,0 0.337016,0.148582 0.337016,0.33327 v 0.26099 l 2.0223036,-1.166311 v -1.069096 c 0,-0.1208 0.02529,-0.238828 0.07304,-0.3499001 z" />
</svg>