<?xml version="1.0" encoding="UTF-8" standalone="no"?>
<svg
   viewBox="0 0 512 512"
   version="1.1"
   id="svg1156"
   sodipodi:docname="miss-red.svg"
   inkscape:version="1.2.2 (732a01da63, 2022-12-09)"
   xmlns:inkscape="http://www.inkscape.org/namespaces/inkscape"
   xmlns:sodipodi="http://sodipodi.sourceforge.net/DTD/sodipodi-0.dtd"
   xmlns="http://www.w3.org/2000/svg"
   xmlns:svg="http://www.w3.org/2000/svg">
   <defs
      id="defs1160" />
   <sodipodi:namedview
      id="namedview1158"
      pagecolor="#ffffff"
      bordercolor="#666666"
      borderopacity="1.0"
      inkscape:showpageshadow="2"
      inkscape:pageopacity="0.0"
      inkscape:pagecheckerboard="0"
      inkscape:deskcolor="#d1d1d1"
      showgrid="false"
      inkscape:zoom="1.3838301"
      inkscape:cx="310.37048"
      inkscape:cy="217.51226"
      inkscape:window-width="2560"
      inkscape:window-height="1377"
      inkscape:window-x="1912"
      inkscape:window-y="-8"
      inkscape:window-maximized="1"
      inkscape:current-layer="svg1156" />
   <!--!
   Font Awesome Pro 6.4.2 by @fontawesome - https://fontawesome.com License -
   https://fontawesome.com/license (Commercial License) Copyright 2023 Fonticons, Inc. -->
   <path
      d="m 376.91839,231.41639 c -1.31238,-3.09721 -4.35709,-5.09202 -7.71677,-5.09202 -3.35968,0 -6.40439,1.99481 -7.71677,5.09202 l -23.1503,54.01737 c -1.78483,4.1996 -2.72974,8.66167 -2.72974,13.22874 v 40.42116 l -75.59281,44.0958 v -9.86906 c 0,-6.98183 -5.61697,-12.5988 -12.5988,-12.5988 -6.98184,0 -12.59881,5.61697 -12.59881,12.5988 v 29.39721 16.7984 12.5988 c 0,6.98184 5.61697,12.59881 12.59881,12.59881 6.98183,0 12.5988,-5.61697 12.5988,-12.59881 v -4.1996 h 75.59281 v 17.16587 l -30.70958,26.92994 c -1.83732,1.57485 -2.88722,3.88463 -2.88722,6.2994 v 8.3992 c 0,4.61956 3.77964,8.39921 8.3992,8.39921 h 50.39521 v -33.59681 c 0,-4.61956 3.77964,-8.3992 8.3992,-8.3992 4.61956,0 8.3992,3.77964 8.3992,8.3992 v 33.59681 h 50.39521 c 4.61956,0 8.3992,-3.77965 8.3992,-8.39921 v -8.3992 c 0,-2.41477 -1.0499,-4.72455 -2.88722,-6.2994 l -30.70958,-26.92994 v -17.16587 h 75.59281 v 4.1996 c 0,6.98184 5.61697,12.59881 12.5988,12.59881 6.98184,0 12.59881,-5.61697 12.59881,-12.59881 v -12.5988 -16.7984 -29.39721 c 0,-6.98183 -5.61697,-12.5988 -12.59881,-12.5988 -6.98183,0 -12.5988,5.61697 -12.5988,12.5988 v 9.86906 l -75.59281,-44.0958 V 298.6625 c 0,-4.56707 -0.94491,-9.02914 -2.72974,-13.22874 z"
      id="path1154"
      style="fill:#00a7a7;fill-opacity:1;stroke:none;stroke-width:0.52495;stroke-opacity:1" />
   <path
      d="m 184.66044,8.5185895 c 12.17907,0 22.01865,9.8395825 22.01865,22.0186445 v 7.15606 C 271.15243,47.257643 322.07055,98.244571 331.6349,162.6491 h 7.15606 c 12.17906,0 22.01864,9.83958 22.01864,22.01864 0,12.17907 -9.83958,22.01865 -22.01864,22.01865 h -7.15606 c -9.56435,64.47334 -60.55128,115.39146 -124.95581,124.95581 v 7.15606 c 0,12.17906 -9.83958,22.01864 -22.01865,22.01864 -12.17906,0 -22.01864,-9.83958 -22.01864,-22.01864 V 331.6422 C 98.168455,322.07785 47.250339,271.15973 37.68599,206.68639 h -7.156059 c -12.179063,0 -22.0186444,-9.83958 -22.0186444,-22.01865 0,-12.17906 9.8395814,-22.01864 22.0186444,-22.01864 H 37.68599 C 47.250339,98.175761 98.168455,47.257643 162.6418,37.693294 v -7.15606 c 0,-12.179062 9.83958,-22.0186445 22.01864,-22.0186445 z M 82.411363,206.68639 c 8.601033,40.11522 40.184027,71.6294 80.230437,80.23043 v -14.1745 c 0,-12.17906 9.83958,-22.01864 22.01864,-22.01864 12.17907,0 22.01865,9.83958 22.01865,22.01864 v 14.1745 c 40.11522,-8.60103 71.6294,-40.18402 80.23044,-80.23043 h -14.17451 c -12.17906,0 -22.01864,-9.83958 -22.01864,-22.01865 0,-12.17906 9.83958,-22.01864 22.01864,-22.01864 h 14.17451 C 278.30849,122.53388 246.79431,91.019701 206.67909,82.418665 v 14.174506 c 0,12.179059 -9.83958,22.018639 -22.01865,22.018639 -12.17906,0 -22.01864,-9.83958 -22.01864,-22.018639 V 82.418665 C 122.52658,91.019701 91.012396,122.53388 82.411363,162.6491 h 14.174502 c 12.179065,0 22.018645,9.83958 22.018645,22.01864 0,12.17907 -9.83958,22.01865 -22.018645,22.01865 z M 184.66044,162.6491 a 22.018645,22.018645 0 1 1 0,44.03729 22.018645,22.018645 0 1 1 0,-44.03729 z"
      id="path2"
      style="stroke-width:0.688083" />
</svg>