<?xml version="1.0" encoding="UTF-8" standalone="no"?>
<svg
   viewBox="0 0 384 512"
   version="1.1"
   id="svg1"
   sodipodi:docname="mouse-drag.svg"
   inkscape:version="1.3.2 (091e20e, 2023-11-25, custom)"
   xml:space="preserve"
   xmlns:inkscape="http://www.inkscape.org/namespaces/inkscape"
   xmlns:sodipodi="http://sodipodi.sourceforge.net/DTD/sodipodi-0.dtd"
   xmlns="http://www.w3.org/2000/svg"
   xmlns:svg="http://www.w3.org/2000/svg"><defs
     id="defs1" /><sodipodi:namedview
     id="namedview1"
     pagecolor="#505050"
     bordercolor="#eeeeee"
     borderopacity="1"
     inkscape:showpageshadow="0"
     inkscape:pageopacity="0"
     inkscape:pagecheckerboard="0"
     inkscape:deskcolor="#505050"
     inkscape:zoom="0.56140411"
     inkscape:cx="118.453"
     inkscape:cy="284.10907"
     inkscape:window-width="1920"
     inkscape:window-height="1009"
     inkscape:window-x="1912"
     inkscape:window-y="-8"
     inkscape:window-maximized="1"
     inkscape:current-layer="svg1" /><!--!Font Awesome Free 6.6.0 by @fontawesome - https://fontawesome.com License - https://fontawesome.com/license/free Copyright 2024 Fonticons, Inc.--><path
     id="path3"
     d="m 150.06149,157.44158 v 131.54243 h 120.58057 v -21.92374 c 0,-60.56426 -49.05443,-109.61869 -109.61869,-109.61869 z m 11.67911,15.77508 h 8.44488 c 46.65856,0 84.45001,37.79145 84.45001,84.45002 v 16.88974 H 161.7406 Z"
     style="stroke-width:0.685116" /><path
     d="m 7.5571949,310.90775 v 87.69496 c 0,60.56433 49.0543701,109.61869 109.6186951,109.61869 h 43.84748 c 60.56433,0 109.61869,-49.05436 109.61869,-109.61869 V 310.90775 H 139.09963 Z"
     id="path2"
     style="stroke-width:0.685116" /><path
     d="M 7.5571949,288.98401 H 128.13777 V 157.44158 h -10.96188 c -60.564325,0 -109.6186951,49.05436 -109.6186951,109.61869 z"
     id="path1"
     style="stroke-width:0.685116" /><path
     d="m 364.54716,103.32033 c 3.35383,-1.33089 5.58973,-4.525015 5.69619,-8.145035 l 2.12943,-74.52974 c 0.0798,-2.47546 -0.87839,-4.87106 -2.63516,-6.62783 -1.75677,-1.75677 -4.15237,-2.71501 -6.62783,-2.63516 l -74.52975,2.12942 c -3.62001,0.10647 -6.81414,2.34237 -8.14503,5.6962 -1.33089,3.35384 -0.55898,7.16019 1.99633,9.71549 l 19.16479,19.1648 -76.65917,76.659165 c -4.71134,4.71135 -4.71134,12.32403 0,17.03537 l 17.03537,17.03537 c 4.71134,4.71134 12.32402,4.71134 17.03537,0 l 76.65917,-76.659165 19.1648,19.164785 c 2.5553,2.55531 6.36165,3.32722 9.71549,1.99633 z"
     id="path1-5"
     style="stroke-width:0.376432" /></svg>
