<?xml version="1.0" encoding="UTF-8" standalone="no"?>
<svg
   viewBox="0 0 576 512"
   version="1.1"
   id="svg4"
   sodipodi:docname="secondaries.svg"
   inkscape:version="1.1 (c68e22c387, 2021-05-23)"
   xmlns:inkscape="http://www.inkscape.org/namespaces/inkscape"
   xmlns:sodipodi="http://sodipodi.sourceforge.net/DTD/sodipodi-0.dtd"
   xmlns="http://www.w3.org/2000/svg"
   xmlns:svg="http://www.w3.org/2000/svg">
   <defs
      id="defs8" />
   <sodipodi:namedview
      id="namedview6"
      pagecolor="#ffffff"
      bordercolor="#666666"
      borderopacity="1.0"
      inkscape:pageshadow="2"
      inkscape:pageopacity="0.0"
      inkscape:pagecheckerboard="0"
      showgrid="false"
      inkscape:zoom="1.1490485"
      inkscape:cx="228.44988"
      inkscape:cy="281.53728"
      inkscape:window-width="1920"
      inkscape:window-height="1017"
      inkscape:window-x="-8"
      inkscape:window-y="-8"
      inkscape:window-maximized="1"
      inkscape:current-layer="svg4" />
   <!--!
   Font Awesome Pro 6.4.0 by @fontawesome - https://fontawesome.com License -
   https://fontawesome.com/license (Commercial License) Copyright 2023 Fonticons, Inc. -->
   <path
      d="m 64,448 v 0 h 448 v 0 h 32 c 17.7,0 32,14.3 32,32 0,17.7 -14.3,32 -32,32 H 32 C 14.3,512 0,497.7 0,480 0,462.3 14.3,448 32,448 Z"
      id="path2"
      sodipodi:nodetypes="ccccssssssc" />
   <path
      d="m 278.72676,199.54168 c 3.72808,-5.9538 11.40681,-8.06823 17.63883,-4.72965 6.23202,3.33858 8.79159,10.85038 5.89816,17.24933 l -76.28657,169.59989 c 1.22415,1.27979 2.39265,2.61522 3.50551,3.95065 l 54.08501,-30.43672 c 5.84251,-3.28294 13.13175,-1.72494 17.19369,3.56115 4.06194,5.28608 3.50551,12.79789 -1.22415,17.52755 l -48.40942,48.40941 h -39.78475 c -7.34487,-20.75484 -27.09814,-35.61152 -50.35692,-35.61152 -23.25878,0 -43.06769,14.85668 -50.35692,35.61152 H 66.281757 l -42.01048,-29.04565 c -5.39737,-3.72808 -7.28923,-10.90603 -4.39579,-16.85983 2.89343,-5.9538 9.68188,-8.84724 15.96954,-6.89973 l 54.085,16.91547 c 1.66929,-2.17007 3.39422,-4.28451 5.23044,-6.28766 l -34.66559,-57.75744 c -3.39422,-5.61994 -2.17008,-12.85353 2.8378,-17.0824 5.00787,-4.22887 12.35274,-4.17323 17.30497,0.0556 l 56.978443,48.9102 c 0.83464,-0.22257 1.66929,-0.44514 2.50393,-0.61207 l 7.56745,-79.40257 c 0.66772,-6.84409 6.39895,-12.07453 13.29868,-12.07453 6.89973,0 12.63096,5.23044 13.29868,12.07453 l 7.51181,78.95743 z m -117.74061,-6.28766 c 7.40052,0 13.35432,5.9538 13.35432,13.35432 v 26.70865 c 0,7.40052 -5.9538,13.35432 -13.35432,13.35432 -7.40052,0 -13.35432,-5.9538 -13.35432,-13.35432 v -26.70865 c 0,-7.40052 5.9538,-13.35432 13.35432,-13.35432 z"
      id="path850"
      style="stroke-width:0.999999" />
   <path
      d="m 505.67595,141.18773 c 2.83997,-4.53547 8.68946,-6.1462 13.43688,-3.60294 4.74742,2.54326 6.69725,8.26558 4.49309,13.14017 L 465.49246,279.9225 c 0.93253,0.97491 1.82267,1.99221 2.67042,3.00952 l 41.20079,-23.18604 c 4.4507,-2.50087 10.00349,-1.31402 13.09779,2.71281 3.0943,4.02682 2.67042,9.74915 -0.93253,13.35211 l -36.87726,36.87724 h -30.30716 c -5.59516,-15.81059 -20.64278,-27.12809 -38.36082,-27.12809 -17.71803,0 -32.80803,11.3175 -38.36081,27.12809 h -33.78295 l -32.00268,-22.12635 c -4.1116,-2.83997 -5.55278,-8.30798 -3.34862,-12.84345 2.20416,-4.53548 7.37545,-6.73964 12.16526,-5.25607 l 41.20078,12.88584 c 1.27163,-1.65311 2.58565,-3.26385 3.98444,-4.7898 l -26.4075,-43.99838 c -2.58564,-4.28115 -1.65312,-9.79154 2.16177,-13.013 3.81489,-3.22146 9.41006,-3.17908 13.18256,0.0423 l 43.40494,37.25874 c 0.63582,-0.16955 1.27163,-0.3391 1.90744,-0.46626 l 5.76473,-60.48717 c 0.50865,-5.21368 4.87458,-9.19811 10.13064,-9.19811 5.25607,0 9.622,3.98443 10.13065,9.19811 l 5.72234,60.14807 z m -89.69226,-4.7898 c 5.63756,0 10.17304,4.53548 10.17304,10.17303 v 20.34608 c 0,5.63755 -4.53548,10.17303 -10.17304,10.17303 -5.63755,0 -10.17303,-4.53548 -10.17303,-10.17303 v -20.34608 c 0,-5.63755 4.53548,-10.17303 10.17303,-10.17303 z"
      id="path850-7"
      style="stroke-width:1" />
   <path
      d="m 265.48894,18.393218 c 2.4073,-3.844498 7.36562,-5.209832 11.38977,-3.054038 4.02416,2.155794 5.67693,7.006327 3.80858,11.138268 l -49.2599,109.514342 c 0.79046,0.82639 1.54498,1.6887 2.26358,2.55102 l 34.92387,-19.65365 c 3.77263,-2.11987 8.47946,-1.11384 11.10234,2.29951 2.62288,3.41333 2.26358,8.26387 -0.79046,11.31792 L 247.6677,163.7656 h -25.68988 c -4.74274,-13.40185 -17.49786,-22.99514 -32.51656,-22.99514 -15.0187,0 -27.80974,9.59329 -32.51656,22.99514 h -28.63613 l -27.12708,-18.75541 c -3.485195,-2.4073 -4.70681,-7.04226 -2.838453,-10.88676 1.868353,-3.8445 6.251803,-5.71285 10.311883,-4.45531 l 34.92386,10.92269 c 1.07789,-1.40126 2.19172,-2.7666 3.37741,-4.06008 L 124.57186,99.235499 c -2.19172,-3.628918 -1.40127,-8.299804 1.83243,-11.030478 3.23369,-2.730673 7.97643,-2.694745 11.1742,0.0359 l 36.79222,31.582379 c 0.53894,-0.14372 1.07789,-0.28743 1.61684,-0.39522 l 4.88646,-51.271971 c 0.43117,-4.419378 4.13195,-7.796787 8.58725,-7.796787 4.45531,0 8.15609,3.377409 8.58725,7.796787 l 4.85054,50.984531 z m -76.02768,-4.060079 c 4.77868,0 8.62318,3.844499 8.62318,8.623175 v 17.246357 c 0,4.778677 -3.8445,8.623176 -8.62318,8.623176 -4.77868,0 -8.62317,-3.844499 -8.62317,-8.623176 V 22.956314 c 0,-4.778676 3.84449,-8.623175 8.62317,-8.623175 z"
      id="path850-6"
      style="stroke-width:0.999997" />
</svg>