<?xml version="1.0" encoding="UTF-8" standalone="no"?>
<svg
   width="50"
   height="50"
   version="1.1"
   viewBox="0 0 50 50"
   xml:space="preserve"
   id="svg2"
   sodipodi:docname="tactical.svg"
   inkscape:version="1.3.2 (091e20e, 2023-11-25, custom)"
   xmlns:inkscape="http://www.inkscape.org/namespaces/inkscape"
   xmlns:sodipodi="http://sodipodi.sourceforge.net/DTD/sodipodi-0.dtd"
   xmlns="http://www.w3.org/2000/svg"
   xmlns:svg="http://www.w3.org/2000/svg"><defs
     id="defs2" /><sodipodi:namedview
     id="namedview2"
     pagecolor="#ffffff"
     bordercolor="#000000"
     borderopacity="0.25"
     inkscape:showpageshadow="2"
     inkscape:pageopacity="0.0"
     inkscape:pagecheckerboard="0"
     inkscape:deskcolor="#d1d1d1"
     inkscape:zoom="23.46"
     inkscape:cx="25"
     inkscape:cy="25"
     inkscape:window-width="2560"
     inkscape:window-height="1369"
     inkscape:window-x="-8"
     inkscape:window-y="-8"
     inkscape:window-maximized="1"
     inkscape:current-layer="svg2" /><path
     d="m 15.117444,13.661846 -2.135107,6.10289 h 24.034529 l -2.135107,-6.10289 C 34.513654,12.61474 33.523796,11.911194 32.41121,11.911194 H 17.588147 c -1.112547,0 -2.102406,0.703546 -2.470549,1.750652 z m -7.8206864,6.495309 2.8795504,-8.221569 c 1.104391,-3.1495117 4.073851,-5.2599583 7.411724,-5.2599583 h 14.823063 c 3.337641,0 6.307179,2.1106005 7.411724,5.2599583 l 2.879549,8.221569 c 1.897887,0.785301 3.239499,2.65868 3.239499,4.842917 v 15.706776 c 0,1.44795 -1.169833,2.617744 -2.617783,2.617744 h -2.617745 c -1.44795,0 -2.617783,-1.169833 -2.617783,-2.617744 V 36.780346 H 11.910724 v 3.926502 c 0,1.44795 -1.169833,2.617744 -2.6177831,2.617744 H 6.6751962 c -1.4479504,0 -2.6177832,-1.169833 -2.6177832,-2.617744 V 25.000072 c 0,-2.184199 1.3416125,-4.057693 3.2394985,-4.842917 z m 7.2316724,7.460584 a 2.6178601,2.6178601 0 1 0 -5.2357199,0 2.6178601,2.6178601 0 1 0 5.2357199,0 z m 23.560164,2.617783 a 2.6178601,2.6178601 0 1 0 0,-5.23572 2.6178601,2.6178601 0 1 0 0,5.23572 z"
     fill="none"
     stroke="#082e44"
     id="path2"
     style="stroke-width:3.84725" /></svg>
