<?xml version="1.0" encoding="UTF-8" standalone="no"?>
<svg
   width="50"
   height="50"
   version="1.1"
   viewBox="0 0 50 50"
   id="svg2"
   sodipodi:docname="truck.svg"
   inkscape:version="1.3.2 (091e20e, 2023-11-25, custom)"
   xmlns:inkscape="http://www.inkscape.org/namespaces/inkscape"
   xmlns:sodipodi="http://sodipodi.sourceforge.net/DTD/sodipodi-0.dtd"
   xmlns="http://www.w3.org/2000/svg"
   xmlns:svg="http://www.w3.org/2000/svg">
  <defs
     id="defs2" />
  <sodipodi:namedview
     id="namedview2"
     pagecolor="#ffffff"
     bordercolor="#000000"
     borderopacity="0.25"
     inkscape:showpageshadow="2"
     inkscape:pageopacity="0.0"
     inkscape:pagecheckerboard="0"
     inkscape:deskcolor="#d1d1d1"
     inkscape:zoom="23.46"
     inkscape:cx="25"
     inkscape:cy="25"
     inkscape:window-width="2560"
     inkscape:window-height="1369"
     inkscape:window-x="-8"
     inkscape:window-y="-8"
     inkscape:window-maximized="1"
     inkscape:current-layer="svg2" />
  <path
     d="m 6.7874459,7.8589804 c -1.7743426,0 -3.21404,1.4395716 -3.21404,3.2140396 v 21.426094 c 0,1.774343 1.4395716,3.21404 3.21404,3.21404 h 1.0713047 c 0,3.548685 2.8791114,6.427766 6.4277654,6.427766 3.548685,0 6.427765,-2.879112 6.427765,-6.427766 h 8.570564 c 0,3.548685 2.879143,6.427766 6.427765,6.427766 3.548685,0 6.427765,-2.879112 6.427765,-6.427766 h 2.14261 c 1.185128,0 2.142609,-0.957481 2.142609,-2.142609 0,-1.185128 -0.957481,-2.14261 -2.142609,-2.14261 v -7.679853 c 0,-1.138266 -0.448626,-2.229668 -1.252089,-3.033131 l -5.175677,-5.175676 c -0.803462,-0.803463 -1.894865,-1.252089 -3.03313,-1.252089 h -3.394572 v -3.21404 c 0,-1.7743424 -1.439572,-3.2140398 -3.21404,-3.2140398 z M 31.427265,18.572027 h 3.394572 l 5.175677,5.175677 v 1.252089 H 31.426951 Z M 11.072413,35.71284 a 3.2140399,3.2140399 0 1 1 6.427765,0 3.2140399,3.2140399 0 1 1 -6.427765,0 z m 24.63982,-3.21404 a 3.2140399,3.2140399 0 1 1 0,6.427765 3.2140399,3.2140399 0 1 1 0,-6.427765 z"
     fill="none"
     stroke="#082e44"
     id="path2"
     style="stroke-width:3.14516" />
</svg>
