<svg width="17" height="17" viewBox="0 0 17 17" fill="none" xmlns="http://www.w3.org/2000/svg">
<path fill-rule="evenodd" clip-rule="evenodd" d="M8.5356 0.900581C9.69508 -0.282964 11.5945 -0.302474 12.778 0.857004L14.5643 2.607C15.1403 3.17128 15.4649 3.94367 15.4649 4.75C15.4649 4.98835 15.4366 5.22373 15.3817 5.45165C15.8245 5.85549 16.151 6.39558 16.2888 7.02558L16.4103 7.58115L16.4103 7.58116C17.2333 11.3434 14.3009 14.75 10.5685 14.75H8.64315C8.50267 15.0566 8.30769 15.3446 8.05807 15.5994C6.89859 16.783 4.99919 16.8025 3.81565 15.643L2.02933 13.893C1.45334 13.3287 1.12875 12.5563 1.12875 11.75C1.12875 11.5117 1.15711 11.2763 1.21194 11.0484C0.769126 10.6445 0.442675 10.1044 0.30487 9.47436L0.183357 8.91882C0.183355 8.91881 0.183354 8.9188 0.183352 8.9188C-0.639549 5.15664 2.29279 1.75 6.02519 1.75H7.95052C8.09101 1.44337 8.28598 1.15538 8.5356 0.900581ZM7.95052 7.75H7.89958C7.93031 7.77715 7.9606 7.80505 7.99045 7.83367C7.97668 7.80595 7.96338 7.77805 7.95052 7.75ZM8.60322 8.66633C8.61699 8.69406 8.6303 8.72195 8.64315 8.75H8.69409C8.66337 8.72285 8.63307 8.69496 8.60322 8.66633Z" fill="#2F2F2F"/>
<path fill-rule="evenodd" clip-rule="evenodd" d="M10.1426 2.47515C10.4325 2.17926 10.9074 2.17438 11.2032 2.46425L12.9896 4.21425C13.1336 4.35532 13.2147 4.54842 13.2147 4.75C13.2147 4.95158 13.1336 5.14468 12.9896 5.28575L11.2032 7.03575C10.9074 7.32562 10.4325 7.32074 10.1426 7.02486C9.85276 6.72897 9.85764 6.25412 10.1535 5.96425L10.6274 5.5H6.02497C4.5888 5.5 3.55582 6.78851 3.84652 8.11751L3.84652 8.11751L3.96804 8.67308C4.05655 9.07772 3.80027 9.4775 3.39562 9.56601C2.99097 9.65452 2.59119 9.39824 2.50268 8.99359L2.38117 8.43803C2.38117 8.43803 2.38117 8.43803 2.38117 8.43802C1.87759 6.13576 3.6703 4 6.02497 4H10.6274L10.1535 3.53575C9.85764 3.24588 9.85276 2.77103 10.1426 2.47515ZM13.1976 6.93399C13.6022 6.84548 14.002 7.10175 14.0905 7.5064L14.2121 8.06196L13.5077 8.21604L14.2121 8.06196C14.7157 10.3642 12.9229 12.5 10.5683 12.5H5.96582L6.4397 12.9643C6.73559 13.2541 6.74047 13.729 6.4506 14.0249C6.16073 14.3207 5.68588 14.3256 5.38999 14.0357L3.60367 12.2857C3.45967 12.1447 3.37853 11.9516 3.37853 11.75C3.37853 11.5484 3.45967 11.3553 3.60367 11.2143L5.38999 9.46425C5.68588 9.17438 6.16073 9.17926 6.4506 9.47515C6.74047 9.77103 6.73559 10.2459 6.4397 10.5357L5.96582 11H10.5683C12.0044 11 13.0374 9.71149 12.7467 8.38251L12.6252 7.82694C12.5367 7.42229 12.7929 7.02251 13.1976 6.93399Z" fill="white"/>
</svg>
