<?xml version="1.0" encoding="UTF-8" standalone="no"?>
<svg
   viewBox="0 0 19 15"
   version="1.1"
   id="svg4"
   sodipodi:docname="no-task.svg"
   inkscape:version="1.1 (c68e22c387, 2021-05-23)"
   width="19"
   height="15"
   xmlns:inkscape="http://www.inkscape.org/namespaces/inkscape"
   xmlns:sodipodi="http://sodipodi.sourceforge.net/DTD/sodipodi-0.dtd"
   xmlns="http://www.w3.org/2000/svg"
   xmlns:svg="http://www.w3.org/2000/svg">
  <defs
     id="defs8" />
  <sodipodi:namedview
     id="namedview6"
     pagecolor="#ffffff"
     bordercolor="#666666"
     borderopacity="1.0"
     inkscape:pageshadow="2"
     inkscape:pageopacity="0.0"
     inkscape:pagecheckerboard="0"
     showgrid="false"
     inkscape:zoom="18.384776"
     inkscape:cx="5.575265"
     inkscape:cy="6.9350858"
     inkscape:window-width="1920"
     inkscape:window-height="1017"
     inkscape:window-x="-8"
     inkscape:window-y="-8"
     inkscape:window-maximized="1"
     inkscape:current-layer="svg4" />
  <!--! Font Awesome Pro 6.4.0 by @fontawesome - https://fontawesome.com License - https://fontawesome.com/license (Commercial License) Copyright 2023 Fonticons, Inc. -->
  <path
     d="m 9.4628581,2.8509123 c 0.2704795,0 0.5200078,0.14155 0.6571519,0.3736899 l 4.114361,6.9453658 c 0.13905,0.234028 0.13905,0.522789 0.004,0.756817 -0.135238,0.234029 -0.388579,0.379351 -0.660964,0.379351 H 5.3487067 c -0.2723857,0 -0.5257221,-0.145322 -0.6609641,-0.379351 -0.1352419,-0.234028 -0.1333356,-0.524677 0.00402,-0.756817 L 8.8061218,3.2246022 C 8.9432655,2.9924623 9.1927939,2.8509123 9.4632778,2.8509123 Z m 0,2.4157789 c -0.2533409,0 -0.4571502,0.2019433 -0.4571502,0.4529583 v 2.1138038 c 0,0.251015 0.2038093,0.4529582 0.4571502,0.4529582 0.2533365,0 0.4571503,-0.2019432 0.4571503,-0.4529582 V 5.7196495 c 0,-0.251015 -0.2038138,-0.4529583 -0.4571503,-0.4529583 z m 0.6095349,4.2276119 a 0.60953517,0.60394517 0 1 0 -1.21907,0 0.60953517,0.60394517 0 1 0 1.21907,0 z"
     id="path2"
     style="fill:#ff5858;fill-opacity:1;stroke:#262626;stroke-width:2.24801;stroke-miterlimit:4;stroke-dasharray:none;stroke-opacity:1" />
  <rect
     style="fill:#ffffff;fill-opacity:1;stroke:none;stroke-width:1.14086;stroke-linecap:round;stroke-linejoin:round;stroke-miterlimit:4;stroke-dasharray:none;stroke-dashoffset:5.6;stroke-opacity:1;paint-order:stroke fill markers"
     id="rect1282"
     width="2.0395968"
     height="5.7258606"
     x="8.4665051"
     y="4.7092009"
     rx="0.021248572" />
  <path
     d="m 9.4628581,2.8509123 c 0.2704795,0 0.5200078,0.14155 0.6571519,0.3736899 l 4.114361,6.9453658 c 0.13905,0.234028 0.13905,0.522789 0.004,0.756817 -0.135238,0.234029 -0.388579,0.379351 -0.660964,0.379351 H 5.3487067 c -0.2723857,0 -0.5257221,-0.145322 -0.6609641,-0.379351 -0.1352419,-0.234028 -0.1333356,-0.524677 0.00402,-0.756817 L 8.8061218,3.2246022 C 8.9432655,2.9924623 9.1927939,2.8509123 9.4632778,2.8509123 Z m 0,2.4157789 c -0.2533409,0 -0.4571502,0.2019433 -0.4571502,0.4529583 v 2.1138038 c 0,0.251015 0.2038093,0.4529582 0.4571502,0.4529582 0.2533365,0 0.4571503,-0.2019432 0.4571503,-0.4529582 V 5.7196495 c 0,-0.251015 -0.2038138,-0.4529583 -0.4571503,-0.4529583 z m 0.6095349,4.2276119 a 0.60953517,0.60394517 0 1 0 -1.21907,0 0.60953517,0.60394517 0 1 0 1.21907,0 z"
     id="path2-9"
     style="fill:#ff5858;fill-opacity:1;stroke:none;stroke-width:1.14086;stroke-miterlimit:4;stroke-dasharray:none;stroke-opacity:1" />
</svg>
