<svg width="19" height="15" viewBox="0 0 19 15" fill="none" xmlns="http://www.w3.org/2000/svg">
<path d="M8.83594 4.99219L4.52344 8.55469V12.375C4.52344 12.5859 4.6875 12.75 4.89844 12.75H7.52344C7.71094 12.75 7.875 12.5859 7.875 12.375V10.125C7.875 9.9375 8.0625 9.75 8.25 9.75H9.75C9.96094 9.75 10.125 9.9375 10.125 10.125V12.375C10.125 12.5859 10.3125 12.75 10.5 12.75H13.1484C13.3359 12.75 13.5234 12.5859 13.5234 12.375V8.53125L9.1875 4.99219C9.14062 4.94531 9.07031 4.92188 9.02344 4.92188C8.95312 4.92188 8.88281 4.94531 8.83594 4.99219ZM15.6562 7.40625L13.7109 5.78906V2.55469C13.7109 2.39062 13.5703 2.27344 13.4297 2.27344H12.1172C11.9531 2.27344 11.8359 2.39062 11.8359 2.55469V4.24219L9.72656 2.50781C9.53906 2.36719 9.28125 2.27344 9.02344 2.27344C8.74219 2.27344 8.48438 2.36719 8.29688 2.50781L2.36719 7.40625C2.29688 7.45312 2.25 7.54688 2.25 7.61719C2.25 7.6875 2.29688 7.75781 2.32031 7.80469L2.92969 8.53125C2.97656 8.60156 3.04688 8.625 3.14062 8.625C3.21094 8.625 3.28125 8.60156 3.32812 8.55469L8.83594 4.03125C8.88281 3.98438 8.95312 3.96094 9.02344 3.96094C9.07031 3.96094 9.14062 3.98438 9.1875 4.03125L14.6953 8.55469C14.7422 8.60156 14.8125 8.625 14.8828 8.625C14.9766 8.625 15.0469 8.60156 15.0938 8.53125L15.7031 7.80469C15.75 7.75781 15.7734 7.6875 15.7734 7.61719C15.7734 7.54688 15.7266 7.45312 15.6562 7.40625Z" fill="white"/>
<path fill-rule="evenodd" clip-rule="evenodd" d="M13.5234 8.53125V12.375C13.5234 12.5859 13.3359 12.75 13.1484 12.75H10.5C10.3125 12.75 10.125 12.5859 10.125 12.375V10.125C10.125 9.9375 9.96094 9.75 9.75 9.75H8.25C8.0625 9.75 7.875 9.9375 7.875 10.125V12.375C7.875 12.5859 7.71094 12.75 7.52344 12.75H4.89844C4.6875 12.75 4.52344 12.5859 4.52344 12.375V8.55469L8.83594 4.99219C8.88281 4.94531 8.95312 4.92188 9.02344 4.92188C9.07031 4.92188 9.14062 4.94531 9.1875 4.99219L13.5234 8.53125ZM14.6953 8.55469C14.6964 8.55582 14.6976 8.55693 14.6987 8.55803C14.737 8.5945 14.7898 8.61608 14.8452 8.62275C14.8577 8.62425 14.8702 8.625 14.8828 8.625C14.9766 8.625 15.0469 8.60156 15.0938 8.53125L15.7031 7.80469C15.75 7.75781 15.7734 7.6875 15.7734 7.61719C15.7734 7.58321 15.7625 7.54375 15.7432 7.50676C15.7227 7.46721 15.6926 7.43047 15.6562 7.40625L13.7109 5.78906V2.55469C13.7109 2.39062 13.5703 2.27344 13.4297 2.27344H12.1172C11.9531 2.27344 11.8359 2.39062 11.8359 2.55469V4.24219L9.72656 2.50781C9.68416 2.47601 9.63816 2.44661 9.58938 2.42014C9.42246 2.32958 9.22295 2.27344 9.02344 2.27344C8.74219 2.27344 8.48438 2.36719 8.29688 2.50781L2.36719 7.40625C2.34189 7.42312 2.31962 7.44605 2.30148 7.47178C2.29357 7.483 2.28645 7.49475 2.2802 7.50676C2.27782 7.51134 2.27556 7.51595 2.27344 7.52059C2.25841 7.55343 2.25 7.58741 2.25 7.61719C2.25 7.64997 2.26019 7.68274 2.27344 7.71315C2.28332 7.73582 2.29491 7.75718 2.30524 7.77623C2.31078 7.78642 2.31595 7.79596 2.32031 7.80469L2.92969 8.53125C2.93534 8.53973 2.94134 8.54753 2.94767 8.55469C2.99386 8.60688 3.05818 8.625 3.14062 8.625C3.15319 8.625 3.16576 8.62425 3.17819 8.62275C3.23202 8.61627 3.28333 8.59576 3.32129 8.56121C3.32362 8.55909 3.3259 8.55692 3.32812 8.55469L8.83594 4.03125C8.88281 3.98438 8.95312 3.96094 9.02344 3.96094C9.07031 3.96094 9.14062 3.98438 9.1875 4.03125L14.6953 8.55469ZM2.27344 10.7274C1.89755 10.5959 1.49315 10.355 1.16162 9.92451L0.426251 9.04772L0.32017 8.83555C0.319597 8.83449 0.319 8.83338 0.318378 8.83223C0.304066 8.80565 0.267288 8.73712 0.228043 8.65078C0.161627 8.50467 0 8.12434 0 7.61719C0 7.12558 0.148836 6.71911 0.301167 6.4362C0.439348 6.17958 0.654902 5.88605 0.975475 5.63749L6.90462 0.739506L6.94688 0.707813C7.52384 0.275088 8.25535 0.0234375 9.02344 0.0234375C9.62455 0.0234375 10.201 0.186404 10.691 0.458244C11.0961 0.183444 11.5866 0.0234375 12.1172 0.0234375H13.4297C14.6901 0.0234375 15.9609 1.02855 15.9609 2.55469V4.73359L17.0522 5.64079C17.3704 5.88864 17.5847 6.18072 17.7223 6.4362C17.8746 6.71911 18.0234 7.12558 18.0234 7.61719C18.0234 8.10158 17.8785 8.74439 17.3959 9.28773L16.8618 9.92451C16.5372 10.3461 16.1426 10.5858 15.7734 10.719V12.375C15.7734 13.9179 14.4874 15 13.1484 15H10.5C9.9703 15 9.44888 14.8306 9.01208 14.5304C8.60011 14.823 8.09287 15 7.52344 15H4.89844C3.44486 15 2.27344 13.8286 2.27344 12.375V10.7274Z" fill="#262222"/>
</svg>
