<?xml version="1.0" encoding="UTF-8" standalone="no"?>
<svg
   id="svg6"
   version="1.1"
   fill="none"
   viewBox="0 0 12.952619 10.362093"
   height="10.362093"
   width="12.952619"
   xmlns="http://www.w3.org/2000/svg"
   xmlns:svg="http://www.w3.org/2000/svg"
   xmlns:rdf="http://www.w3.org/1999/02/22-rdf-syntax-ns#"
   xmlns:cc="http://creativecommons.org/ns#"
   xmlns:dc="http://purl.org/dc/elements/1.1/">
   <metadata
      id="metadata10">
      <rdf:RDF>
         <cc:Work
            rdf:about="">
            <dc:format>image/svg+xml</dc:format>
            <dc:type
               rdf:resource="http://purl.org/dc/dcmitype/StillImage" />
         </cc:Work>
      </rdf:RDF>
   </metadata>
   <defs
      id="defs10" />
   <path
      stroke-width="0"
      fill="black"
      id="path3711"
      d="m 6.4763089,0 c 0.358221,0 0.6476303,0.2894099 0.6476303,0.6476303 v 1.2952618 h 2.428616 c 0.8054918,0 1.4571708,0.6516785 1.4571708,1.4571695 v 5.5048619 c 0,0.805491 -0.651679,1.4571685 -1.4571708,1.4571685 H 3.4000627 c -0.8054909,0 -1.4571694,-0.6516775 -1.4571694,-1.4571685 V 3.4000616 c 0,-0.805491 0.6516785,-1.4571695 1.4571694,-1.4571695 H 5.8286776 V 0.6476303 C 5.8286776,0.2894099 6.1180887,0 6.4763089,0 Z M 4.2096006,7.7715699 c -0.1780979,0 -0.3238152,0.145716 -0.3238152,0.3238146 0,0.178099 0.1457173,0.323817 0.3238152,0.323817 h 0.6476303 c 0.1780991,0 0.3238164,-0.145718 0.3238164,-0.323817 0,-0.1780986 -0.1457173,-0.3238146 -0.3238164,-0.3238146 z m 1.9428933,0 c -0.178099,0 -0.3238163,0.145716 -0.3238163,0.3238146 0,0.178099 0.1457173,0.323817 0.3238163,0.323817 h 0.64763 c 0.178099,0 0.3238153,-0.145718 0.3238153,-0.323817 0,-0.1780986 -0.1457163,-0.3238146 -0.3238153,-0.3238146 z m 1.9428923,0 c -0.178098,0 -0.323815,0.145716 -0.323815,0.3238146 0,0.178099 0.145717,0.323817 0.323815,0.323817 h 0.647631 c 0.178098,0 0.323816,-0.145718 0.323816,-0.323817 0,-0.1780986 -0.145718,-0.3238146 -0.323816,-0.3238146 z M 5.3429549,5.1810458 a 0.8095391,0.8095391 0 1 0 -1.6190782,0 0.8095391,0.8095391 0 1 0 1.6190782,0 z m 3.0762473,0.809538 a 0.80953865,0.80953865 0 1 0 0,-1.6190771 0.80953865,0.80953865 0 1 0 0,1.6190771 z M 0.9714467,4.5334156 h 0.323815 V 8.4192015 H 0.9714467 C 0.4351272,8.4192015 0,7.9840739 0,7.4477529 V 5.504861 C 0,4.9685428 0.4351272,4.5334156 0.9714467,4.5334156 Z m 11.0097253,0 c 0.536319,0 0.971446,0.4351272 0.971446,0.9714454 v 1.9428919 c 0,0.536321 -0.435127,0.9714486 -0.971446,0.9714486 H 11.657355 V 4.5334156 Z" />
</svg>