<?xml version="1.0" encoding="UTF-8" standalone="no"?>
<svg
   inkscape:version="1.3.2 (091e20e, 2023-11-25, custom)"
   sodipodi:docname="human.svg"
   id="svg6"
   version="1.1"
   fill="none"
   viewBox="0 0 12.14064 10.677204"
   height="10.677204"
   width="12.14064"
   xmlns:inkscape="http://www.inkscape.org/namespaces/inkscape"
   xmlns:sodipodi="http://sodipodi.sourceforge.net/DTD/sodipodi-0.dtd"
   xmlns="http://www.w3.org/2000/svg"
   xmlns:svg="http://www.w3.org/2000/svg"
   xmlns:rdf="http://www.w3.org/1999/02/22-rdf-syntax-ns#"
   xmlns:cc="http://creativecommons.org/ns#"
   xmlns:dc="http://purl.org/dc/elements/1.1/">
  <metadata
     id="metadata8">
    <rdf:RDF>
      <cc:Work
         rdf:about="">
        <dc:format>image/svg+xml</dc:format>
        <dc:type
           rdf:resource="http://purl.org/dc/dcmitype/StillImage" />
        <dc:title />
      </cc:Work>
    </rdf:RDF>
  </metadata>
  <defs
     id="defs10" />
  <sodipodi:namedview
     fit-margin-bottom="0"
     fit-margin-right="0"
     fit-margin-left="0"
     fit-margin-top="0"
     inkscape:document-rotation="0"
     inkscape:current-layer="svg6"
     inkscape:window-maximized="1"
     inkscape:window-y="-8"
     inkscape:window-x="1912"
     inkscape:window-height="1009"
     inkscape:window-width="1920"
     inkscape:cy="6.71199"
     inkscape:cx="5.7558661"
     inkscape:zoom="78.441714"
     showgrid="false"
     inkscape:pagecheckerboard="0"
     inkscape:pageopacity="0.0"
     inkscape:pageshadow="2"
     borderopacity="1.0"
     bordercolor="#666666"
     pagecolor="#ffffff"
     id="namedview8"
     inkscape:showpageshadow="0"
     inkscape:deskcolor="#505050" />
  <path
     fill="black"
     id="path916"
     stroke-width="0"
     d="m 5.9808108,5.7908995 c 1.6415273,0 2.9733343,-1.2969197 2.9733343,-2.8954494 C 8.9541451,1.2969203 7.6223381,0 5.9808108,0 4.3392825,0 3.0074758,1.2969203 3.0074758,2.8954501 c 0,1.5985297 1.3318067,2.8954494 2.973335,2.8954494 z M 8.6237741,6.4343342 H 7.4860601 C 7.0276691,6.6394281 6.5176619,6.7560505 5.9808108,6.7560505 5.4439597,6.7560505 4.9360143,6.6394281 4.475561,6.4343342 H 3.3378464 c -1.4598251,0 -2.64296517,1.152148 -2.64296517,2.5737386 v 0.321716 c 0,0.532843 0.44393577,0.9651492 0.99111197,0.9651492 h 8.5896338 c 0.547177,0 0.991112,-0.4323062 0.991112,-0.9651492 v -0.321716 c 0,-1.4215906 -1.18314,-2.5737386 -2.6429649,-2.5737386 z" />
</svg>
