<?xml version="1.0" encoding="UTF-8" standalone="no"?>
<svg
   width="23.317165"
   height="17.896727"
   viewBox="0 0 23.317165 17.896727"
   fill="none"
   version="1.1"
   id="svg12"
   sodipodi:docname="evade.svg"
   inkscape:version="1.1 (c68e22c387, 2021-05-23)"
   xmlns:inkscape="http://www.inkscape.org/namespaces/inkscape"
   xmlns:sodipodi="http://sodipodi.sourceforge.net/DTD/sodipodi-0.dtd"
   xmlns="http://www.w3.org/2000/svg"
   xmlns:svg="http://www.w3.org/2000/svg">
  <defs
     id="defs16" />
  <sodipodi:namedview
     id="namedview14"
     pagecolor="#ffffff"
     bordercolor="#666666"
     borderopacity="1.0"
     inkscape:pageshadow="2"
     inkscape:pageopacity="0.0"
     inkscape:pagecheckerboard="0"
     showgrid="false"
     fit-margin-top="0"
     fit-margin-left="0"
     fit-margin-right="0"
     fit-margin-bottom="0"
     inkscape:zoom="23.771429"
     inkscape:cx="11.757812"
     inkscape:cy="9.4020433"
     inkscape:window-width="1920"
     inkscape:window-height="1017"
     inkscape:window-x="-8"
     inkscape:window-y="-8"
     inkscape:window-maximized="1"
     inkscape:current-layer="svg12" />
  <path class="foreground"
     d="m 0.02182384,14.515426 c -0.0453,0.1119 -0.01864,0.2398 0.06662,0.325 0.08526,0.0853 0.21314,0.1119 0.32505,0.0666 l 1.95830996,-0.7833 c 0.15188,-0.0613 0.2891,-0.1505 0.405,-0.2664 l 1.02578,-1.0258 3.03735,0.7993 -0.2504,0.2504 c -0.1772,0.1772 -0.1772,0.4623 0,0.6395 0.1772,0.1772 0.4623,0.1772 0.6394,0 l 0.7461,-0.746 0.4263,-0.4263 0.3197,-0.3198 c 0.1772,-0.1771 0.1772,-0.4622 0,-0.6394 -0.1772,-0.1772 -0.4623,-0.1772 -0.6395,0 l -0.1065,0.1066 -1.9184,-1.9184 0.4356,-0.4356 1.4628,0.0959 c 0.0866,0.0066 0.1718,-0.0253 0.2331,-0.0866 l 0.2132,-0.2130999 c 0.1172,-0.1173 0.1172,-0.3091 0,-0.4263 l -1.2789,-1.2789 -0.8526,0.8526 c -0.1173,0.1172 -0.3091,0.1172 -0.4263,0 -0.1173,-0.1173 -0.1173,-0.3091 0,-0.4263 l 0.8526,-0.8526 -1.2789,-1.2789 c -0.1173,-0.1173 -0.3091,-0.1173 -0.4263,0 l -0.2132,0.2131 c -0.0613,0.0613 -0.0933,0.1465 -0.0866,0.2331 l 0.0959,1.4628 -0.4356,0.4356 -1.91834,-1.9183 0.10657,-0.1066 c 0.17717,-0.1772 0.17717,-0.4623 0,-0.6395 -0.17717,-0.1771 -0.46228,-0.1771 -0.63945,0 l -0.31972,0.3198 -0.4263,0.4263 -0.74602996,0.746 c -0.17717,0.1772 -0.17717,0.4623 0,0.6394 0.17717,0.1772 0.46228,0.1772 0.63944996,0 l 0.25041,-0.2504 0.79936,3.0373999 -1.02578,1.0258 c -0.11590996,0.1159 -0.20516996,0.2531 -0.26644996,0.405 z"
     fill="#5ca7ff"
     id="path2" />
  <path class="foreground"
     d="m 9.0916338,5.3111261 c 2.5638002,-2.3307 8.3905002,-6.43275 11.1873002,-4.19528 3.4961,2.79688 4.1953,9.0895799 -2.7968,16.7808799"
     stroke="#5ca7ff"
     stroke-linecap="round"
     stroke-dasharray="2, 2"
     id="path4" />
  <path class="foreground"
     d="m 14.783034,12.805026 -0.1001,0.8985 0.9106,-0.2539 0.0806,0.6152 -0.8301,0.0586 0.5444,0.7251 -0.5542,0.2954 -0.3808,-0.7642 -0.3345,0.7593 -0.5762,-0.2905 0.5396,-0.7251 -0.8252,-0.0635 0.0952,-0.6103 0.8911,0.2539 -0.1001,-0.8985 z"
     fill="#5ca7ff"
     id="path6" />
  <path class="foreground"
     d="m 13.384534,7.2113261 -0.1001,0.8984 0.9107,-0.2539 0.0805,0.6152 -0.83,0.0586 0.5444,0.7251 -0.5542,0.2954 -0.3809,-0.7641 -0.3344,0.7593 -0.5762,-0.2906 0.5395,-0.7251 -0.8252,-0.0634 0.0953,-0.6104 0.8911,0.2539 -0.1001,-0.8984 z"
     fill="#5ca7ff"
     id="path8" />
  <path class="foreground"
     d="m 18.977834,7.2113261 -0.1001,0.8984 0.9106,-0.2539 0.0806,0.6152 -0.8301,0.0586 0.5445,0.7251 -0.5542,0.2954 -0.3809,-0.7641 -0.3345,0.7593 -0.5761,-0.2906 0.5395,-0.7251 -0.8252,-0.0634 0.0952,-0.6104 0.8911,0.2539 -0.1001,-0.8984 z"
     fill="#5ca7ff"
     id="path10" />
</svg>
