<?xml version="1.0" encoding="UTF-8" standalone="no"?>
<svg
   width="9.3896503"
   height="9.3896503"
   viewBox="0 0 9.3896503 9.3896503"
   fill="none"
   version="1.1"
   id="svg4"
   sodipodi:docname="none.svg"
   inkscape:version="1.1 (c68e22c387, 2021-05-23)"
   xmlns:inkscape="http://www.inkscape.org/namespaces/inkscape"
   xmlns:sodipodi="http://sodipodi.sourceforge.net/DTD/sodipodi-0.dtd"
   xmlns="http://www.w3.org/2000/svg"
   xmlns:svg="http://www.w3.org/2000/svg">
  <defs
     id="defs8" />
  <sodipodi:namedview
     id="namedview6"
     pagecolor="#ffffff"
     bordercolor="#666666"
     borderopacity="1.0"
     inkscape:pageshadow="2"
     inkscape:pageopacity="0.0"
     inkscape:pagecheckerboard="0"
     showgrid="false"
     fit-margin-top="0"
     fit-margin-left="0"
     fit-margin-right="0"
     fit-margin-bottom="0"
     inkscape:zoom="23.771429"
     inkscape:cx="4.984976"
     inkscape:cy="4.311899"
     inkscape:window-width="1920"
     inkscape:window-height="1017"
     inkscape:window-x="-8"
     inkscape:window-y="-8"
     inkscape:window-maximized="1"
     inkscape:current-layer="svg4" />
  <path 
     d="m 9.103975,1.603975 c 0.3809,-0.3515 0.3809,-0.9668 0,-1.3183 -0.3515,-0.3809 -0.9668,-0.3809 -1.3183,0 l -3.0762,3.0761 -3.1055,-3.0761 c -0.3515,-0.3809 -0.9668,-0.3809 -1.3183,0 -0.3809,0.3515 -0.3809,0.9668 0,1.3183 l 3.0761,3.0762 -3.0761,3.1055 c -0.3809,0.3515 -0.3809,0.9668 0,1.3183 0.3515,0.3809 0.9668,0.3809 1.3183,0 l 3.1055,-3.0761 3.0762,3.0761 c 0.3515,0.3809 0.9668,0.3809 1.3183,0 0.3809,-0.3515 0.3809,-0.9668 0,-1.3183 l -3.0761,-3.1055 z"
     fill="#5ca7ff"
     id="path2" />
</svg>
