<?xml version="1.0" encoding="UTF-8" standalone="no"?>
<svg
   xmlns:dc="http://purl.org/dc/elements/1.1/"
   xmlns:cc="http://creativecommons.org/ns#"
   xmlns:rdf="http://www.w3.org/1999/02/22-rdf-syntax-ns#"
   xmlns:svg="http://www.w3.org/2000/svg"
   xmlns="http://www.w3.org/2000/svg"
   xmlns:sodipodi="http://sodipodi.sourceforge.net/DTD/sodipodi-0.dtd"
   xmlns:inkscape="http://www.inkscape.org/namespaces/inkscape"
   inkscape:version="1.0 (4035a4fb49, 2020-05-01)"
   sodipodi:docname="altitude.svg"
   id="svg4"
   version="1.1"
   viewBox="0 0 640 512">
   <metadata
      id="metadata10">
      <rdf:RDF>
         <cc:Work
            rdf:about="">
            <dc:format>image/svg+xml</dc:format>
            <dc:type
               rdf:resource="http://purl.org/dc/dcmitype/StillImage" />
         </cc:Work>
      </rdf:RDF>
   </metadata>
   <defs
      id="defs8" />
   <sodipodi:namedview
      inkscape:current-layer="svg4"
      inkscape:window-maximized="1"
      inkscape:window-y="-8"
      inkscape:window-x="-8"
      inkscape:cy="268.97402"
      inkscape:cx="234.71843"
      inkscape:zoom="0.81953125"
      showgrid="false"
      id="namedview6"
      inkscape:window-height="1017"
      inkscape:window-width="1920"
      inkscape:pageshadow="2"
      inkscape:pageopacity="0"
      guidetolerance="10"
      gridtolerance="10"
      objecttolerance="10"
      borderopacity="1"
      bordercolor="#666666"
      pagecolor="#ffffff" />
   <!-- Font Awesome Pro 5.15.4 by @fontawesome - https://fontawesome.com License -
   https://fontawesome.com/license (Commercial License) -->
   <path
      style="stroke-width:0.671054"
      id="path837"
      d="m 132.70945,183.88092 c 1.69844,5.99526 5.81278,10.98349 11.34732,13.76423 l 78.2866,39.30502 a 44.034591,44.034591 0 0 0 19.91285,4.68197 l 218.9503,-0.63901 c 20.12229,-0.0591 40.33567,-4.43039 57.76997,-14.71021 19.57187,-11.5398 26.98708,-23.29049 27.05015,-34.19915 0.0781,-10.90862 -7.19705,-22.61379 -26.62131,-34.03766 -17.30329,-10.17501 -37.46953,-14.4286 -57.5888,-14.37553 L 387.68668,143.88712 281.39609,28.67846 a 11.944098,11.944098 0 0 0 -10.45221,-6.09982 l -49.47892,0.14718 c -8.02791,0.0207 -13.87346,7.77572 -11.71221,15.53701 l 64.00366,105.95731 -77.66813,0.22982 -32.34806,-43.70043 a 11.947453,11.947453 0 0 0 -9.63675,-4.8399 l -30.19994,0.0916 c -7.85685,0.0242 -13.67748,7.47621 -11.81606,15.14656 z" />
   <path
      id="path2"
      d="M 624,448 H 16 c -8.84,0 -16,7.16 -16,16 v 32 c 0,8.84 7.16,16 16,16 h 608 c 8.84,0 16,-7.16 16,-16 v -32 c 0,-8.84 -7.16,-16 -16,-16 z" />
</svg>