<?xml version="1.0" encoding="UTF-8" standalone="no"?>
<svg
   width="16"
   height="16"
   viewBox="0 0 16 16"
   fill="none"
   version="1.1"
   id="svg7234"
   sodipodi:docname="land-at-point.svg"
   inkscape:version="1.1 (c68e22c387, 2021-05-23)"
   xmlns:inkscape="http://www.inkscape.org/namespaces/inkscape"
   xmlns:sodipodi="http://sodipodi.sourceforge.net/DTD/sodipodi-0.dtd"
   xmlns="http://www.w3.org/2000/svg"
   xmlns:svg="http://www.w3.org/2000/svg"
   xmlns:rdf="http://www.w3.org/1999/02/22-rdf-syntax-ns#"
   xmlns:cc="http://creativecommons.org/ns#"
   xmlns:dc="http://purl.org/dc/elements/1.1/">
  <metadata
     id="metadata6">
    <rdf:RDF>
      <cc:Work
         rdf:about="">
        <dc:format>image/svg+xml</dc:format>
        <dc:type
           rdf:resource="http://purl.org/dc/dcmitype/StillImage" />
      </cc:Work>
    </rdf:RDF>
  </metadata>
  <defs
     id="defs7238" />
  <sodipodi:namedview
     id="namedview7236"
     pagecolor="#ffffff"
     bordercolor="#666666"
     borderopacity="1.0"
     inkscape:showpageshadow="2"
     inkscape:pageopacity="0.0"
     inkscape:pagecheckerboard="0"
     inkscape:deskcolor="#d1d1d1"
     showgrid="false"
     inkscape:zoom="18.495262"
     inkscape:cx="12.030108"
     inkscape:cy="17.220627"
     inkscape:window-width="1920"
     inkscape:window-height="1017"
     inkscape:window-x="-8"
     inkscape:window-y="-8"
     inkscape:window-maximized="1"
     inkscape:current-layer="svg7234"
     inkscape:pageshadow="2"
     width="512px" />
  <path
     inkscape:connector-curvature="0"
     d="m 3.4418938,1.8579231 c 0,-0.4470615 0.3331285,-0.8082476 0.7454662,-0.8082476 h 8.945519 c 0.412333,0 0.745462,0.3611861 0.745462,0.8082476 0,0.4470624 -0.333129,0.8082443 -0.745462,0.8082443 H 9.4055765 v 1.616493 h 0.7454615 c 2.059333,0 3.727303,1.80845 3.727303,4.04123 v 1.616491 c 0,0.4470596 -0.333129,0.8082466 -0.745462,0.8082466 H 9.4055765 7.9146585 c -0.468246,0 -0.910858,-0.239949 -1.192738,-0.646596 L 5.0586105,7.6974974 C 4.9770785,7.5787864 4.865263,7.4878614 4.7394601,7.4322944 L 1.5596118,6.0532234 C 1.3382988,5.9572434 1.1705709,5.7501304 1.1123358,5.4975524 L 0.57653646,3.1687964 c -0.0605718,-0.255102 0.1188069,-0.502629 0.36108,-0.502629 H 1.5782493 c 0.2352817,0 0.45659,0.118712 0.5963664,0.323301 l 0.894552,1.293192 H 7.9146585 V 2.6661674 H 4.18736 c -0.4123377,0 -0.7454662,-0.3611819 -0.7454662,-0.8082443 z m 5.9636827,7.2742113 h 2.9818415 v -0.808244 c 0,-1.338658 -1.001708,-2.424737 -2.23638,-2.424737 H 9.4055765 Z m 5.7447015,2.6621596 c 0.291199,0.315723 0.291199,0.828456 0,1.144173 l -0.09085,0.09851 c -0.559097,0.606184 -1.318536,0.947164 -2.108255,0.947164 H 6.4237353 c -0.4123284,0 -0.7454616,-0.361187 -0.7454616,-0.808246 0,-0.447061 0.3331332,-0.808248 0.7454616,-0.808248 h 6.5274377 c 0.396023,0 0.775745,-0.169226 1.055293,-0.472318 l 0.09085,-0.09851 c 0.291199,-0.31572 0.764099,-0.31572 1.055293,0 z"
     id="path1174-3"
     style="fill:#202831;fill-opacity:1;stroke-width:0.0290252" />
  <path
     style="fill:none;stroke:#000000;stroke-width:1.07268px;stroke-linecap:round;stroke-linejoin:miter;stroke-opacity:1"
     d="M 0.90212206,15.260973 H 15.104269"
     id="path855" />
</svg>
