<?xml version="1.0" encoding="UTF-8" standalone="no"?>
<svg
   width="35"
   height="35"
   viewBox="0 0 35 35"
   fill="none"
   version="1.1"
   id="svg4"
   sodipodi:docname="pin.svg"
   inkscape:version="1.2.2 (732a01da63, 2022-12-09)"
   xmlns:inkscape="http://www.inkscape.org/namespaces/inkscape"
   xmlns:sodipodi="http://sodipodi.sourceforge.net/DTD/sodipodi-0.dtd"
   xmlns="http://www.w3.org/2000/svg"
   xmlns:svg="http://www.w3.org/2000/svg">
   <defs
      id="defs8" />
   <sodipodi:namedview
      id="namedview6"
      pagecolor="#ffffff"
      bordercolor="#666666"
      borderopacity="1.0"
      inkscape:showpageshadow="2"
      inkscape:pageopacity="0.0"
      inkscape:pagecheckerboard="0"
      inkscape:deskcolor="#d1d1d1"
      showgrid="false"
      inkscape:zoom="23.914286"
      inkscape:cx="19.967145"
      inkscape:cy="20.573477"
      inkscape:window-width="1920"
      inkscape:window-height="1017"
      inkscape:window-x="1912"
      inkscape:window-y="-8"
      inkscape:window-maximized="1"
      inkscape:current-layer="svg4" />
   <path
      d="m 26.00224,11.876792 c 0,4.375 -3.5547,7.875001 -7.875,7.875001 -4.375,0 -7.875,-3.500001 -7.875,-7.875001 0,-4.32031 3.5,-7.875 7.875,-7.875 4.3203,0 7.875,3.55469 7.875,7.875 z m -9.625,18.375001 v -8.8594 c 0.5469,0.0547 1.1484,0.1094 1.75,0.1094 0.5469,0 1.1484,-0.0547 1.75,-0.1094 v 8.8594 c 0,0.9844 -0.8203,1.75 -1.75,1.75 -0.9844,0 -1.75,-0.7656 -1.75,-1.75 z"
      fill="#247BE2"
      id="path2-3"
      style="fill:#ffffff;fill-opacity:1;stroke:#ffffff;stroke-opacity:1;stroke-width:4;stroke-dasharray:none"
      sodipodi:nodetypes="sssssscscsss" />
   <path
      d="M26 11.875C26 16.25 22.4453 19.75 18.125 19.75C13.75 19.75 10.25 16.25 10.25 11.875C10.25 7.55469 13.75 4 18.125 4C22.4453 4 26 7.55469 26 11.875ZM18.125 8.375C18.5625 8.375 19 7.99219 19 7.5C19 7.0625 18.5625 6.625 18.125 6.625C15.2266 6.625 12.875 8.97656 12.875 11.875C12.875 12.3672 13.2578 12.75 13.75 12.75C14.1875 12.75 14.625 12.3672 14.625 11.875C14.625 9.96094 16.1562 8.375 18.125 8.375ZM16.375 30.25V21.3906C16.9219 21.4453 17.5234 21.5 18.125 21.5C18.6719 21.5 19.2734 21.4453 19.875 21.3906V30.25C19.875 31.2344 19.0547 32 18.125 32C17.1406 32 16.375 31.2344 16.375 30.25Z"
      fill="#247BE2"
      id="path2" />
</svg>