<?xml version="1.0" encoding="UTF-8" standalone="no"?>
<svg
  viewBox="0 0 16 16"
  version="1.1"
  id="svg1"
  sodipodi:docname="linked.svg"
  xml:space="preserve"
  inkscape:version="1.3.2 (091e20e, 2023-11-25, custom)"
  width="16"
  height="16"
  xmlns:inkscape="http://www.inkscape.org/namespaces/inkscape"
  xmlns:sodipodi="http://sodipodi.sourceforge.net/DTD/sodipodi-0.dtd"
  xmlns="http://www.w3.org/2000/svg"
  xmlns:svg="http://www.w3.org/2000/svg"><defs
     id="defs1" /><sodipodi:namedview
     id="namedview1"
     pagecolor="#505050"
     bordercolor="#eeeeee"
     borderopacity="1"
     inkscape:showpageshadow="0"
     inkscape:pageopacity="0"
     inkscape:pagecheckerboard="0"
     inkscape:deskcolor="#505050"
     inkscape:zoom="12.703125"
     inkscape:cx="15.940959"
     inkscape:cy="19.01107"
     inkscape:window-width="1920"
     inkscape:window-height="1009"
     inkscape:window-x="1912"
     inkscape:window-y="-8"
     inkscape:window-maximized="1"
     inkscape:current-layer="svg1" /><!--!Font
  Awesome Free 6.5.1 by @fontawesome - https://fontawesome.com License -
  https://fontawesome.com/license/free Copyright 2024 Fonticons, Inc.--><path
     d="m 14.718784,8.2555996 c 1.471866,-1.4718688 1.471866,-3.8555134 0,-5.3273791 C 13.416246,1.6256822 11.363445,1.4563517 9.8655269,2.5270381 l -0.041681,0.028645 C 9.4487143,2.8240079 9.3627479,3.3450208 9.63107,3.7175489 c 0.2683236,0.372525 0.789337,0.4610992 1.161864,0.1927748 l 0.04169,-0.028645 c 0.83623,-0.5965628 1.97986,-0.5027818 2.70407,0.2240338 0.820598,0.8205996 0.820598,2.1491875 0,2.9697871 l -2.922893,2.9281044 c -0.8206004,0.8206 -2.1491882,0.8206 -2.969788,0 C 6.9191889,9.2767887 6.8254045,8.1331608 7.4219671,7.2995366 l 0.028647,-0.041682 C 7.7189395,6.8827242 7.630369,6.3617082 7.2578404,6.0959918 6.8853158,5.8302724 6.3616949,5.9162417 6.0959777,6.2887668 l -0.028647,0.041682 C 4.9940392,7.8257624 5.1633693,9.8785611 6.4659076,11.1811 c 1.4718694,1.471869 3.8555134,1.471869 5.3273794,0 z M 1.1828078,7.6460126 c -1.47186608,1.4718659 -1.47186608,3.8555104 0,5.3273784 1.3025385,1.302539 3.3553399,1.471869 4.8532579,0.401182 l 0.041681,-0.02865 C 6.4528799,13.077605 6.5388455,12.556589 6.2705243,12.184063 6.0021998,11.811539 5.481187,11.722964 5.1086592,11.991289 l -0.041681,0.02865 c -0.8362262,0.596562 -1.9798574,0.502778 -2.7040679,-0.224038 -0.8205997,-0.823205 -0.8205997,-2.1517921 0,-2.9723919 L 5.2858059,5.8980077 c 0.8205997,-0.8205966 2.1491875,-0.8205966 2.9697873,0 0.7268153,0.7268156 0.8205997,1.8704464 0.2240372,2.7066757 L 8.450982,8.6463657 C 8.1826613,9.0214958 8.2712326,9.5425118 8.643758,9.8082277 9.0162857,10.073945 9.5399067,9.9879784 9.805623,9.6154532 L 9.83427,9.5737712 c 1.073291,-1.4979187 0.90396,-3.5507171 -0.3985777,-4.8532555 -1.4718686,-1.4718689 -3.8555132,-1.4718689 -5.3273817,0 z"
     id="path1-3"
     style="fill-opacity:1;stroke:none;stroke-width:0.0320135;stroke-dasharray:none;stroke-opacity:1;paint-order:stroke fill markers"
     fill="black" /></svg>