<?xml version="1.0" encoding="UTF-8" standalone="no"?>
<svg
   width="19"
   height="15"
   viewBox="0 0 19 15"
   fill="none"
   version="1.1"
   id="svg6"
   sodipodi:docname="state_refuel.svg"
   inkscape:version="1.1 (c68e22c387, 2021-05-23)"
   xmlns:inkscape="http://www.inkscape.org/namespaces/inkscape"
   xmlns:sodipodi="http://sodipodi.sourceforge.net/DTD/sodipodi-0.dtd"
   xmlns="http://www.w3.org/2000/svg"
   xmlns:svg="http://www.w3.org/2000/svg">
   <defs
      id="defs10" />
   <sodipodi:namedview
      id="namedview8"
      pagecolor="#ffffff"
      bordercolor="#666666"
      borderopacity="1.0"
      inkscape:pageshadow="2"
      inkscape:pageopacity="0.0"
      inkscape:pagecheckerboard="0"
      showgrid="false"
      inkscape:zoom="19.610428"
      inkscape:cx="9.1532933"
      inkscape:cy="9.2042866"
      inkscape:window-width="1920"
      inkscape:window-height="1017"
      inkscape:window-x="-8"
      inkscape:window-y="-8"
      inkscape:window-maximized="1"
      inkscape:current-layer="svg6" />
   <path
      style="fill:none;stroke:#262626;stroke-width:2.80114;stroke-linecap:round;stroke-linejoin:round;stroke-miterlimit:4;stroke-dasharray:none;stroke-opacity:1"
      d="M 14.109032,5.6203217 14.096876,4.2589893"
      id="path3134"
      sodipodi:nodetypes="cc" />
   <path
      style="fill:none;stroke:#262626;stroke-width:4.752;stroke-linecap:round;stroke-linejoin:round;stroke-miterlimit:4;stroke-dasharray:none;stroke-opacity:1"
      d="m 11.2162,7.8446415 c 0.611292,0.23067 1.379382,0.1813438 1.567963,1.1668564 l 0.01216,0.9116069 0.948071,1.1060822 c 0.556356,0.0066 1.240492,0.262304 1.17901,-0.935916 L 15.032793,5.7783334 C 15.029293,5.1839171 14.968765,4.6085103 14.485828,4.173906 L 13.075877,2.7761093"
      id="path2668"
      sodipodi:nodetypes="cccccccc" />
   <path
      style="fill:none;stroke:#262626;stroke-width:5.05323;stroke-linecap:round;stroke-linejoin:round;stroke-miterlimit:4;stroke-dasharray:none;stroke-opacity:1"
      d="m 5.5156203,2.6788713 v 9.4807077 l -0.9723803,0.02431 7.122686,0.01216 -1.069619,-0.03646 V 2.6302523 Z"
      id="path2480"
      sodipodi:nodetypes="ccccccc" />
   <path
      d="M 11.606497,11.523453 H 4.6132695 c -0.1923136,0 -0.3496607,0.157348 -0.3496607,0.349662 v 0.699322 c 0,0.192314 0.1573471,0.349662 0.3496607,0.349662 h 6.9932275 c 0.192314,0 0.349661,-0.157348 0.349661,-0.349662 v -0.699322 c 0,-0.192314 -0.157347,-0.349662 -0.349661,-0.349662 z M 15.04192,4.0778511 13.27176,2.3076902 c -0.135494,-0.1354933 -0.358404,-0.1354933 -0.493897,0 l -0.246948,0.2469485 c -0.135494,0.1354943 -0.135494,0.3584027 0,0.493897 l 0.823889,0.8238892 V 5.229548 c 0,0.6140934 0.456745,1.1211021 1.048985,1.206332 v 3.5140965 c 0,0.2884715 -0.236022,0.5244925 -0.524492,0.5244925 -0.288471,0 -0.524493,-0.236021 -0.524493,-0.5244925 V 9.2506542 c 0,-1.0620966 -0.861041,-1.9231375 -1.923138,-1.9231375 h -0.17483 V 3.1315803 c 0,-0.7714404 -0.627205,-1.3986455 -1.3986454,-1.3986455 h -3.496614 c -0.7714405,0 -1.3986455,0.6272051 -1.3986455,1.3986455 V 10.82413 H 11.256836 V 8.3765006 h 0.17483 c 0.482971,0 0.874154,0.3911839 0.874154,0.8741536 v 0.6075366 c 0,0.8238902 0.590054,1.5734762 1.409573,1.6587062 0.939715,0.09397 1.73738,-0.644688 1.73738,-1.5669205 V 5.0678294 c 0,-0.3715144 -0.148606,-0.7277319 -0.410853,-0.9899783 z M 9.8581906,5.9288713 h -3.496614 v -2.797291 h 3.496614 z"
      id="path2270"
      style="fill:#fffffd;fill-opacity:1;stroke-width:0.0218539" />
   <rect
      style="fill:#262626;fill-opacity:1;stroke:none;stroke-width:0.100774;stroke-linecap:butt;stroke-linejoin:miter;stroke-miterlimit:4;stroke-dasharray:none;stroke-dashoffset:5.6;stroke-opacity:1;paint-order:stroke fill markers"
      id="rect3805"
      width="3.496614"
      height="2.7972908"
      x="6.3615766"
      y="3.1315804" />
</svg>