<?xml version="1.0" encoding="UTF-8" standalone="no"?>
<svg
  width="19"
  height="15"
  viewBox="0 0 19 15"
  fill="none"
  version="1.1"
  id="svg6"
  sodipodi:docname="simulate-fire-fight.svg"
  inkscape:version="1.2.2 (732a01da63, 2022-12-09)"
  xml:space="preserve"
  xmlns:inkscape="http://www.inkscape.org/namespaces/inkscape"
  xmlns:sodipodi="http://sodipodi.sourceforge.net/DTD/sodipodi-0.dtd"
  xmlns="http://www.w3.org/2000/svg"
  xmlns:svg="http://www.w3.org/2000/svg"><defs
     id="defs10" /><sodipodi:namedview
     id="namedview8"
     pagecolor="#ffffff"
     bordercolor="#666666"
     borderopacity="1.0"
     inkscape:pageshadow="2"
     inkscape:pageopacity="0.0"
     inkscape:pagecheckerboard="0"
     showgrid="false"
     inkscape:zoom="39.220856"
     inkscape:cx="4.2961837"
     inkscape:cy="7.419522"
     inkscape:window-width="2560"
     inkscape:window-height="1377"
     inkscape:window-x="1912"
     inkscape:window-y="-8"
     inkscape:window-maximized="1"
     inkscape:current-layer="svg6"
     inkscape:showpageshadow="2"
     inkscape:deskcolor="#d1d1d1" /><path
     d="m 16.282245,9.6013771 c 0,0.1740419 -0.142397,0.3164399 -0.316438,0.3164399 h -2.300125 c -0.108773,0.189864 -0.314463,0.316441 -0.547837,0.316441 h -2.161682 l 0.104821,0.316439 h 1.10754 c 0.174043,0 0.316441,0.142398 0.316441,0.316441 v 0.316439 c 0,0.174043 -0.142398,0.316442 -0.316441,0.316442 h -1.671199 c -0.136465,0 -0.257107,-0.08702 -0.300618,-0.215576 L 9.8486235,10.234258 H 9.3205639 v 0.949319 c 0,0.174043 -0.142398,0.316442 -0.3164399,0.316442 H 8.6876841 c -0.1740424,0 -0.3164404,-0.142399 -0.3164404,-0.316442 v -0.87021 L 6.5497356,10.76825 C 6.349983,10.817694 6.1561633,10.667385 6.1561633,10.461699 V 9.2849368 c 0,-0.174042 0.1423981,-0.31644 0.3164399,-0.31644 H 8.3712437 V 8.6520569 c 0,-0.350062 0.2828182,-0.6328802 0.6328803,-0.6328802 h 2.847961 c 0.350061,0 0.63288,0.2828182 0.63288,0.6328802 h 0.63288 c 0.233374,0 0.43906,0.1265758 0.547837,0.3164399 h 1.983684 c 0,-0.1740418 0.142398,-0.3164399 0.316441,-0.3164399 0.174041,0 0.316438,0.1423981 0.316438,0.3164399 v 0.31644 z"
     style="fill:#ffffff;fill-opacity:1;stroke:#262626;stroke-width:3.88754;stroke-dasharray:none;stroke-opacity:1"
     id="path14144" /><path
     d="m 7.2231639,6.192428 c 0.5023486,0 0.9849197,0.1404203 1.4002473,0.3935723 V 12.521231 H 4.8261305 V 9.0740104 L 3.7660562,10.865854 C 3.5445481,11.241626 3.0580216,11.366224 2.6822489,11.144715 2.3064765,10.923208 2.181878,10.436681 2.4033861,10.060908 L 3.9104319,7.5135653 C 4.394981,6.6947765 5.2750798,6.192428 6.2263778,6.192428 Z M 5.1425706,3.9773475 c -3.695e-4,-2.1099689 3.1640311,-2.1099689 3.1644005,0 3.697e-4,2.109969 -3.164031,2.109969 -3.1644005,0 z"
     id="path10805"
     style="fill:#ffffff;fill-opacity:1;stroke:#262626;stroke-width:3.88754;stroke-dasharray:none;stroke-opacity:1;paint-order:stroke fill markers"
     sodipodi:nodetypes="scccccsccsssss" /><path
     d="m 16.290263,9.5997326 c 0,0.174042 -0.142396,0.31644 -0.316438,0.31644 h -2.300124 c -0.108774,0.1898644 -0.314463,0.3164404 -0.547838,0.3164404 h -2.161681 l 0.104821,0.316439 h 1.10754 c 0.174042,0 0.31644,0.142399 0.31644,0.316443 v 0.316439 c 0,0.174043 -0.142398,0.316442 -0.31644,0.316442 h -1.671198 c -0.136466,0 -0.257108,-0.08702 -0.300618,-0.215576 L 9.8566424,10.232613 H 9.3285828 v 0.949321 c 0,0.174043 -0.1423981,0.316442 -0.31644,0.316442 H 8.6957029 c -0.1740423,0 -0.3164404,-0.142399 -0.3164404,-0.316442 v -0.870211 l -1.821508,0.454883 C 6.3580019,10.816049 6.1641822,10.66574 6.1641822,10.460054 V 9.2832924 c 0,-0.174042 0.142398,-0.31644 0.3164398,-0.31644 H 8.3792625 V 8.6504125 c 0,-0.350062 0.2828182,-0.6328802 0.6328803,-0.6328802 h 2.8479602 c 0.350062,0 0.63288,0.2828182 0.63288,0.6328802 h 0.63288 c 0.233375,0 0.439061,0.1265757 0.547838,0.3164399 h 1.983684 c 0,-0.1740419 0.142398,-0.3164399 0.31644,-0.3164399 0.174042,0 0.316438,0.142398 0.316438,0.3164399 v 0.31644 z"
     style="fill:#ffffff;fill-opacity:1;stroke:#262626;stroke-width:1.31528;stroke-dasharray:none;stroke-opacity:1;paint-order:stroke fill markers"
     id="path14144-2" /></svg>