<svg width="35" height="35" viewBox="0 0 35 35" fill="none" xmlns="http://www.w3.org/2000/svg">
<path d="M17.3125 11.4375C15.2559 11.4375 13.6055 12.377 12.4121 13.4941C11.2188 14.5859 10.4316 15.9062 10.0508 16.8203C9.97461 17.0234 9.97461 17.252 10.0508 17.4551C10.4316 18.3438 11.2188 19.6641 12.4121 20.7812C13.6055 21.8984 15.2559 22.8125 17.3125 22.8125C19.3438 22.8125 20.9941 21.8984 22.1875 20.7812C23.3809 19.6641 24.168 18.3438 24.5488 17.4551C24.625 17.252 24.625 17.0234 24.5488 16.8203C24.168 15.9062 23.3809 14.5859 22.1875 13.4941C20.9941 12.377 19.3438 11.4375 17.3125 11.4375ZM20.9688 17.125C20.9688 19.1562 19.3184 20.7812 17.3125 20.7812C15.2812 20.7812 13.6562 19.1562 13.6562 17.125C13.6562 15.1191 15.2812 13.4688 17.3125 13.4688C19.3184 13.4688 20.9688 15.1191 20.9688 17.125ZM17.3125 15.5C17.3125 16.4141 16.5762 17.125 15.6875 17.125C15.3828 17.125 15.1035 17.0488 14.875 16.9219C14.875 16.998 14.875 17.0742 14.875 17.125C14.875 18.4707 15.9668 19.5625 17.3125 19.5625C18.6582 19.5625 19.75 18.4707 19.75 17.125C19.75 15.7793 18.6582 14.6875 17.3125 14.6875C17.2363 14.6875 17.1602 14.7129 17.084 14.7129C17.2109 14.9414 17.3125 15.2207 17.3125 15.5Z" fill="#202831"/>
</svg>
