<svg width="35" height="35" viewBox="0 0 35 35" fill="none" xmlns="http://www.w3.org/2000/svg">
<path d="M20.6562 13.5312C20.6562 15.0352 18.6328 17.6875 17.7578 18.7812C17.5664 19.0547 17.1562 19.0547 16.9648 18.7812C16.0898 17.6875 14.0938 15.0352 14.0938 13.5312C14.0938 11.7266 15.543 10.25 17.375 10.25C19.1797 10.25 20.6562 11.7266 20.6562 13.5312ZM20.875 15.7461C20.957 15.5547 21.0391 15.3633 21.1211 15.1719C21.1484 15.1445 21.1484 15.1172 21.1758 15.0898L24.3477 13.8047C24.7578 13.6406 25.25 13.9414 25.25 14.4062V21.8164C25.25 22.0898 25.0859 22.3359 24.8125 22.4453L20.875 24.0039V15.7461ZM13.2461 14.0508C13.3281 14.4336 13.4375 14.8164 13.6016 15.1719C13.6836 15.3633 13.7656 15.5547 13.875 15.7461V22.6094L10.375 24.0039C9.96484 24.168 9.5 23.8672 9.5 23.4023V15.9922C9.5 15.7188 9.66406 15.4727 9.91016 15.3906L13.2461 14.0508ZM18.4414 19.3281C18.8242 18.8633 19.4258 18.0977 20 17.2227V24.0586L14.75 22.5547V17.2227C15.2969 18.0977 15.8984 18.8633 16.2812 19.3281C16.8281 20.0391 17.8945 20.0391 18.4414 19.3281ZM17.375 14.4062C17.9766 14.4062 18.4688 13.9414 18.4688 13.3125C18.4688 12.7109 17.9766 12.2188 17.375 12.2188C16.7461 12.2188 16.2812 12.7109 16.2812 13.3125C16.2812 13.9414 16.7461 14.4062 17.375 14.4062Z" fill="white"/>
</svg>
