<?xml version="1.0" encoding="UTF-8" standalone="no"?>
<svg
   width="23.2749"
   height="12.9971"
   viewBox="0 0 23.2749 12.9971"
   fill="none"
   version="1.1"
   id="svg14"
   sodipodi:docname="passive.svg"
   inkscape:version="1.1 (c68e22c387, 2021-05-23)"
   xmlns:inkscape="http://www.inkscape.org/namespaces/inkscape"
   xmlns:sodipodi="http://sodipodi.sourceforge.net/DTD/sodipodi-0.dtd"
   xmlns="http://www.w3.org/2000/svg"
   xmlns:svg="http://www.w3.org/2000/svg">
  <defs
     id="defs18" />
  <sodipodi:namedview
     id="namedview16"
     pagecolor="#ffffff"
     bordercolor="#666666"
     borderopacity="1.0"
     inkscape:pageshadow="2"
     inkscape:pageopacity="0.0"
     inkscape:pagecheckerboard="0"
     showgrid="false"
     fit-margin-top="0"
     fit-margin-left="0"
     fit-margin-right="0"
     fit-margin-bottom="0"
     inkscape:zoom="23.771429"
     inkscape:cx="11.631611"
     inkscape:cy="6.7518029"
     inkscape:window-width="1920"
     inkscape:window-height="1017"
     inkscape:window-x="-8"
     inkscape:window-y="-8"
     inkscape:window-maximized="1"
     inkscape:current-layer="svg14" />
  <path 
     d="M 0.1977,6.4546 C 0.07745,6.5055 0,6.6237 0,6.7542 0,6.8846 0.07745,7.0028 0.1977,7.0538 l 2.09719,0.8987 c 0.16304,0.0694 0.33629,0.106 0.51361,0.106 h 1.5693 l 1.712,2.9349 H 5.7067 c -0.2711,0 -0.4892,0.2181 -0.4892,0.4891 0,0.2711 0.2181,0.4892 0.4892,0.4892 H 6.848 7.5002 7.9893 c 0.2711,0 0.4892,-0.2181 0.4892,-0.4892 0,-0.271 -0.2181,-0.4891 -0.4892,-0.4891 H 7.8263 V 8.0585 h 0.6664 l 1.0456,1.1923 c 0.0611,0.0713 0.1508,0.1121 0.2445,0.1121 h 0.3261 c 0.1794,0 0.3261,-0.1467 0.3261,-0.3261 V 7.0802 H 9.1306 c -0.1793,0 -0.326,-0.1467 -0.326,-0.326 0,-0.1794 0.1467,-0.3261 0.326,-0.3261 H 10.435 V 4.4715 c 0,-0.1794 -0.1467,-0.3261 -0.3261,-0.3261 H 9.7828 c -0.0937,0 -0.1834,0.0407 -0.2445,0.112 L 8.4927,5.4498 H 7.8263 V 2.5149 h 0.163 c 0.2711,0 0.4892,-0.2181 0.4892,-0.4891 0,-0.2711 -0.2181,-0.4892 -0.4892,-0.4892 H 7.5002 6.848 5.7067 c -0.2711,0 -0.4892,0.2181 -0.4892,0.4892 0,0.271 0.2181,0.4891 0.4892,0.4891 H 6.0898 L 4.3778,5.4498 H 2.8085 c -0.17732,0 -0.35057,0.0367 -0.51361,0.106 z"
     fill="#5ca7ff"
     id="path2" 
	 style="stroke: none"/>
  <path 
     d="M 12.8398,6.5498 H 23.2749"
     stroke="#5ca7ff"
     stroke-dasharray="2, 2"
     id="path4" />
  <path 
     d="m 16.4116,9 -0.1,0.8984 0.9106,-0.2539 0.0806,0.6152 -0.8301,0.0586 0.5444,0.7251 -0.5542,0.2955 L 16.0821,10.5747 15.7476,11.334 15.1714,11.0434 15.711,10.3183 14.8858,10.2549 14.981,9.6445 15.8721,9.8984 15.772,9 Z"
     fill="#5ca7ff"
     id="path6" 
	 style="stroke: none"/>
  <path 
     d="m 21.4116,10.6582 -0.1,0.8984 0.9106,-0.2539 0.0806,0.6153 -0.8301,0.0585 0.5444,0.7251 -0.5542,0.2955 -0.3808,-0.7642 -0.3345,0.7593 -0.5762,-0.2906 0.5396,-0.7251 -0.8252,-0.0634 0.0952,-0.6104 0.8911,0.2539 -0.1001,-0.8984 z"
     fill="#5ca7ff"
     id="path8" 
	 style="stroke: none"/>
  <path 
     d="m 21.4116,0 -0.1,0.8984 0.9106,-0.2539 0.0806,0.6152 -0.8301,0.0586 0.5444,0.7251 L 21.4629,2.3389 21.0821,1.5747 20.7476,2.334 20.1714,2.0434 20.711,1.3183 19.8858,1.2549 19.981,0.6445 20.8721,0.8984 20.772,0 Z"
     fill="#5ca7ff"
     id="path10" 
	 style="stroke: none"/>
  <path 
     d="m 16.4116,1.6582 -0.1,0.8984 0.9106,-0.2539 0.0806,0.6153 -0.8301,0.0585 0.5444,0.7251 L 16.4629,3.9971 16.0821,3.2329 15.7476,3.9922 15.1714,3.7016 15.711,2.9765 14.8858,2.9131 14.981,2.3027 15.8721,2.5566 15.772,1.6582 Z"
     fill="#5ca7ff"
     id="path12" 
	 style="stroke: none"/>
</svg>
