<?xml version="1.0" encoding="UTF-8" standalone="no"?>
<svg
   width="19"
   height="15"
   viewBox="0 0 19 15"
   fill="none"
   version="1.1"
   id="svg6"
   sodipodi:docname="miss-on-purpose.svg"
   inkscape:version="1.3.2 (091e20e, 2023-11-25, custom)"
   xml:space="preserve"
   xmlns:inkscape="http://www.inkscape.org/namespaces/inkscape"
   xmlns:sodipodi="http://sodipodi.sourceforge.net/DTD/sodipodi-0.dtd"
   xmlns="http://www.w3.org/2000/svg"
   xmlns:svg="http://www.w3.org/2000/svg"><defs
     id="defs10" /><sodipodi:namedview
     id="namedview8"
     pagecolor="#ffffff"
     bordercolor="#666666"
     borderopacity="1.0"
     inkscape:pageshadow="2"
     inkscape:pageopacity="0.0"
     inkscape:pagecheckerboard="0"
     showgrid="false"
     inkscape:zoom="39.220856"
     inkscape:cx="12.557095"
     inkscape:cy="8.8090887"
     inkscape:window-width="1920"
     inkscape:window-height="1009"
     inkscape:window-x="1912"
     inkscape:window-y="-8"
     inkscape:window-maximized="1"
     inkscape:current-layer="svg6"
     inkscape:showpageshadow="2"
     inkscape:deskcolor="#d1d1d1" /><path
     d="m 12.943532,6.8396047 c -0.03696,-0.087198 -0.122686,-0.14337 -0.217274,-0.14337 -0.0946,0 -0.180324,0.056172 -0.217276,0.14337 L 11.857156,8.3605312 C 11.806899,8.4787725 11.7803,8.6044105 11.7803,8.7330024 V 9.8711105 L 9.6518899,11.112684 v -0.277877 c 0,-0.196581 -0.1581566,-0.354734 -0.3547342,-0.354734 -0.1965828,0 -0.3547359,0.158156 -0.3547359,0.354734 v 0.827717 0.472979 0.354735 c 0,0.196581 0.1581565,0.354735 0.3547359,0.354735 0.1965811,0 0.3547342,-0.158157 0.3547342,-0.354735 V 12.371997 H 11.7803 v 0.483326 l -0.864666,0.758245 c -0.05173,0.04434 -0.0813,0.109387 -0.0813,0.177369 v 0.23649 c 0,0.13007 0.106429,0.236489 0.236489,0.236489 h 1.41894 v -0.945959 c 0,-0.130071 0.106429,-0.23649 0.236491,-0.23649 0.130071,0 0.23649,0.106429 0.23649,0.23649 v 0.945959 h 1.41894 c 0.130071,0 0.23649,-0.106429 0.23649,-0.236489 v -0.23649 c 0,-0.06798 -0.02956,-0.133028 -0.0813,-0.177369 l -0.864666,-0.758245 v -0.483326 h 2.12841 v 0.118241 c 0,0.196581 0.158157,0.354735 0.354734,0.354735 0.196583,0 0.354736,-0.158157 0.354736,-0.354735 v -0.354735 -0.472979 -0.827717 c 0,-0.196581 -0.158156,-0.354734 -0.354736,-0.354734 -0.196581,0 -0.354734,0.158156 -0.354734,0.354734 v 0.277877 L 13.672207,9.8711105 V 8.7330024 c 0,-0.1285834 -0.0266,-0.2542265 -0.07686,-0.3724712 z"
     id="path1154"
     style="fill:#000000;fill-opacity:1;stroke:none;stroke-width:0.0276;stroke-dasharray:none;stroke-opacity:1" /><path
     d="m 7.5302695,0.56363819 c 0.3429169,0 0.6199626,0.2770457 0.6199626,0.61996241 v 0.2014879 c 1.815328,0.2692961 3.2489919,1.7048969 3.5182869,3.518287 h 0.201489 c 0.342915,0 0.61996,0.2770457 0.61996,0.6199626 0,0.3429168 -0.277045,0.6199625 -0.61996,0.6199625 H 11.668519 C 11.399224,7.9586287 9.9636216,9.3922904 8.1502321,9.6615873 v 0.2014872 c 0,0.3429165 -0.2770457,0.6199625 -0.6199626,0.6199625 -0.3429169,0 -0.6199626,-0.277046 -0.6199626,-0.6199625 V 9.6615873 C 5.0949795,9.3922904 3.6613162,7.9586287 3.3920201,6.1433006 H 3.1905322 c -0.3429167,0 -0.6199624,-0.2770457 -0.6199624,-0.6199625 0,-0.3429169 0.2770457,-0.6199626 0.6199624,-0.6199626 H 3.3920201 C 3.6613162,3.0880479 5.0949795,1.6543846 6.9103069,1.3850885 V 1.1836006 c 0,-0.34291671 0.2770457,-0.61996241 0.6199626,-0.61996241 z M 4.6513189,6.1433006 c 0.2421728,1.1294943 1.1314322,2.0168152 2.258988,2.2589885 V 8.0031884 c 0,-0.3429169 0.2770457,-0.6199626 0.6199626,-0.6199626 0.3429169,0 0.6199626,0.2770457 0.6199626,0.6199626 V 8.4022891 C 9.2797263,8.1601158 10.167047,7.2708564 10.409221,6.1433006 H 10.01012 c -0.3429171,0 -0.6199628,-0.2770457 -0.6199628,-0.6199625 0,-0.3429169 0.2770457,-0.6199626 0.6199628,-0.6199626 h 0.399101 C 10.167047,3.7738812 9.2797263,2.8865601 8.1502321,2.6443873 v 0.3991009 c 0,0.3429164 -0.2770457,0.6199621 -0.6199626,0.6199621 -0.3429169,0 -0.6199626,-0.2770457 -0.6199626,-0.6199621 V 2.6443873 C 5.7808126,2.8865601 4.8934917,3.7738812 4.6513189,4.9033755 h 0.3991007 c 0.3429164,0 0.6199621,0.2770457 0.6199621,0.6199626 0,0.3429168 -0.2770457,0.6199625 -0.6199621,0.6199625 z M 7.5302695,4.9033755 a 0.61996259,0.61996259 0 1 1 0,1.2399251 0.61996259,0.61996259 0 1 1 0,-1.2399251 z"
     id="path2"
     style="fill:#000000;fill-opacity:1;stroke:none;stroke-width:0.0276;stroke-dasharray:none" /></svg>
