<?xml version="1.0" encoding="UTF-8" standalone="no"?>
<svg
   width="19"
   height="15"
   viewBox="0 0 19 15"
   fill="none"
   version="1.1"
   id="svg6"
   sodipodi:docname="scenic-aaa.svg"
   inkscape:version="1.3.2 (091e20e, 2023-11-25, custom)"
   xml:space="preserve"
   xmlns:inkscape="http://www.inkscape.org/namespaces/inkscape"
   xmlns:sodipodi="http://sodipodi.sourceforge.net/DTD/sodipodi-0.dtd"
   xmlns="http://www.w3.org/2000/svg"
   xmlns:svg="http://www.w3.org/2000/svg"><defs
     id="defs10" /><sodipodi:namedview
     id="namedview8"
     pagecolor="#ffffff"
     bordercolor="#666666"
     borderopacity="1.0"
     inkscape:pageshadow="2"
     inkscape:pageopacity="0.0"
     inkscape:pagecheckerboard="0"
     showgrid="false"
     inkscape:zoom="32"
     inkscape:cx="12.515625"
     inkscape:cy="8.203125"
     inkscape:window-width="1920"
     inkscape:window-height="1009"
     inkscape:window-x="1912"
     inkscape:window-y="-8"
     inkscape:window-maximized="1"
     inkscape:current-layer="svg6"
     inkscape:showpageshadow="2"
     inkscape:deskcolor="#d1d1d1" /><path
     d="m 11.193211,6.498903 c -0.0366,-0.086393 -0.121536,-0.1420355 -0.215249,-0.1420355 -0.09371,0 -0.178642,0.055645 -0.21525,0.1420355 l -0.645747,1.5067452 c -0.04979,0.1171426 -0.07614,0.2416063 -0.07614,0.3689989 V 9.5021428 L 7.9322576,10.732138 v -0.275284 c 0,-0.194749 -0.1566776,-0.351427 -0.3514268,-0.351427 -0.1947493,0 -0.3514276,0.156678 -0.3514276,0.351427 v 0.819998 0.468569 0.351428 c 0,0.194748 0.1566783,0.351427 0.3514276,0.351427 0.1947492,0 0.3514268,-0.156679 0.3514268,-0.351427 v -0.117143 h 2.1085644 v 0.47882 l -0.856604,0.751175 c -0.05125,0.04393 -0.08053,0.108354 -0.08053,0.175714 V 13.6197 c 0,0.128857 0.105428,0.234285 0.234285,0.234285 h 1.405709 v -0.93714 c 0,-0.128856 0.105431,-0.234285 0.234285,-0.234285 0.128856,0 0.234284,0.105431 0.234284,0.234285 v 0.93714 h 1.405711 c 0.128857,0 0.234284,-0.10543 0.234284,-0.234285 v -0.234285 c 0,-0.06736 -0.02928,-0.131785 -0.08053,-0.175714 l -0.856607,-0.751175 v -0.47882 h 2.108564 v 0.117143 c 0,0.19475 0.156679,0.351428 0.351427,0.351428 0.19475,0 0.351428,-0.156678 0.351428,-0.351428 v -0.351428 -0.468569 -0.819998 c 0,-0.194749 -0.156678,-0.351427 -0.351428,-0.351427 -0.194748,0 -0.351427,0.156678 -0.351427,0.351427 v 0.275284 L 11.915102,9.5021428 V 8.3746471 c 0,-0.1273926 -0.02637,-0.2518568 -0.07614,-0.3689989 z"
     id="path1154-7"
     style="fill:#000000;fill-opacity:1;stroke:#000000;stroke-width:0.0146427;stroke-opacity:1" /><path
     d="M 5.375668,1.2470443 C 5.30062,1.1962303 5.2005546,1.2056133 5.1364508,1.2689323 5.0723498,1.3322513 5.0629648,1.4331009 5.1145628,1.5073675 l 0.8755666,1.2766078 -0.7786288,0.25329 c -0.077394,0.025017 -0.1297722,0.096937 -0.1297722,0.1782399 0,0.081303 0.052378,0.1532245 0.1297722,0.1782407 L 6.0174912,3.6548524 5.6039425,4.4412997 c -0.038302,0.072703 -0.025016,0.1618233 0.033618,0.2196734 0.058635,0.057852 0.1469701,0.071921 0.2196742,0.033618 L 6.6436816,4.2810428 6.9047879,5.0870331 c 0.025017,0.077395 0.096937,0.1297722 0.1782406,0.1297722 0.081303,0 0.1532244,-0.052378 0.1782406,-0.1297722 l 0.261106,-0.8059907 0.7864472,0.4135487 c 0.072703,0.038302 0.1618234,0.025016 0.2196734,-0.033618 0.057853,-0.058635 0.071921,-0.1469701 0.033618,-0.2196735 L 8.1485644,3.6548524 8.9545554,3.3937462 c 0.077394,-0.025016 0.1297715,-0.096938 0.1297715,-0.1782407 0,-0.081302 -0.052379,-0.1532236 -0.1297715,-0.1782399 L 8.1219841,2.767559 8.3228958,2.2172025 C 8.347912,2.1484097 8.3307157,2.0717956 8.2791193,2.0202001 8.2275229,1.9686037 8.1509111,1.9514074 8.0821168,1.9764236 L 7.5317596,2.1773344 7.2612725,1.3439827 C 7.236256,1.2665882 7.1643354,1.2142105 7.0830319,1.2142105 c -0.081303,0 -0.1532246,0.052378 -0.1782408,0.1297722 L 6.6522839,2.1226115 Z"
     id="path10424"
     style="fill:#000000;fill-opacity:1;stroke:#000000;stroke-width:0.00781758;stroke-opacity:1" /><path
     d="m 0.9232391,10.130493 c -0.075048,-0.05081 -0.1751134,-0.04143 -0.2392172,0.02189 -0.064101,0.06332 -0.073486,0.164168 -0.021888,0.238435 l 0.8755666,1.276608 -0.7786288,0.25329 c -0.077394,0.02502 -0.1297722,0.09694 -0.1297722,0.178239 0,0.0813 0.052378,0.153225 0.1297722,0.178241 l 0.8059906,0.261107 -0.4135487,0.786447 c -0.038302,0.0727 -0.025016,0.161823 0.033618,0.219673 0.058635,0.05785 0.1469701,0.07192 0.2196742,0.03362 l 0.7864469,-0.41355 0.2611063,0.80599 c 0.025017,0.0774 0.096937,0.129773 0.1782406,0.129773 0.081303,0 0.1532244,-0.05238 0.1782406,-0.129773 l 0.261106,-0.80599 0.7864472,0.413548 c 0.072703,0.0383 0.1618234,0.02502 0.2196734,-0.03362 0.057853,-0.05863 0.071921,-0.14697 0.033618,-0.219673 l -0.4135493,-0.786445 0.805991,-0.261106 c 0.077394,-0.02502 0.1297715,-0.09694 0.1297715,-0.178241 0,-0.0813 -0.052379,-0.153224 -0.1297715,-0.17824 L 3.6695552,11.651007 3.8704669,11.100651 c 0.025016,-0.06879 0.00782,-0.145407 -0.043776,-0.197003 -0.051596,-0.0516 -0.1282082,-0.06879 -0.1970025,-0.04378 L 3.0793307,11.060783 2.8088436,10.227431 c -0.025017,-0.07739 -0.096937,-0.129772 -0.1782406,-0.129772 -0.081303,0 -0.1532246,0.05238 -0.1782408,0.129772 L 2.199855,11.00606 Z"
     id="path10424-2"
     style="fill:#000000;fill-opacity:1;stroke:#000000;stroke-width:0.00781758;stroke-opacity:1" /><path
     d="m 3.8607391,5.442993 c -0.075048,-0.05081 -0.1751134,-0.04143 -0.2392172,0.02189 -0.064101,0.06332 -0.073486,0.164168 -0.021888,0.238435 l 0.8755666,1.276608 -0.7786288,0.25329 c -0.077394,0.02502 -0.1297722,0.09694 -0.1297722,0.178239 0,0.0813 0.052378,0.153225 0.1297722,0.178241 L 4.5025623,7.850803 4.0890136,8.63725 c -0.038302,0.0727 -0.025016,0.161823 0.033618,0.219673 0.058635,0.05785 0.1469701,0.07192 0.2196742,0.03362 l 0.7864469,-0.41355 0.2611063,0.80599 c 0.025017,0.0774 0.096937,0.129773 0.1782406,0.129773 0.081303,0 0.1532244,-0.05238 0.1782406,-0.129773 l 0.261106,-0.80599 0.7864472,0.413548 c 0.072703,0.0383 0.1618234,0.02502 0.2196734,-0.03362 0.057853,-0.05863 0.071921,-0.14697 0.033618,-0.219673 L 6.6336355,7.850803 7.4396265,7.589697 c 0.077394,-0.02502 0.1297715,-0.09694 0.1297715,-0.178241 0,-0.0813 -0.052379,-0.153224 -0.1297715,-0.17824 L 6.6070552,6.963507 6.8079669,6.413151 C 6.8329829,6.344361 6.8157869,6.267744 6.7641909,6.216148 6.7125949,6.164548 6.6359827,6.147358 6.5671884,6.172368 L 6.0168307,6.373283 5.7463436,5.539931 C 5.7213266,5.462541 5.6494066,5.410159 5.568103,5.410159 c -0.081303,0 -0.1532246,0.05238 -0.1782408,0.129772 L 5.137355,6.31856 Z"
     id="path10424-2-4"
     style="fill:#000000;fill-opacity:1;stroke:#000000;stroke-width:0.00781758;stroke-opacity:1" /><path
     d="m 13.173239,2.1617426 c -0.07505,-0.050814 -0.175113,-0.041431 -0.239217,0.021888 -0.0641,0.063319 -0.07349,0.1641686 -0.02189,0.2384352 l 0.875566,1.2766078 -0.778628,0.25329 c -0.07739,0.025017 -0.129773,0.096937 -0.129773,0.1782399 0,0.081303 0.05238,0.1532245 0.129773,0.1782407 l 0.80599,0.2611065 -0.413549,0.7864473 c -0.0383,0.072703 -0.02502,0.1618233 0.03362,0.2196734 0.05864,0.057852 0.146971,0.071921 0.219675,0.033618 l 0.786447,-0.4135483 0.261106,0.8059903 c 0.02502,0.077395 0.09694,0.1297722 0.17824,0.1297722 0.0813,0 0.153225,-0.052378 0.178241,-0.1297722 l 0.261106,-0.8059907 0.786447,0.4135487 c 0.0727,0.038302 0.161824,0.025016 0.219674,-0.033618 0.05785,-0.058635 0.07192,-0.1469701 0.03362,-0.2196735 l -0.41355,-0.7864472 0.805991,-0.2611062 c 0.07739,-0.025016 0.129772,-0.096938 0.129772,-0.1782407 0,-0.081302 -0.05238,-0.1532236 -0.129772,-0.1782399 L 15.919555,3.6822573 16.120467,3.1319008 c 0.02502,-0.068793 0.0078,-0.1454069 -0.04378,-0.1970024 -0.0516,-0.051596 -0.128208,-0.068793 -0.197002,-0.043776 L 15.329331,3.0920327 15.058843,2.258681 c -0.02502,-0.077395 -0.09694,-0.1297722 -0.17824,-0.1297722 -0.0813,0 -0.153225,0.052378 -0.178241,0.1297722 l -0.252507,0.7786288 z"
     id="path10424-1"
     style="fill:#000000;fill-opacity:1;stroke:#000000;stroke-width:0.00781758;stroke-opacity:1" /></svg>
