<?xml version="1.0" encoding="UTF-8" standalone="no"?>
<svg
   width="19"
   height="15"
   viewBox="0 0 19 15"
   fill="none"
   version="1.1"
   id="svg6"
   sodipodi:docname="simulate-fire-fight.svg"
   inkscape:version="1.3.2 (091e20e, 2023-11-25, custom)"
   xml:space="preserve"
   xmlns:inkscape="http://www.inkscape.org/namespaces/inkscape"
   xmlns:sodipodi="http://sodipodi.sourceforge.net/DTD/sodipodi-0.dtd"
   xmlns="http://www.w3.org/2000/svg"
   xmlns:svg="http://www.w3.org/2000/svg"><defs
     id="defs10" /><sodipodi:namedview
     id="namedview8"
     pagecolor="#ffffff"
     bordercolor="#666666"
     borderopacity="1.0"
     inkscape:pageshadow="2"
     inkscape:pageopacity="0.0"
     inkscape:pagecheckerboard="0"
     showgrid="false"
     inkscape:zoom="39.220856"
     inkscape:cx="4.2961836"
     inkscape:cy="7.4067736"
     inkscape:window-width="1920"
     inkscape:window-height="1009"
     inkscape:window-x="1912"
     inkscape:window-y="-8"
     inkscape:window-maximized="1"
     inkscape:current-layer="svg6"
     inkscape:showpageshadow="2"
     inkscape:deskcolor="#d1d1d1" /><path
     d="m 7.2492654,5.8221874 c 0.6167358,0 1.2091907,0.1723947 1.7190901,0.4831906 V 13.59209 H 4.3064157 V 9.3599202 L 3.0049573,11.559776 C 2.7330108,12.021113 2.1356998,12.174082 1.6743618,11.902135 1.2130242,11.630189 1.060054,11.032878 1.3320006,10.571539 L 3.1822081,7.4441541 C 3.7770914,6.4389231 4.857593,5.8221874 6.0255062,5.8221874 Z M 4.6949108,3.1027222 c -4.536e-4,-2.59041913 3.8844965,-2.59041913 3.88495,0 4.539e-4,2.5904193 -3.8844964,2.5904193 -3.88495,0 z"
     id="path10805"
     style="fill:#000000;fill-opacity:1;stroke:none;stroke-width:4.77275;stroke-dasharray:none;stroke-opacity:1;paint-order:stroke fill markers"
     sodipodi:nodetypes="scccccsccsssss" /><path
     d="m 18.380988,10.005352 c 0,0.213672 -0.17482,0.388495 -0.388493,0.388495 h -2.823873 c -0.133542,0.233097 -0.386068,0.388495 -0.672584,0.388495 h -2.653906 l 0.128689,0.388494 h 1.359733 c 0.213672,0 0.388495,0.174824 0.388495,0.388499 v 0.388494 c 0,0.213673 -0.174823,0.388497 -0.388495,0.388497 h -2.051738 c -0.16754,0 -0.315653,-0.106835 -0.36907,-0.264664 L 10.4824,10.782342 H 9.8340985 v 1.165487 c 0,0.213673 -0.174823,0.388497 -0.388495,0.388497 h -0.388495 c -0.2136724,0 -0.3884952,-0.174824 -0.3884952,-0.388497 V 10.879466 L 6.432339,11.437928 C 6.1871018,11.49863 5.9491484,11.314095 5.9491484,11.061573 V 9.6168567 c 0,-0.2136722 0.1748227,-0.3884949 0.3884947,-0.3884949 H 8.6686133 V 8.839867 c 0,-0.4297729 0.3472172,-0.7769901 0.7769902,-0.7769901 h 3.4964555 c 0.429773,0 0.77699,0.3472172 0.77699,0.7769901 h 0.776989 c 0.286516,0 0.539038,0.1553976 0.672584,0.3884948 H 17.604 c 0,-0.2136721 0.174823,-0.3884948 0.388495,-0.3884948 0.213673,0 0.388493,0.1748227 0.388493,0.3884948 v 0.3884949 z"
     style="fill:#000000;fill-opacity:1;stroke:none;stroke-width:1.61478;stroke-dasharray:none;stroke-opacity:1;paint-order:stroke fill markers"
     id="path14144-2" /></svg>
