<?xml version="1.0" encoding="UTF-8" standalone="no"?>
<svg
   xmlns:dc="http://purl.org/dc/elements/1.1/"
   xmlns:cc="http://creativecommons.org/ns#"
   xmlns:rdf="http://www.w3.org/1999/02/22-rdf-syntax-ns#"
   xmlns:svg="http://www.w3.org/2000/svg"
   xmlns="http://www.w3.org/2000/svg"
   xmlns:sodipodi="http://sodipodi.sourceforge.net/DTD/sodipodi-0.dtd"
   xmlns:inkscape="http://www.inkscape.org/namespaces/inkscape"
   width="16"
   height="16"
   viewBox="0 0 16 16"
   fill="none"
   version="1.1"
   id="svg14"
   sodipodi:docname="echelon-lh.svg"
   inkscape:version="1.0 (4035a4fb49, 2020-05-01)">
   <metadata
      id="metadata20">
      <rdf:RDF>
         <cc:Work
            rdf:about="">
            <dc:format>image/svg+xml</dc:format>
            <dc:type
               rdf:resource="http://purl.org/dc/dcmitype/StillImage" />
            <dc:title></dc:title>
         </cc:Work>
      </rdf:RDF>
   </metadata>
   <defs
      id="defs18" />
   <sodipodi:namedview
      inkscape:document-rotation="0"
      pagecolor="#ffffff"
      bordercolor="#666666"
      borderopacity="1"
      objecttolerance="10"
      gridtolerance="10"
      guidetolerance="10"
      inkscape:pageopacity="0"
      inkscape:pageshadow="2"
      inkscape:window-width="1920"
      inkscape:window-height="1017"
      id="namedview16"
      showgrid="false"
      inkscape:zoom="34.345186"
      inkscape:cx="9.7964424"
      inkscape:cy="8.7196642"
      inkscape:window-x="1912"
      inkscape:window-y="-8"
      inkscape:window-maximized="1"
      inkscape:current-layer="svg14" />
   <path
      d="m 11.760336,0.82277727 c 0.03507,-0.0819211 0.116519,-0.13468436 0.20644,-0.13468436 0.08985,0 0.171299,0.0527631 0.206441,0.13468436 L 12.79247,2.2515013 c 0.04782,0.1110719 0.07304,0.2290997 0.07304,0.3498999 v 1.0690957 l 2.022304,1.1663106 V 4.5758186 c 0,-0.1846888 0.150282,-0.3332707 0.337016,-0.3332707 0.186803,0 0.337085,0.1485819 0.337085,0.3332707 V 5.353336 5.7976518 6.1308542 c 0,0.1846885 -0.150282,0.3332711 -0.337085,0.3332711 -0.186734,0 -0.337016,-0.1485826 -0.337016,-0.3332711 V 6.0198095 H 12.865509 V 6.473799 l 0.821559,0.7123218 c 0.04913,0.041627 0.07724,0.1027332 0.07724,0.1665674 v 0.2221572 c 0,0.1222175 -0.101084,0.2221571 -0.224701,0.2221571 H 12.191408 V 6.9083724 c 0,-0.1221494 -0.101085,-0.22209 -0.224632,-0.22209 -0.123616,0 -0.2247,0.099941 -0.2247,0.22209 v 0.8886301 h -1.348203 c -0.123616,0 -0.2247,-0.09994 -0.2247,-0.2221571 V 7.3526882 c 0,-0.063834 0.02804,-0.1249429 0.07717,-0.1665674 L 11.067975,6.473799 V 6.0198095 H 9.0456705 v 0.1110447 c 0,0.1846885 -0.1502827,0.3332711 -0.3370162,0.3332711 -0.1868027,0 -0.3370854,-0.1485826 -0.3370854,-0.3332711 V 5.7976518 5.353336 4.5758186 c 0,-0.1846888 0.1502827,-0.3332707 0.3370854,-0.3332707 0.1867335,0 0.3370162,0.1485819 0.3370162,0.3332707 V 4.8368075 L 11.067975,3.6704969 V 2.6014012 c 0,-0.1208002 0.02529,-0.238828 0.07304,-0.3498999 z"
      fill="#202831"
      id="path2"
      style="fill:#000000;fill-opacity:1;stroke-width:0.685147" />
   <path
      style="fill:#000000;fill-opacity:1;stroke-width:0.685147"
      id="path2-4"
      fill="#202831"
      d="m 4.3098319,8.5178559 c 0.03507,-0.081921 0.116519,-0.1346843 0.206441,-0.1346843 0.08985,0 0.171299,0.052763 0.206441,0.1346843 L 5.3419659,9.94658 c 0.04782,0.111072 0.07304,0.2291 0.07304,0.3499 v 1.069096 l 2.0223043,1.166311 v -0.26099 c 0,-0.184688 0.1502822,-0.33327 0.3370163,-0.33327 0.1868027,0 0.3370848,0.148582 0.3370848,0.33327 v 0.777518 0.444316 0.333202 c 0,0.184689 -0.1502821,0.333271 -0.3370848,0.333271 -0.1867341,0 -0.3370163,-0.148582 -0.3370163,-0.333271 V 13.714889 H 5.4150049 v 0.453989 l 0.821559,0.712322 c 0.04913,0.04163 0.07724,0.102733 0.07724,0.166567 v 0.222157 c 0,0.122218 -0.101084,0.222158 -0.2247,0.222158 h -1.348203 v -0.888631 c 0,-0.122149 -0.101084,-0.22209 -0.224631,-0.22209 -0.123616,0 -0.224701,0.09994 -0.224701,0.22209 v 0.888631 h -1.348202 c -0.123616,0 -0.224701,-0.09994 -0.224701,-0.222158 v -0.222157 c 0,-0.06383 0.02804,-0.124943 0.07717,-0.166567 l 0.821635,-0.712322 v -0.453989 h -2.022304 v 0.111044 c 0,0.184689 -0.150283,0.333271 -0.337016,0.333271 -0.186803,0 -0.33708499,-0.148582 -0.33708499,-0.333271 v -0.333202 -0.444316 -0.777518 c 0,-0.184688 0.15028199,-0.33327 0.33708499,-0.33327 0.186733,0 0.337016,0.148582 0.337016,0.33327 v 0.26099 l 2.022304,-1.166311 V 10.29648 c 0,-0.1208 0.02529,-0.238828 0.07304,-0.3499 z" />
</svg>