<?xml version="1.0" encoding="UTF-8" standalone="no"?>
<svg
   width="640"
   height="480"
   viewBox="0 0 1.28 0.96"
   version="1.1"
   id="svg128"
   sodipodi:docname="social.svg"
   inkscape:version="1.1 (c68e22c387, 2021-05-23)"
   xmlns:inkscape="http://www.inkscape.org/namespaces/inkscape"
   xmlns:sodipodi="http://sodipodi.sourceforge.net/DTD/sodipodi-0.dtd"
   xmlns="http://www.w3.org/2000/svg"
   xmlns:svg="http://www.w3.org/2000/svg">
   <defs
      id="defs132" />
   <sodipodi:namedview
      id="namedview130"
      pagecolor="#ffffff"
      bordercolor="#666666"
      borderopacity="1.0"
      inkscape:pageshadow="2"
      inkscape:pageopacity="0.0"
      inkscape:pagecheckerboard="0"
      showgrid="false"
      width="640px"
      inkscape:zoom="0.99749197"
      inkscape:cx="282.20779"
      inkscape:cy="318.2983"
      inkscape:window-width="1920"
      inkscape:window-height="1017"
      inkscape:window-x="-8"
      inkscape:window-y="-8"
      inkscape:window-maximized="1"
      inkscape:current-layer="svg128" />
   <path
      style="fill:#ffffff;fill-opacity:1;stroke-width:1"
      d="M 0,0 H 1.28 V 0.96 H 0 Z"
      id="path2" />
   <path
      fill="#008d46"
      style="fill:#009246;fill-opacity:1;stroke-width:1"
      d="M 0,0 H 0.42666667 V 0.96 H 0 Z"
      id="path4" />
   <path
      fill="#d2232c"
      style="fill:#ce2b37;fill-opacity:1;stroke-width:1"
      d="M 0.85333333,0 H 1.28 V 0.96 H 0.85333333 Z"
      id="path6" />
   <path
      style="fill:#e6e6e6;fill-opacity:1;fill-rule:evenodd;stroke:#000000;stroke-width:0.0111857;stroke-linecap:butt;stroke-linejoin:miter;stroke-miterlimit:4;stroke-dasharray:none;stroke-opacity:1"
      d="m 0.60128922,0.26383678 c -0.0149006,0.005165 -0.0288883,0.005736 -0.0436243,0.005593 -0.008382,-7.839e-5 -0.0119016,0.005362 -0.0123043,0.009508 -0.0257083,-1.8971e-4 -0.0401429,0.003993 -0.0302016,0.0178971 0.002342,-0.0127809 0.0197736,-0.006946 0.039709,-0.004474 0.002976,0.004793 0.00635,0.00807 0.004474,0.0128635 -0.0162341,-9.0384e-4 -0.0219418,0.002664 -0.0246086,0.00783 0.007378,-0.001448 0.0186173,-0.003174 0.0285235,0.001678 0.003168,0.001552 0.00534,0.003851 0.007271,0.006152 6.864e-4,6.9024e-4 7.968e-4,9.7008e-4 0.00168,0.002237 3.3446e-4,4.8384e-4 2.5243e-4,0.001189 5.616e-4,0.001678 0.001536,0.00261 0.003355,0.005775 0.003355,0.0100671 0,0.002119 -3.5535e-4,0.004106 -5.616e-4,0.006152 -0.0318274,0.002906 -0.0487232,-0.001417 -0.0872483,-0.0307613 -0.02353,-0.017922 -0.0628088,-0.0290826 -0.10682396,-0.0290826 H 0.275786 c -0.0368125,0 -0.0844519,0.004667 -0.0844519,0.0111857 0,0.002316 0.002813,0.006711 0.0251678,0.006711 0.001875,0 0.003561,-2.5e-7 0.005593,0 -0.0273631,0.001389 -0.0514541,0.004654 -0.0514541,0.009508 0,0.005751 0.0180657,0.008025 0.041387,0.009508 0.001712,1.0885e-4 0.005277,4.5283e-4 0.007271,5.592e-4 -0.0214191,0.002016 -0.0285235,0.005178 -0.0285235,0.0100671 0,0.004961 0.0190085,0.008749 0.0391499,0.0106264 -0.009369,0.001288 -0.0151007,0.003043 -0.0151007,0.006152 0,0.005751 0.0253364,0.0136183 0.0486577,0.0151007 0.0123118,7.8288e-4 0.0320937,7.2288e-4 0.053132,0.001118 -0.0292391,0.001414 -0.0531924,0.003197 -0.053132,0.009508 5.508e-5,0.00575 0.0253233,0.0132825 0.0486577,0.0145414 0.007158,3.8624e-4 0.0187862,3.4843e-4 0.0296421,5.592e-4 -0.00523,0.001091 -0.007585,0.003297 -0.007271,0.00783 5.1456e-4,0.007427 0.0178171,0.007522 0.0346756,0.006152 -0.00412,0.002611 -0.007029,0.005334 -0.006711,0.00783 7.2624e-4,0.005705 0.0189526,0.004114 0.0357942,0.003356 0.009121,-4.1068e-4 0.020254,-0.002373 0.0313199,-0.005593 -0.008556,0.005282 -0.0136807,0.0108144 -0.0117451,0.0151006 0.002707,0.005998 0.0220291,0.004272 0.0385906,0.001118 0.006945,-0.001322 0.0144835,-0.00423 0.0223714,-0.00783 -0.016009,0.009772 -0.0266117,0.021306 -0.0218122,0.0262863 0.003518,0.003651 0.0200664,-6.9312e-4 0.0352349,-0.005034 -0.0104203,0.00816 -0.016092,0.0167631 -0.0123043,0.0206935 0.002774,0.00288 0.0147686,9.5088e-4 0.0268454,-0.002796 -0.008386,0.007298 -0.0128981,0.0143792 -0.009508,0.0178971 0.003269,0.003394 0.0162518,-5.0784e-4 0.0285235,-0.006152 -0.0113016,0.0106295 -0.0146947,0.0192684 -0.0106262,0.0234899 0.004478,0.004651 0.0246168,-0.002986 0.0374722,-0.0128635 -0.007742,0.0109308 -0.0102202,0.0181499 -0.006152,0.0223714 0.004685,0.00486 0.0221918,-0.002165 0.0307608,-0.0167784 0.005306,-0.009048 0.00978,-0.0177834 0.0134227,-0.0262863 0.002232,0.002537 0.003965,0.005233 0.006711,0.00783 -0.00933,0.0215119 -0.0161208,0.0440296 -0.0139819,0.0654362 7.92e-4,0.007907 0.0134496,-5.232e-4 0.01566,-0.006711 0,0 0.003605,0.00607 0.008389,-0.00168 -0.001262,0.004932 -0.002323,0.009796 -0.003917,0.0139819 -0.003869,0.0101755 -0.0148531,0.0259949 -0.0128635,0.0296419 0.001637,0.003005 0.0132427,-0.008169 0.0178973,-0.0128635 -0.007703,0.0177509 -0.0201106,0.0366331 -0.0296419,0.0486577 -0.002467,-6.532e-5 -0.006827,0.002664 -0.008949,0.003917 -0.004651,0.002741 -0.0104491,0.005133 -0.0117451,0.003917 -0.005168,-0.004858 -0.0134227,-0.002798 -0.0134227,-0.002798 -4e-8,0 -0.00239,-8.736e-4 -0.005034,0 -0.002602,8.64e-4 -0.004795,0.002136 -0.006152,0.005034 v 5.616e-4 c -0.003269,0.002621 -0.005735,0.005546 -0.006152,0.008949 H 0.4637032 c 0,0 -0.003226,0.009464 -0.003917,0.0201341 -1.123e-5,1.814e-4 1.08e-5,3.7709e-4 0,5.616e-4 H 0.4374184 v 0.00783 h 0.0223714 c 3.145e-4,0.005792 0.001402,0.0106262 0.002237,0.0145416 1.1654e-4,5.472e-4 -1.0973e-4,6.384e-4 0,0.001118 3.096e-5,1.4324e-4 -3.043e-5,4.2092e-4 0,5.616e-4 5.184e-4,0.002194 0.00168,0.005034 0.00168,0.005034 h 0.34843387 c 0,0 7.728e-4,-0.003187 0.00168,-0.00783 5.232e-4,-0.002635 0.001301,-0.005518 0.00168,-0.008949 3.615e-5,-3.4262e-4 -3.259e-5,-7.728e-4 0,-0.001118 9.927e-5,-0.001061 4.992e-4,-0.00227 5.616e-4,-0.003355 h 0.0206933 v 0.004474 c 5e-8,0.00774 -0.0229306,0.0329976 -0.0229306,0.0329976 5e-8,0 0.007449,0.0111854 0.0268454,0.0111854 0.0191755,0 0.0262862,-0.0111854 0.0262862,-0.0111854 0,0 -0.0223714,-0.0252331 -0.0223714,-0.0329976 v -0.004474 h 0.0111854 c 0.004258,0.003696 0.007567,0.00783 0.008949,0.00783 0.002136,0 0.007121,-0.006927 0.0195749,-0.0117451 -0.0124536,-0.004818 -0.0174379,-0.0111854 -0.0195749,-0.0111854 -0.001387,0 -0.004656,0.003576 -0.008949,0.007271 h -0.0111854 v -0.0123043 c 0.003691,-0.004258 0.00783,-0.007008 0.00783,-0.008389 -5e-8,-0.002136 -0.006927,-0.007121 -0.0117451,-0.0195749 -0.004818,0.0124536 -0.0111854,0.0174379 -0.0111854,0.0195749 0,0.001392 0.003562,0.004632 0.007271,0.008949 v 0.0117451 h -0.0206933 c -9.888e-5,-0.001723 -3.6821e-4,-0.003398 -5.616e-4,-0.005034 -0.001018,-0.008703 -0.003355,-0.01566 -0.003355,-0.01566 h -0.0262862 c -4.1712e-4,-0.003403 -0.002885,-0.006328 -0.006152,-0.008949 v -5.616e-4 c -0.001354,-0.002899 -0.003547,-0.004171 -0.006152,-0.005034 -0.00264,-8.736e-4 -0.005034,0 -0.005034,0 0,0 -0.008255,-0.002059 -0.0134227,0.002798 -0.001296,0.001219 -0.003917,-0.00168 -0.003917,-0.00168 -0.001589,-0.001978 -0.003686,-0.003422 -0.006152,-0.003355 -0.008148,-0.0102792 -0.0164381,-0.0279715 -0.0229306,-0.0453019 0.006363,0.005069 0.0134496,0.008735 0.0201341,0.0117451 0.006437,-0.0107573 -6.48e-4,-0.0221232 -0.007271,-0.0324384 0.008412,0.002194 0.0170131,-0.002654 0.0106262,-0.01566 -0.004833,-0.009842 -0.0186106,-0.0328267 -0.0206933,-0.0363533 0.009795,0.009694 0.0207427,0.0169286 0.0251678,0.0123043 0.003802,-0.00397 -7.944e-5,-0.0165996 -0.002237,-0.0229306 0.0156096,0.0107478 0.0300533,0.0159145 0.0335568,0.0128635 0.004229,-0.003682 -4.896e-4,-0.0138469 -0.0111854,-0.0268456 0.0164102,0.009294 0.030275,0.0125065 0.0352349,0.008949 0.007183,-0.005153 -0.002606,-0.0120375 -0.021253,-0.0290828 0.0239846,0.0130621 0.045335,0.0160278 0.0508948,0.0106264 0.006111,-0.005937 -0.008501,-0.0121613 -0.0346757,-0.0318792 0.0287717,0.014308 0.0564201,0.0170469 0.0654362,0.009508 0.009834,-0.008223 -0.0215328,-0.0127858 -0.0587248,-0.0385906 0.0332789,0.0211835 0.0689534,0.0255292 0.0794183,0.0167785 0.006673,-0.00558 -0.007544,-0.008129 -0.0285235,-0.0167785 0.0293707,0.0102475 0.0562644,0.0106491 0.0643176,0.003915 0.00676,-0.005653 -0.0144658,-0.0126855 -0.0419462,-0.0240492 0.0458933,0.0117552 0.10289473,0.01475 0.11073823,0.003915 0.00542,-0.007482 -0.019315,-0.009715 -0.050336,-0.0145414 0.052171,0.005661 0.099803,0.008007 0.1062639,-0.001678 0.00407,-0.006099 -0.00404,-0.008197 -0.030201,-0.0111857 0.043399,0.002172 0.079372,9.24e-4 0.084452,-0.006711 0.0019,-0.002851 2.608e-4,-0.004566 -0.00503,-0.006152 0.018589,-6.9984e-4 0.03166,-0.002737 0.034676,-0.007271 0.00504,-0.007577 -0.013327,-0.008851 -0.063199,-0.011745 0.029234,-9.12e-4 0.053277,-0.003676 0.058166,-0.0106264 0.00459,-0.006532 -0.00504,-0.004241 -0.041387,-0.003356 -0.00798,-0.004152 -0.035812,-0.003479 -0.076622,-0.003915 0.00346,-0.001606 0.00634,-0.003319 0.00671,-0.005593 5.088e-4,-0.00309 -0.043453,-0.00105 -0.071029,-5.592e-4 -0.00196,1.3767e-4 -0.00357,1.8776e-4 -0.00503,0 -0.004406,-5.6304e-4 -0.006704,-0.002471 -0.007271,-0.005593 -0.0517258,0 -0.0599613,-0.009508 -0.0911633,-0.009508 -0.0227942,0 -0.0529579,0.00551 -0.0861298,0.0363535 -0.025199,0.0234305 -0.0414888,0.037472 -0.0822147,0.037472 -0.003912,0 -0.006871,-6.288e-4 -0.009508,-0.001118 -3.3456e-4,-8.512e-5 -7.872e-4,9.296e-5 -0.001118,0 -0.00883,-0.002472 -0.0172387,-0.007775 -0.024049,-0.0156599 9.552e-4,-0.002097 0.005489,-0.003556 0.0117451,-0.004474 -0.0148862,-0.0104137 -0.0131971,-0.0191071 -0.0206933,-0.0290828 -4.944e-4,-6.048e-4 -0.001186,-0.001073 -0.00168,-0.001678 -0.001186,-0.001358 -0.002261,-0.003064 -0.003917,-0.004474 -0.002146,-0.001955 -0.004642,-0.003719 -0.008389,-0.005034 l 0.007271,-0.002237 c -0.006957,-0.006687 -0.0157272,-0.0105976 -0.0268454,-0.0106264 0.004373,-0.00246 0.006504,-0.00594 0.006711,-0.0100671 z m 0.0357941,0.22650996 c 0.002232,0.001066 0.004651,0.002592 0.006711,0.003355 -0.002198,0.007533 0.001474,0.0175306 0.007271,0.0229306 -8.784e-4,0.015949 0.00191,0.0311342 0.01566,0.0447427 l 0.003355,-0.0167784 c 0.003926,0.004933 0.008246,0.0101899 0.01566,0.0145416 0.002674,-2.2944e-4 0.003547,-0.001963 0.004474,-0.003355 0.002755,0.005621 0.008984,0.0100411 0.0145416,0.0145411 0.004718,-0.006817 0.005446,-0.0133171 0.004474,-0.0201341 0.005227,0.0148675 0.0129283,0.0335098 0.0218122,0.0520134 l -0.004474,0.006152 c 0,0 -0.007425,0.006238 -0.0111859,0.005593 -0.003758,-6.432e-4 -0.002467,0.002414 -0.005593,0.001118 -0.003125,-0.001296 -0.00205,-0.005456 -0.006711,-0.006711 -0.004661,-0.001258 -0.0123043,0.00168 -0.0123043,0.00168 v 5.616e-4 c -0.004229,-4.992e-4 -0.008752,0.003898 -0.006152,0.008389 4.1347e-4,-0.003389 0.003514,-0.005923 0.006152,-0.005034 v 5.616e-4 c 0,0 -2.604e-4,0.002333 0.001118,0.004474 h -0.0671124 v -0.001118 c 0,0 -0.007642,-0.0130003 -0.0123043,-0.0117451 -0.004661,0.001258 -0.002467,0.003178 -0.005593,0.004474 -0.003125,0.001296 -0.001834,-0.002323 -0.005593,-0.00168 l -0.008389,-0.010067 c 0.006531,-0.0136042 0.0141082,-0.0256037 0.0201341,-0.0363533 7.872e-4,0.006597 0.002381,0.013105 0.004474,0.0128635 0.003518,-4.0574e-4 0.008496,-0.00852 0.0123043,-0.0251678 0.004584,-0.0200362 0.00629,-0.044508 0.007271,-0.0598434 z M 0.5884257,0.61003349 c 0.005279,-3.7296e-4 0.0117859,0.005093 0.0162192,0.00783 5.376e-4,3.3278e-4 6.864e-4,8.064e-4 0.001118,0.001118 H 0.5750025 c 0.004219,-0.001109 0.009396,-0.003523 0.0134227,-0.008949 z m -0.01566,0.00168 -5.616e-4,0.003355 c 0,0 -0.004286,3.5419e-4 -0.006711,0.001118 -0.002429,7.632e-4 2.1168e-4,7.488e-4 -0.003355,0.00168 -0.001786,4.6469e-4 -0.002832,7.824e-4 -0.004474,0.001118 H 0.5291406 c 8.784e-4,-0.002213 0.003206,-0.003581 0.006152,-0.004474 v 5.616e-4 c 0,0 0.002952,0.001306 0.005034,0.001118 0.002083,-1.8687e-4 0.001013,-0.002366 0.003355,-0.002237 0.003043,1.6699e-4 0.003374,0.002784 0.006152,0.002237 0.003082,-4.3992e-4 0.005017,-0.00109 0.006152,-0.003355 0.006232,-4.068e-4 0.011244,-7.536e-4 0.0167784,-0.001118 z m 0.1677852,0 c 0.005534,3.6614e-4 0.0105461,7.104e-4 0.0167784,0.001118 0.001133,0.002266 0.003072,0.002914 0.006152,0.003355 0.002779,5.472e-4 0.003106,-0.002069 0.006152,-0.002237 0.002342,-1.285e-4 0.001277,0.00205 0.003355,0.002237 0.002083,1.8681e-4 0.005034,-0.001118 0.005034,-0.001118 v -5.616e-4 c 0.002947,8.928e-4 0.005273,0.002261 0.006152,0.004474 H 0.7567692 c -0.00204,-3.4344e-4 -0.00349,-5.712e-4 -0.005593,-0.001118 -0.003566,-9.312e-4 -9.312e-4,-9.12e-4 -0.003355,-0.00168 -0.002429,-7.632e-4 -0.006711,-0.001118 -0.006711,-0.001118 z"
      id="path8" />
   <path
      style="fill:#4d4d4d;fill-opacity:1;fill-rule:evenodd;stroke:#000000;stroke-width:0.00376262px;stroke-linecap:butt;stroke-linejoin:miter;stroke-opacity:1"
      d="m 1.1308178,0.32534315 c -0.012452,0.0187171 -0.1944784,-0.001464 -0.2419361,-0.009164 l 0.0128698,-0.014562 c 0.1910056,0.0168769 0.2377362,0.0106937 0.2290663,0.023726 z"
      id="path10" />
   <path
      d="m 1.1258389,0.30279694 c -0.013475,0.0191592 -0.1692341,0.008703 -0.19274877,0.005424 l 0.0100157,-0.0145619 c 0.15793087,0.0146665 0.19090087,-0.002476 0.18273307,0.009138 z"
      style="fill:#4d4d4d;fill-opacity:1;fill-rule:evenodd;stroke:#000000;stroke-width:0.00376262px;stroke-linecap:butt;stroke-linejoin:miter;stroke-opacity:1"
      id="path12" />
   <path
      style="fill:#4d4d4d;fill-opacity:1;fill-rule:evenodd;stroke:#000000;stroke-width:0.00376262px;stroke-linecap:butt;stroke-linejoin:miter;stroke-opacity:1"
      d="m 1.0869356,0.30294334 c -5.184e-4,0.0108521 -0.1351626,0.004257 -0.15384542,0.001768 l 0.007957,-0.0110522 c 0.089301,0.004421 0.14640352,-0.001479 0.14588842,0.009284 z m 0.014263,0.0361045 c -0.012452,0.0187171 -0.20729878,-0.003233 -0.25475648,-0.0109326 l 0.0128698,-0.0145619 c 0.19100538,0.0168769 0.25055638,0.012462 0.24188668,0.0254945 z"
      id="path14" />
   <path
      style="fill:#4d4d4d;fill-opacity:1;fill-rule:evenodd;stroke:#000000;stroke-width:0.00376262px;stroke-linecap:butt;stroke-linejoin:miter;stroke-opacity:1"
      d="m 0.9273561,0.28993968 c 0.0205368,9.168e-4 0.0876999,-0.003591 0.0870776,1.8308e-4 -0.00222,0.0134391 -0.067703,0.0146617 -0.0853223,0.010168 z m 0.1195764,0.0667973 c -0.013066,0.0195832 -0.19432296,-0.008467 -0.24149938,-0.0183889 l 0.0133454,-0.0151229 C 1.0091199,0.34805866 1.0560298,0.3431015 1.0469325,0.35673698 Z"
      id="path16" />
   <path
      d="m 0.9909422,0.37281552 c -0.012799,0.01768 -0.15633127,-1.4299e-4 -0.16926185,-0.0357525 l 0.0280214,-0.0111048 c 0.0403886,0.0387594 0.15222385,0.0316846 0.14124045,0.0468573 z"
      style="fill:#4d4d4d;fill-opacity:1;fill-rule:evenodd;stroke:#000000;stroke-width:0.00376262px;stroke-linecap:butt;stroke-linejoin:miter;stroke-opacity:1"
      id="path18" />
   <path
      style="fill:#4d4d4d;fill-opacity:1;fill-rule:evenodd;stroke:#000000;stroke-width:0.00376262px;stroke-linecap:butt;stroke-linejoin:miter;stroke-opacity:1"
      d="m 0.92232757,0.39288335 c -0.0167438,0.0140011 -0.11330242,-0.002581 -0.14937696,-0.0751982 l 0.0168686,-0.0110567 c 0.0387706,0.0585111 0.14687749,0.0742392 0.13250836,0.0862549 z"
      id="path20" />
   <path
      d="M 0.8865187,0.4061458 C 0.8697749,0.4201469 0.7886893,0.4004708 0.7557093,0.332274 L 0.7725779,0.3212173 C 0.824169,0.3960855 0.9008878,0.3941304 0.8865187,0.4061458 Z"
      style="fill:#4d4d4d;fill-opacity:1;fill-rule:evenodd;stroke:#000000;stroke-width:0.00376262px;stroke-linecap:butt;stroke-linejoin:miter;stroke-opacity:1"
      id="path22" />
   <path
      style="fill:#806600;fill-opacity:1;fill-rule:nonzero;stroke:#000000;stroke-width:0.00376262;stroke-linecap:butt;stroke-linejoin:miter;stroke-miterlimit:4;stroke-dasharray:none;stroke-dashoffset:0;stroke-opacity:1"
      d="m 0.8406955,0.59937686 c -0.004818,0.0124536 -0.0114571,0.0173347 -0.0114571,0.0194717 0,0.001392 0.003797,0.004488 0.007506,0.008805 v 0.0121344 H 0.8062106 v 0.007958 h 0.0305338 v 0.004459 c 0,0.00774 -0.0231965,0.032904 -0.0231965,0.032904 5e-8,0 0.007807,0.0108365 0.0272035,0.0108365 0.0191755,0 0.0264701,-0.0108365 0.0264701,-0.0108365 0,0 -0.0225192,-0.0251395 -0.0225192,-0.032904 v -0.004459 H 0.855821 c 0.004258,0.003696 0.007366,0.007506 0.008748,0.007506 0.002136,0 0.007018,-0.006696 0.0194717,-0.0115138 -0.0124536,-0.004818 -0.0173347,-0.0114571 -0.0194717,-0.0114571 -0.001387,0 -0.004512,0.003811 -0.008805,0.007506 H 0.84470254 V 0.6275399 c 0.003691,-0.004258 0.007506,-0.00731 0.007506,-0.008691 -4e-8,-0.002136 -0.006696,-0.007018 -0.011513,-0.019472 z m -0.37281988,0.0404107 h -0.0305338 v 0.007958 h 0.0305338 z"
      id="path24" />
   <path
      style="fill:#806600;fill-opacity:1;fill-rule:nonzero;stroke:none;stroke-width:0.999998;stroke-linecap:butt;stroke-linejoin:miter;stroke-miterlimit:4;stroke-dasharray:none;stroke-dashoffset:0;stroke-opacity:1"
      d="M 0.46345078,0.61903378 H 0.8122555 c 0,0 0.003614,0.0123782 0.003614,0.0247565 0,0.0123782 -0.003614,0.0247565 -0.003614,0.0247565 H 0.46345078 c 0,0 -0.003614,-0.0123782 -0.003614,-0.0247565 0,-0.0123782 0.003614,-0.0247565 0.003614,-0.0247565 z"
      id="path26" />
   <path
      style="fill:#554400;fill-opacity:1;fill-rule:nonzero;stroke:none;stroke-width:2;stroke-linecap:butt;stroke-linejoin:miter;stroke-miterlimit:4;stroke-dasharray:none;stroke-dashoffset:0;stroke-opacity:0.561798"
      d="m 0.46001221,0.6393924 c -9e-5,0.00145 -1.693e-4,0.002928 -1.693e-4,0.004402 0,8.88e-4 7.843e-5,0.001771 1.1285e-4,0.002654 h 0.35579357 c 3.446e-5,-8.832e-4 1.1289e-4,-0.001766 1.1289e-4,-0.002654 0,-0.001474 -7.934e-5,-0.002952 -1.6929e-4,-0.004402 z m 3.3864e-4,0.0128117 c 9.888e-4,0.009011 0.003106,0.0163675 0.003106,0.0163675 h 0.34879363 c 0,0 0.002117,-0.007357 0.003106,-0.0163675 z"
      id="path28" />
   <path
      style="fill:#806600;fill-opacity:1;fill-rule:nonzero;stroke:#000000;stroke-width:0.00376262;stroke-linecap:butt;stroke-linejoin:miter;stroke-miterlimit:4;stroke-dasharray:none;stroke-dashoffset:0;stroke-opacity:1"
      d="m 0.49675424,0.61901784 v 0.0495536 h 0.007224 v -0.0495536 z m 0.13748621,0 v 0.0495536 h 0.007224 v -0.0495536 z m 0.13748621,0 v 0.0495536 h 0.007224 v -0.0495536 z m -0.25273536,0 0.0857878,0.0495536 H 0.6192276 L 0.5334398,0.61901784 Z"
      id="path30" />
   <path
      style="fill:#806600;fill-opacity:1;fill-rule:nonzero;stroke:#000000;stroke-width:0.00376262;stroke-linecap:butt;stroke-linejoin:miter;stroke-miterlimit:4;stroke-dasharray:none;stroke-dashoffset:0;stroke-opacity:1"
      d="m 0.6047791,0.61901784 -0.0857878,0.0495536 h 0.0144485 l 0.0857878,-0.0495536 z m 0.0516985,0 0.0857878,0.0495536 H 0.7567139 L 0.6709261,0.61901784 Z"
      id="path32" />
   <path
      style="fill:#806600;fill-opacity:1;fill-rule:nonzero;stroke:#000000;stroke-width:0.00376262;stroke-linecap:butt;stroke-linejoin:miter;stroke-miterlimit:4;stroke-dasharray:none;stroke-dashoffset:0;stroke-opacity:1"
      d="m 0.74226531,0.61901784 -0.0857878,0.0495536 h 0.0144485 l 0.0857878,-0.0495536 z"
      id="path34" />
   <path
      d="M 0.46345078,0.61903378 H 0.8122555 c 0,0 0.003614,0.0123782 0.003614,0.0247565 0,0.0123782 -0.003614,0.0247565 -0.003614,0.0247565 H 0.46345078 c 0,0 -0.003614,-0.0123782 -0.003614,-0.0247565 0,-0.0123782 0.003614,-0.0247565 0.003614,-0.0247565 z"
      style="fill:none;fill-opacity:1;fill-rule:nonzero;stroke:#000000;stroke-width:0.00376262;stroke-linecap:butt;stroke-linejoin:miter;stroke-miterlimit:4;stroke-dasharray:none;stroke-dashoffset:0;stroke-opacity:1"
      id="path36" />
   <path
      style="fill:#4d4d4d;fill-opacity:1;fill-rule:evenodd;stroke:#000000;stroke-width:0.00376262px;stroke-linecap:butt;stroke-linejoin:miter;stroke-opacity:1"
      d="m 0.4556492,0.36144444 c 0,0 -0.10585041,-9.3456e-4 -0.13639105,5.1408e-4 -0.0305495,0.001449 -0.0559609,0.003002 -0.0558984,0.009521 5.508e-5,0.00575 0.0254202,0.0130112 0.0487546,0.0142701 0.0410654,0.002216 0.16016343,0.00117 0.16016343,0.00117 z"
      id="path38" />
   <path
      d="m 0.4071478,0.33744713 c 0,0 -0.10583663,-0.001949 -0.13638973,-7.9296e-4 -0.0305619,0.001156 -0.0559871,0.002466 -0.0559871,0.008985 0,0.005751 0.0252944,0.013254 0.0486157,0.0147365 0.0410423,0.002609 0.16014485,0.002704 0.16014485,0.002704 z"
      style="fill:#4d4d4d;fill-opacity:1;fill-rule:evenodd;stroke:#000000;stroke-width:0.00376262px;stroke-linecap:butt;stroke-linejoin:miter;stroke-opacity:1"
      id="path40" />
   <path
      style="fill:#4d4d4d;fill-opacity:1;fill-rule:evenodd;stroke:#000000;stroke-width:0.00376262px;stroke-linecap:butt;stroke-linejoin:miter;stroke-opacity:1"
      d="m 0.38336495,0.31762808 c 0,0 -0.0949934,-0.001949 -0.13744675,-5.2848e-4 -0.0424534,0.00142 -0.05493,0.005373 -0.05493,0.0118914 0,0.005751 0.0252944,0.009819 0.0486157,0.0113013 0.0410423,0.002609 0.16014483,0.002968 0.16014483,0.002968 z"
      id="path42" />
   <path
      d="m 0.3630174,0.29728052 -0.11260688,0.001057 c -0.0368125,0 -0.0797699,0.003787 -0.0797699,0.0103058 0,0.005751 0.0181595,0.008233 0.0414808,0.009716 0.0410423,0.002609 0.1672797,0.004554 0.1672797,0.004554 z"
      style="fill:#4d4d4d;fill-opacity:1;fill-rule:evenodd;stroke:#000000;stroke-width:0.00376262px;stroke-linecap:butt;stroke-linejoin:miter;stroke-opacity:1"
      id="path44" />
   <path
      style="fill:#4d4d4d;fill-opacity:1;fill-rule:evenodd;stroke:#000000;stroke-width:0.00376262px;stroke-linecap:butt;stroke-linejoin:miter;stroke-opacity:1"
      d="m 0.44693437,0.2996662 c 0,0 -0.0302678,-4.1628e-4 -0.0523146,3.15e-5 -0.0220529,4.4779e-4 -0.0387317,0.005459 -0.0378278,0.0132238 7.608e-4,0.006537 0.0197316,0.0108091 0.0364686,0.0128302 0.029455,0.003557 0.0845417,-0.00222 0.0845417,-0.00222 z M 0.32787164,0.28089682 h -0.0518285 c -0.0368125,0 -0.0845265,0.004844 -0.0845265,0.0113628 0,0.002316 0.002742,0.007073 0.0250971,0.007073 0.0406941,0 0.12103526,6.174e-5 0.12103526,6.174e-5 z"
      id="path46" />
   <path
      d="m 0.47472531,0.31371434 c 0,0 -0.0487622,0.005384 -0.0707802,0.006592 -0.0220244,0.001208 -0.0385204,0.006791 -0.0373494,0.0145201 9.8592e-4,0.006507 0.0200925,0.0101224 0.0368893,0.0115653 0.0295601,0.002539 0.0844149,-0.005134 0.0844149,-0.005134 z"
      style="fill:#4d4d4d;fill-opacity:1;fill-rule:evenodd;stroke:#000000;stroke-width:0.00376262px;stroke-linecap:butt;stroke-linejoin:miter;stroke-opacity:1"
      id="path48" />
   <path
      style="fill:#4d4d4d;fill-opacity:1;fill-rule:evenodd;stroke:#000000;stroke-width:0.00376262px;stroke-linecap:butt;stroke-linejoin:miter;stroke-opacity:1"
      d="m 0.4840988,0.33617268 c 0,0 -0.0450336,0.003313 -0.06701,0.005129 -0.0219826,0.001816 -0.0383181,0.007853 -0.0369339,0.0155465 0.001165,0.006477 0.0203871,0.00923 0.0371948,0.0105418 0.040093,0.003108 0.0654034,-0.007473 0.082391,-0.0227909 z M 0.4661132,0.377632 c 0,0 -0.0445742,0.007969 -0.066247,0.0120354 C 0.3781871,0.3937354 0.3618283,0.4015826 0.3626517,0.408049 0.36337794,0.413754 0.3816534,0.412474 0.398495,0.411716 0.428134,0.410382 0.4791977,0.3873221 0.4791977,0.3873221 Z"
      id="path50" />
   <path
      d="m 0.4387341,0.36756738 c -0.0130416,0.005305 -0.0629354,0.0165536 -0.0886214,0.0178994 -0.011296,5.9664e-4 -0.0161635,0.002204 -0.0157128,0.008707 5.208e-4,0.007511 0.0184376,0.007749 0.0354707,0.006326 0.0371556,-0.003086 0.0822953,-0.0183159 0.0822953,-0.0183159 z"
      style="fill:#4d4d4d;fill-opacity:1;fill-rule:evenodd;stroke:#000000;stroke-width:0.00376262px;stroke-linecap:butt;stroke-linejoin:miter;stroke-opacity:1"
      id="path52" />
   <path
      d="m 0.50444634,0.33987218 c 0,0 -0.0281218,0.020754 -0.0553828,0.0233621 -0.0264514,0.002531 -0.0446602,0.006003 -0.0432761,0.0136967 0.001165,0.006477 0.0203687,0.009494 0.0371948,0.0105418 0.0459067,0.002844 0.0765021,-0.009323 0.0913757,-0.0259619 z"
      style="fill:#4d4d4d;fill-opacity:1;fill-rule:evenodd;stroke:#000000;stroke-width:0.00376262px;stroke-linecap:butt;stroke-linejoin:miter;stroke-opacity:1"
      id="path54" />
   <path
      d="m 0.51575811,0.37585427 c 0,0 -0.044567,0.0129241 -0.0654383,0.0200406 -0.0208771,0.007119 -0.0358439,0.0176989 -0.0326266,0.0248231 0.002707,0.005998 0.022081,0.004312 0.0386424,0.001159 0.0291456,-0.005549 0.0737553,-0.0382985 0.0737553,-0.0382985 z"
      style="fill:#4d4d4d;fill-opacity:1;fill-rule:evenodd;stroke:#000000;stroke-width:0.00376262px;stroke-linecap:butt;stroke-linejoin:miter;stroke-opacity:1"
      id="path56" />
   <path
      style="fill:#4d4d4d;fill-opacity:1;fill-rule:evenodd;stroke:#000000;stroke-width:0.00376262px;stroke-linecap:butt;stroke-linejoin:miter;stroke-opacity:1"
      d="m 0.52717218,0.34964954 c 0,0 -0.0178478,0.0228447 -0.0334498,0.0281186 -0.0153422,0.005186 -0.037261,0.009439 -0.0358771,0.0171322 0.001166,0.006477 0.0154824,0.0115875 0.0321739,0.00922 0.037979,-0.005349 0.0561545,-0.0238566 0.0710281,-0.0404959 z"
      id="path58" />
   <path
      style="fill:#4d4d4d;fill-opacity:1;fill-rule:evenodd;stroke:#000000;stroke-width:0.00376262px;stroke-linecap:butt;stroke-linejoin:miter;stroke-opacity:1"
      d="m 0.54587346,0.37953875 c 0,0 -0.0412373,0.020574 -0.0608036,0.0307434 -0.0195715,0.0101723 -0.0335122,0.0249168 -0.0280877,0.0305455 0.004685,0.00486 0.0334214,-0.004516 0.0496515,-0.009077 0.0365146,-0.0102595 0.0618452,-0.0366395 0.0558962,-0.044517 z"
      id="path60" />
   <path
      d="m 0.56245165,0.39169606 c 0,0 -0.0348274,0.0238895 -0.0543934,0.034059 -0.019572,0.0101723 -0.0335122,0.0249168 -0.0280877,0.0305455 0.004685,0.00486 0.0353702,-0.00326 0.0489884,-0.0123923 0.0308558,-0.0206916 0.0483807,-0.0449591 0.0483807,-0.0449591 z"
      style="fill:#4d4d4d;fill-opacity:1;fill-rule:evenodd;stroke:#000000;stroke-width:0.00376262px;stroke-linecap:butt;stroke-linejoin:miter;stroke-opacity:1"
      id="path62" />
   <path
      style="fill:#4d4d4d;fill-opacity:1;fill-rule:evenodd;stroke:#000000;stroke-width:0.00376262px;stroke-linecap:butt;stroke-linejoin:miter;stroke-opacity:1"
      d="m 0.57261958,0.40274822 c 0,0 -0.0279749,0.0278683 -0.0475411,0.0380377 -0.0195715,0.0101724 -0.0335122,0.0249169 -0.0280877,0.0305455 0.004685,0.00486 0.0296232,-0.004807 0.0432413,-0.0139395 0.0308558,-0.0206917 0.0472752,-0.0473906 0.0472752,-0.0473906 z"
      id="path64" />
   <path
      style="fill:#4d4d4d;fill-opacity:1;fill-rule:evenodd;stroke:#000000;stroke-width:0.00376262px;stroke-linecap:butt;stroke-linejoin:miter;stroke-opacity:1"
      d="m 0.56945278,0.36894009 c 0,0 -0.009917,0.0176267 -0.0218227,0.0278545 -0.0113165,0.009722 -0.0274838,0.0208014 -0.0260995,0.0284949 0.001166,0.006477 0.0115584,0.009303 0.0229253,0.003936 0.0229579,-0.0108412 0.0392424,-0.03152 0.0483023,-0.0484234 z m 0.0131136,0.0433129 c 0,0 -0.0203832,0.0264209 -0.042899,0.0417954 -0.0226666,0.0154774 -0.0297542,0.0291167 -0.0243298,0.0347454 0.004685,0.00486 0.0260866,-0.004363 0.0388205,-0.0148238 0.0287098,-0.0235792 0.043297,-0.0544639 0.043297,-0.0544639 z"
      id="path66" />
   <path
      d="m 0.58153683,0.38220075 c 0,0 -0.006919,0.0189986 -0.0178253,0.030286 -0.0103666,0.010729 -0.0220018,0.0219386 -0.0199104,0.0294706 0.001762,0.006341 0.006293,0.0118908 0.0184344,0.002586 0.0201514,-0.015444 0.0361512,-0.0350221 0.0436051,-0.0526928 z"
      style="fill:#4d4d4d;fill-opacity:1;fill-rule:evenodd;stroke:#000000;stroke-width:0.00376262px;stroke-linecap:butt;stroke-linejoin:miter;stroke-opacity:1"
      id="path68" />
   <path
      style="fill:#4d4d4d;fill-opacity:1;fill-rule:evenodd;stroke:#000000;stroke-width:0.00376262px;stroke-linecap:butt;stroke-linejoin:miter;stroke-opacity:1"
      d="m 0.59273442,0.41004253 c 0,0 -0.0163642,0.0361536 -0.0307416,0.0535109 -0.0145958,0.0176207 -0.0211339,0.0291166 -0.0157094,0.0347452 0.004685,0.00486 0.0225149,-0.002198 0.0310838,-0.016813 0.0187522,-0.0319771 0.0267187,-0.065516 0.0267187,-0.065516 z m 0.12036427,0.1183887 c 0.004656,0.0216235 0.0190099,0.0575901 0.0319853,0.0739595 0.002467,-6.533e-5 0.004339,0.001253 0.005928,0.00323 0,0 0.002885,0.002918 0.004181,0.001699 0.005168,-0.004858 0.0133099,-0.002899 0.0133099,-0.002899 0,0 0.00253,-9.696e-4 0.00517,-9.236e-5 0.002602,8.64e-4 0.00486,0.002318 0.006216,0.005216 l -0.001882,0.005268 c 0,0 -0.00275,0.001478 -0.00483,0.001291 -0.002083,-1.8686e-4 -0.001152,-0.00217 -0.003494,-0.00204 -0.003043,1.67e-4 -0.003624,0.002405 -0.006403,0.001858 -0.003082,-4.3992e-4 -0.004646,-0.00109 -0.00578,-0.003355 -0.006232,-4.068e-4 -0.0115574,-7.584e-4 -0.0170918,-0.001128 l 8.88e-4,0.003461 c 0,0 0.003917,3.9216e-4 0.006344,0.001157 0.002429,7.632e-4 -2.0367e-4,9.696e-4 0.003365,0.001901 0.003566,9.312e-4 0.005811,0.001795 0.0109056,0.001814 0.005476,2.381e-5 0.004835,0.003398 0.008361,0.004421 0.003528,0.001027 0.003125,-0.001853 0.005743,-3.214e-4 0.002621,0.001531 0.004738,0.006442 0.004738,0.006442 l -0.001733,0.005146 c 0,0 -0.004421,0.001939 -0.008098,5.313e-5 -0.003677,-0.001886 -0.003797,-0.006788 -0.006617,-0.0076 -0.003202,-9.216e-4 -0.005096,0.004786 -0.009743,0.002779 -0.004646,-0.002006 -0.005285,-0.008211 -0.008847,-0.010813 -0.003562,-0.002602 -0.005517,0.001123 -0.005517,0.001123 l 0.005219,0.009749 c 0,0 0.002328,-9.456e-4 0.004546,9.216e-4 0.002213,0.001867 0.002448,0.00457 0.004478,0.006164 0.002093,0.001646 0.004402,4.2043e-4 0.006666,0.002616 0.002261,0.002198 0.002218,0.006557 0.002218,0.006557 l -0.005202,0.004813 c 0,0 -0.007498,0.002098 -0.0103498,-0.001786 -0.001934,-0.00263 0.004104,-0.004022 0.002491,-0.00602 -0.001613,-0.001997 -0.006065,-9.091e-5 -0.008482,-0.002592 -0.002419,-0.002501 0.001128,-0.004952 -0.001186,-0.007416 -0.002314,-0.002462 -0.007227,0.001666 -0.008533,-0.00181 -0.001037,-0.002755 9.024e-4,-0.008355 -2.9261e-4,-0.0103805 0,0 -0.010428,0.005755 -0.0157066,0.005382 -0.005279,-3.7301e-4 -3.659e-4,-0.005564 -0.005409,-0.006874 -0.005042,-0.00131 -0.009993,0.002861 -0.0150226,0.001354 -0.005029,-0.001507 -0.005096,-0.00738 -0.005096,-0.00738 l 4.2331e-4,-0.004306 c 0,0 0.007432,-0.00265 0.0120941,-0.001397 0.004661,0.001258 0.003432,0.005119 0.006555,0.006416 0.003125,0.001296 0.002184,-0.001872 0.005942,-0.001229 0.003758,6.432e-4 0.0112613,-0.005256 0.0112613,-0.005256 l 0.003979,-0.006426 C 0.71937939,0.5783568 0.70856679,0.5516132 0.70456349,0.5372466 Z m -0.0985185,0.003754 c -0.004656,0.0216235 -0.0227611,0.0507128 -0.035737,0.0670822 -0.002467,-6.533e-5 -0.00662,0.002918 -0.008741,0.004171 -0.004651,0.002741 -0.0106997,0.005105 -0.0119952,0.003888 -0.005168,-0.004858 -0.0133099,-0.002899 -0.0133099,-0.002899 0,0 -0.00253,-9.696e-4 -0.00517,-9.235e-5 -0.002602,8.64e-4 -0.00486,0.002318 -0.006216,0.005216 l 0.001882,0.005268 c 0,0 0.00275,0.001478 0.00483,0.001291 0.002083,-1.8687e-4 0.001152,-0.00217 0.003494,-0.00204 0.003043,1.6699e-4 0.003624,0.002405 0.006403,0.001858 0.003082,-4.3992e-4 0.004646,-0.00109 0.00578,-0.003355 0.006232,-4.068e-4 0.0115574,-7.584e-4 0.0170918,-0.001128 l -8.88e-4,0.003461 c 0,0 -0.003917,3.9216e-4 -0.006344,0.001157 -0.002429,7.632e-4 2.0361e-4,9.696e-4 -0.003365,0.001901 -0.003566,9.312e-4 -0.005811,0.001795 -0.0109056,0.001814 -0.005476,2.381e-5 -0.001085,0.005585 -0.004608,0.006611 -0.003528,0.001027 -0.003125,-0.001853 -0.005743,-3.2141e-4 -0.002621,0.001531 -0.002237,0.008942 -0.002237,0.008942 l 0.001733,0.005146 c 0,0 0.004109,6.442e-5 0.007786,-0.001824 0.003677,-0.001886 0.001608,-0.007413 0.00443,-0.008225 0.003202,-9.216e-4 0.001344,0.002597 0.005992,5.904e-4 0.004646,-0.002006 0.005285,-0.008211 0.008847,-0.010813 0,0 0.0128448,9.84e-4 0.0208982,-0.009868 0.005279,-3.7296e-4 0.011916,0.005082 0.0163493,0.007818 0.00598,0.003691 0.004944,0.006075 0.009396,0.008857 0.00409,0.002558 0.009785,-0.003629 0.009785,-0.003629 l 5.136e-4,-0.005242 c 0,0 -0.007432,-0.0129658 -0.0120941,-0.0117101 -0.004661,0.001258 -0.002179,0.002933 -0.005304,0.004229 -0.003125,0.001296 -0.002184,-0.001872 -0.005942,-0.001229 l -0.008049,-0.0101184 c 0.0114082,-0.0237614 0.0259718,-0.0436277 0.029975,-0.0579944 z"
      id="path70" />
   <path
      style="fill:#4d4d4d;fill-opacity:1;fill-rule:evenodd;stroke:#000000;stroke-width:0.00376262px;stroke-linecap:butt;stroke-linejoin:miter;stroke-opacity:1"
      d="m 0.61567347,0.47226157 c 0,0 -0.003691,0.0390323 -0.0123782,0.0618919 -0.003869,0.0101755 -0.0143678,0.0259723 -0.0123782,0.0296198 0.001987,0.003648 0.0212203,-0.016357 0.0212203,-0.016357 0,0 8.64e-4,0.0283632 0.005305,0.027851 0.003523,-4.057e-4 0.008562,-0.008278 0.0123701,-0.0249259 0.005825,-0.0254645 0.007518,-0.0645752 0.008187,-0.0729958 z"
      id="path72" />
   <path
      style="fill:#4d4d4d;fill-opacity:1;fill-rule:evenodd;stroke:#000000;stroke-width:0.00376262px;stroke-linecap:butt;stroke-linejoin:miter;stroke-opacity:1"
      d="M 0.6205364,0.47624045 0.5988742,0.45855705 c -0.010368,0.022841 -0.0177566,0.0467703 -0.0154728,0.0696283 7.92e-4,0.007907 0.0132624,-2.2104e-4 0.0154728,-0.00641 0,0 0.004531,0.007737 0.009726,-0.002654 0.005195,-0.0103891 0.0119362,-0.0428822 0.0119362,-0.0428822 z"
      id="path74" />
   <path
      d="m 0.74038112,0.62134766 c -9.12e-4,-0.001483 -0.001195,-0.002813 -0.001195,-0.00407"
      style="fill:#e6e6e6;fill-opacity:1;fill-rule:evenodd;stroke:#000000;stroke-width:0.00376262px;stroke-linecap:butt;stroke-linejoin:miter;stroke-opacity:1"
      id="path76" />
   <path
      d="m 0.77879245,0.60922046 c 0.005728,0.004301 0.00932,0.00919 0.00564,0.0160704 9.792e-4,-0.006798 -0.001219,-0.009884 -0.007349,-0.011316 -5.808e-4,-0.001781 -4.032e-4,-0.003917 0.001709,-0.004752 z m 2.0265e-4,0.0202138 c 0.006578,6.672e-4 0.008037,0.006656 0.005749,0.0101736 2.316e-4,-0.003571 -0.001838,-0.007595 -0.007728,-0.005566 -2.5027e-4,-0.001882 6.212e-5,-0.003547 0.001978,-0.004608 z"
      style="fill:#4d4d4d;fill-opacity:1;fill-rule:evenodd;stroke:#000000;stroke-width:0.00376262px;stroke-linecap:butt;stroke-linejoin:miter;stroke-opacity:1"
      id="path78" />
   <path
      d="m 0.76137886,0.64578974 c 0.004296,0.005587 8.784e-4,0.0123245 -0.002971,0.0154378 0.002088,-0.003446 0.002914,-0.008088 -0.001123,-0.011544 5.232e-4,-0.001843 0.001786,-0.003206 0.004094,-0.003894 z"
      style="fill:#4d4d4d;fill-rule:evenodd;stroke:#000000;stroke-width:0.00376262px;stroke-linecap:butt;stroke-linejoin:miter;stroke-opacity:1"
      id="path80" />
   <path
      d="m 0.69257288,0.61088918 c -0.004699,-0.002794 -0.0115656,0.003634 -0.007776,0.008927 1.7266e-4,-0.00409 0.004214,-0.008114 0.0072,-0.005484 z m -0.15806616,-0.001669 c -0.005728,0.004301 -0.00932,0.00919 -0.00564,0.0160704 -9.792e-4,-0.006798 0.001219,-0.009884 0.007349,-0.011316 5.808e-4,-0.001781 4.0315e-4,-0.003917 -0.001709,-0.004752 z m 0.005222,0.0243778 c -0.004296,0.005586 -8.784e-4,0.0123245 0.002971,0.0154373 -0.002088,-0.003446 -0.002914,-0.008088 0.001123,-0.011544 -5.232e-4,-0.001843 -0.001786,-0.003206 -0.004094,-0.003893 z m 0.0817805,-0.0148723 c 0.00739,-4.596e-4 0.0118555,0.009312 0.004061,0.0127022 0.002256,-0.004147 -2.2522e-4,-0.010139 -0.005437,-0.008999 z M 0.55597582,0.35493473 c 0,0 -0.0186374,0.0260827 -0.0326568,0.034725 -0.0126998,0.007829 -0.0327686,0.0144594 -0.0313848,0.0221528 0.001166,0.006477 0.008891,0.008846 0.0221323,0.006049 0.0251563,-0.005313 0.0519264,-0.0331055 0.0609865,-0.0500091 z"
      style="fill:#4d4d4d;fill-opacity:1;fill-rule:evenodd;stroke:#000000;stroke-width:0.00376262px;stroke-linecap:butt;stroke-linejoin:miter;stroke-opacity:1"
      id="path82" />
   <path
      style="fill:#4d4d4d;fill-opacity:1;fill-rule:evenodd;stroke:#000000;stroke-width:0.00376262px;stroke-linecap:butt;stroke-linejoin:miter;stroke-opacity:1"
      d="m 0.29652765,0.28098773 0.0852151,9.11e-5 c 0.0440151,0 0.0827636,0.0114259 0.1062928,0.029348 0.0385253,0.0293442 0.0554778,0.0333527 0.0873052,0.0304458 l 3.7368e-4,0.0190593 c 0,0 -0.006166,0.0142944 -0.010464,0.0134536 -0.004296,-8.4096e-4 -0.00752,-0.0139104 -0.00752,-0.0139104 0,0 -0.005654,0.0140038 -0.010045,0.0135366 -0.004392,-4.6729e-4 -0.006991,-0.0156694 -0.006991,-0.0156694 0,0 -0.006089,0.0141745 -0.0113208,0.0126797 -0.005232,-0.001495 -0.009343,-0.0176019 -0.009343,-0.0176019 0,0 -0.007941,0.0116225 -0.0145747,0.0105015 -0.006634,-0.001121 -0.0119587,-0.0186856 -0.0119587,-0.0186856 0,0 -0.0147614,0.006727 -0.0198067,7.4736e-4 -0.005045,-0.005979 -3.7368e-4,-0.0246648 -3.7368e-4,-0.0246648 0,0 -0.0107443,0.0101836 -0.0194328,0.006727 -0.008689,-0.003457 -0.0153221,-0.0205541 -0.0153221,-0.0205541 0,0 -0.0147312,0.003975 -0.0282661,0.002616 -0.005677,-5.7024e-4 -0.006972,-0.007165 -0.006972,-0.007165 0,0 -0.0203247,-9.1824e-4 -0.0334981,0.001604 -0.0131733,0.002522 -0.0131067,0.007146 -0.0263301,0.006372 -0.0175707,-0.00103 -0.0187954,-0.014488 -0.0187954,-0.014488 -0.0167638,3.3951e-4 -0.0252604,-0.008291 -0.0281726,-0.0144428 z"
      id="path84" />
   <path
      style="fill:#4d4d4d;fill-opacity:1;fill-rule:evenodd;stroke:#000000;stroke-width:0.00376262px;stroke-linecap:butt;stroke-linejoin:miter;stroke-opacity:1"
      d="m 0.56837038,0.31885832 c 0,0 0.007515,0.005699 0.007515,0.015915 0,0.0185705 -0.008842,0.0335975 -0.008842,0.0583552 0,0.0228005 0.006607,0.0393199 0.0181253,0.0557027 0.0113707,0.0161718 0.039576,0.0375157 0.0587972,0.0446506 -0.002198,0.007533 0.001277,0.0180302 0.007073,0.0234302 -8.784e-4,0.015949 0.002165,0.0310421 0.0159149,0.0446506 l 0.003096,-0.016799 c 0.003926,0.004933 0.00828,0.009795 0.0156941,0.0141466 0.002674,-2.2944e-4 0.003806,-0.001483 0.004733,-0.002875 0.002755,0.005621 0.00894,0.009871 0.0144974,0.0143717 0.007652,-0.011052 0.004488,-0.022104 0.001325,-0.0331565 0.007345,0.0162019 0.02244,0.0253685 0.035809,0.0313882 0.006437,-0.0107573 -4.525e-4,-0.0219566 -0.007073,-0.0322723 0.008412,0.002194 0.0170976,-0.002645 0.0107112,-0.0156523 -0.005202,-0.0105946 -0.021984,-0.0389453 -0.021984,-0.0389453 l 0.0268243,-0.0191918 -0.0321629,-0.0918425 -0.0452803,-0.0218123 c -0.0138139,0 -0.0259834,-0.005866 -0.035809,-0.0172414 9.552e-4,-0.002097 0.005017,-0.003502 0.0112733,-0.004421 -0.0180989,-0.0126611 -0.0111672,-0.0230563 -0.0267888,-0.0359081 z m 0.29737037,0.10894975 c -0.0167438,0.0140009 -0.0978295,-0.005675 -0.13080941,-0.073872 l 0.0204053,-0.0163617 c 0.0515912,0.0748683 0.12477336,0.0782181 0.11040411,0.0902337 z"
      id="path86" />
   <path
      style="fill:#4d4d4d;fill-opacity:1;fill-rule:evenodd;stroke:#000000;stroke-width:0.00376262px;stroke-linecap:butt;stroke-linejoin:miter;stroke-opacity:1"
      d="m 0.70718494,0.46165164 c 0.006189,0.0119363 0.0348984,0.043268 0.0428822,0.0349247 0.004836,-0.005054 -0.003979,-0.0282935 -0.003979,-0.0282935 m 0.0891489,-0.0179285 c -0.0111197,0.0108029 -0.085009,-0.0127485 -0.11798895,-0.0809453 l 0.0164266,-0.0145933 c 0.0635274,0.0753104 0.11184591,0.0855481 0.10156235,0.0955386 z"
      id="path88" />
   <path
      style="fill:#4d4d4d;fill-opacity:1;fill-rule:evenodd;stroke:#000000;stroke-width:0.00376262px;stroke-linecap:butt;stroke-linejoin:miter;stroke-opacity:1"
      d="m 0.71912125,0.44662078 c 0.021949,0.0289827 0.0566021,0.0447787 0.0623339,0.0397875 0.005347,-0.004656 -0.003427,-0.0194516 -0.0207778,-0.0375771 -0.017352,-0.0181256 -0.0448781,-0.0383633 -0.0448781,-0.0383633 l -0.0125928,0.021122 c 0,0 0.009997,0.007217 0.0159148,0.0150309 z"
      id="path90" />
   <path
      style="fill:#4d4d4d;fill-opacity:1;fill-rule:evenodd;stroke:#000000;stroke-width:0.00376262px;stroke-linecap:butt;stroke-linejoin:miter;stroke-opacity:1"
      d="m 0.80551381,0.46877647 c -0.0125971,0.009037 -0.0825447,-0.0239878 -0.10612104,-0.0959785 l 0.0182285,-0.0122687 c 0.0529,0.0831202 0.10162877,0.0983932 0.0878925,0.1082472 z"
      id="path92" />
   <path
      style="fill:#4d4d4d;fill-rule:evenodd;stroke:#000000;stroke-width:0.00376262px;stroke-linecap:butt;stroke-linejoin:miter;stroke-opacity:1"
      d="m 0.57051027,0.37762357 c 0,0 0.009925,0.0168023 0.0140669,0.0150049 0.004142,-0.001798 0.002501,-0.0221947 0.002501,-0.0221947 0,0 0.009144,0.009925 0.0128165,0.006565 0.003672,-0.00336 0.001877,-0.0200065 0.001877,-0.0200065 0,0 0.008596,0.0111755 0.0112536,0.009065 0.002659,-0.00211 -6.24e-4,-0.0175057 -6.24e-4,-0.0175057 0,0 0.009769,0.007502 0.0140669,0.004064 0.004296,-0.003439 0.003125,-0.0178182 0.003125,-0.0178182 0.004066,0.002124 0.008128,0.00543 0.0121915,0.002813 M 0.57051027,0.403882 c 0,0 0.007659,0.0147705 0.0106286,0.0143798 0.002971,-3.9087e-4 0.001248,-0.0159427 0.001248,-0.0159427 0,0 0.0103939,0.0110192 0.0137544,0.008753 0.00336,-0.002267 -3.1257e-4,-0.0178183 -3.1257e-4,-0.0178183 0,0 0.006408,0.0117226 0.0103157,0.009065 0.003907,-0.002657 0.005314,-0.0196938 0.005314,-0.0196938 0,0 0.009691,0.0106284 0.0134419,0.009691 0.003754,-9.3792e-4 0.001565,-0.0134418 0.001565,-0.0134418 0,0 0.00633,0.003908 0.007502,0.00125 0.001171,-0.002657 -0.002813,-0.0118788 -0.002813,-0.0118788 0,0 0.009847,0.008753 0.012504,0.005627 0.002659,-0.003126 -0.001877,-0.0181308 -0.001877,-0.0181308 0,0 0.009925,0.008128 0.0137544,0.005627 0.00383,-0.002501 0.001565,-0.0156301 0.001565,-0.0156301 M 0.57254216,0.42467 c 0,0 0.0104722,0.0110192 0.0151613,0.009847 0.00469,-0.001172 0.00469,-0.0146923 0.00469,-0.0146923 0,0 0.009222,0.009534 0.0134419,0.006877 0.004219,-0.002657 0.003437,-0.0175055 0.003437,-0.0175055 0,0 0.006408,0.013598 0.0106286,0.0118788 0.004219,-0.001719 0.006252,-0.0187561 0.006252,-0.0187561 0,0 0.007585,0.0102545 0.0143798,0.009378"
      id="path94" />
   <path
      style="fill:#4d4d4d;fill-opacity:1;fill-rule:evenodd;stroke:#000000;stroke-width:0.00376262px;stroke-linecap:butt;stroke-linejoin:miter;stroke-opacity:1"
      d="m 0.65585034,0.40231905 c 0,0 0.008675,0.0117226 0.0118786,0.009065 0.003206,-0.002657 9.36e-4,-0.0196938 9.36e-4,-0.0196938"
      id="path96" />
   <path
      style="fill:#4d4d4d;fill-rule:evenodd;stroke:#000000;stroke-width:0.00376262px;stroke-linecap:butt;stroke-linejoin:miter;stroke-opacity:1"
      d="m 0.58129501,0.44201943 c 0.002189,0.002188 0.00508,0.00844 0.008596,0.008128 0.003518,-3.1266e-4 0.004378,-0.009065 0.004378,-0.009065 0,0 0.005392,0.00844 0.00844,0.00719 0.003048,-0.00125 0.003754,-0.0121915 0.003754,-0.0121915 0,0 0.00719,0.009769 0.0112536,0.00844 0.004066,-0.001329 0.005002,-0.0137545 0.005002,-0.0137545 0,0 0.008284,0.0115662 0.0118786,0.009691 0.003595,-0.001876 0.002501,-0.017193 0.002501,-0.017193 m -0.0362616,0.0365743 c 0,0 0.008753,0.0103941 0.0106286,0.009378 0.001877,-0.001016 -0.003125,-0.0134418 -0.003125,-0.0134418 0,0 0.009612,0.0103157 0.0150048,0.00844 0.005392,-0.001876 0.006564,-0.0159425 0.006564,-0.0159425 0,0 0.006486,0.0113317 0.0100032,0.009691 0.003518,-0.001641 0.004066,-0.0162552 0.004066,-0.0162552 0,0 0.008519,0.0105504 0.012504,0.008128 0.003984,-0.002423 0.003437,-0.0178182 0.003437,-0.0178182 m -0.043764,0.0428263 c 0.003125,0.002188 0.008909,0.007268 0.012504,0.005939 0.003595,-0.001329 0.001877,-0.0112535 0.001877,-0.0112535 0,0 0.0109411,0.009143 0.0150048,0.007815 0.004066,-0.001329 0.001248,-0.0131293 0.001248,-0.0131293 0,0 0.0100814,0.009847 0.0143798,0.007502 0.004296,-0.002344 0.002813,-0.0168803 0.002813,-0.0168803 0,0 0.0104722,0.0105503 0.0150048,0.008753 0.004531,-0.001798 0.003125,-0.0159425 0.003125,-0.0159425 m -0.0450144,0.0400129 c 0.001877,6.24e-4 0.0107846,0.00469 0.0146923,0.003125 0.003907,-0.001565 9.36e-4,-0.009378 9.36e-4,-0.009378 0,0 0.009456,0.007268 0.0131294,0.005627 0.003672,-0.001642 0.001565,-0.0121915 0.001565,-0.0121915 0,0 0.0111754,0.009378 0.0153173,0.00719 0.004142,-0.002188 0.001253,-0.0159427 0.001253,-0.0159427 m -0.0392314,0.0411071 c 0.001718,0.005158 0.009222,0.0118008 0.012973,0.0104722 0.003754,-0.00133 0.001565,-0.0156302 0.001565,-0.0156302 0,0 0.009144,0.0105504 0.013129,0.009691 0.003984,-8.592e-4 0.002813,-0.0131294 0.002813,-0.0131294 0,0 0.008753,0.004531 0.0112536,0.002501 0.002501,-0.00203 -0.001248,-0.0106282 -0.001248,-0.0106282"
      id="path98" />
   <path
      style="fill:#4d4d4d;fill-rule:evenodd;stroke:#000000;stroke-width:0.00376262px;stroke-linecap:butt;stroke-linejoin:miter;stroke-opacity:1"
      d="m 0.67304336,0.51172949 c 0.002875,0.0148738 0.009007,0.0297029 0.0171931,0.0439205 m -0.0325104,-0.037981 c 0.002496,0.010153 0.00701,0.0200621 0.0123475,0.0270398 M 0.57801267,0.33698538 c 0.001565,0.002188 0.00383,0.0137544 0.007502,0.0131293 0.003672,-6.2496e-4 0.00719,-0.0156301 0.00719,-0.0156301 0,0 0.004845,0.010863 0.006877,0.009065 0.00203,-0.001798 0.001253,-0.0162552 0.001253,-0.0162552 0,0 0.004219,0.00633 0.006564,0.004689 0.002342,-0.001641 0.002813,-0.0112537 0.002813,-0.0112537"
      id="path100" />
   <path
      style="fill:#4d4d4d;fill-opacity:1;fill-rule:evenodd;stroke:#000000;stroke-width:0.00376262px;stroke-linecap:butt;stroke-linejoin:miter;stroke-opacity:1"
      d="m 0.54550218,0.27915435 c -0.0257083,-1.8971e-4 -0.0402638,0.003913 -0.0303221,0.0178182 0.002342,-0.0127809 0.019765,-0.007161 0.0397003,-0.004689 0.002976,0.004793 0.006565,0.008336 0.00469,0.0131293 -0.0162341,-9.0384e-4 -0.0223416,0.002337 -0.025008,0.007502 0.007378,-0.001448 0.0185405,-0.002976 0.0284467,0.001876 0.006339,0.003105 0.009596,0.008386 0.0121915,0.0131291 0,0 0.009769,0.003439 0.012504,-9.3792e-4 0.002736,-0.004376 -0.001565,-0.0165679 -0.001565,-0.0165679 0,0 0.007737,0.008518 0.0109411,0.007502 0.003206,-0.001016 0.001877,-0.0115662 0.001877,-0.0115662 0,0 0.0135202,0.0121915 0.0171931,0.010941 0.003672,-0.00125 -0.002501,-0.0159427 -0.002501,-0.0159427 0,0 0.009769,0.008597 0.0134419,0.007815 0.003672,-7.8144e-4 0.001248,-0.010941 0.001248,-0.010941 -0.003461,-0.004243 -0.006575,-0.008624 -0.0140669,-0.0112537 l 0.006877,-0.002188 c -0.006957,-0.006687 -0.0154526,-0.0109122 -0.0265709,-0.010941 0.004373,-0.00246 0.006358,-0.005876 0.006564,-0.0100032 -0.0149006,0.005165 -0.028716,0.005458 -0.0434515,0.005314 -0.008382,-7.839e-5 -0.0117888,0.005858 -0.0121915,0.0100032 z"
      id="path102" />
   <path
      style="fill:none;fill-rule:evenodd;stroke:#000000;stroke-width:0.00376262px;stroke-linecap:butt;stroke-linejoin:miter;stroke-opacity:1"
      d="m 0.55488022,0.28102997 c 0,0 -7.056e-4,-0.003751 0.004378,-0.004064 0.00508,-3.1266e-4 0.0107846,0.002735 0.0159427,0.002813 0.005158,7.82e-5 0.00469,-0.002501 0.00469,-0.002501"
      id="path104" />
   <path
      style="fill:#000000;fill-opacity:1;fill-rule:nonzero;stroke:none;stroke-width:0.00375999;stroke-linecap:butt;stroke-linejoin:miter;stroke-miterlimit:4;stroke-dasharray:none;stroke-dashoffset:0;stroke-opacity:1"
      d="m 0.56488166,0.28253487 a 0.004061,0.004061 0 1 1 -0.008122,0 0.004061,0.004061 0 1 1 0.008122,0 z"
      id="path106" />
   <path
      style="fill:none;fill-rule:evenodd;stroke:#000000;stroke-width:0.00376262px;stroke-linecap:butt;stroke-linejoin:miter;stroke-opacity:1"
      d="m 0.52236973,0.28665663 c 0.004864,-0.00211 0.0190478,-7.875e-5 0.0309475,9.3792e-4"
      id="path108" />
   <path
      style="fill:#4d4d4d;fill-opacity:1;fill-rule:evenodd;stroke:#000000;stroke-width:0.00376262px;stroke-linecap:butt;stroke-linejoin:miter;stroke-opacity:1"
      d="m 0.6828703,0.43203197 c 0.002208,0.001768 0.0325738,0.0198842 0.0366931,0.0141467 0.006189,-0.008621 -0.0101678,-0.0238726 -0.0101678,-0.0238726"
      id="path110" />
   <path
      style="fill:#4d4d4d;fill-opacity:1;fill-rule:evenodd;stroke:#000000;stroke-width:0.00376262px;stroke-linecap:butt;stroke-linejoin:miter;stroke-opacity:1"
      d="m 0.67137613,0.4041807 c 0,0 0.037451,0.027815 0.0481872,0.02122 0.007737,-0.004752 -0.003096,-0.0247569 -0.003096,-0.0247569"
      id="path112" />
   <path
      style="fill:#4d4d4d;fill-opacity:1;fill-rule:evenodd;stroke:#000000;stroke-width:0.00376262px;stroke-linecap:butt;stroke-linejoin:miter;stroke-opacity:1"
      d="m 0.69348032,0.39136013 c 0,0 0.0381528,0.0280898 0.0481873,0.0203359 0.002822,-0.002179 0.002803,-0.007128 0.001728,-0.0123794 -0.001714,-0.00833 -0.0408014,-0.0483671 -0.0408014,-0.0483671"
      id="path114" />
   <path
      style="fill:#4d4d4d;fill-opacity:1;fill-rule:evenodd;stroke:#000000;stroke-width:0.00376262px;stroke-linecap:butt;stroke-linejoin:miter;stroke-opacity:1"
      d="m 0.69215408,0.36350886 c 0.016357,0.0141467 0.0714237,0.0499568 0.0817857,0.0358089 0.002736,-0.003738 -0.0102922,-0.0209375 -0.0172608,-0.0291601 -0.006969,-0.008223 -0.0277022,-0.0268755 -0.0277022,-0.0268755 l -0.0368222,0.004312"
      id="path116" />
   <path
      style="fill:#4d4d4d;fill-opacity:1;fill-rule:evenodd;stroke:#000000;stroke-width:0.00376262px;stroke-linecap:butt;stroke-linejoin:miter;stroke-opacity:1"
      d="m 0.72663666,0.35643558 c 0,0 0.0657435,0.0396268 0.0742702,0.0287354 0.003643,-0.004655 -0.004387,-0.0192084 -0.0100531,-0.0282654 -0.00277,-0.004429 -0.0231034,-0.0318581 -0.0231034,-0.0318581"
      id="path118" />
   <path
      style="fill:#4d4d4d;fill-opacity:1;fill-rule:evenodd;stroke:#000000;stroke-width:0.00376262px;stroke-linecap:butt;stroke-linejoin:miter;stroke-opacity:1"
      d="m 0.75669838,0.34449929 c 0,0 0.0621884,0.0332925 0.0738282,0.0190096 0.004546,-0.00558 -0.002174,-0.0158114 -0.007818,-0.0226651 -0.003355,-0.004074 -0.0315278,-0.040553 -0.0315278,-0.040553"
      id="path120" />
   <path
      style="fill:#4d4d4d;fill-opacity:1;fill-rule:evenodd;stroke:#000000;stroke-width:0.00376262px;stroke-linecap:butt;stroke-linejoin:miter;stroke-opacity:1"
      d="m 0.77880262,0.32460543 c 0,0 0.0862827,0.0334595 0.0959324,0.0198938 0.006625,-0.009314 -0.0402298,-0.0322722 -0.0499556,-0.0583552"
      id="path122" />
   <path
      style="fill:#4d4d4d;fill-opacity:1;fill-rule:evenodd;stroke:#000000;stroke-width:0.00376262px;stroke-linecap:butt;stroke-linejoin:miter;stroke-opacity:1"
      d="m 0.79515978,0.3025011 c 0,0 0.10827825,0.0427128 0.12289953,0.0190097 0.006463,-0.0104779 -0.0406718,-0.0371352 -0.0406718,-0.0371352"
      id="path124" />
   <path
      style="fill:#4d4d4d;fill-opacity:1;fill-rule:evenodd;stroke:#000000;stroke-width:0.00376262px;stroke-linecap:butt;stroke-linejoin:miter;stroke-opacity:1"
      d="m 0.65656626,0.34582547 c 0,0 0.00652,0.00221 0.015252,0.00221 0.0407261,0 0.0570289,-0.0137047 0.0822277,-0.0371352 0.0331718,-0.0308438 0.0634123,-0.036693 0.0862065,-0.036693 0.0312019,0 0.0393437,0.009726 0.0910694,0.009726 7.536e-4,0.004163 0.00455,0.006298 0.0123782,0.005747 0,0 0.00497,0.0114942 -0.00177,0.015915 -0.008741,0.005732 -0.0375772,-0.001768 -0.0375772,-0.001768 0,0 0.001104,0.006631 -0.007073,0.006189 -0.008179,-4.4206e-4 -0.0256406,-0.007958 -0.0256406,-0.007958 0,0 -6.624e-4,0.0084 -0.006189,0.006189 -0.005526,-0.00221 -0.0159149,-0.0150309 -0.0159149,-0.0150309 0,0 -0.002208,0.0128206 -0.0106099,0.0132626 -0.0084,4.4206e-4 -0.0229882,-0.0114942 -0.0229882,-0.0114942 0,0 8.832e-4,0.0106099 -0.004421,0.0141467 -0.005305,0.003537 -0.016799,0 -0.016799,0 0,0 0.005968,0.008178 0.001766,0.009726 -0.0042,0.001547 -0.0185674,-0.003537 -0.0185674,-0.003537 0,0 0.0042,0.0128204 0.001766,0.0167991 -0.002434,0.003979 -0.0114941,-8.8416e-4 -0.0114941,-8.8416e-4 0,0 0.005084,0.0150309 -0.005747,0.0190096 -0.0108312,0.003979 -0.0375773,-0.003095 -0.0375773,-0.003095 0,0 0.0149069,0.0126781 0.005305,0.0145888 -0.0211747,0.004214 -0.0371352,-0.0128204 -0.0371352,-0.0128204 0,0 0.0161165,0.0126595 0.002654,0.0176834 -0.002928,0.001093 -0.0114941,-0.008842 -0.0114941,-0.008842 0,0 -0.002654,0.0110521 -0.009726,0.0106101 -0.007073,-4.4223e-4 -0.0185674,-0.0123785 -0.0185674,-0.0123785 z"
      id="path126" />
</svg>