<svg width="13" height="13" viewBox="0 0 13 13" fill="none" xmlns="http://www.w3.org/2000/svg">
<path d="M1.75 0.125C0.765625 0.125 0 0.917969 0 1.875V10.625C0 11.6094 0.765625 12.375 1.75 12.375H10.5C11.457 12.375 12.25 11.6094 12.25 10.625V1.875C12.25 0.917969 11.457 0.125 10.5 0.125H1.75ZM9.21484 4.96484L5.71484 8.46484C5.44141 8.73828 5.03125 8.73828 4.78516 8.46484L3.03516 6.71484C2.76172 6.46875 2.76172 6.05859 3.03516 5.8125C3.28125 5.53906 3.69141 5.53906 3.96484 5.8125L5.25 7.09766L8.28516 4.03516C8.53125 3.78906 8.94141 3.78906 9.1875 4.03516C9.46094 4.30859 9.46094 4.71875 9.1875 4.96484H9.21484Z" fill="white"/>
</svg>
