<?xml version="1.0" encoding="UTF-8" standalone="no"?>
<svg
   viewBox="0 0 640 512"
   version="1.1"
   id="svg11515"
   sodipodi:docname="descent.svg"
   inkscape:version="1.2.2 (732a01da63, 2022-12-09)"
   xmlns:inkscape="http://www.inkscape.org/namespaces/inkscape"
   xmlns:sodipodi="http://sodipodi.sourceforge.net/DTD/sodipodi-0.dtd"
   xmlns="http://www.w3.org/2000/svg"
   xmlns:svg="http://www.w3.org/2000/svg">
  <defs
     id="defs11519" />
  <sodipodi:namedview
     id="namedview11517"
     pagecolor="#ffffff"
     bordercolor="#666666"
     borderopacity="1.0"
     inkscape:showpageshadow="2"
     inkscape:pageopacity="0.0"
     inkscape:pagecheckerboard="0"
     inkscape:deskcolor="#d1d1d1"
     showgrid="false"
     inkscape:zoom="1.1559539"
     inkscape:cx="184.69595"
     inkscape:cy="230.97808"
     inkscape:window-width="1920"
     inkscape:window-height="1017"
     inkscape:window-x="-8"
     inkscape:window-y="-8"
     inkscape:window-maximized="1"
     inkscape:current-layer="svg11515" />
  <!--! Font Awesome Pro 6.4.2 by @fontawesome - https://fontawesome.com License - https://fontawesome.com/license (Commercial License) Copyright 2023 Fonticons, Inc. -->
  <path
     d="m 0,480 c 0,17.7 14.3,32 32,32 h 576 c 17.7,0 32,-14.3 32,-32 0,-17.7 -14.3,-32 -32,-32 H 32 C 14.3,448 0,462.3 0,480 Z"
     id="path12003" />
  <path
     d="M 390.60902,242.29848 295.63089,57.072198 C 287.44991,41.248114 273.15967,29.46469 256.01489,24.682806 L 206.65223,10.734745 C 194.67308,7.4076141 183.65093,18.33475 186.83528,30.289244 L 231.90676,199.04475 125.19723,169.9687 99.575041,111.64587 C 95.764001,102.90653 88.158361,96.257906 78.977251,93.718766 L 44.324506,83.959798 C 34.282459,81.178199 24.290763,88.44635 24.004651,98.865954 L 20.676595,211.15409 c -0.265566,9.35678 3.558834,18.37864 10.438121,24.63687 L 132.97255,328.4531 c 3.69854,3.36464 8.13062,5.77434 12.86578,7.10786 l 293.65372,82.74575 c 50.07565,14.05594 103.62226,8.693 149.9305,-15.01621 23.985,-12.24784 28.32151,-44.80371 8.34938,-62.97276 L 555.31268,301.69169 C 540.37057,288.09856 522.34635,278.1906 502.84067,272.88322 Z"
     id="path11513" />
</svg>
