<?xml version="1.0" encoding="UTF-8" standalone="no"?>
<svg
   xmlns:dc="http://purl.org/dc/elements/1.1/"
   xmlns:cc="http://creativecommons.org/ns#"
   xmlns:rdf="http://www.w3.org/1999/02/22-rdf-syntax-ns#"
   xmlns:svg="http://www.w3.org/2000/svg"
   xmlns="http://www.w3.org/2000/svg"
   xmlns:sodipodi="http://sodipodi.sourceforge.net/DTD/sodipodi-0.dtd"
   xmlns:inkscape="http://www.inkscape.org/namespaces/inkscape"
   class="svg-icon"
   style="width: 1em; height: 1em;vertical-align: middle;fill: currentColor;overflow: hidden;"
   viewBox="0 0 1024 1024"
   version="1.1"
   id="svg6"
   sodipodi:docname="sword.svg"
   inkscape:version="1.0 (4035a4fb49, 2020-05-01)">
  <metadata
     id="metadata12">
    <rdf:RDF>
      <cc:Work
         rdf:about="">
        <dc:format>image/svg+xml</dc:format>
        <dc:type
           rdf:resource="http://purl.org/dc/dcmitype/StillImage" />
      </cc:Work>
    </rdf:RDF>
  </metadata>
  <defs
     id="defs10" />
  <sodipodi:namedview
     inkscape:document-rotation="0"
     pagecolor="#ffffff"
     bordercolor="#666666"
     borderopacity="1"
     objecttolerance="10"
     gridtolerance="10"
     guidetolerance="10"
     inkscape:pageopacity="0"
     inkscape:pageshadow="2"
     inkscape:window-width="1920"
     inkscape:window-height="1017"
     id="namedview8"
     showgrid="false"
     inkscape:zoom="0.83007812"
     inkscape:cx="512"
     inkscape:cy="512"
     inkscape:window-x="1912"
     inkscape:window-y="-8"
     inkscape:window-maximized="1"
     inkscape:current-layer="svg6" />
  <path
     d="M34.133333 870.4c-17.066667-17.066667-17.066667-42.666667 0-59.733333l194.133334-194.133334-134.4-134.4c-17.066667-17.066667-17.066667-42.666667 0-59.733333 17.066667-17.066667 42.666667-17.066667 59.733333 0l59.733333 59.733333 448-448c10.666667-10.666667 25.6-14.933333 38.4-10.666666l224 44.8c17.066667 4.266667 29.866667 17.066667 34.133334 34.133333L1002.666667 324.266667c2.133333 14.933333-2.133333 27.733333-10.666667 38.4l-448 448 59.733333 59.733333c17.066667 17.066667 17.066667 42.666667 0 59.733333-8.533333 8.533333-19.2 12.8-29.866666 12.8-10.666667 0-21.333333-4.266667-29.866667-12.8l-134.4-134.4-196.266667 194.133334c-8.533333 8.533333-19.2 12.8-29.866666 12.8s-21.333333-4.266667-29.866667-12.8l-119.466667-119.466667z m253.866667-194.133333l-164.266667 164.266666 59.733334 59.733334 164.266666-164.266667-59.733333-59.733333zM706.133333 110.933333L273.066667 541.866667l209.066666 209.066666L913.066667 320l-34.133334-172.8-172.8-36.266667z"
     fill="#2F3CF4"
     id="path2"
     style="fill:#000000;fill-opacity:1" />
  <path
     style="fill:#000000;fill-opacity:1"
     d="M795.733333 288c17.066667-17.066667 17.066667-42.666667 0-59.733333s-42.666667-17.066667-59.733333 0L422.4 541.866667c-17.066667 17.066667-17.066667 42.666667 0 59.733333 8.533333 8.533333 19.2 12.8 29.866667 12.8 10.666667 0 21.333333-4.266667 29.866666-12.8l313.6-313.6z"
     fill="#FFFFFF"
     id="path4" />
</svg>
