<?xml version="1.0" encoding="UTF-8" standalone="no"?>
<svg
   width="15"
   height="15"
   viewBox="0 0 15 15"
   fill="none"
   version="1.1"
   id="svg4"
   sodipodi:docname="designated.svg"
   inkscape:version="1.1 (c68e22c387, 2021-05-23)"
   xmlns:inkscape="http://www.inkscape.org/namespaces/inkscape"
   xmlns:sodipodi="http://sodipodi.sourceforge.net/DTD/sodipodi-0.dtd"
   xmlns="http://www.w3.org/2000/svg"
   xmlns:svg="http://www.w3.org/2000/svg">
  <defs
     id="defs8" />
  <sodipodi:namedview
     id="namedview6"
     pagecolor="#ffffff"
     bordercolor="#666666"
     borderopacity="1.0"
     inkscape:pageshadow="2"
     inkscape:pageopacity="0.0"
     inkscape:pagecheckerboard="0"
     showgrid="false"
     width="30px"
     fit-margin-top="0"
     fit-margin-left="0"
     fit-margin-right="0"
     fit-margin-bottom="0"
     inkscape:zoom="5.9428571"
     inkscape:cx="-29.026442"
     inkscape:cy="16.237981"
     inkscape:window-width="1920"
     inkscape:window-height="1017"
     inkscape:window-x="-8"
     inkscape:window-y="-8"
     inkscape:window-maximized="1"
     inkscape:current-layer="svg4" />
  <path 
     d="m 7.5000002,0 c 0.498,0 0.9375,0.4395 0.9375,0.9375 V 1.2598 C 11.1621,1.6699 13.3301,3.8379002 13.7402,6.5625002 h 0.3223 c 0.498,0 0.9375,0.4395 0.9375,0.9375 0,0.5273 -0.4395,0.9375 -0.9375,0.9375 H 13.7402 C 13.3301,11.1914 11.1621,13.3594 8.4375002,13.7695 v 0.293 c 0,0.5273 -0.4395,0.9375 -0.9375,0.9375 -0.5273,0 -0.9375,-0.4102 -0.9375,-0.9375 v -0.293 C 3.8086002,13.3594 1.6406,11.1914 1.2305,8.4375002 h -0.293 c -0.5273,0 -0.9375,-0.4102 -0.9375,-0.9375 0,-0.498 0.4102,-0.9375 0.9375,-0.9375 h 0.293 C 1.6406,3.8379002 3.8086002,1.6699 6.5625002,1.2598 V 0.9375 c 0,-0.498 0.4102,-0.9375 0.9375,-0.9375 z m -4.3652,8.4375002 c 0.3515,1.7284998 1.6992,3.0761998 3.4277,3.4276998 V 11.25 c 0,-0.498 0.4102,-0.9375 0.9375,-0.9375 0.498,0 0.9375,0.4395 0.9375,0.9375 v 0.6152 C 10.1367,11.5137 11.4844,10.166 11.8359,8.4375002 H 11.25 c -0.5273,0 -0.9375,-0.4102 -0.9375,-0.9375 0,-0.498 0.4102,-0.9375 0.9375,-0.9375 h 0.5859 c -0.3515,-1.6992 -1.6992,-3.0469 -3.3983998,-3.3984 v 0.5859 c 0,0.5273 -0.4395,0.9375 -0.9375,0.9375 -0.5273,0 -0.9375,-0.4102 -0.9375,-0.9375 v -0.5859 c -1.7285,0.3515 -3.0762,1.6992 -3.4277,3.3984 h 0.6152 c 0.498,0 0.9375,0.4395 0.9375,0.9375 0,0.5273 -0.4395,0.9375 -0.9375,0.9375 z m 4.3652,0 c -0.5273,0 -0.9375,-0.4102 -0.9375,-0.9375 0,-0.498 0.4102,-0.9375 0.9375,-0.9375 0.498,0 0.9375,0.4395 0.9375,0.9375 0,0.5273 -0.4395,0.9375 -0.9375,0.9375 z"
     fill="#5ca7ff"
     id="path2" />
</svg>
