<?xml version="1.0" encoding="UTF-8" standalone="no"?>
<svg
   viewBox="0 0 32 32"
   version="1.1"
   id="svg4"
   sodipodi:docname="back.svg"
   width="32"
   height="32"
   inkscape:version="1.2.2 (732a01da63, 2022-12-09)"
   xmlns:inkscape="http://www.inkscape.org/namespaces/inkscape"
   xmlns:sodipodi="http://sodipodi.sourceforge.net/DTD/sodipodi-0.dtd"
   xmlns="http://www.w3.org/2000/svg"
   xmlns:svg="http://www.w3.org/2000/svg">
  <defs
     id="defs8" />
  <sodipodi:namedview
     id="namedview6"
     pagecolor="#ffffff"
     bordercolor="#666666"
     borderopacity="1.0"
     inkscape:showpageshadow="2"
     inkscape:pageopacity="0.0"
     inkscape:pagecheckerboard="0"
     inkscape:deskcolor="#d1d1d1"
     showgrid="false"
     inkscape:zoom="26.15625"
     inkscape:cx="20.587814"
     inkscape:cy="20.109916"
     inkscape:window-width="1920"
     inkscape:window-height="1017"
     inkscape:window-x="1912"
     inkscape:window-y="-8"
     inkscape:window-maximized="1"
     inkscape:current-layer="svg4" />
  <!--! Font Awesome Pro 6.4.0 by @fontawesome - https://fontawesome.com License - https://fontawesome.com/license (Commercial License) Copyright 2023 Fonticons, Inc. -->
  <path
     d="M 24.337929,21.064066 H 7.766909 c -0.572865,0 -1.035689,0.462823 -1.035689,1.035689 0,0.572864 0.462824,1.035688 1.035689,1.035688 h 16.57102 c 0.572865,0 1.035689,-0.462824 1.035689,-1.035688 0,-0.572866 -0.462824,-1.035689 -1.035689,-1.035689 z M 20.024324,15.15093 c -0.404566,-0.404566 -1.061581,-0.404566 -1.466147,0 l -1.336685,1.339923 V 9.6714892 c 0,-0.572865 -0.462823,-1.035688 -1.035689,-1.035688 -0.572866,0 -1.035688,0.462823 -1.035688,1.035688 V 16.490853 L 13.810192,15.15093 c -0.404566,-0.404566 -1.061581,-0.404566 -1.466147,0 -0.404565,0.404566 -0.404565,1.061581 0,1.466147 l 3.107066,3.107066 c 0.404565,0.404566 1.061582,0.404566 1.466147,0 l 3.107066,-3.107066 c 0.404567,-0.404566 0.404567,-1.061581 0,-1.466147 z"
     id="path2"
     style="fill:#ffffff;fill-opacity:1;stroke-width:0.0323653"
     sodipodi:nodetypes="ssssssssccssscssccccs" />
</svg>
