<?xml version="1.0" encoding="UTF-8" standalone="no"?>
<svg
   viewBox="0 0 32 32"
   version="1.1"
   id="svg1940"
   sodipodi:docname="delete.svg"
   width="32"
   height="32"
   inkscape:version="1.2.2 (732a01da63, 2022-12-09)"
   xmlns:inkscape="http://www.inkscape.org/namespaces/inkscape"
   xmlns:sodipodi="http://sodipodi.sourceforge.net/DTD/sodipodi-0.dtd"
   xmlns="http://www.w3.org/2000/svg"
   xmlns:svg="http://www.w3.org/2000/svg">
  <defs
     id="defs1944" />
  <sodipodi:namedview
     id="namedview1942"
     pagecolor="#ffffff"
     bordercolor="#666666"
     borderopacity="1.0"
     inkscape:showpageshadow="2"
     inkscape:pageopacity="0.0"
     inkscape:pagecheckerboard="0"
     inkscape:deskcolor="#d1d1d1"
     showgrid="false"
     inkscape:zoom="13.078125"
     inkscape:cx="27.794504"
     inkscape:cy="19.192354"
     inkscape:window-width="1920"
     inkscape:window-height="1017"
     inkscape:window-x="1912"
     inkscape:window-y="-8"
     inkscape:window-maximized="1"
     inkscape:current-layer="svg1940" />
  <!--! Font Awesome Pro 6.4.0 by @fontawesome - https://fontawesome.com License - https://fontawesome.com/license (Commercial License) Copyright 2023 Fonticons, Inc. -->
  <path
     d="m 14.670468,9.3574565 -0.569725,0.8515865 h 4.347895 L 17.878913,9.3574565 C 17.833935,9.2914885 17.758972,9.2495089 17.678011,9.2495089 h -2.809639 c -0.08096,0 -0.155924,0.038981 -0.200903,0.1079476 z m 4.407864,-0.7976134 1.100466,1.6491999 h 0.413801 1.439301 0.239884 c 0.398807,0 0.719652,0.320845 0.719652,0.719652 0,0.398807 -0.320845,0.719651 -0.719652,0.719651 H 22.0319 v 9.115583 c 0,1.325358 -1.073479,2.398837 -2.398837,2.398837 h -6.716745 c -1.325357,0 -2.398838,-1.073479 -2.398838,-2.398837 v -9.115583 h -0.239884 c -0.3988062,0 -0.7196507,-0.320844 -0.7196507,-0.719651 0,-0.398807 0.3208445,-0.719652 0.7196507,-0.719652 h 0.239884 1.439303 0.413799 l 1.100467,-1.6521984 c 0.311849,-0.4647748 0.836595,-0.7466382 1.397323,-0.7466382 h 2.809639 c 0.560728,0 1.085474,0.2818634 1.397322,0.7466382 z m -7.121549,3.0885029 v 9.115583 c 0,0.530743 0.428792,0.959535 0.959535,0.959535 h 6.716745 c 0.530743,0 0.959536,-0.428792 0.959536,-0.959535 v -9.115583 z m 2.398837,1.919071 v 6.236977 c 0,0.263872 -0.215895,0.479767 -0.479767,0.479767 -0.263872,0 -0.479767,-0.215895 -0.479767,-0.479767 v -6.236977 c 0,-0.263873 0.215895,-0.479768 0.479767,-0.479768 0.263872,0 0.479767,0.215895 0.479767,0.479768 z m 2.398838,0 v 6.236977 c 0,0.263872 -0.215896,0.479767 -0.479767,0.479767 -0.263873,0 -0.479768,-0.215895 -0.479768,-0.479767 v -6.236977 c 0,-0.263873 0.215895,-0.479768 0.479768,-0.479768 0.263871,0 0.479767,0.215895 0.479767,0.479768 z m 2.398838,0 v 6.236977 c 0,0.263872 -0.215896,0.479767 -0.479768,0.479767 -0.263871,0 -0.479767,-0.215895 -0.479767,-0.479767 v -6.236977 c 0,-0.263873 0.215896,-0.479768 0.479767,-0.479768 0.263872,0 0.479768,0.215895 0.479768,0.479768 z"
     id="path1938"
     style="fill:#ffffff;fill-opacity:1;stroke:none;stroke-width:0.0299854;stroke-opacity:1" />
</svg>
