<svg width="35" height="35" viewBox="0 0 35 35" fill="none" xmlns="http://www.w3.org/2000/svg">
    <path
        d="M27.418 14C29.2109 14 32.375 15.5293 32.375 17.375C32.375 19.2734 29.2109 20.75 27.418 20.75H21.248L15.9746 30.0312C15.6582 30.5586 15.0781 30.875 14.498 30.875H11.5449C10.9648 30.875 10.543 30.3477 10.7012 29.8203L13.2852 20.75H7.90625L5.58594 23.8086C5.42773 24.0195 5.2168 24.125 4.95312 24.125H2.73828C2.31641 24.125 2 23.8086 2 23.3867C2 23.334 2 23.2812 2 23.2285L3.6875 17.375L2 11.5742C2 11.5215 2 11.4688 2 11.3633C2 10.9941 2.31641 10.625 2.73828 10.625H4.95312C5.2168 10.625 5.42773 10.7832 5.58594 10.9941L7.90625 14H13.2852L10.7012 4.98242C10.543 4.45508 10.9648 3.875 11.5449 3.875H14.498C15.0781 3.875 15.6582 4.24414 15.9746 4.77148L21.248 14H27.418Z"
        fill="white" />
</svg>