<?xml version="1.0" encoding="UTF-8" standalone="no"?>
<svg
   viewBox="0 0 576 512"
   version="1.1"
   id="svg4"
   sodipodi:docname="white-phosphorous.svg"
   inkscape:version="1.1 (c68e22c387, 2021-05-23)"
   xmlns:inkscape="http://www.inkscape.org/namespaces/inkscape"
   xmlns:sodipodi="http://sodipodi.sourceforge.net/DTD/sodipodi-0.dtd"
   xmlns="http://www.w3.org/2000/svg"
   xmlns:svg="http://www.w3.org/2000/svg">
   <defs
      id="defs8" />
   <sodipodi:namedview
      id="namedview6"
      pagecolor="#ffffff"
      bordercolor="#666666"
      borderopacity="1.0"
      inkscape:pageshadow="2"
      inkscape:pageopacity="0.0"
      inkscape:pagecheckerboard="0"
      showgrid="false"
      inkscape:zoom="1.625"
      inkscape:cx="237.84615"
      inkscape:cy="323.38462"
      inkscape:window-width="1920"
      inkscape:window-height="1017"
      inkscape:window-x="-8"
      inkscape:window-y="-8"
      inkscape:window-maximized="1"
      inkscape:current-layer="svg4" />
   <!--!
   Font Awesome Pro 6.4.0 by @fontawesome - https://fontawesome.com License -
   https://fontawesome.com/license (Commercial License) Copyright 2023 Fonticons, Inc. -->
   <path
      d="m 499.6,11.3 c 6.7,-10.7 20.5,-14.5 31.7,-8.5 11.2,6 15.8,19.5 10.6,31 L 404.8,338.6 c 2.2,2.3 4.3,4.7 6.3,7.1 L 508.3,291 c 10.5,-5.9 23.6,-3.1 30.9,6.4 7.3,9.5 6.3,23 -2.2,31.5 l -87,87 h -71.5 c -13.2,-37.3 -48.7,-64 -90.5,-64 -41.8,0 -77.4,26.7 -90.5,64 H 117.8 L 42.3,363.7 C 32.6,357 29.2,344.1 34.4,333.4 39.6,322.7 51.8,317.5 63.1,321 l 97.2,30.4 c 3,-3.9 6.1,-7.7 9.4,-11.3 L 107.4,236.3 c -6.1,-10.1 -3.9,-23.1 5.1,-30.7 9,-7.6 22.2,-7.5 31.1,0.1 L 246,293.6 c 1.5,-0.4 3,-0.8 4.5,-1.1 l 13.6,-142.7 c 1.2,-12.3 11.5,-21.7 23.9,-21.7 12.4,0 22.7,9.4 23.9,21.7 l 13.5,141.9 z M 288,0 c 13.3,0 24,10.7 24,24 v 48 c 0,13.3 -10.7,24 -24,24 -13.3,0 -24,-10.7 -24,-24 V 24 C 264,10.7 274.7,0 288,0 Z"
      id="path2"
      sodipodi:nodetypes="csccccssccscccsccccsccccscccsssssss"
      style="fill:#f9ffff;fill-opacity:1;opacity:0.41025641" />
   <path
      d="m 64.847242,449.52266 v 0 H 512.84724 v 0 h 32 c 17.7,0 32,14.3 32,32 0,17.7 -14.3,32 -32,32 H 32.847242 c -17.7,0 -31.99999998,-14.3 -31.99999998,-32 0,-17.7 14.29999998,-32 31.99999998,-32 z"
      id="path965" />
</svg>