<?xml version="1.0" encoding="UTF-8" standalone="no"?>
<svg
   viewBox="0 0 32 32"
   version="1.1"
   id="svg1940"
   sodipodi:docname="delete.svg"
   width="32"
   height="32"
   inkscape:version="1.2.2 (732a01da63, 2022-12-09)"
   xmlns:inkscape="http://www.inkscape.org/namespaces/inkscape"
   xmlns:sodipodi="http://sodipodi.sourceforge.net/DTD/sodipodi-0.dtd"
   xmlns="http://www.w3.org/2000/svg"
   xmlns:svg="http://www.w3.org/2000/svg">
   <defs
      id="defs1944" />
   <sodipodi:namedview
      id="namedview1942"
      pagecolor="#ffffff"
      bordercolor="#666666"
      borderopacity="1.0"
      inkscape:showpageshadow="2"
      inkscape:pageopacity="0.0"
      inkscape:pagecheckerboard="0"
      inkscape:deskcolor="#d1d1d1"
      showgrid="false"
      inkscape:zoom="13.078125"
      inkscape:cx="27.870968"
      inkscape:cy="20.415771"
      inkscape:window-width="1920"
      inkscape:window-height="1017"
      inkscape:window-x="1912"
      inkscape:window-y="-8"
      inkscape:window-maximized="1"
      inkscape:current-layer="svg1940" />
   <!--!
   Font Awesome Pro 6.4.0 by @fontawesome - https://fontawesome.com License -
   https://fontawesome.com/license (Commercial License) Copyright 2023 Fonticons, Inc. -->
   <path
      d="m 13.120438,4.047182 -1.120204,1.6744053 h 8.548913 L 19.428943,4.047182 C 19.340506,3.9174745 19.193112,3.8349334 19.033925,3.8349334 h -5.524364 c -0.159185,0 -0.306581,0.076645 -0.39502,0.2122486 z m 8.666825,-1.5682824 2.163757,3.2426877 h 0.813623 2.829981 0.471664 c 0.784142,0 1.414993,0.6308515 1.414993,1.4149933 0,0.7841418 -0.630851,1.4149912 -1.414993,1.4149912 H 27.594624 V 26.474805 c 0,2.605944 -2.110695,4.716638 -4.716639,4.716638 H 9.6713954 c -2.6059417,0 -4.7166402,-2.110694 -4.7166402,-4.716638 V 8.5515718 H 4.4830908 c -0.7841402,0 -1.4149907,-0.6308494 -1.4149907,-1.4149912 0,-0.7841418 0.6308505,-1.4149933 1.4149907,-1.4149933 H 4.9547552 7.7847397 8.5983591 L 10.762118,2.4730039 C 11.375281,1.559155 12.407047,1.0049496 13.509561,1.0049496 h 5.524364 c 1.102514,0 2.13428,0.5542053 2.747441,1.4680543 z M 7.7847397,8.5515718 V 26.474805 c 0,1.043557 0.8430989,1.886656 1.8866557,1.886656 H 22.877985 c 1.043557,0 1.886658,-0.843099 1.886658,-1.886656 V 8.5515718 Z m 4.7166383,3.7733162 v 12.263261 c 0,0.51883 -0.424497,0.943327 -0.943327,0.943327 -0.51883,0 -0.943327,-0.424497 -0.943327,-0.943327 V 12.324888 c 0,-0.518832 0.424497,-0.943328 0.943327,-0.943328 0.51883,0 0.943327,0.424496 0.943327,0.943328 z m 4.71664,0 v 12.263261 c 0,0.51883 -0.424499,0.943327 -0.943327,0.943327 -0.518832,0 -0.943328,-0.424497 -0.943328,-0.943327 V 12.324888 c 0,-0.518832 0.424496,-0.943328 0.943328,-0.943328 0.518828,0 0.943327,0.424496 0.943327,0.943328 z m 4.71664,0 v 12.263261 c 0,0.51883 -0.424498,0.943327 -0.943328,0.943327 -0.518829,0 -0.943327,-0.424497 -0.943327,-0.943327 V 12.324888 c 0,-0.518832 0.424498,-0.943328 0.943327,-0.943328 0.51883,0 0.943328,0.424496 0.943328,0.943328 z"
      id="path1938"
      style="fill:#ffffff;fill-opacity:1;stroke:none;stroke-width:0.0589579;stroke-opacity:1" />
</svg>