<svg width="35" height="35" viewBox="0 0 35 35" fill="none" xmlns="http://www.w3.org/2000/svg">
<path d="M18.2297 20.1516C18.1906 20.0594 18.1 20 18 20C17.9 20 17.8094 20.0594 17.7703 20.1516L17.0812 21.7594C17.0281 21.8844 17 22.0172 17 22.1531V23.3563L14.75 24.6687V24.375C14.75 24.1672 14.5828 24 14.375 24C14.1672 24 14 24.1672 14 24.375V25.25V25.75V26.125C14 26.3328 14.1672 26.5 14.375 26.5C14.5828 26.5 14.75 26.3328 14.75 26.125V26H17V26.5109L16.0859 27.3125C16.0312 27.3594 16 27.4281 16 27.5V27.75C16 27.8875 16.1125 28 16.25 28H17.75V27C17.75 26.8625 17.8625 26.75 18 26.75C18.1375 26.75 18.25 26.8625 18.25 27V28H19.75C19.8875 28 20 27.8875 20 27.75V27.5C20 27.4281 19.9688 27.3594 19.9141 27.3125L19 26.5109V26H21.25V26.125C21.25 26.3328 21.4172 26.5 21.625 26.5C21.8328 26.5 22 26.3328 22 26.125V25.75V25.25V24.375C22 24.1672 21.8328 24 21.625 24C21.4172 24 21.25 24.1672 21.25 24.375V24.6687L19 23.3563V22.1531C19 22.0172 18.9719 21.8844 18.9187 21.7594L18.2297 20.1516Z" fill="#202831"/>
<path d="M18.2297 6.15156C18.1906 6.05937 18.1 6 18 6C17.9 6 17.8094 6.05937 17.7703 6.15156L17.0812 7.75937C17.0281 7.88437 17 8.01719 17 8.15313V9.35625L14.75 10.6687V10.375C14.75 10.1672 14.5828 10 14.375 10C14.1672 10 14 10.1672 14 10.375V11.25V11.75V12.125C14 12.3328 14.1672 12.5 14.375 12.5C14.5828 12.5 14.75 12.3328 14.75 12.125V12H17V12.5109L16.0859 13.3125C16.0312 13.3594 16 13.4281 16 13.5V13.75C16 13.8875 16.1125 14 16.25 14H17.75V13C17.75 12.8625 17.8625 12.75 18 12.75C18.1375 12.75 18.25 12.8625 18.25 13V14H19.75C19.8875 14 20 13.8875 20 13.75V13.5C20 13.4281 19.9688 13.3594 19.9141 13.3125L19 12.5109V12H21.25V12.125C21.25 12.3328 21.4172 12.5 21.625 12.5C21.8328 12.5 22 12.3328 22 12.125V11.75V11.25V10.375C22 10.1672 21.8328 10 21.625 10C21.4172 10 21.25 10.1672 21.25 10.375V10.6687L19 9.35625V8.15313C19 8.01719 18.9719 7.88437 18.9187 7.75937L18.2297 6.15156Z" fill="#202831"/>
<path d="M18 15.5L18 18.5" stroke="#202831" stroke-linecap="round" stroke-dasharray="2 2"/>
</svg>
