<svg width="35" height="35" viewBox="0 0 35 35" fill="none" xmlns="http://www.w3.org/2000/svg">
<path d="M23.7297 18.6516C23.6906 18.5594 23.6 18.5 23.5 18.5C23.4 18.5 23.3094 18.5594 23.2703 18.6516L22.5812 20.2594C22.5281 20.3844 22.5 20.5172 22.5 20.6531V21.8563L20.25 23.1687V22.875C20.25 22.6672 20.0828 22.5 19.875 22.5C19.6672 22.5 19.5 22.6672 19.5 22.875V23.75V24.25V24.625C19.5 24.8328 19.6672 25 19.875 25C20.0828 25 20.25 24.8328 20.25 24.625V24.5H22.5V25.0109L21.5859 25.8125C21.5312 25.8594 21.5 25.9281 21.5 26V26.25C21.5 26.3875 21.6125 26.5 21.75 26.5H23.25V25.5C23.25 25.3625 23.3625 25.25 23.5 25.25C23.6375 25.25 23.75 25.3625 23.75 25.5V26.5H25.25C25.3875 26.5 25.5 26.3875 25.5 26.25V26C25.5 25.9281 25.4688 25.8594 25.4141 25.8125L24.5 25.0109V24.5H26.75V24.625C26.75 24.8328 26.9172 25 27.125 25C27.3328 25 27.5 24.8328 27.5 24.625V24.25V23.75V22.875C27.5 22.6672 27.3328 22.5 27.125 22.5C26.9172 22.5 26.75 22.6672 26.75 22.875V23.1687L24.5 21.8563V20.6531C24.5 20.5172 24.4719 20.3844 24.4187 20.2594L23.7297 18.6516Z" fill="#5CA7FF"/>
<path d="M11.7297 8.65156C11.6906 8.55937 11.6 8.5 11.5 8.5C11.4 8.5 11.3094 8.55937 11.2703 8.65156L10.5813 10.2594C10.5281 10.3844 10.5 10.5172 10.5 10.6531V11.8562L8.25 13.1687V12.875C8.25 12.6672 8.08281 12.5 7.875 12.5C7.66719 12.5 7.5 12.6672 7.5 12.875V13.75V14.25V14.625C7.5 14.8328 7.66719 15 7.875 15C8.08281 15 8.25 14.8328 8.25 14.625V14.5H10.5V15.0109L9.58594 15.8125C9.53125 15.8594 9.5 15.9281 9.5 16V16.25C9.5 16.3875 9.6125 16.5 9.75 16.5H11.25V15.5C11.25 15.3625 11.3625 15.25 11.5 15.25C11.6375 15.25 11.75 15.3625 11.75 15.5V16.5H13.25C13.3875 16.5 13.5 16.3875 13.5 16.25V16C13.5 15.9281 13.4688 15.8594 13.4141 15.8125L12.5 15.0109V14.5H14.75V14.625C14.75 14.8328 14.9172 15 15.125 15C15.3328 15 15.5 14.8328 15.5 14.625V14.25V13.75V12.875C15.5 12.6672 15.3328 12.5 15.125 12.5C14.9172 12.5 14.75 12.6672 14.75 12.875V13.1687L12.5 11.8562V10.6531C12.5 10.5172 12.4719 10.3844 12.4187 10.2594L11.7297 8.65156Z" fill="#5CA7FF"/>
<path d="M17 17L20 19" stroke="#5CA7FF" stroke-linecap="round" stroke-dasharray="2 2"/>
</svg>
