<svg width="35" height="35" viewBox="0 0 35 35" fill="none" xmlns="http://www.w3.org/2000/svg">
<path d="M12.2083 7.41405C12.1445 7.26349 11.9965 7.1665 11.8331 7.1665C11.6698 7.1665 11.5218 7.26349 11.458 7.41405L10.3325 10.0402C10.2457 10.2443 10.1998 10.4612 10.1998 10.6833V12.6483L6.5248 14.7921V14.3123C6.5248 13.9729 6.25173 13.6998 5.9123 13.6998C5.57288 13.6998 5.2998 13.9729 5.2998 14.3123V15.7415V16.5582V17.1707C5.2998 17.5101 5.57288 17.7832 5.9123 17.7832C6.25173 17.7832 6.5248 17.5101 6.5248 17.1707V16.9665H10.1998V17.801L8.70684 19.1103C8.61752 19.1868 8.56647 19.2991 8.56647 19.4165V19.8248C8.56647 20.0494 8.75022 20.2332 8.9748 20.2332H11.4248V18.5998C11.4248 18.3753 11.6086 18.1915 11.8331 18.1915C12.0577 18.1915 12.2415 18.3753 12.2415 18.5998V20.2332H14.6915C14.916 20.2332 15.0998 20.0494 15.0998 19.8248V19.4165C15.0998 19.2991 15.0488 19.1868 14.9594 19.1103L13.4665 17.801V16.9665H17.1415V17.1707C17.1415 17.5101 17.4146 17.7832 17.754 17.7832C18.0934 17.7832 18.3665 17.5101 18.3665 17.1707V16.5582V15.7415V14.3123C18.3665 13.9729 18.0934 13.6998 17.754 13.6998C17.4146 13.6998 17.1415 13.9729 17.1415 14.3123V14.7921L13.4665 12.6483V10.6833C13.4665 10.4612 13.4206 10.2443 13.3338 10.0402L12.2083 7.41405Z" fill="#202831"/>
<path d="M22.8732 15.8329C22.8097 15.7061 22.6625 15.6245 22.5 15.6245C22.3375 15.6245 22.1903 15.7061 22.1268 15.8329L21.0071 18.0436C20.9207 18.2155 20.875 18.3981 20.875 18.585V20.2393L17.2188 22.044V21.6401C17.2188 21.3544 16.9471 21.1245 16.6094 21.1245C16.2717 21.1245 16 21.3544 16 21.6401V22.8433V23.5307V24.0464C16 24.3321 16.2717 24.562 16.6094 24.562C16.9471 24.562 17.2188 24.3321 17.2188 24.0464V23.8745H20.875V24.577L19.3896 25.6792C19.3008 25.7436 19.25 25.8382 19.25 25.937V26.2807C19.25 26.4698 19.4328 26.6245 19.6563 26.6245H22.0938V25.2495C22.0938 25.0604 22.2765 24.9057 22.5 24.9057C22.7235 24.9057 22.9063 25.0604 22.9063 25.2495V26.6245H25.3438C25.5672 26.6245 25.75 26.4698 25.75 26.2807V25.937C25.75 25.8382 25.6992 25.7436 25.6104 25.6792L24.125 24.577V23.8745H27.7813V24.0464C27.7813 24.3321 28.053 24.562 28.3906 24.562C28.7283 24.562 29 24.3321 29 24.0464V23.5307V22.8433V21.6401C29 21.3544 28.7283 21.1245 28.3906 21.1245C28.053 21.1245 27.7813 21.3544 27.7813 21.6401V22.044L24.125 20.2393V18.585C24.125 18.3981 24.0793 18.2155 23.9929 18.0436L22.8732 15.8329Z" fill="#202831"/>
</svg>
