<?xml version="1.0" encoding="UTF-8"?>
<svg width="50" height="50" version="1.1" viewBox="0 0 50 50" xmlns="http://www.w3.org/2000/svg">
 <rect transform="rotate(45 25 2.3724)" x="25" y="2.3724" width="32" height="32" rx="1.1" fill="white" stroke-width="2"/>
 <g fill="none">
  <rect transform="rotate(45 25 5.2008)" x="25" y="5.2008" width="28" height="28" stroke="#082E44" stroke-width="2"/>
  <path d="m30.757 25.961h-11.514c-0.84672 0-1.5355 0.68884-1.5355 1.5355 0 0.02338 6.96e-4 0.04658 0.0018 0.06978 3.31e-4 0.0074 7.59e-4 0.01472 0.0012 0.02213 9.81e-4 0.01633 0.0022 0.03257 0.0037 0.04881 6.96e-4 0.0079 0.0012 0.01562 0.0021 0.02338 0.0022 0.0207 0.0048 0.04141 0.0079 0.06193 0.0016 0.01035 0.0034 0.02061 0.0052 0.03097 0.0019 0.01116 0.0038 0.02231 6e-3 0.03338 0.0023 0.01205 0.0047 0.024 0.0073 0.03596 0.0019 0.0087 0.0039 0.01722 6e-3 0.02588 0.0061 0.02579 0.01274 0.05122 0.0201 0.07648 0.0012 0.0044 0.0024 0.0087 0.0037 0.01312 0.0041 0.01374 0.0086 0.02722 0.01297 0.04069 0.0022 0.0067 0.0046 0.01338 0.0068 0.02008 0.0046 0.01321 0.0093 0.0265 0.01427 0.03962 0.0021 0.0058 0.0046 0.01142 0.0068 0.01713 0.0087 0.0224 0.01805 0.04453 0.02782 0.06639 0.0038 0.0087 0.0077 0.01731 0.01175 0.02597 0.0048 0.01008 0.0097 0.02017 0.01471 0.03025 0.0054 0.01089 0.01096 0.0216 0.01663 0.03239 0.0042 0.0079 0.0083 0.01597 0.01264 0.02383 0.01027 0.01874 0.0209 0.03721 0.03192 0.05551 0.0017 0.0028 0.0035 0.0054 0.0052 0.0082 0.0107 0.0174 0.02173 0.03454 0.03309 0.05158 0.0021 0.0029 0.0039 0.0059 6e-3 0.0089 0.14915 0.21953 0.35504 0.40095 0.60265 0.52053 0.0029 0.0014 0.0061 0.0028 9e-3 0.0042 0.01179 0.0055 0.02355 0.01124 0.03553 0.0166l0.01003 4e-3c0.02818 0.01231 0.05663 0.02409 0.08568 0.03471l2.3372 0.94665c0.0036 0.0016 0.0073 0.0029 0.01089 0.0045 0.01526 0.0065 0.03088 0.01249 0.04623 0.01865 0.01606 0.0063 0.03195 0.01303 0.0481 0.01901 0.01597 0.0059 0.03221 0.01124 0.04846 0.01678 0.01624 0.0055 0.03239 0.01142 0.04881 0.0166 0.01392 0.0044 0.0282 0.0081 0.04221 0.01214 0.01901 0.0055 0.03793 0.01133 0.05702 0.01633 0.0092 0.0023 0.01865 0.0043 0.02793 0.0065 0.0241 0.0059 0.04819 0.01178 0.07255 0.01678 8.03e-4 1.79e-4 0.0016 2.68e-4 0.0023 3.57e-4 0.12868 0.02633 0.26004 0.0398 0.39328 0.04087 0.0055 0 0.01098 3.57e-4 0.01642 3.57e-4h6.2671c0.29252 0 0.57059-0.06202 0.82252-0.17312l2.351-0.952c0.01856-0.0071 0.03712-0.01446 0.05533-0.0224l0.0013-5.36e-4 0.01463-0.0062c0.01196-0.0054 0.02374-0.01107 0.03552-0.0166 3e-3 -0.0014 0.0061-0.0029 0.0091-0.0042 0.24755-0.11958 0.45351-0.301 0.60263-0.52053 2e-3 -0.0029 4e-3 -6e-3 6e-3 -0.0089 0.01133-0.01704 0.0224-0.03418 0.03311-0.05158 0.0017-0.0028 0.0035-0.0055 0.0051-0.0082 0.01106-0.01829 0.02168-0.03685 0.03204-0.05551 0.0043-0.0079 0.0085-0.01589 0.01258-0.02383 0.0057-0.0108 0.01124-0.02151 0.01669-0.03239 5e-3 -0.01008 0.0099-0.02008 0.01463-0.03025 4e-3 -0.0087 0.0079-0.01731 0.01178-0.02597 0.0098-0.02186 0.0191-0.044 0.02784-0.06639 0.0022-0.0057 0.0046-0.01142 0.0068-0.01713 5e-3 -0.01312 0.0096-0.02642 0.01428-0.03971 0.0023-0.0066 0.0046-0.0133 0.0068-0.01999 0.0045-0.01356 0.0089-0.02704 0.01294-0.04069 0.0013-0.0044 0.0025-0.0088 0.0037-0.01321 0.0073-0.02517 0.0141-0.05069 0.02017-0.07639 0.0021-0.0087 4e-3 -0.01722 6e-3 -0.02597 0.0026-0.01187 5e-3 -0.02383 0.0073-0.03587 0.0021-0.01115 4e-3 -0.02231 6e-3 -0.03346 0.0018-0.01026 0.0036-0.02052 0.0052-0.03088 3e-3 -0.02061 0.0056-0.04123 0.0079-0.06202 8.03e-4 -0.0078 0.0013-0.01553 0.0021-0.02329 0.0015-0.01624 0.0027-0.03248 0.0037-0.0489 4.46e-4 -0.0073 8.93e-4 -0.01464 0.0012-0.02204 9.81e-4 -0.0232 0.0018-0.04649 0.0018-0.06978 2.68e-4 -0.8467-0.68857-1.5355-1.5353-1.5355zm-11.514 2.1111c-0.07392 0-0.14442-0.01446-0.2094-0.03998l-0.02156-0.0087c-0.01334-0.0059-0.02649-0.01214-0.03924-0.01901-0.0015-7.13e-4 -0.0031-0.0014-0.0046-0.0023-0.015-0.0082-0.02957-0.01713-0.04375-0.02659-0.0029-2e-3 -0.0057-0.0039-0.0085-6e-3 -0.01153-8e-3 -0.02276-0.01633-0.03362-0.02517-0.0029-0.0022-0.0057-0.0046-0.0085-0.0069-0.02593-0.02168-0.04988-0.04569-0.07161-0.07166-0.0027-0.0032-0.0053-0.0065-0.0079-0.0098-0.0079-0.0098-0.01546-0.01999-0.02276-0.03034-0.0029-4e-3 -0.0057-0.0081-0.0085-0.01223-0.0088-0.0133-0.01721-0.02686-0.0249-0.04096-2e-3 -0.0035-0.0036-0.0072-0.0054-0.0108-0.0057-0.01089-0.01107-0.02195-0.016-0.0332-0.0027-0.0061-0.0052-0.01214-0.0077-0.01829-4e-3 -0.01-0.0077-0.02008-0.01113-0.03034-2e-3 -0.0056-4e-3 -0.01115-0.0057-0.01696-0.0046-0.01508-0.0085-0.03034-0.01186-0.04596-0.0011-0.0051-0.0019-0.01026-0.0028-0.01535-0.0023-0.01223-0.0042-0.02454-0.0057-0.03694-6.25e-4 -0.0054-0.0012-0.01071-0.0018-0.01597-0.0016-0.01713-0.0027-0.03445-0.0027-0.05203 0-0.31733 0.25817-0.57559 0.57556-0.57559 0.31739 0 0.57552 0.25817 0.57552 0.57559 0 0.31742-0.25811 0.5755-0.57548 0.5755zm2.6246 1.0223c-0.01865 0-0.03739-4.46e-4 -0.05586-0.0013-0.05417-0.0028-0.10726-0.0095-0.15902-0.01999-0.0013-2.68e-4 -0.0028-5.35e-4 -0.0041-8.03e-4 -0.01392-0.0029-0.02766-0.0062-0.0415-0.0095-0.0039-9.81e-4 -0.0079-0.0018-0.01187-0.0029-0.01178-3e-3 -0.02347-0.0065-0.03516-0.01-0.0059-0.0017-0.01178-0.0033-0.01767-0.0052-0.01026-0.0032-0.02035-0.0068-0.03043-0.01035-0.0071-0.0025-0.01437-0.0048-0.02151-0.0075-0.0095-0.0036-0.01883-0.0074-0.02829-0.01115-0.0074-3e-3 -0.01481-6e-3 -0.02222-0.0091-0.38721-0.16643-0.65912-0.55141-0.65912-0.99894 0-0.59924 0.48751-1.0868 1.0868-1.0868s1.0868 0.48751 1.0868 1.0868c0 0.59924-0.48751 1.0868-1.0868 1.0868zm3.1335 0c-0.59924 0-1.0868-0.48751-1.0868-1.0867 0-0.59924 0.48751-1.0868 1.0868-1.0868 0.59924 0 1.0867 0.48751 1.0867 1.0868 0 0.59915-0.48742 1.0867-1.0867 1.0867zm3.5853-0.0987-6e-3 0.0024-0.01258 0.0054c-0.13743 0.06024-0.2836 0.09076-0.43433 0.09093-0.59871-5.35e-4 -1.0856-0.48778-1.0856-1.0867 0-0.59924 0.48751-1.0868 1.0868-1.0868s1.0867 0.48751 1.0867 1.0868c0 0.43798-0.26076 0.81609-0.63494 0.98797zm2.7434-1.4472c-4.46e-4 0.0054-0.0011 0.01062-0.0017 0.01597-0.0015 0.0124-0.0034 0.02472-0.0057 0.03695-9.81e-4 0.0051-0.0017 0.01035-0.0029 0.01544-0.0033 0.01553-0.0072 0.03079-0.01178 0.04587-0.0018 0.0058-0.0038 0.01133-0.0057 0.01704-0.0035 0.01026-0.0071 0.02035-0.01115 0.03025-0.0024 0.0062-5e-3 0.01223-0.0076 0.01829-5e-3 0.01124-0.01044 0.0224-0.01606 0.0332-0.0019 0.0036-0.0035 0.0072-0.0054 0.01089-0.0077 0.01401-0.01606 0.02757-0.02481 0.04087-0.0028 0.0042-0.0057 0.0082-0.0086 0.01223-0.0072 0.01044-0.01473 0.02052-0.02267 0.03034-0.0027 0.0033-0.0053 0.0066-0.0079 0.0099-0.02177 0.02588-0.04578 0.0498-0.07166 0.07157-0.0028 0.0024-0.0056 0.0046-0.0085 0.0069-0.01089 0.0088-0.02213 0.01722-0.03355 0.02517-0.0029 2e-3 -0.0057 4e-3 -0.0086 6e-3 -0.01419 0.0095-0.02874 0.01838-0.04373 0.02659-0.0015 8.92e-4 -0.0031 0.0016-0.0046 0.0024-0.01276 0.0068-0.02597 0.01303-0.03927 0.01892l-0.0216 0.0087c-0.06497 0.02552-0.13546 0.04007-0.20936 0.04007-0.31733 0-0.5755-0.25826-0.5755-0.57559 0-0.31742 0.25817-0.57559 0.5755-0.57559 0.31734 0 0.57559 0.25817 0.57559 0.57559-9e-5 0.01758-0.0013 0.03489-0.0028 0.05203z" stroke="#082e44" stroke-width=".89239"/>
  <path d="m30.757 24.04h-0.22988l-2.1932-2.0944h-1.2463c-0.05069-0.2695-0.14492-0.52374-0.27548-0.75514l4.3929-1.8201 0.18258 0.44075 0.92836-0.38462-0.18267-0.44075 1.1082-0.45914-0.38462-0.92827-1.1082 0.45906-0.18258-0.44072-0.92826 0.38458 0.18258 0.44073-4.7168 1.9543c-0.40872-0.29663-0.91077-0.47216-1.4533-0.47216h-1.8691c-1.211 0-2.2213 0.87231-2.4375 2.0214h-1.5327v2.1213c-0.90024 0.11217-1.7178 0.57229-2.2886 1.3011l0.75574 0.59201c0.47787-0.61013 1.1941-0.96004 1.965-0.96004h11.514c0.77103 0 1.4872 0.34991 1.965 0.96004l0.75577-0.59201c-0.66099-0.84394-1.6527-1.328-2.7207-1.328z" stroke="#082e44" stroke-width=".89239"/>
 </g>
</svg>
