<?xml version="1.0" encoding="UTF-8"?>
<svg width="50" height="50" version="1.1" viewBox="0 0 50 50" xmlns="http://www.w3.org/2000/svg">
 <rect transform="rotate(45 25 2.3724)" x="25" y="2.3724" width="32" height="32" rx="1.1" fill="white" stroke-width="2"/>
 <rect transform="rotate(45 25 5.2008)" x="25" y="5.2008" width="28" height="28" fill="none" stroke="#082E44" stroke-width="2"/>
 <path d="m24.581 23.186c0.72013 0 1.4119 0.2013 2.0073 0.56419v8.5083h-5.4435v-4.9416l-1.5196 2.5686c-0.31753 0.53868-1.015 0.71729-1.5537 0.39976-0.53868-0.31754-0.71729-1.015-0.39975-1.5537l2.1604-3.6517c0.69461-1.1737 1.9562-1.8939 3.3199-1.8939zm-2.9826-3.1754a2.2681 2.2681 0 1 1 4.5362 0 2.2681 2.2681 0 1 1-4.5362 0zm8.1652-2.2681c0.24949 0 0.45362 0.20413 0.45362 0.45362v3.2973c0.27218 0.15594 0.45362 0.45079 0.45362 0.78533v3.0988l0.45362-0.15026v-1.5877c0-0.24949 0.20413-0.45362 0.45362-0.45362h0.45362c0.24949 0 0.45362 0.20413 0.45362 0.45362v2.3957c0 0.19562-0.12474 0.36857-0.30903 0.43094l-1.5055 0.49898v0.75698h1.3609c0.24949 0 0.45362 0.20413 0.45362 0.45362v0.45362c0 0.24949-0.20413 0.45362-0.45362 0.45362h-1.2475l0.65208 2.6112c0.07088 0.28635-0.1446 0.56419-0.43945 0.56419h-1.6869c-0.24949 0-0.45362-0.20413-0.45362-0.45362v-2.7217h-0.45362c-0.50182 0-0.90724-0.40542-0.90724-0.90724v-4.0826c0-0.50182 0.40542-0.90724 0.90724-0.90724v-0.90725c0-0.33454 0.18145-0.6294 0.45362-0.78533v-2.8436c-0.24949 0-0.45362-0.20413-0.45362-0.45362 0-0.2495 0.20413-0.45362 0.45362-0.45362h0.45362z" fill="none" stroke="#082e44"/>
</svg>
