<?xml version="1.0" encoding="UTF-8"?>
<svg width="50" height="50" version="1.1" viewBox="0 0 50 50" xml:space="preserve" xmlns="http://www.w3.org/2000/svg"><rect transform="rotate(45 25 2.3724)" x="25" y="2.3724" width="32" height="32" rx="1.1" fill="white" stroke-width="2"/><rect transform="rotate(45 25 5.2008)" x="25" y="5.2008" width="28" height="28" fill="none" stroke="#082e44" stroke-width="2"/><path d="m25 14.598c0.71918 0 1.3002 0.58104 1.3002 1.3002v0.42257c3.8072 0.56478 6.814 3.5756 7.3787 7.3787h0.42257c0.71918 0 1.3002 0.58104 1.3002 1.3002s-0.58104 1.3002-1.3002 1.3002h-0.42257c-0.56478 3.8072-3.5756 6.814-7.3787 7.3787v0.42257c0 0.71918-0.58104 1.3002-1.3002 1.3002s-1.3002-0.58104-1.3002-1.3002v-0.42257c-3.8072-0.56478-6.814-3.5715-7.3787-7.3787h-0.42257c-0.71918 0-1.3002-0.58104-1.3002-1.3002s0.58104-1.3002 1.3002-1.3002h0.42257c0.56478-3.8072 3.5715-6.814 7.3787-7.3787v-0.42257c0-0.71918 0.58104-1.3002 1.3002-1.3002zm-6.0379 11.702c0.5079 2.3688 2.3729 4.2298 4.7377 4.7377v-0.83702c0-0.71918 0.58104-1.3002 1.3002-1.3002s1.3002 0.58104 1.3002 1.3002v0.83702c2.3688-0.5079 4.2298-2.3729 4.7377-4.7377h-0.83702c-0.71918 0-1.3002-0.58104-1.3002-1.3002s0.58104-1.3002 1.3002-1.3002h0.83702c-0.5079-2.3688-2.3688-4.2298-4.7377-4.7377v0.83702c0 0.71918-0.58104 1.3002-1.3002 1.3002s-1.3002-0.58104-1.3002-1.3002v-0.83702c-2.3688 0.5079-4.2298 2.3688-4.7377 4.7377h0.83702c0.71918 0 1.3002 0.58104 1.3002 1.3002s-0.58104 1.3002-1.3002 1.3002zm6.0379-2.6004a1.3002 1.3002 0 1 1 0 2.6004 1.3002 1.3002 0 1 1 0-2.6004z" fill="#082e44" stroke="#082e44" stroke-width=".040632"/></svg>
