<?xml version="1.0" encoding="UTF-8"?>
<svg width="50" height="50" version="1.1" viewBox="0 0 50 50" xmlns="http://www.w3.org/2000/svg">
 <rect transform="rotate(45 25 2.3724)" x="25" y="2.3724" width="32" height="32" rx="1.1" fill="white" stroke-width="2"/>
 <g fill="none">
  <rect transform="rotate(45 25 5.2008)" x="25" y="5.2008" width="28" height="28" stroke="#082E44" stroke-width="2"/>
  <path d="m31.832 25.029h-12.902c-0.94882 0-1.7207 0.7719-1.7207 1.7207 0 0.0262 7.8e-4 0.0522 2e-3 0.0782 3.7e-4 0.0083 8.5e-4 0.0165 0.0013 0.0248 0.0011 0.0183 0.0025 0.0365 0.0042 0.0547 7.8e-4 0.0088 0.0015 0.0175 0.0024 0.0262 0.0025 0.0232 0.0054 0.0464 0.0089 0.0694 0.0017 0.0116 0.0038 0.0231 0.0058 0.0347 0.0022 0.0125 0.0043 0.025 0.0067 0.0374 0.0026 0.0135 0.0053 0.0269 0.0082 0.0403 0.0021 0.0097 0.0044 0.0193 0.0067 0.029 0.0068 0.0289 0.01428 0.0574 0.02252 0.0857 0.0014 0.0049 0.0027 0.0098 0.0042 0.0147 0.0046 0.0154 0.0096 0.0305 0.01454 0.0456 0.0025 0.0075 5e-3 0.015 0.0076 0.0225 0.0052 0.0148 0.01043 0.0297 0.01599 0.0444 0.0024 0.0065 0.0051 0.0128 0.0076 0.0192 0.0098 0.0251 0.02023 0.0499 0.03118 0.0744 0.0043 0.0097 0.0086 0.0194 0.01317 0.0291 0.0054 0.0113 0.01087 0.0226 0.01648 0.0339 6e-3 0.0122 0.01228 0.0242 0.01863 0.0363 0.0047 0.0089 0.0094 0.0179 0.01417 0.0267 0.01151 0.021 0.02342 0.0417 0.03577 0.0622 0.0019 0.0031 0.0039 0.0061 0.0058 0.0092 0.01199 0.0195 0.02435 0.0387 0.03708 0.0578 0.0023 0.0033 0.0045 0.0066 0.0067 0.01 0.16714 0.246 0.39785 0.4493 0.67532 0.5833 0.0033 0.0016 0.0068 0.0031 0.01013 0.0047 0.01321 0.0062 0.02639 0.0126 0.03982 0.0186l0.01124 0.0045c0.03158 0.0138 0.06346 0.027 0.09601 0.0389l2.619 1.0608c4e-3 0.0018 0.0082 0.0032 0.0122 5e-3 0.0171 0.0073 0.0346 0.014 0.0518 0.0209 0.018 0.0071 0.0358 0.0146 0.0539 0.0213 0.0179 0.0066 0.0361 0.0126 0.0543 0.0188s0.0363 0.0128 0.0547 0.0186c0.0156 0.0049 0.0316 0.0091 0.0473 0.0136 0.0213 0.0062 0.0425 0.0127 0.0639 0.0183 0.0103 0.0026 0.0209 0.0048 0.0313 0.0073 0.027 0.0066 0.054 0.0132 0.0813 0.0188 9e-4 2e-4 0.0018 3e-4 0.0026 4e-4 0.1442 0.0295 0.2914 0.0446 0.4407 0.0458 0.0062 0 0.0123 4e-4 0.0184 4e-4h7.0227c0.3278 0 0.6394-0.0695 0.9217-0.194l2.6345-1.0668c0.0208-8e-3 0.0416-0.0162 0.062-0.0251l0.0015-6e-4 0.0164-0.0069c0.0134-6e-3 0.0266-0.0124 0.0398-0.0186 0.0034-0.0016 0.0068-0.0032 0.0102-0.0047 0.2774-0.134 0.5082-0.3373 0.6753-0.5833 0.0022-0.0033 0.0045-0.0067 0.0067-0.01 0.0127-0.0191 0.0251-0.0383 0.0371-0.0578 0.0019-0.0031 0.0039-0.0062 0.0057-0.0092 0.0124-0.0205 0.0243-0.0413 0.0359-0.0622 0.0048-0.0089 0.0095-0.0178 0.0141-0.0267 0.0064-0.0121 0.0126-0.0241 0.0187-0.0363 0.0056-0.0113 0.0111-0.0225 0.0164-0.0339 0.0045-0.0097 0.0089-0.0194 0.0132-0.0291 0.011-0.0245 0.0214-0.0493 0.0312-0.0744 0.0025-0.0064 0.0052-0.0128 0.0076-0.0192 0.0056-0.0147 0.0108-0.0296 0.016-0.0445 0.0026-0.0074 0.0051-0.0149 0.0076-0.0224 5e-3 -0.0152 0.01-0.0303 0.0145-0.0456 0.0015-0.0049 0.0028-0.0099 0.0042-0.0148 0.0082-0.0282 0.0158-0.0568 0.0226-0.0856 0.0023-0.0097 0.0045-0.0193 0.0067-0.0291 0.0029-0.0133 0.0056-0.0267 0.0082-0.0402 0.0024-0.0125 0.0045-0.025 0.0067-0.0375 2e-3 -0.0115 4e-3 -0.023 0.0058-0.0346 0.0034-0.0231 0.0063-0.0462 0.0089-0.0695 9e-4 -0.0087 0.0015-0.0174 0.0024-0.0261 0.0017-0.0182 3e-3 -0.0364 0.0041-0.0548 5e-4 -0.0082 1e-3 -0.0164 0.0014-0.0247 0.0011-0.026 2e-3 -0.0521 2e-3 -0.0782 3e-4 -0.9488-0.7716-1.7207-1.7204-1.7207zm-12.902 2.3657c-0.08283 0-0.16184-0.0162-0.23465-0.0448l-0.02416-0.0098c-0.01495-0.0066-0.02968-0.0136-0.04397-0.0213-0.0017-8e-4 -0.0035-0.0016-0.0052-0.0026-0.01681-0.0092-0.03314-0.0192-0.04902-0.0298-0.0032-0.0022-0.0064-0.0044-0.0095-0.0067-0.01292-9e-3 -0.0255-0.0183-0.03767-0.0282-0.0032-0.0025-0.0064-0.0051-0.0095-0.0077-0.02906-0.0243-0.05589-0.0512-0.08024-0.0803-3e-3 -0.0036-0.0059-0.0073-0.0089-0.011-0.0089-0.011-0.01733-0.0224-0.0255-0.034-0.0032-0.0045-0.0064-0.0091-0.0095-0.0137-0.0099-0.0149-0.01929-0.0301-0.0279-0.0459-0.0022-0.0039-4e-3 -0.0081-0.0061-0.0121-0.0064-0.0122-0.0124-0.0246-0.01793-0.0372-3e-3 -0.0068-0.0058-0.0136-0.0086-0.0205-0.0044-0.0112-0.0086-0.0225-0.01247-0.034-0.0021-0.0063-0.0044-0.0125-0.0064-0.019-0.0051-0.0169-0.0095-0.034-0.01329-0.0515-0.0012-0.0057-0.0021-0.0115-0.0032-0.0172-0.0026-0.0137-0.0047-0.0275-0.0063-0.0414-7e-4 -6e-3 -0.0014-0.012-2e-3 -0.0179-0.0018-0.0192-3e-3 -0.0386-3e-3 -0.0583 0-0.3556 0.2893-0.645 0.64496-0.645s0.64492 0.2893 0.64492 0.645-0.28923 0.6449-0.64488 0.6449zm2.9411 1.1456c-0.0209 0-0.0419-5e-4 -0.0626-0.0015-0.0607-0.0031-0.1202-0.0107-0.1782-0.0224-0.0015-3e-4 -0.0031-6e-4 -0.0046-9e-4 -0.0156-0.0032-0.031-0.0069-0.0465-0.0107-0.0044-0.0011-0.0089-2e-3 -0.0133-0.0032-0.0132-0.0034-0.0263-0.0073-0.0394-0.0112-0.0066-0.0019-0.0132-0.0037-0.0198-0.0058-0.0115-0.0036-0.0228-0.0076-0.0341-0.0116-8e-3 -0.0028-0.0161-0.0054-0.0241-0.0084-0.0106-4e-3 -0.0211-0.0083-0.0317-0.0125-0.0083-0.0034-0.0166-0.0067-0.0249-0.0102-0.4339-0.1865-0.7386-0.6179-0.7386-1.1194 0-0.6715 0.5463-1.2178 1.2178-1.2178s1.2178 0.5463 1.2178 1.2178-0.5463 1.2178-1.2178 1.2178zm3.5114 0c-0.6715 0-1.2178-0.5463-1.2178-1.2177 0-0.6715 0.5463-1.2178 1.2178-1.2178s1.2177 0.5463 1.2177 1.2178c0 0.6714-0.5462 1.2177-1.2177 1.2177zm4.0176-0.1106-0.0067 0.0027-0.0141 6e-3c-0.154 0.0675-0.3178 0.1017-0.4867 0.1019-0.6709-6e-4 -1.2165-0.5466-1.2165-1.2177 0-0.6715 0.5463-1.2178 1.2178-1.2178s1.2177 0.5463 1.2177 1.2178c0 0.4908-0.2922 0.9145-0.7115 1.1071zm3.0742-1.6217c-5e-4 6e-3 -0.0012 0.0119-0.0019 0.0179-0.0017 0.0139-0.0038 0.0277-0.0064 0.0414-0.0011 0.0057-0.0019 0.0116-0.0032 0.0173-0.0037 0.0174-0.0081 0.0345-0.0132 0.0514-2e-3 0.0065-0.0043 0.0127-0.0064 0.0191-0.0039 0.0115-8e-3 0.0228-0.0125 0.0339-0.0027 0.0069-0.0056 0.0137-0.0085 0.0205-0.0056 0.0126-0.0117 0.0251-0.018 0.0372-0.0021 4e-3 -0.0039 0.0081-0.0061 0.0122-0.0086 0.0157-0.018 0.0309-0.0278 0.0458-0.0031 0.0047-0.0064 0.0092-0.0096 0.0137-0.0081 0.0117-0.0165 0.023-0.0254 0.034-3e-3 0.0037-0.0059 0.0074-0.0089 0.0111-0.0244 0.029-0.0513 0.0558-0.0803 0.0802-0.0031 0.0027-0.0063 0.0052-0.0095 0.0077-0.0122 0.0099-0.0248 0.0193-0.0376 0.0282-0.0032 0.0022-0.0064 0.0045-0.0096 0.0067-0.0159 0.0106-0.0322 0.0206-0.049 0.0298-0.0017 1e-3 -0.0035 0.0018-0.0052 0.0027-0.0143 0.0076-0.0291 0.0146-0.044 0.0212l-0.0242 0.0098c-0.0728 0.0286-0.1518 0.0449-0.2346 0.0449-0.3556 0-0.6449-0.2894-0.6449-0.645 0-0.3557 0.2893-0.645 0.6449-0.645s0.645 0.2893 0.645 0.645c-1e-4 0.0197-0.0014 0.0391-0.0031 0.0583z" stroke="#082e44"/>
  <path d="m31.832 22.877h-0.2576l-2.4577-2.347h-1.3966c-2.351 0.01087-4.5364-0.06624-7.5572 0h-1.7175v2.3771c-1.0088 0.1257-1.9249 0.6413-2.5646 1.458l0.84687 0.6634c0.53549-0.6837 1.3381-1.0758 2.202-1.0758h12.902c0.864 0 1.6665 0.3921 2.202 1.0758l0.8469-0.6634c-0.7407-0.9457-1.852-1.4881-3.0488-1.4881z" stroke="#082e44"/>
 </g>
</svg>
