<?xml version="1.0" encoding="UTF-8" standalone="no"?>
<svg
   width="16"
   height="16"
   viewBox="0 0 16 16"
   fill="none"
   version="1.1"
   id="svg14"
   sodipodi:docname="diamond.svg"
   inkscape:version="1.1 (c68e22c387, 2021-05-23)"
   xmlns:inkscape="http://www.inkscape.org/namespaces/inkscape"
   xmlns:sodipodi="http://sodipodi.sourceforge.net/DTD/sodipodi-0.dtd"
   xmlns="http://www.w3.org/2000/svg"
   xmlns:svg="http://www.w3.org/2000/svg"
   xmlns:rdf="http://www.w3.org/1999/02/22-rdf-syntax-ns#"
   xmlns:cc="http://creativecommons.org/ns#"
   xmlns:dc="http://purl.org/dc/elements/1.1/">
  <metadata
     id="metadata20">
    <rdf:RDF>
      <cc:Work
         rdf:about="">
        <dc:format>image/svg+xml</dc:format>
        <dc:type
           rdf:resource="http://purl.org/dc/dcmitype/StillImage" />
      </cc:Work>
    </rdf:RDF>
  </metadata>
  <defs
     id="defs18" />
  <sodipodi:namedview
     inkscape:document-rotation="0"
     pagecolor="#ffffff"
     bordercolor="#666666"
     borderopacity="1"
     objecttolerance="10"
     gridtolerance="10"
     guidetolerance="10"
     inkscape:pageopacity="0"
     inkscape:pageshadow="2"
     inkscape:window-width="1920"
     inkscape:window-height="1017"
     id="namedview16"
     showgrid="false"
     inkscape:zoom="34.345186"
     inkscape:cx="9.7975885"
     inkscape:cy="6.9150885"
     inkscape:window-x="-8"
     inkscape:window-y="-8"
     inkscape:window-maximized="1"
     inkscape:current-layer="svg14"
     inkscape:pagecheckerboard="0" />
  <path
     d="m 7.7738456,0.73991536 c 0.028657,-0.06694 0.095212,-0.11005484 0.1686893,-0.11005484 0.07342,0 0.1399744,0.04312 0.1686901,0.11005484 L 8.6172383,1.907376 c 0.039075,0.09076 0.059684,0.187205 0.059684,0.285915 V 3.066887 L 10.329417,4.01992 V 3.806656 c 0,-0.150915 0.1228,-0.272327 0.275387,-0.272327 0.152644,0 0.275444,0.121412 0.275444,0.272327 V 4.441993 4.805059 5.07733 c 0,0.150916 -0.1228,0.272328 -0.275444,0.272328 -0.152587,0 -0.275387,-0.121412 -0.275387,-0.272328 V 4.98659 H 8.676921 v 0.37097 l 0.6713243,0.582063 c 0.040146,0.03402 0.06312,0.08395 0.06312,0.136109 v 0.181532 c 0,0.09987 -0.082602,0.181532 -0.1836106,0.181532 H 8.1260895 v -0.72613 c 0,-0.09981 -0.0826,-0.181478 -0.1835546,-0.181478 -0.1010109,0 -0.1836102,0.08166 -0.1836102,0.181478 v 0.72613 H 6.657261 c -0.101011,0 -0.1836102,-0.08167 -0.1836102,-0.181532 V 6.075732 c 0,-0.05216 0.022912,-0.102096 0.063058,-0.136109 L 7.2080928,5.35756 V 4.98659 H 5.5555976 v 0.09074 c 0,0.150915 -0.1228013,0.272327 -0.2753877,0.272327 -0.152643,0 -0.2754442,-0.121412 -0.2754442,-0.272327 V 4.805059 4.441993 3.806656 c 0,-0.150915 0.1228012,-0.272327 0.2754442,-0.272327 0.1525864,0 0.2753877,0.121412 0.2753877,0.272327 V 4.01992 L 7.2080933,3.066887 V 2.193291 c 0,-0.09871 0.020665,-0.195155 0.059684,-0.285915 z"
     fill="#202831"
     id="path2"
     style="fill:#000000;fill-opacity:1;stroke-width:0.559857" />
  <path
     style="fill:#000000;fill-opacity:1;stroke-width:0.559857"
     id="path2-4"
     fill="#202831"
     d="m 3.184664,4.4905966 c 0.028657,-0.066941 0.095212,-0.1100552 0.1686901,-0.1100552 0.07342,0 0.1399744,0.043114 0.1686902,0.1100552 L 4.0280567,5.658057 c 0.039075,0.09076 0.059684,0.1872056 0.059684,0.2859155 v 0.8735957 l 1.652495,0.9530334 v -0.213264 c 0,-0.150915 0.1228008,-0.2723265 0.2753878,-0.2723265 0.152643,0 0.2754438,0.1214115 0.2754438,0.2723265 v 0.6353371 0.3630661 0.272271 c 0,0.1509163 -0.1228008,0.2723279 -0.2754438,0.2723279 -0.152587,0 -0.2753878,-0.1214116 -0.2753878,-0.2723279 V 8.7372709 H 4.0877394 V 9.1082413 L 4.759064,9.6903046 c 0.040146,0.03402 0.063115,0.08394 0.063115,0.136109 v 0.1815324 c 0,0.09987 -0.082599,0.181533 -0.1836102,0.181533 H 3.5369055 V 9.4633456 c 0,-0.09981 -0.082599,-0.181477 -0.1835538,-0.181477 -0.101011,0 -0.1836111,0.08166 -0.1836111,0.181477 V 10.189479 H 2.0680777 c -0.101011,0 -0.183611,-0.08166 -0.183611,-0.181533 V 9.8264136 c 0,-0.05216 0.022912,-0.102096 0.063058,-0.136109 L 2.6189119,9.1082413 V 8.7372709 H 0.96641662 v 0.090741 c 0,0.1509163 -0.1228014,0.2723279 -0.2753875,0.2723279 -0.15264324,0 -0.27544391,-0.1214116 -0.27544391,-0.2723279 V 8.5557408 8.1926747 7.5573376 c 0,-0.150915 0.12280067,-0.2723265 0.27544391,-0.2723265 0.1525861,0 0.2753875,0.1214115 0.2753875,0.2723265 v 0.213264 L 2.6189116,6.8175682 V 5.9439725 c 0,-0.09871 0.020665,-0.1951547 0.059684,-0.2859155 z" />
  <path
     style="fill:#000000;fill-opacity:1;stroke-width:0.559857"
     id="path2-4-5"
     fill="#202831"
     d="m 12.484629,4.5143881 c 0.02865,-0.066941 0.09521,-0.1100553 0.16869,-0.1100553 0.07342,0 0.139974,0.043114 0.16869,0.1100553 l 0.506012,1.1674604 c 0.03908,0.09076 0.05968,0.1872055 0.05968,0.2859155 v 0.8735956 l 1.652495,0.9530335 V 7.581129 c 0,-0.150915 0.122802,-0.2723265 0.275389,-0.2723265 0.152642,0 0.275444,0.1214115 0.275444,0.2723265 v 0.6353371 0.3630662 0.272271 c 0,0.1509163 -0.122802,0.2723279 -0.275444,0.2723279 -0.152587,0 -0.275389,-0.1214116 -0.275389,-0.2723279 v -0.090741 h -1.652495 v 0.3709703 l 0.671324,0.582064 c 0.04015,0.03402 0.06311,0.08394 0.06311,0.136107 v 0.1815324 c 0,0.09987 -0.0826,0.181533 -0.183611,0.181533 H 12.836865 V 9.4871406 c 0,-0.09981 -0.0826,-0.181478 -0.183554,-0.181478 -0.101011,0 -0.183611,0.08166 -0.183611,0.181478 v 0.7261314 h -1.101658 c -0.101011,0 -0.183611,-0.08166 -0.183611,-0.181533 V 9.8502066 c 0,-0.05216 0.02291,-0.102096 0.06306,-0.136108 l 0.671383,-0.582063 V 8.7610653 h -1.652496 v 0.090741 c 0,0.1509163 -0.122802,0.2723279 -0.2753878,0.2723279 -0.152644,0 -0.275444,-0.1214116 -0.275444,-0.2723279 V 8.5795323 8.2164661 7.581129 c 0,-0.150915 0.1228,-0.2723265 0.275444,-0.2723265 0.1525858,0 0.2753878,0.1214115 0.2753878,0.2723265 V 7.7943931 L 11.918876,6.8413596 V 5.967764 c 0,-0.09871 0.02067,-0.1951547 0.05968,-0.2859155 z" />
  <path
     style="fill:#000000;fill-opacity:1;stroke-width:0.559857"
     id="path2-4-9"
     fill="#202831"
     d="m 7.7976374,9.4146894 c 0.028656,-0.06694 0.095212,-0.1100553 0.1686901,-0.1100553 0.07342,0 0.1399744,0.043115 0.1686902,0.1100553 l 0.5060124,1.1674566 c 0.039075,0.09076 0.059684,0.187204 0.059684,0.285914 v 0.873592 l 1.6524959,0.953033 v -0.213264 c 0,-0.150914 0.1228,-0.272326 0.275387,-0.272326 0.152644,0 0.275444,0.121412 0.275444,0.272326 v 0.635337 0.363066 0.272271 c 0,0.150917 -0.1228,0.272329 -0.275444,0.272329 -0.152587,0 -0.275387,-0.121412 -0.275387,-0.272329 v -0.09074 H 8.7007128 v 0.37097 l 0.671325,0.582064 c 0.040146,0.03402 0.06312,0.08394 0.06312,0.136108 v 0.181532 c 0,0.09987 -0.082602,0.181533 -0.1836105,0.181533 H 8.1498788 V 14.38743 c 0,-0.09981 -0.082599,-0.181477 -0.1835537,-0.181477 -0.101011,0 -0.1836111,0.08166 -0.1836111,0.181477 v 0.726132 H 6.6810511 c -0.1010109,0 -0.183611,-0.08166 -0.183611,-0.181533 v -0.181532 c 0,-0.05216 0.022912,-0.102096 0.063059,-0.136108 l 0.6713867,-0.582064 v -0.37097 H 5.5793901 v 0.09074 c 0,0.150916 -0.1228016,0.272328 -0.2753876,0.272328 -0.1526432,0 -0.2754439,-0.121411 -0.2754439,-0.272328 v -0.272271 -0.363066 -0.635337 c 0,-0.150914 0.1228007,-0.272326 0.2754439,-0.272326 0.152586,0 0.2753876,0.121412 0.2753876,0.272326 v 0.213264 L 7.2318853,11.741652 V 10.86806 c 0,-0.09871 0.020665,-0.195154 0.059684,-0.285914 z" />
</svg>
