<?xml version="1.0" encoding="UTF-8" standalone="no"?>
<svg
   viewBox="0 0 512 512"
   version="1.1"
   id="svg1156"
   sodipodi:docname="scenic-blue.svg"
   inkscape:version="1.2.2 (732a01da63, 2022-12-09)"
   xml:space="preserve"
   xmlns:inkscape="http://www.inkscape.org/namespaces/inkscape"
   xmlns:sodipodi="http://sodipodi.sourceforge.net/DTD/sodipodi-0.dtd"
   xmlns="http://www.w3.org/2000/svg"
   xmlns:svg="http://www.w3.org/2000/svg"><defs
     id="defs1160" /><sodipodi:namedview
     id="namedview1158"
     pagecolor="#ffffff"
     bordercolor="#666666"
     borderopacity="1.0"
     inkscape:showpageshadow="2"
     inkscape:pageopacity="0.0"
     inkscape:pagecheckerboard="0"
     inkscape:deskcolor="#d1d1d1"
     showgrid="false"
     inkscape:zoom="1.3838301"
     inkscape:cx="350.11524"
     inkscape:cy="229.07437"
     inkscape:window-width="2560"
     inkscape:window-height="1377"
     inkscape:window-x="1912"
     inkscape:window-y="-8"
     inkscape:window-maximized="1"
     inkscape:current-layer="svg1156" /><!--! Font Awesome Pro 6.4.2 by @fontawesome - https://fontawesome.com License - https://fontawesome.com/license (Commercial License) Copyright 2023 Fonticons, Inc. --><path
     d="m 376.91839,231.41639 c -1.31238,-3.09721 -4.35709,-5.09202 -7.71677,-5.09202 -3.35968,0 -6.40439,1.99481 -7.71677,5.09202 l -23.1503,54.01737 c -1.78483,4.1996 -2.72974,8.66167 -2.72974,13.22874 v 40.42116 l -75.59281,44.0958 v -9.86906 c 0,-6.98183 -5.61697,-12.5988 -12.5988,-12.5988 -6.98184,0 -12.59881,5.61697 -12.59881,12.5988 v 29.39721 16.7984 12.5988 c 0,6.98184 5.61697,12.59881 12.59881,12.59881 6.98183,0 12.5988,-5.61697 12.5988,-12.59881 v -4.1996 h 75.59281 v 17.16587 l -30.70958,26.92994 c -1.83732,1.57485 -2.88722,3.88463 -2.88722,6.2994 v 8.3992 c 0,4.61956 3.77964,8.39921 8.3992,8.39921 h 50.39521 v -33.59681 c 0,-4.61956 3.77964,-8.3992 8.3992,-8.3992 4.61956,0 8.3992,3.77964 8.3992,8.3992 v 33.59681 h 50.39521 c 4.61956,0 8.3992,-3.77965 8.3992,-8.39921 v -8.3992 c 0,-2.41477 -1.0499,-4.72455 -2.88722,-6.2994 l -30.70958,-26.92994 v -17.16587 h 75.59281 v 4.1996 c 0,6.98184 5.61697,12.59881 12.5988,12.59881 6.98184,0 12.59881,-5.61697 12.59881,-12.59881 v -12.5988 -16.7984 -29.39721 c 0,-6.98183 -5.61697,-12.5988 -12.59881,-12.5988 -6.98183,0 -12.5988,5.61697 -12.5988,12.5988 v 9.86906 l -75.59281,-44.0958 V 298.6625 c 0,-4.56707 -0.94491,-9.02914 -2.72974,-13.22874 z"
     id="path1154"
     style="fill:#db841d;fill-opacity:1;stroke:none;stroke-width:0.52495;stroke-opacity:1" /><path
     style="fill:none;stroke:#000000;stroke-width:10;stroke-linecap:round;stroke-linejoin:miter;stroke-dasharray:none;stroke-opacity:1"
     d="M 90.329008,471.87874 294.83388,138.74536"
     id="path9928"
     sodipodi:nodetypes="cc" /><path
     style="fill:none;stroke:#000000;stroke-width:10;stroke-linecap:round;stroke-linejoin:miter;stroke-dasharray:none;stroke-opacity:1"
     d="M 37.215553,461.40058 33.602384,51.668198"
     id="path9928-3"
     sodipodi:nodetypes="cc" /><path
     style="fill:none;stroke:#000000;stroke-width:10;stroke-linecap:round;stroke-linejoin:miter;stroke-dasharray:none;stroke-opacity:1"
     d="M 61.785043,466.45901 134.77088,205.58883"
     id="path9928-31"
     sodipodi:nodetypes="cc" /><path
     d="m 97.776883,46.496287 c -2.69052,-1.821707 -6.27788,-1.485392 -8.576032,0.784735 -2.298159,2.270126 -2.634474,5.885513 -0.784735,8.548007 l 31.389404,45.766871 -27.914144,9.08052 c -2.774607,0.89684 -4.652369,3.47525 -4.652369,6.38998 0,2.91473 1.877762,5.49315 4.652369,6.38999 l 28.895064,9.36076 -14.82589,28.19441 c -1.37329,2.60645 -0.89684,5.80143 1.20513,7.87538 2.10197,2.07394 5.26893,2.57842 7.87538,1.20513 l 28.19442,-14.82589 9.36076,28.89507 c 0.89684,2.7746 3.47525,4.65236 6.38998,4.65236 2.91474,0 5.49316,-1.87776 6.39,-4.65236 l 9.36076,-28.89507 28.19441,14.82589 c 2.60645,1.37329 5.80144,0.89684 7.87539,-1.20513 2.07393,-2.10197 2.57841,-5.26893 1.20512,-7.87538 l -14.82589,-28.19441 28.89507,-9.36076 c 2.7746,-0.89684 4.65236,-3.47526 4.65236,-6.38999 0,-2.91473 -1.87776,-5.49314 -4.65236,-6.38998 l -29.84797,-9.66907 7.20276,-19.730481 c 0.89684,-2.466311 0.28026,-5.212883 -1.56947,-7.062617 -1.84974,-1.849732 -4.59631,-2.46631 -7.06262,-1.56947 l -19.73049,7.202748 -9.69707,-29.875988 c -0.89684,-2.7746 -3.47526,-4.652359 -6.39,-4.652359 -2.91473,0 -5.49314,1.877759 -6.38998,4.652359 l -9.05248,27.91415 z"
     id="path10424"
     style="stroke-width:0.280262" /></svg>
