<?xml version="1.0" encoding="UTF-8" standalone="no"?>
<svg
   xmlns:dc="http://purl.org/dc/elements/1.1/"
   xmlns:cc="http://creativecommons.org/ns#"
   xmlns:rdf="http://www.w3.org/1999/02/22-rdf-syntax-ns#"
   xmlns:svg="http://www.w3.org/2000/svg"
   xmlns="http://www.w3.org/2000/svg"
   xmlns:sodipodi="http://sodipodi.sourceforge.net/DTD/sodipodi-0.dtd"
   xmlns:inkscape="http://www.inkscape.org/namespaces/inkscape"
   inkscape:version="1.0 (4035a4fb49, 2020-05-01)"
   sodipodi:docname="follow.svg"
   id="svg14"
   version="1.1"
   fill="none"
   viewBox="0 0 16 16"
   height="16"
   width="16">
  <metadata
     id="metadata20">
    <rdf:RDF>
      <cc:Work
         rdf:about="">
        <dc:format>image/svg+xml</dc:format>
        <dc:type
           rdf:resource="http://purl.org/dc/dcmitype/StillImage" />
        <dc:title></dc:title>
      </cc:Work>
    </rdf:RDF>
  </metadata>
  <defs
     id="defs18" />
  <sodipodi:namedview
     inkscape:current-layer="svg14"
     inkscape:window-maximized="1"
     inkscape:window-y="-8"
     inkscape:window-x="1912"
     inkscape:cy="14.663012"
     inkscape:cx="22.433158"
     inkscape:zoom="12.142857"
     showgrid="false"
     id="namedview16"
     inkscape:window-height="1017"
     inkscape:window-width="1920"
     inkscape:pageshadow="2"
     inkscape:pageopacity="0"
     guidetolerance="10"
     gridtolerance="10"
     objecttolerance="10"
     borderopacity="1"
     bordercolor="#666666"
     pagecolor="#ffffff" />
  <path
     style="fill:#000000;fill-opacity:1;stroke-width:1.38669"
     id="path2"
     fill="#202831"
     d="m 1.2760685,7.4643156 c -0.1658027,0.070984 -0.272592,0.2358263 -0.272592,0.4178212 0,0.1818565 0.106789,0.346698 0.272592,0.4178225 l 2.8916403,1.2533251 c 0.224802,0.096784 0.4636823,0.147827 0.7081738,0.147827 H 7.0396595 L 9.4001929,13.794119 H 8.8719691 c -0.3737975,0 -0.6745171,0.304161 -0.6745171,0.682098 0,0.378076 0.3007196,0.682237 0.6745171,0.682237 h 1.5736429 0.899265 0.674379 c 0.373797,0 0.674518,-0.304161 0.674518,-0.682237 0,-0.377937 -0.300721,-0.682098 -0.674518,-0.682098 H 11.794509 V 9.7011114 h 0.918844 l 1.441691,1.6627796 c 0.08425,0.09944 0.207925,0.156335 0.337121,0.156335 h 0.449631 c 0.24736,0 0.449631,-0.204588 0.449631,-0.454779 V 8.3367762 H 13.5929 c -0.247222,0 -0.449495,-0.2045879 -0.449495,-0.4546394 0,-0.2501899 0.202273,-0.4547778 0.449495,-0.4547778 h 1.798527 V 4.6986885 c 0,-0.250191 -0.202271,-0.4547784 -0.449631,-0.4547784 h -0.449631 c -0.129196,0 -0.252876,0.056762 -0.337121,0.1561949 L 12.713353,6.0630238 H 11.794509 V 1.9700179 h 0.224747 c 0.373797,0 0.674518,-0.3041619 0.674518,-0.6820981 0,-0.37807561 -0.300721,-0.68223748 -0.674518,-0.68223748 H 11.344877 10.445612 8.8719691 c -0.3737975,0 -0.6745171,0.30416187 -0.6745171,0.68223748 0,0.3779362 0.3007196,0.6820981 0.6745171,0.6820981 H 9.4001929 L 7.0396595,6.0630238 H 4.8758826 c -0.2444915,0 -0.4833718,0.051184 -0.7081738,0.1478276 z" />
</svg>
