<?xml version="1.0" encoding="UTF-8" standalone="no"?>
<svg
   viewBox="0 0 512 512"
   version="1.1"
   id="svg4"
   sodipodi:docname="ground.svg"
   inkscape:version="1.2.2 (732a01da63, 2022-12-09)"
   xmlns:inkscape="http://www.inkscape.org/namespaces/inkscape"
   xmlns:sodipodi="http://sodipodi.sourceforge.net/DTD/sodipodi-0.dtd"
   xmlns="http://www.w3.org/2000/svg"
   xmlns:svg="http://www.w3.org/2000/svg">
   <defs
      id="defs8" />
   <sodipodi:namedview
      id="namedview6"
      pagecolor="#ffffff"
      bordercolor="#666666"
      borderopacity="1.0"
      inkscape:showpageshadow="2"
      inkscape:pageopacity="0.0"
      inkscape:pagecheckerboard="0"
      inkscape:deskcolor="#d1d1d1"
      showgrid="false"
      inkscape:zoom="1.1559539"
      inkscape:cx="432.97576"
      inkscape:cy="301.91516"
      inkscape:window-width="1920"
      inkscape:window-height="1017"
      inkscape:window-x="1912"
      inkscape:window-y="-8"
      inkscape:window-maximized="1"
      inkscape:current-layer="svg4" />
   <!--!
   Font Awesome Pro 6.4.0 by @fontawesome - https://fontawesome.com License -
   https://fontawesome.com/license (Commercial License) Copyright 2023 Fonticons, Inc. -->
   <path
      d="m 130.61192,122.94993 c 4.83398,-2.4171 10.52734,-2.4171 15.36132,0 l 85.9375,42.97085 c 8.48633,4.24336 11.92383,14.55637 7.68066,23.04312 -3.00781,6.01593 -9.07714,9.5073 -15.36132,9.5073 v 42.97085 c 0,9.50729 -7.68066,17.18833 -17.1875,17.18833 h -2.63184 l 17.1875,103.13004 266.68729,0 c 9.50683,0 17.1875,7.68105 17.1875,17.18835 0,9.5073 -7.68067,17.18833 -17.1875,17.18833 l -280.97441,0 H 206.72031 69.86485 69.27404 17.98008 c -9.50683,0 -17.1875,-7.68103 -17.1875,-17.18833 0,-9.5073 7.68067,-17.18835 17.1875,-17.18835 h 37.00684 l 17.1875,-103.13004 h -2.63184 c -9.50684,0 -17.1875,-7.68104 -17.1875,-17.18833 V 198.4712 c -6.28418,0 -12.35351,-3.49137 -15.36132,-9.5073 -4.24317,-8.48675 -0.80567,-18.79976 7.68066,-23.04312 z m 39.10155,238.81049 -31.42089,-26.21222 -31.4209,26.21222 z m -62.68066,-103.13004 -2.52441,15.20096 33.78418,28.19961 33.78418,-28.19961 -2.52441,-15.20096 z m -7.46582,44.68969 -6.01561,35.98808 24.59961,-20.51857 z m 58.86718,15.46951 24.59961,20.46487 -6.01561,-35.98809 z M 95.32383,189.87702 c -4.72656,0 -8.59374,3.86738 -8.59374,8.59418 0,4.72679 3.86718,8.59417 8.59374,8.59417 h 85.9375 c 4.72656,0 8.59374,-3.86738 8.59374,-8.59417 0,-4.7268 -3.86718,-8.59418 -8.59374,-8.59418 z"
      id="path2"
      style="stroke-width:0.537122"
      sodipodi:nodetypes="cccscssccsssccccsssccsscsccccccccccccccccccccsssssss" />
   <path
      d="m 398.88439,290.60444 -56.18308,-59.35032 c -4.82498,-5.06298 -11.50756,-7.93072 -18.4952,-7.84559 l -20.1384,0.17717 c -4.88076,0.0647 -7.83178,5.39609 -5.3158,9.5508 l 35.56198,58.63664 -43.41565,0.78856 -16.07612,-19.15941 c -2.39827,-2.87404 -5.9964,-4.54245 -9.73595,-4.48875 l -14.13363,0.13667 c -4.09068,0.0573 -7.05613,3.89607 -6.017,7.85435 l 11.10611,42.68377 c 0.92991,3.55548 3.36429,6.5345 6.64574,8.13577 l 48.58659,23.70886 c 1.76422,0.86089 3.69975,1.28114 5.63108,1.26246 l 119.77611,-1.14062 c 20.41896,-0.21499 40.00846,-8.13034 54.85055,-22.163 7.69088,-7.25597 5.74152,-20.00247 -3.78528,-24.65128 l -20.25324,-9.883 c -7.12743,-3.47798 -15.01076,-5.22788 -22.94599,-5.08091 z"
      id="path1903"
      sodipodi:nodetypes="ccccccccccccsscccsscc"
      style="stroke-width:0.392612" />
</svg>