<svg width="50" height="50" viewBox="0 0 50 50" fill="none" xmlns="http://www.w3.org/2000/svg">
    <path
        d="M25.6237 37.5L45.4 37.5C46.2569 37.5 47.0043 36.8097 46.9997 35.8937C46.9781 31.5861 45.6287 24.9412 41.3969 19.8087C37.9283 15.6018 32.5887 12.5 24.7613 12.5C17.0596 12.5 11.8182 15.5038 8.4233 19.6249C4.16289 24.7968 2.92903 31.5698 3.00314 35.9289C3.01844 36.8304 3.75884 37.5 4.60263 37.5L24.3811 37.5L25.0024 38.1213L25.6237 37.5Z"
        fill="white" stroke="white" stroke-width="3" />
    <path
        d="M45.5 36L25.0024 36L4.5048 36C4.41436 31.8747 5.58559 25.4289 9.58105 20.5787C12.6882 16.8068 17.5033 14 24.7613 14C32.1369 14 37.0534 16.8986 40.2395 20.7629C44.2204 25.5911 45.5 31.9268 45.5 36Z"
        fill="none" />
    <path
        d="M25.0024 36L45.5 36C45.5 31.9268 44.2204 25.5911 40.2395 20.7629M25.0024 36L4.5048 36C4.41436 31.8747 5.58559 25.4289 9.58105 20.5787M25.0024 36L9.58105 20.5787M25.0024 36L40.2395 20.7629M9.58105 20.5787C12.6882 16.8068 17.5033 14 24.7613 14C32.1369 14 37.0534 16.8986 40.2395 20.7629"
        stroke="#082E44" stroke-width="2" />
</svg>