<?xml version="1.0" encoding="UTF-8" standalone="no"?>
<svg
   width="19"
   height="15"
   viewBox="0 0 19 15"
   fill="none"
   version="1.1"
   id="svg6"
   sodipodi:docname="state_dcs.svg"
   inkscape:version="1.1 (c68e22c387, 2021-05-23)"
   xmlns:inkscape="http://www.inkscape.org/namespaces/inkscape"
   xmlns:sodipodi="http://sodipodi.sourceforge.net/DTD/sodipodi-0.dtd"
   xmlns="http://www.w3.org/2000/svg"
   xmlns:svg="http://www.w3.org/2000/svg">
  <defs
     id="defs10" />
  <sodipodi:namedview
     id="namedview8"
     pagecolor="#ffffff"
     bordercolor="#666666"
     borderopacity="1.0"
     inkscape:pageshadow="2"
     inkscape:pageopacity="0.0"
     inkscape:pagecheckerboard="0"
     showgrid="false"
     inkscape:zoom="19.610428"
     inkscape:cx="1.0453622"
     inkscape:cy="12.21289"
     inkscape:window-width="1920"
     inkscape:window-height="1017"
     inkscape:window-x="-8"
     inkscape:window-y="-8"
     inkscape:window-maximized="1"
     inkscape:current-layer="svg6" />
  <rect
     style="fill:#262626;fill-opacity:1;stroke:none;stroke-width:5.63192;stroke-miterlimit:4;stroke-dasharray:none;stroke-dashoffset:5.6;stroke-opacity:1;paint-order:stroke fill markers"
     id="rect4324"
     width="5.226213"
     height="7.0879617"
     x="1.5176032"
     y="4.8923955"
     rx="1.6057953" />
  <rect
     style="fill:#262626;fill-opacity:1;stroke:none;stroke-width:5.74938;stroke-miterlimit:4;stroke-dasharray:none;stroke-dashoffset:5.6;stroke-opacity:1;paint-order:stroke fill markers"
     id="rect4324-6"
     width="5.5898962"
     height="6.9061198"
     x="11.848835"
     y="4.9978404"
     rx="1.7175397" />
  <rect
     style="fill:#262626;fill-opacity:1;stroke:none;stroke-width:4.02396;stroke-miterlimit:4;stroke-dasharray:none;stroke-dashoffset:5.6;stroke-opacity:1;paint-order:stroke fill markers"
     id="rect4324-7"
     width="3.214294"
     height="5.8832622"
     x="7.7873521"
     y="0.59372008"
     rx="1.5281793" />
  <rect
     style="fill:#262626;fill-opacity:1;stroke:none;stroke-width:3.84388;stroke-miterlimit:4;stroke-dasharray:none;stroke-dashoffset:5.6;stroke-opacity:1;paint-order:stroke fill markers"
     id="rect4100"
     width="12.76161"
     height="12.015139"
     x="3.0333979"
     y="1.9770601"
     rx="2.5930805" />
  <path
     d="m 9.3852027,1.9350755 c 0.358221,0 0.6476303,0.2894099 0.6476303,0.6476303 v 1.2952618 h 2.428616 c 0.805492,0 1.457171,0.6516785 1.457171,1.4571695 v 5.5048619 c 0,0.805491 -0.651679,1.457169 -1.457171,1.457169 H 6.3089565 c -0.8054909,0 -1.4571694,-0.651678 -1.4571694,-1.457169 V 5.3351371 c 0,-0.805491 0.6516785,-1.4571695 1.4571694,-1.4571695 H 8.7375714 V 2.5827058 c 0,-0.3582204 0.2894111,-0.6476303 0.6476313,-0.6476303 z M 7.1184944,9.7066454 c -0.1780979,0 -0.3238152,0.145716 -0.3238152,0.3238146 0,0.178099 0.1457173,0.323817 0.3238152,0.323817 h 0.6476303 c 0.1780991,0 0.3238164,-0.145718 0.3238164,-0.323817 0,-0.1780986 -0.1457173,-0.3238146 -0.3238164,-0.3238146 z m 1.9428933,0 c -0.178099,0 -0.3238163,0.145716 -0.3238163,0.3238146 0,0.178099 0.1457173,0.323817 0.3238163,0.323817 h 0.64763 c 0.178099,0 0.3238153,-0.145718 0.3238153,-0.323817 0,-0.1780986 -0.1457163,-0.3238146 -0.3238153,-0.3238146 z m 1.9428923,0 c -0.178098,0 -0.323815,0.145716 -0.323815,0.3238146 0,0.178099 0.145717,0.323817 0.323815,0.323817 h 0.647631 c 0.178098,0 0.323816,-0.145718 0.323816,-0.323817 0,-0.1780986 -0.145718,-0.3238146 -0.323816,-0.3238146 z M 8.2518487,7.1161213 a 0.8095391,0.8095391 0 1 0 -1.6190782,0 0.8095391,0.8095391 0 1 0 1.6190782,0 z m 3.0762473,0.809538 a 0.80953865,0.80953865 0 1 0 0,-1.6190771 0.80953865,0.80953865 0 1 0 0,1.6190771 z M 3.8803405,6.4684911 h 0.323815 v 3.8857859 h -0.323815 c -0.5363195,0 -0.9714467,-0.4351276 -0.9714467,-0.9714486 V 7.4399365 c 0,-0.5363182 0.4351272,-0.9714454 0.9714467,-0.9714454 z m 11.0097255,0 c 0.536319,0 0.971446,0.4351272 0.971446,0.9714454 v 1.9428919 c 0,0.536321 -0.435127,0.9714486 -0.971446,0.9714486 H 14.566249 V 6.4684911 Z"
     id="path3711"
     style="fill:#ffffff;fill-opacity:1;stroke-width:0.0202384" />
</svg>
