<?xml version="1.0" encoding="UTF-8" standalone="no"?>
<svg
   width="19"
   height="15"
   viewBox="0 0 19 15"
   fill="none"
   version="1.1"
   id="svg6"
   sodipodi:docname="state_human.svg"
   inkscape:version="1.1 (c68e22c387, 2021-05-23)"
   xmlns:inkscape="http://www.inkscape.org/namespaces/inkscape"
   xmlns:sodipodi="http://sodipodi.sourceforge.net/DTD/sodipodi-0.dtd"
   xmlns="http://www.w3.org/2000/svg"
   xmlns:svg="http://www.w3.org/2000/svg">
  <defs
     id="defs10" />
  <sodipodi:namedview
     id="namedview8"
     pagecolor="#ffffff"
     bordercolor="#666666"
     borderopacity="1.0"
     inkscape:pageshadow="2"
     inkscape:pageopacity="0.0"
     inkscape:pagecheckerboard="0"
     showgrid="false"
     inkscape:zoom="27.733334"
     inkscape:cx="1.8930288"
     inkscape:cy="5.3185095"
     inkscape:window-width="1920"
     inkscape:window-height="1017"
     inkscape:window-x="-8"
     inkscape:window-y="-8"
     inkscape:window-maximized="1"
     inkscape:current-layer="svg6" />
  <ellipse
     style="fill:#262626;fill-opacity:1;stroke:none;stroke-width:12.2489;stroke-dashoffset:5.6;paint-order:stroke fill markers"
     id="path1149"
     cx="9.2425327"
     cy="4.9208517"
     rx="5.0100894"
     ry="4.9463482" />
  <path
     style="fill:none;stroke:#262626;stroke-width:3.3;stroke-linecap:butt;stroke-linejoin:miter;stroke-miterlimit:4;stroke-dasharray:none;stroke-opacity:1"
     d="M 4.5129051,12.490473 C 3.7913718,12.480652 3.327463,12.244253 3.2890664,11.649084 3.2075443,9.1160904 4.4151773,8.6100056 5.7622404,8.0795609 l 6.6154506,-0.012246 c 2.45028,0.2890709 3.047775,1.846629 3.047775,3.4797821 0.0127,0.360443 -0.331282,0.901957 -1.478805,0.943376 z"
     id="path1359"
     sodipodi:nodetypes="ccccccc" />
  <path
     d="m 9.2659737,7.6041687 c 1.6415273,0 2.9733343,-1.2969197 2.9733343,-2.8954494 0,-1.5985298 -1.331807,-2.8954501 -2.9733343,-2.8954501 -1.6415283,0 -2.973335,1.2969203 -2.973335,2.8954501 0,1.5985297 1.3318067,2.8954494 2.973335,2.8954494 z m 2.6429633,0.6434347 h -1.137714 c -0.458391,0.2050939 -0.9683982,0.3217163 -1.5052493,0.3217163 -0.5368511,0 -1.0447965,-0.1166224 -1.5052498,-0.3217163 H 6.6230093 c -1.4598251,0 -2.6429652,1.152148 -2.6429652,2.5737386 v 0.321716 c 0,0.532843 0.4439358,0.965149 0.991112,0.965149 H 13.56079 c 0.547177,0 0.991112,-0.432306 0.991112,-0.965149 v -0.321716 c 0,-1.4215906 -1.18314,-2.5737386 -2.642965,-2.5737386 z"
     id="path916"
     style="fill:#ffffff;fill-opacity:1;stroke-width:0.0203759" />
</svg>
