<?xml version="1.0" encoding="UTF-8" standalone="no"?>
<svg
   viewBox="0 0 32 31.999584"
   version="1.1"
   id="svg4"
   sodipodi:docname="explosion.svg"
   width="32"
   height="31.999584"
   inkscape:version="1.2.2 (732a01da63, 2022-12-09)"
   xmlns:inkscape="http://www.inkscape.org/namespaces/inkscape"
   xmlns:sodipodi="http://sodipodi.sourceforge.net/DTD/sodipodi-0.dtd"
   xmlns="http://www.w3.org/2000/svg"
   xmlns:svg="http://www.w3.org/2000/svg">
  <defs
     id="defs8" />
  <sodipodi:namedview
     id="namedview6"
     pagecolor="#ffffff"
     bordercolor="#666666"
     borderopacity="1.0"
     inkscape:showpageshadow="2"
     inkscape:pageopacity="0.0"
     inkscape:pagecheckerboard="0"
     inkscape:deskcolor="#d1d1d1"
     showgrid="false"
     inkscape:zoom="13.078125"
     inkscape:cx="19.53644"
     inkscape:cy="12.157706"
     inkscape:window-width="1920"
     inkscape:window-height="1017"
     inkscape:window-x="1912"
     inkscape:window-y="-8"
     inkscape:window-maximized="1"
     inkscape:current-layer="svg4" />
  <!--! Font Awesome Pro 6.4.0 by @fontawesome - https://fontawesome.com License - https://fontawesome.com/license (Commercial License) Copyright 2023 Fonticons, Inc. -->
  <path
     d="m 23.013304,7.2180185 c 0.209962,-0.3739974 0.64242,-0.5068189 0.993401,-0.2971008 0.350981,0.2097182 0.495133,0.6815841 0.332178,1.0835439 L 20.042501,18.658144 c 0.06894,0.08039 0.134753,0.164279 0.197427,0.248166 l 3.046013,-1.911931 c 0.329044,-0.206222 0.739567,-0.108354 0.968331,0.2237 0.228764,0.332054 0.197427,0.803919 -0.06894,1.10102 l -2.726369,3.040913 h -2.240637 c -0.413656,-1.303747 -1.52614,-2.236993 -2.836051,-2.236993 -1.309911,0 -2.425529,0.933246 -2.83605,2.236993 H 11.048617 L 8.6826296,19.535465 C 8.3786552,19.30128 8.2721074,18.850386 8.4350628,18.476388 8.5980181,18.102391 8.9803366,17.920635 9.3344512,18.042971 l 3.0460128,1.062571 c 0.09401,-0.136317 0.191159,-0.269138 0.294573,-0.394969 L 10.722706,15.08245 c -0.191159,-0.353027 -0.122217,-0.807416 0.159822,-1.073059 0.282038,-0.265643 0.695694,-0.262148 0.974598,0.0034 l 3.208969,3.072372 c 0.047,-0.01398 0.09401,-0.02796 0.141019,-0.03845 l 0.426191,-4.987745 c 0.0376,-0.429921 0.360382,-0.75848 0.748968,-0.75848 0.388586,0 0.711362,0.328559 0.748967,0.75848 l 0.423058,4.959835 z M 9.362655,22.482004 v 0 H 23.40189 v 0 h 1.002802 c 0.554675,0 1.002803,0.499829 1.002803,1.118498 0,0.618669 -0.448128,1.118496 -1.002803,1.118496 H 8.3598525 c -0.554675,0 -1.0028024,-0.499827 -1.0028024,-1.118496 0,-0.618669 0.4481274,-1.118498 1.0028024,-1.118498 z M 16.382273,6.8230493 c 0.416789,0 0.752101,0.3739974 0.752101,0.8388726 v 1.6777453 c 0,0.4648752 -0.335312,0.8388728 -0.752101,0.8388728 -0.41679,0 -0.752102,-0.3739976 -0.752102,-0.8388728 V 7.6619219 c 0,-0.4648752 0.335312,-0.8388726 0.752102,-0.8388726 z"
     fill="#ffffff"
     stroke="#ffffff"
     id="path2"
     style="fill:#ffffff;fill-opacity:1;stroke-width:0.0330959" />
</svg>
