<?xml version="1.0" encoding="UTF-8" standalone="no"?>
<svg
   width="32"
   height="32"
   viewBox="0 0 32 32"
   version="1.1"
   id="svg8"
   sodipodi:docname="navyunit.svg"
   inkscape:version="1.2.2 (732a01da63, 2022-12-09)"
   xmlns:inkscape="http://www.inkscape.org/namespaces/inkscape"
   xmlns:sodipodi="http://sodipodi.sourceforge.net/DTD/sodipodi-0.dtd"
   xmlns="http://www.w3.org/2000/svg"
   xmlns:svg="http://www.w3.org/2000/svg"
   xmlns:rdf="http://www.w3.org/1999/02/22-rdf-syntax-ns#"
   xmlns:cc="http://creativecommons.org/ns#"
   xmlns:dc="http://purl.org/dc/elements/1.1/">
  <metadata
     id="metadata14">
    <rdf:RDF>
      <cc:Work
         rdf:about="">
        <dc:format>image/svg+xml</dc:format>
        <dc:type
           rdf:resource="http://purl.org/dc/dcmitype/StillImage" />
        <dc:title />
      </cc:Work>
    </rdf:RDF>
  </metadata>
  <defs
     id="defs12" />
  <sodipodi:namedview
     inkscape:document-rotation="0"
     pagecolor="#ffffff"
     bordercolor="#666666"
     borderopacity="1"
     objecttolerance="10"
     gridtolerance="10"
     guidetolerance="10"
     inkscape:pageopacity="0"
     inkscape:pageshadow="2"
     inkscape:window-width="1920"
     inkscape:window-height="1017"
     id="namedview10"
     showgrid="false"
     inkscape:zoom="18.782524"
     inkscape:cx="35.857801"
     inkscape:cy="16.398222"
     inkscape:window-x="1912"
     inkscape:window-y="-8"
     inkscape:window-maximized="1"
     inkscape:current-layer="svg8"
     inkscape:showpageshadow="2"
     inkscape:pagecheckerboard="0"
     inkscape:deskcolor="#d1d1d1" />
  <path
     d="m 11.24439,3.5672501 c 0,-0.9200678 0.743331,-1.6634002 1.663401,-1.6634002 h 6.653596 c 0.920068,0 1.663398,0.7433324 1.663398,1.6634002 v 1.6633976 h 2.495098 c 1.377503,0 2.495102,1.1175989 2.495102,2.4951006 v 6.6535967 l 2.307964,0.769323 c 1.200768,0.400255 1.533447,1.949294 0.597785,2.801785 l -5.250104,4.813463 c -0.842097,0.488625 -1.803748,0.784917 -2.645845,0.784917 -1.018831,0 -2.120833,-0.400253 -3.077288,-1.055219 -1.148785,-0.805708 -2.682232,-0.805708 -3.831017,0 -0.88888,0.613379 -1.975286,1.055219 -3.077289,1.055219 -0.842094,0 -1.8037459,-0.296292 -2.6458445,-0.784917 L 3.3432428,17.950453 C 2.4075824,17.092766 2.7402625,15.548923 3.9410271,15.148668 L 6.25419,14.379345 V 7.7257483 c 0,-1.3775017 1.1175986,-2.4951006 2.4951017,-2.4951006 H 11.24439 Z M 9.5809881,13.272145 15.184569,11.406021 c 0.680952,-0.228708 1.419085,-0.228708 2.105238,0 l 5.59838,1.866124 V 8.5574463 H 9.5809881 Z m 7.6152529,10.562584 c 1.169577,0.805711 2.599061,1.356711 4.028544,1.356711 1.398295,0 2.879759,-0.561396 4.023347,-1.356711 v 0 c 0.618575,-0.44184 1.460674,-0.405453 2.037665,0.08836 0.748531,0.618578 1.689389,1.091607 2.630247,1.309929 0.894079,0.207933 1.45028,1.102 1.242353,1.996079 -0.207931,0.894078 -1.102001,1.450276 -1.99608,1.242351 -1.273537,-0.296292 -2.333955,-0.857691 -3.025306,-1.299534 -1.507454,0.81091 -3.196843,1.346319 -4.912226,1.346319 -1.6582,0 -3.150063,-0.514616 -4.17929,-0.982449 -0.301493,-0.140338 -0.576991,-0.275498 -0.810906,-0.400255 -0.233924,0.12477 -0.50422,0.265105 -0.810908,0.400255 -1.02923,0.467833 -2.521091,0.982449 -4.179291,0.982449 -1.7153815,0 -3.404772,-0.535409 -4.9122277,-1.341118 C 5.6356148,27.613758 4.5803957,28.180351 3.306857,28.476646 2.4127783,28.684579 1.5186998,28.128372 1.3107769,27.234294 1.1028445,26.340218 1.6590517,25.44614 2.5531281,25.238215 3.4939891,25.019896 4.4348476,24.546866 5.1833783,23.928289 5.7603695,23.439666 6.6024647,23.403277 7.2210429,23.83993 v 0 c 1.1487833,0.790114 2.6250524,1.35151 4.0233471,1.35151 1.429485,0 2.858967,-0.550998 4.028544,-1.356711 0.576995,-0.410651 1.346314,-0.410651 1.923307,3e-6 z"
     id="path6267"
     style="fill-opacity:1;stroke-width:0.0519812" />
</svg>
