<?xml version="1.0" encoding="UTF-8" standalone="no"?>
<svg
   xmlns:dc="http://purl.org/dc/elements/1.1/"
   xmlns:cc="http://creativecommons.org/ns#"
   xmlns:rdf="http://www.w3.org/1999/02/22-rdf-syntax-ns#"
   xmlns:svg="http://www.w3.org/2000/svg"
   xmlns="http://www.w3.org/2000/svg"
   xmlns:sodipodi="http://sodipodi.sourceforge.net/DTD/sodipodi-0.dtd"
   xmlns:inkscape="http://www.inkscape.org/namespaces/inkscape"
   width="32"
   height="32"
   viewBox="0 0 32 32"
   fill="none"
   version="1.1"
   id="svg15"
   sodipodi:docname="spawn_smoke.svg"
   inkscape:version="1.0 (4035a4fb49, 2020-05-01)">
  <metadata
     id="metadata19">
    <rdf:RDF>
      <cc:Work
         rdf:about="">
        <dc:format>image/svg+xml</dc:format>
        <dc:type
           rdf:resource="http://purl.org/dc/dcmitype/StillImage" />
        <dc:title></dc:title>
      </cc:Work>
    </rdf:RDF>
  </metadata>
  <sodipodi:namedview
     inkscape:document-rotation="0"
     pagecolor="#ffffff"
     bordercolor="#666666"
     borderopacity="1"
     objecttolerance="10"
     gridtolerance="10"
     guidetolerance="10"
     inkscape:pageopacity="0"
     inkscape:pageshadow="2"
     inkscape:window-width="1920"
     inkscape:window-height="1017"
     id="namedview17"
     showgrid="false"
     inkscape:zoom="18.782524"
     inkscape:cx="15.515904"
     inkscape:cy="14.452888"
     inkscape:window-x="1912"
     inkscape:window-y="-8"
     inkscape:window-maximized="1"
     inkscape:current-layer="svg15" />
  <path
     style="fill:#ffffff;fill-opacity:1;stroke:none;stroke-width:0.0296135;stroke-miterlimit:4;stroke-dasharray:none;stroke-opacity:1"
     d="m 7.4791847,12.531786 c 0,2.38189 1.8897313,4.31437 4.2189373,4.31437 h 3.612465 c 0.662138,0.596221 1.529364,0.958747 2.481554,0.958747 0.952191,0 1.819416,-0.362526 2.481555,-0.958747 h 0.799841 c 1.813557,0 3.281394,-1.501042 3.281394,-3.355622 0,-1.85458 -1.467837,-3.355621 -3.281394,-3.355621 -0.313492,0 -0.615263,0.04495 -0.902385,0.128832 -0.626981,-1.2164128 -1.878013,-2.04633 -3.316553,-2.04633 -0.95512,0 -1.828206,0.3655228 -2.493274,0.9677373 C 13.634731,8.5799418 12.708908,8.217415 11.698122,8.217415 c -2.329206,0 -4.2189373,1.932479 -4.2189373,4.314371 z m 17.1101313,6.711242 h -9.844184 c -0.389665,0 -0.703157,0.320582 -0.703157,0.719061 0,0.398479 0.313492,0.719062 0.703157,0.719062 h 9.844184 c 0.389667,0 0.703157,-0.320583 0.703157,-0.719062 0,-0.398479 -0.31349,-0.719061 -0.703157,-0.719061 z m -1.875082,2.876246 H 19.43284 c -0.389666,0 -0.703158,0.320582 -0.703158,0.719063 0,0.398479 0.313492,0.71906 0.703158,0.71906 h 3.281394 c 0.389665,0 0.703156,-0.320581 0.703156,-0.71906 0,-0.398481 -0.313491,-0.719063 -0.703156,-0.719063 z m -5.625249,0 H 7.2447992 c -0.3896663,0 -0.7031566,0.320582 -0.7031566,0.719063 0,0.398479 0.3134903,0.71906 0.7031566,0.71906 h 9.8441858 c 0.389666,0 0.703156,-0.320581 0.703156,-0.71906 0,-0.398481 -0.31349,-0.719063 -0.703156,-0.719063 z m -3.984552,-2.157185 c 0,-0.398479 -0.313489,-0.719061 -0.703155,-0.719061 H 9.354267 c -0.389665,0 -0.703155,0.320582 -0.703155,0.719061 0,0.398479 0.31349,0.719062 0.703155,0.719062 h 3.047011 c 0.389666,0 0.703155,-0.320583 0.703155,-0.719062 z"
     id="path2-7" />
  <rect
     x="0.5"
     y="0.5"
     width="31"
     height="31"
     rx="7.5"
     stroke="white"
     id="rect8"
     style="fill:none;stroke:none" />
  <defs
     id="defs13">
    <clipPath
       id="clip0_277_1705">
      <rect
         width="19"
         height="19"
         fill="white"
         transform="translate(6.5 6.5)"
         id="rect10" />
    </clipPath>
  </defs>
</svg>
