<?xml version="1.0" encoding="UTF-8" standalone="no"?>
<svg
   width="32"
   height="32"
   viewBox="0 0 32 32"
   version="1.1"
   id="svg15"
   sodipodi:docname="smoke.svg"
   inkscape:version="1.2.2 (732a01da63, 2022-12-09)"
   xmlns:inkscape="http://www.inkscape.org/namespaces/inkscape"
   xmlns:sodipodi="http://sodipodi.sourceforge.net/DTD/sodipodi-0.dtd"
   xmlns="http://www.w3.org/2000/svg"
   xmlns:svg="http://www.w3.org/2000/svg"
   xmlns:rdf="http://www.w3.org/1999/02/22-rdf-syntax-ns#"
   xmlns:cc="http://creativecommons.org/ns#"
   xmlns:dc="http://purl.org/dc/elements/1.1/">
  <metadata
     id="metadata19">
    <rdf:RDF>
      <cc:Work
         rdf:about="">
        <dc:format>image/svg+xml</dc:format>
        <dc:type
           rdf:resource="http://purl.org/dc/dcmitype/StillImage" />
        <dc:title />
      </cc:Work>
    </rdf:RDF>
  </metadata>
  <sodipodi:namedview
     inkscape:document-rotation="0"
     pagecolor="#ffffff"
     bordercolor="#666666"
     borderopacity="1"
     objecttolerance="10"
     gridtolerance="10"
     guidetolerance="10"
     inkscape:pageopacity="0"
     inkscape:pageshadow="2"
     inkscape:window-width="1920"
     inkscape:window-height="1017"
     id="namedview17"
     showgrid="false"
     inkscape:zoom="18.782524"
     inkscape:cx="15.572987"
     inkscape:cy="14.481547"
     inkscape:window-x="1912"
     inkscape:window-y="-8"
     inkscape:window-maximized="1"
     inkscape:current-layer="svg15"
     inkscape:showpageshadow="2"
     inkscape:pagecheckerboard="0"
     inkscape:deskcolor="#d1d1d1" />
  <path
     style="fill-opacity:1;stroke:none;stroke-width:0.0484484;stroke-miterlimit:4;stroke-dasharray:none;stroke-opacity:1"
     d="m 2.1124942,10.397531 c 0,3.896829 3.0916459,7.058413 6.902283,7.058413 h 5.9100798 c 1.083274,0.975432 2.502076,1.568533 4.059882,1.568533 1.557807,0 2.976608,-0.593101 4.059884,-1.568533 h 1.308559 c 2.967023,0 5.36844,-2.455741 5.36844,-5.489878 0,-3.0341379 -2.401417,-5.4898771 -5.36844,-5.4898771 -0.512881,0 -1.006585,0.073539 -1.476324,0.2107723 -1.025756,-1.9900807 -3.072474,-3.3478452 -5.42596,-3.3478452 -1.5626,0 -2.990989,0.5980041 -4.079057,1.5832415 C 12.183116,3.9322186 10.668447,3.339116 9.0147772,3.339116 c -3.8106371,0 -6.902283,3.1615822 -6.902283,7.058415 z M 30.105081,21.377284 H 13.999759 c -0.637501,0 -1.150382,0.52448 -1.150382,1.176402 0,0.651921 0.512881,1.176402 1.150382,1.176402 h 16.105322 c 0.637505,0 1.150382,-0.524481 1.150382,-1.176402 0,-0.651922 -0.512877,-1.176402 -1.150382,-1.176402 z m -3.067679,4.705608 h -5.36844 c -0.637503,0 -1.150383,0.52448 -1.150383,1.176405 0,0.651921 0.51288,1.176399 1.150383,1.176399 h 5.36844 c 0.637501,0 1.15038,-0.524478 1.15038,-1.176399 0,-0.651925 -0.512879,-1.176405 -1.15038,-1.176405 z m -9.203043,0 H 1.7290339 c -0.6375035,0 -1.15038115,0.52448 -1.15038115,1.176405 0,0.651921 0.51287765,1.176399 1.15038115,1.176399 H 17.834359 c 0.637503,0 1.15038,-0.524478 1.15038,-1.176399 0,-0.651925 -0.512877,-1.176405 -1.15038,-1.176405 z m -6.518823,-3.529206 c 0,-0.651922 -0.512876,-1.176402 -1.150379,-1.176402 H 5.180174 c -0.6375013,0 -1.1503785,0.52448 -1.1503785,1.176402 0,0.651921 0.5128772,1.176402 1.1503785,1.176402 h 4.984983 c 0.637503,0 1.150379,-0.524481 1.150379,-1.176402 z"
     id="path2-7" />
  <defs
     id="defs13">
    <clipPath
       id="clip0_277_1705">
      <rect
         width="19"
         height="19"
         fill="white"
         transform="translate(6.5 6.5)"
         id="rect10" />
    </clipPath>
  </defs>
</svg>
