<?xml version="1.0" encoding="UTF-8" standalone="no"?>
<svg
   width="19"
   height="15.27063"
   viewBox="0 0 19 15.27063"
   fill="none"
   version="1.1"
   id="svg7273"
   sodipodi:docname="groundunit-sam.svg"
   inkscape:version="1.2.2 (732a01da63, 2022-12-09)"
   xmlns:inkscape="http://www.inkscape.org/namespaces/inkscape"
   xmlns:sodipodi="http://sodipodi.sourceforge.net/DTD/sodipodi-0.dtd"
   xmlns="http://www.w3.org/2000/svg"
   xmlns:svg="http://www.w3.org/2000/svg">
  <sodipodi:namedview
     id="namedview7275"
     pagecolor="#ffffff"
     bordercolor="#666666"
     borderopacity="1.0"
     inkscape:showpageshadow="2"
     inkscape:pageopacity="0.0"
     inkscape:pagecheckerboard="0"
     inkscape:deskcolor="#d1d1d1"
     showgrid="false"
     inkscape:zoom="26.15625"
     inkscape:cx="9.5197133"
     inkscape:cy="8.2962963"
     inkscape:window-width="1920"
     inkscape:window-height="1017"
     inkscape:window-x="1912"
     inkscape:window-y="-8"
     inkscape:window-maximized="1"
     inkscape:current-layer="svg7273" />
  <g
     clip-path="url(#clip0_277_1741)"
     id="g7259"
     transform="translate(-6.5,-7.70807)">
    <path
       stroke-width="0"
       d="M 22.4511,18.3916 H 9.54882 c -0.94882,0 -1.7207,0.7719 -1.7207,1.7207 0,0.0262 7.8e-4,0.0522 0.00201,0.0782 3.7e-4,0.0083 8.5e-4,0.0165 0.00133,0.0248 0.00108,0.0183 0.00249,0.0365 0.00416,0.0547 7.8e-4,0.0088 0.00145,0.0175 0.00241,0.0262 0.00253,0.0232 0.00542,0.0464 0.00887,0.0694 0.00175,0.0116 0.00382,0.0231 0.00579,0.0347 0.00215,0.0125 0.00431,0.025 0.00672,0.0374 0.0026,0.0135 0.0053,0.0269 0.0082,0.0403 0.00211,0.0097 0.00442,0.0193 0.00672,0.029 0.00679,0.0289 0.01428,0.0574 0.02252,0.0857 0.00141,0.0049 0.00275,0.0098 0.0042,0.0147 0.0046,0.0154 0.00957,0.0305 0.01454,0.0456 0.00249,0.0075 0.00505,0.015 0.00761,0.0225 0.00519,0.0148 0.01043,0.0297 0.01599,0.0444 0.00245,0.0065 0.00509,0.0128 0.00757,0.0192 0.00984,0.0251 0.02023,0.0499 0.03118,0.0744 0.00434,0.0097 0.00864,0.0194 0.01317,0.0291 0.00538,0.0113 0.01087,0.0226 0.01648,0.0339 0.00605,0.0122 0.01228,0.0242 0.01863,0.0363 0.00467,0.0089 0.00935,0.0179 0.01417,0.0267 0.01151,0.021 0.02342,0.0417 0.03577,0.0622 0.0019,0.0031 0.00386,0.0061 0.00579,0.0092 0.01199,0.0195 0.02435,0.0387 0.03708,0.0578 0.00226,0.0033 0.00445,0.0066 0.00671,0.01 0.16714,0.246 0.39785,0.4493 0.67532,0.5833 0.00334,0.0016 0.00675,0.0031 0.01013,0.0047 0.01321,0.0062 0.02639,0.0126 0.03982,0.0186 l 0.01124,0.0045 c 0.03158,0.0138 0.06346,0.027 0.09601,0.0389 l 2.61904,1.0608 c 0.004,0.0018 0.0082,0.0032 0.0122,0.005 0.0171,0.0073 0.0346,0.014 0.0518,0.0209 0.018,0.0071 0.0358,0.0146 0.0539,0.0213 0.0179,0.0066 0.0361,0.0126 0.0543,0.0188 0.0182,0.0062 0.0363,0.0128 0.0547,0.0186 0.0156,0.0049 0.0316,0.0091 0.0473,0.0136 0.0213,0.0062 0.0425,0.0127 0.0639,0.0183 0.0103,0.0026 0.0209,0.0048 0.0313,0.0073 0.027,0.0066 0.054,0.0132 0.0813,0.0188 9e-4,2e-4 0.0018,3e-4 0.0026,4e-4 0.1442,0.0295 0.2914,0.0446 0.4407,0.0458 0.0062,0 0.0123,4e-4 0.0184,4e-4 h 1e-4 7.02 c 5e-4,0 9e-4,0 0.0013,0 4e-4,0 9e-4,0 0.0013,0 0.3278,0 0.6394,-0.0695 0.9217,-0.194 l 2.6345,-1.0668 c 0.0208,-0.008 0.0416,-0.0162 0.062,-0.0251 l 0.0015,-6e-4 0.0164,-0.0069 c 0.0134,-0.006 0.0266,-0.0124 0.0398,-0.0186 0.0034,-0.0016 0.0068,-0.0032 0.0102,-0.0047 0.2774,-0.134 0.5082,-0.3373 0.6753,-0.5833 0.0022,-0.0033 0.0045,-0.0067 0.0067,-0.01 0.0127,-0.0191 0.0251,-0.0383 0.0371,-0.0578 0.0019,-0.0031 0.0039,-0.0062 0.0057,-0.0092 0.0124,-0.0205 0.0243,-0.0413 0.0359,-0.0622 0.0048,-0.0089 0.0095,-0.0178 0.0141,-0.0267 0.0064,-0.0121 0.0126,-0.0241 0.0187,-0.0363 0.0056,-0.0113 0.0111,-0.0225 0.0164,-0.0339 0.0045,-0.0097 0.0089,-0.0194 0.0132,-0.0291 0.011,-0.0245 0.0214,-0.0493 0.0312,-0.0744 0.0025,-0.0064 0.0052,-0.0128 0.0076,-0.0192 0.0056,-0.0147 0.0108,-0.0296 0.016,-0.0445 0.0026,-0.0074 0.0051,-0.0149 0.0076,-0.0224 0.005,-0.0152 0.01,-0.0303 0.0145,-0.0456 0.0015,-0.0049 0.0028,-0.0099 0.0042,-0.0148 0.0082,-0.0282 0.0158,-0.0568 0.0226,-0.0856 0.0023,-0.0097 0.0045,-0.0193 0.0067,-0.0291 0.0029,-0.0133 0.0056,-0.0267 0.0082,-0.0402 0.0024,-0.0125 0.0045,-0.025 0.0067,-0.0375 0.002,-0.0115 0.004,-0.023 0.0058,-0.0346 0.0034,-0.0231 0.0063,-0.0462 0.0089,-0.0695 9e-4,-0.0087 0.0015,-0.0174 0.0024,-0.0261 0.0017,-0.0182 0.003,-0.0364 0.0041,-0.0548 5e-4,-0.0082 0.001,-0.0164 0.0014,-0.0247 0.0011,-0.026 0.002,-0.0521 0.002,-0.0782 3e-4,-0.9488 -0.7716,-1.7207 -1.7204,-1.7207 z M 9.54882,20.7573 c -0.08283,0 -0.16184,-0.0162 -0.23465,-0.0448 L 9.29001,20.7027 C 9.27506,20.6961 9.26033,20.6891 9.24604,20.6814 9.24433,20.6806 9.24251,20.6798 9.24081,20.6788 9.224,20.6696 9.20767,20.6596 9.19179,20.649 9.18856,20.6468 9.18544,20.6446 9.18225,20.6423 9.16933,20.6333 9.15675,20.624 9.14458,20.6141 9.14139,20.6116 9.13816,20.609 9.13505,20.6064 9.10599,20.5821 9.07916,20.5552 9.05481,20.5261 9.05177,20.5225 9.04888,20.5188 9.04591,20.5151 9.03704,20.5041 9.02858,20.4927 9.02041,20.4811 9.01722,20.4766 9.01399,20.472 9.01091,20.4674 9.00104,20.4525 8.99162,20.4373 8.98301,20.4215 8.98082,20.4176 8.979,20.4134 8.97689,20.4094 8.97054,20.3972 8.96449,20.3848 8.95896,20.3722 8.95596,20.3654 8.95313,20.3586 8.95039,20.3517 8.94594,20.3405 8.94178,20.3292 8.93792,20.3177 8.93577,20.3114 8.93347,20.3052 8.93154,20.2987 8.92642,20.2818 8.922,20.2647 8.91825,20.2472 8.91706,20.2415 8.91614,20.2357 8.9151,20.23 8.91254,20.2163 8.91042,20.2025 8.90875,20.1886 8.90805,20.1826 8.90734,20.1766 8.90679,20.1707 8.90504,20.1515 8.90382,20.1321 8.90382,20.1124 c 0,-0.3556 0.2893,-0.645 0.64496,-0.645 0.35566,0 0.64492,0.2893 0.64492,0.645 0,0.3557 -0.28923,0.6449 -0.64488,0.6449 z m 2.94108,1.1456 c -0.0209,0 -0.0419,-5e-4 -0.0626,-0.0015 -0.0607,-0.0031 -0.1202,-0.0107 -0.1782,-0.0224 -0.0015,-3e-4 -0.0031,-6e-4 -0.0046,-9e-4 -0.0156,-0.0032 -0.031,-0.0069 -0.0465,-0.0107 -0.0044,-0.0011 -0.0089,-0.002 -0.0133,-0.0032 -0.0132,-0.0034 -0.0263,-0.0073 -0.0394,-0.0112 -0.0066,-0.0019 -0.0132,-0.0037 -0.0198,-0.0058 -0.0115,-0.0036 -0.0228,-0.0076 -0.0341,-0.0116 -0.008,-0.0028 -0.0161,-0.0054 -0.0241,-0.0084 -0.0106,-0.004 -0.0211,-0.0083 -0.0317,-0.0125 -0.0083,-0.0034 -0.0166,-0.0067 -0.0249,-0.0102 -0.4339,-0.1865 -0.7386,-0.6179 -0.7386,-1.1194 0,-0.6715 0.5463,-1.2178 1.2178,-1.2178 0.6715,0 1.2178,0.5463 1.2178,1.2178 0,0.6715 -0.5463,1.2178 -1.2178,1.2178 z m 3.5114,0 c -0.6715,0 -1.2178,-0.5463 -1.2178,-1.2177 0,-0.6715 0.5463,-1.2178 1.2178,-1.2178 0.6715,0 1.2177,0.5463 1.2177,1.2178 0,0.6714 -0.5462,1.2177 -1.2177,1.2177 z m 4.0176,-0.1106 -0.0067,0.0027 -0.0141,0.006 c -0.154,0.0675 -0.3178,0.1017 -0.4867,0.1019 -0.6709,-6e-4 -1.2165,-0.5466 -1.2165,-1.2177 0,-0.6715 0.5463,-1.2178 1.2178,-1.2178 0.6715,0 1.2177,0.5463 1.2177,1.2178 0,0.4908 -0.2922,0.9145 -0.7115,1.1071 z m 3.0742,-1.6217 c -5e-4,0.006 -0.0012,0.0119 -0.0019,0.0179 -0.0017,0.0139 -0.0038,0.0277 -0.0064,0.0414 -0.0011,0.0057 -0.0019,0.0116 -0.0032,0.0173 -0.0037,0.0174 -0.0081,0.0345 -0.0132,0.0514 -0.002,0.0065 -0.0043,0.0127 -0.0064,0.0191 -0.0039,0.0115 -0.008,0.0228 -0.0125,0.0339 -0.0027,0.0069 -0.0056,0.0137 -0.0085,0.0205 -0.0056,0.0126 -0.0117,0.0251 -0.018,0.0372 -0.0021,0.004 -0.0039,0.0081 -0.0061,0.0122 -0.0086,0.0157 -0.018,0.0309 -0.0278,0.0458 -0.0031,0.0047 -0.0064,0.0092 -0.0096,0.0137 -0.0081,0.0117 -0.0165,0.023 -0.0254,0.034 -0.003,0.0037 -0.0059,0.0074 -0.0089,0.0111 -0.0244,0.029 -0.0513,0.0558 -0.0803,0.0802 -0.0031,0.0027 -0.0063,0.0052 -0.0095,0.0077 -0.0122,0.0099 -0.0248,0.0193 -0.0376,0.0282 -0.0032,0.0022 -0.0064,0.0045 -0.0096,0.0067 -0.0159,0.0106 -0.0322,0.0206 -0.049,0.0298 -0.0017,0.001 -0.0035,0.0018 -0.0052,0.0027 -0.0143,0.0076 -0.0291,0.0146 -0.044,0.0212 l -0.0242,0.0098 c -0.0728,0.0286 -0.1518,0.0449 -0.2346,0.0449 -0.3556,0 -0.6449,-0.2894 -0.6449,-0.645 0,-0.3557 0.2893,-0.645 0.6449,-0.645 0.3556,0 0.645,0.2893 0.645,0.645 -10e-5,0.0197 -0.0014,0.0391 -0.0031,0.0583 z"
       fill="#202831"
       id="path7255" />
    <path
       stroke-width="0"
       d="m 22.4512,16.2401 h -0.2576 l -2.4577,-2.347 H 18.3393 C 18.2825,13.591 18.1463,14.2593 18,14 l -0.5,1 0.8393,-1.1069 -0.8393,-10e-5 -2.5,1.1071 1,0.5 L 15.6257,14.723 15,15.0001 17.5,13.893 c -0.8499,-2e-4 -1.392,-1e-4 -2,-1e-4 l -2,1e-4 c -1.3569,0 -1,0 -2.7179,0 H 9.06456 v 2.3772 C 8.05574,16.3958 7.13969,16.9115 6.5,17.7282 l 0.84687,0.6633 C 7.88236,17.7079 8.68493,17.3158 9.54888,17.3158 H 22.4511 c 0.864,0 1.6665,0.3921 2.202,1.0757 L 25.5,17.7282 c -0.7407,-0.9457 -1.852,-1.4881 -3.0488,-1.4881 z"
       fill="#202831"
       id="path7257" />
  </g>
  <g
     clip-path="url(#clip1_277_1741)"
     id="g7263"
     transform="translate(-6.5,-7.70807)">
    <path
       stroke-width="0"
       d="M 10.0072,10.1775 10.3123,10.0351 10.1175,8.80853 11.0387,8.66225 11.8662,9.4227 13.4481,9.1715 13.2636,8.00948 C 13.239,7.85454 13.2781,7.71959 13.3506,7.70807 l 2.0306,1.15632 2.687,-0.42669 c 0.0315,-0.005 0.0628,-0.00934 0.094,-0.01375 l 0.2844,1.79105 c -0.0311,0.0054 -0.0622,0.011 -0.0937,0.016 l -2.7931,0.4435 -1.4661,1.7117 c -0.0727,0.0116 -0.1514,-0.1047 -0.1761,-0.2599 l -0.1845,-1.1617 -1.4832,0.2355 -0.6294,1.1257 -0.9212,0.1462 -0.218,-1.3727 -0.3348,-0.0449 C 9.8594,10.6341 10.0072,10.1775 10.0072,10.1775 Z M 20.5299,8.96609 C 20.4589,8.51896 19.601,8.27526 18.5452,8.37328 l 0.2813,1.77082 c 1.034,-0.23376 1.7744,-0.73097 1.7034,-1.17801 z"
       fill="#202831"
       id="path7261" />
  </g>
  <defs
     id="defs7271">
    <clipPath
       id="clip0_277_1741">
      <rect
         stroke-width="0"
         width="19"
         height="19"
         fill="#ffffff"
         transform="translate(6.5,6.5)"
         id="rect7265"
         x="0"
         y="0" />
    </clipPath>
    <clipPath
       id="clip1_277_1741">
      <rect
         stroke-width="0"
         width="12.7515"
         height="12.7515"
         fill="#ffffff"
         transform="rotate(-175.986,10.642671,7.6933413)"
         id="rect7268"
         x="0"
         y="0" />
    </clipPath>
  </defs>
</svg>
