<svg width="32" height="32" viewBox="0 0 32 32" fill="none" xmlns="http://www.w3.org/2000/svg">
<rect class="background" x="0.5" y="0.5" width="31" height="31" rx="7.5" fill="white"/>
<path class="foreground" d="M13.375 15.75C13.375 14.3008 14.5234 13.125 16 13.125C17.4492 13.125 18.625 14.3008 18.625 15.75C18.625 17.1992 17.4492 18.375 16 18.375C14.5234 18.375 13.375 17.1992 13.375 15.75ZM23 15.75C23 19.6328 19.8555 22.75 16 22.75C12.1172 22.75 9 19.6328 9 15.75C9 11.8945 12.1172 8.75 16 8.75C19.8555 8.75 23 11.8945 23 15.75ZM16 10.0625C12.8555 10.0625 10.3125 12.6328 10.3125 15.75C10.3125 18.8945 12.8555 21.4375 16 21.4375C19.1172 21.4375 21.6875 18.8945 21.6875 15.75C21.6875 12.6328 19.1172 10.0625 16 10.0625Z" fill="#181E25"/>
<rect x="0.5" y="0.5" width="31" height="31" rx="7.5" stroke="white"/>
</svg>
