<?xml version="1.0" encoding="UTF-8" standalone="no"?>
<svg
   xmlns:dc="http://purl.org/dc/elements/1.1/"
   xmlns:cc="http://creativecommons.org/ns#"
   xmlns:rdf="http://www.w3.org/1999/02/22-rdf-syntax-ns#"
   xmlns:svg="http://www.w3.org/2000/svg"
   xmlns="http://www.w3.org/2000/svg"
   xmlns:sodipodi="http://sodipodi.sourceforge.net/DTD/sodipodi-0.dtd"
   xmlns:inkscape="http://www.inkscape.org/namespaces/inkscape"
   inkscape:version="1.0 (4035a4fb49, 2020-05-01)"
   sodipodi:docname="reference-system.svg"
   id="svg8"
   version="1.1"
   viewBox="0 0 13.229166 13.229167"
   height="50"
   width="50">
  <defs
     id="defs2">
    <marker
       inkscape:stockid="TriangleOutM"
       orient="auto"
       refY="0"
       refX="0"
       id="marker3764"
       style="overflow:visible"
       inkscape:isstock="true">
      <path
         id="path3762"
         d="M 5.77,0 -2.88,5 V -5 Z"
         style="fill:#00fffb;fill-opacity:1;fill-rule:evenodd;stroke:#00fff1;stroke-width:1pt;stroke-opacity:1"
         transform="scale(0.4)" />
    </marker>
    <marker
       inkscape:stockid="TriangleOutM"
       orient="auto"
       refY="0"
       refX="0"
       id="marker3754"
       style="overflow:visible"
       inkscape:isstock="true">
      <path
         id="path3752"
         d="M 5.77,0 -2.88,5 V -5 Z"
         style="fill:#00fff1;fill-opacity:1;fill-rule:evenodd;stroke:#00fff1;stroke-width:1pt;stroke-opacity:1"
         transform="scale(0.4)" />
    </marker>
    <marker
       inkscape:stockid="Arrow2Send"
       orient="auto"
       refY="0"
       refX="0"
       id="marker3658"
       style="overflow:visible"
       inkscape:isstock="true">
      <path
         id="path3656"
         style="fill:#00fffb;fill-opacity:1;fill-rule:evenodd;stroke:#00fff1;stroke-width:0.625;stroke-linejoin:round;stroke-opacity:1"
         d="M 8.7185878,4.0337352 -2.2072895,0.01601326 8.7185884,-4.0017078 c -1.7454984,2.3720609 -1.7354408,5.6174519 -6e-7,8.035443 z"
         transform="matrix(-0.3,0,0,-0.3,0.69,0)" />
    </marker>
    <marker
       inkscape:stockid="Arrow2Send"
       orient="auto"
       refY="0"
       refX="0"
       id="marker3648"
       style="overflow:visible"
       inkscape:isstock="true">
      <path
         id="path3646"
         style="fill:#00fffb;fill-opacity:1;fill-rule:evenodd;stroke:#00fff1;stroke-width:0.625;stroke-linejoin:round;stroke-opacity:1"
         d="M 8.7185878,4.0337352 -2.2072895,0.01601326 8.7185884,-4.0017078 c -1.7454984,2.3720609 -1.7354408,5.6174519 -6e-7,8.035443 z"
         transform="matrix(-0.3,0,0,-0.3,0.69,0)" />
    </marker>
    <marker
       inkscape:isstock="true"
       style="overflow:visible"
       id="Arrow2Mend"
       refX="0"
       refY="0"
       orient="auto"
       inkscape:stockid="Arrow2Mend">
      <path
         transform="scale(-0.6)"
         d="M 8.7185878,4.0337352 -2.2072895,0.01601326 8.7185884,-4.0017078 c -1.7454984,2.3720609 -1.7354408,5.6174519 -6e-7,8.035443 z"
         style="fill:#00fffb;fill-opacity:1;fill-rule:evenodd;stroke:#00fff1;stroke-width:0.625;stroke-linejoin:round;stroke-opacity:1"
         id="path1088" />
    </marker>
    <marker
       inkscape:isstock="true"
       style="overflow:visible"
       id="Arrow2Lend"
       refX="0"
       refY="0"
       orient="auto"
       inkscape:stockid="Arrow2Lend">
      <path
         transform="matrix(-1.1,0,0,-1.1,-1.1,0)"
         d="M 8.7185878,4.0337352 -2.2072895,0.01601326 8.7185884,-4.0017078 c -1.7454984,2.3720609 -1.7354408,5.6174519 -6e-7,8.035443 z"
         style="fill:#000000;fill-opacity:1;fill-rule:evenodd;stroke:#000000;stroke-width:0.625;stroke-linejoin:round;stroke-opacity:1"
         id="path1082" />
    </marker>
    <marker
       inkscape:isstock="true"
       style="overflow:visible"
       id="Arrow1Lend"
       refX="0"
       refY="0"
       orient="auto"
       inkscape:stockid="Arrow1Lend">
      <path
         transform="matrix(-0.8,0,0,-0.8,-10,0)"
         style="fill:#000000;fill-opacity:1;fill-rule:evenodd;stroke:#000000;stroke-width:1pt;stroke-opacity:1"
         d="M 0,0 5,-5 -12.5,0 5,5 Z"
         id="path1064" />
    </marker>
    <marker
       inkscape:stockid="Arrow2Mend"
       orient="auto"
       refY="0"
       refX="0"
       id="Arrow2Mend-7"
       style="overflow:visible"
       inkscape:isstock="true">
      <path
         id="path1088-1"
         style="fill:#00fffb;fill-opacity:1;fill-rule:evenodd;stroke:#00fff1;stroke-width:0.625;stroke-linejoin:round;stroke-opacity:1"
         d="M 8.7185878,4.0337352 -2.2072895,0.01601326 8.7185884,-4.0017078 c -1.7454984,2.3720609 -1.7354408,5.6174519 -6e-7,8.035443 z"
         transform="scale(-0.6)" />
    </marker>
    <marker
       inkscape:isstock="true"
       style="overflow:visible"
       id="Arrow2Mend-7-8"
       refX="0"
       refY="0"
       orient="auto"
       inkscape:stockid="Arrow2Mend">
      <path
         transform="scale(-0.6)"
         d="M 8.7185878,4.0337352 -2.2072895,0.01601326 8.7185884,-4.0017078 c -1.7454984,2.3720609 -1.7354408,5.6174519 -6e-7,8.035443 z"
         style="fill:#00fffb;fill-opacity:1;fill-rule:evenodd;stroke:#00fff1;stroke-width:0.625;stroke-linejoin:round;stroke-opacity:1"
         id="path1088-1-6" />
    </marker>
    <marker
       inkscape:stockid="Arrow2Mend"
       orient="auto"
       refY="0"
       refX="0"
       id="Arrow2Mend-7-8-0"
       style="overflow:visible"
       inkscape:isstock="true">
      <path
         id="path1088-1-6-8"
         style="fill:#00fffb;fill-opacity:1;fill-rule:evenodd;stroke:#00fff1;stroke-width:0.625;stroke-linejoin:round;stroke-opacity:1"
         d="M 8.7185878,4.0337352 -2.2072895,0.01601326 8.7185884,-4.0017078 c -1.7454984,2.3720609 -1.7354408,5.6174519 -6e-7,8.035443 z"
         transform="scale(-0.6)" />
    </marker>
  </defs>
  <sodipodi:namedview
     units="px"
     inkscape:window-maximized="1"
     inkscape:window-y="-8"
     inkscape:window-x="1912"
     inkscape:window-height="1017"
     inkscape:window-width="1920"
     fit-margin-bottom="0"
     fit-margin-right="0"
     fit-margin-left="0"
     fit-margin-top="0"
     showgrid="false"
     inkscape:document-rotation="0"
     inkscape:current-layer="layer1"
     inkscape:document-units="mm"
     inkscape:cy="24.946043"
     inkscape:cx="23.906148"
     inkscape:zoom="11.313708"
     inkscape:pageshadow="2"
     inkscape:pageopacity="0.0"
     borderopacity="1.0"
     bordercolor="#666666"
     pagecolor="#ffffff"
     id="base" />
  <metadata
     id="metadata5">
    <rdf:RDF>
      <cc:Work
         rdf:about="">
        <dc:format>image/svg+xml</dc:format>
        <dc:type
           rdf:resource="http://purl.org/dc/dcmitype/StillImage" />
        <dc:title></dc:title>
      </cc:Work>
    </rdf:RDF>
  </metadata>
  <g
     transform="translate(-9.0472264,-21.50998)"
     id="layer1"
     inkscape:groupmode="layer"
     inkscape:label="Layer 1">
    <g
       transform="matrix(0.90904788,0,0,0.91946153,8.2333194,20.900691)"
       id="g839"
       style="fill:none">
      <path
         d="m 8.6152043,0.96068491 c -0.070984,-0.1658027 -0.2358263,-0.272592 -0.4178212,-0.272592 -0.1818565,0 -0.346698,0.106789 -0.4178225,0.272592 L 6.5262355,3.8523252 C 6.4294515,4.0771272 6.3784085,4.3160075 6.3784085,4.560499 V 6.7242759 L 2.2854009,9.0848093 V 8.5565855 c 0,-0.3737975 -0.304161,-0.6745171 -0.682098,-0.6745171 -0.378076,0 -0.68223699,0.3007196 -0.68223699,0.6745171 v 1.5736425 0.899265 0.674379 c 0,0.373797 0.30416099,0.674518 0.68223699,0.674518 0.377937,0 0.682098,-0.300721 0.682098,-0.674518 v -0.224747 h 4.0930076 v 0.918844 L 4.7156289,13.83966 c -0.09944,0.08425 -0.156335,0.207925 -0.156335,0.337121 v 0.449631 c 0,0.24736 0.204588,0.449631 0.454779,0.449631 h 2.7286708 v -1.798527 c 0,-0.247222 0.2045879,-0.449495 0.4546394,-0.449495 0.2501899,0 0.4547778,0.202273 0.4547778,0.449495 v 1.798527 h 2.7286701 c 0.250191,0 0.454779,-0.202271 0.454779,-0.449631 v -0.449631 c 0,-0.129196 -0.05676,-0.252876 -0.156195,-0.337121 l -1.662919,-1.441691 v -0.918844 h 4.093006 v 0.224747 c 0,0.373797 0.304162,0.674518 0.682098,0.674518 0.378076,0 0.682238,-0.300721 0.682238,-0.674518 V 11.029493 10.130228 8.5565855 c 0,-0.3737975 -0.304162,-0.6745171 -0.682238,-0.6745171 -0.377936,0 -0.682098,0.3007196 -0.682098,0.6745171 V 9.0848093 L 10.016496,6.7242759 V 4.560499 c 0,-0.2444915 -0.051184,-0.4833718 -0.1478275,-0.7081738 z"
         fill="#202831"
         id="path2"
         style="fill:#000000;fill-opacity:1;stroke-width:1.38669" />
    </g>
    <circle
       r="0"
       style="fill:#000000;fill-opacity:1;stroke-width:0.225344;stroke-linecap:round"
       id="path865-3"
       cx="29.19866"
       cy="80.130951" />
  </g>
</svg>
