<?xml version="1.0" encoding="UTF-8" standalone="no"?>
<svg
   viewBox="0 0 448 512"
   version="1.1"
   id="svg4"
   sodipodi:docname="ai-none.svg"
   inkscape:version="1.1 (c68e22c387, 2021-05-23)"
   xmlns:inkscape="http://www.inkscape.org/namespaces/inkscape"
   xmlns:sodipodi="http://sodipodi.sourceforge.net/DTD/sodipodi-0.dtd"
   xmlns="http://www.w3.org/2000/svg"
   xmlns:svg="http://www.w3.org/2000/svg">
  <defs
     id="defs8" />
  <sodipodi:namedview
     id="namedview6"
     pagecolor="#ffffff"
     bordercolor="#666666"
     borderopacity="1.0"
     inkscape:pageshadow="2"
     inkscape:pageopacity="0.0"
     inkscape:pagecheckerboard="0"
     showgrid="false"
     inkscape:zoom="1.1490485"
     inkscape:cx="233.6716"
     inkscape:cy="300.68357"
     inkscape:window-width="1920"
     inkscape:window-height="1017"
     inkscape:window-x="-8"
     inkscape:window-y="-8"
     inkscape:window-maximized="1"
     inkscape:current-layer="svg4" />
  <!--! Font Awesome Pro 6.2.1 by @fontawesome - https://fontawesome.com License - https://fontawesome.com/license (Commercial License) Copyright 2022 Fonticons, Inc. -->
  <path
     d="m 262.05206,159.27038 v 132.1849 H 73.216485 V 159.27038 Z M 73.216485,121.50326 c -20.83092,0 -37.76711,16.93619 -37.76711,37.76712 v 132.1849 c 0,20.83093 16.93619,37.76712 37.76711,37.76712 h 69.220035 l -6.31419,18.88355 H 92.100045 c -10.44497,0 -18.88356,8.43859 -18.88356,18.88356 0,10.44497 8.43859,18.88356 18.88356,18.88356 H 243.1685 c 10.44497,0 18.88356,-8.43859 18.88356,-18.88356 0,-10.44497 -8.43859,-18.88356 -18.88356,-18.88356 h -44.0813 l -6.31419,-18.88355 h 69.27905 c 20.83092,0 37.76711,-16.93619 37.76711,-37.76712 v -132.1849 c 0,-20.83093 -16.93619,-37.76712 -37.76711,-37.76712 z m 273.811585,0 c -15.63795,0 -28.32534,12.68739 -28.32534,28.32534 v 207.71913 c 0,15.63795 12.68739,28.32534 28.32534,28.32534 h 37.76711 c 15.63795,0 28.32534,-12.68739 28.32534,-28.32534 V 149.8286 c 0,-15.63795 -12.68739,-28.32534 -28.32534,-28.32534 z m 9.44178,37.76712 h 18.88355 c 5.19298,0 9.44178,4.2488 9.44178,9.44178 0,5.19298 -4.2488,9.44178 -9.44178,9.44178 h -18.88355 c -5.19298,0 -9.44178,-4.2488 -9.44178,-9.44178 0,-5.19298 4.2488,-9.44178 9.44178,-9.44178 z m -9.44178,47.20889 c 0,-5.19298 4.2488,-9.44178 9.44178,-9.44178 h 18.88355 c 5.19298,0 9.44178,4.2488 9.44178,9.44178 0,5.19298 -4.2488,9.44178 -9.44178,9.44178 h -18.88355 c -5.19298,0 -9.44178,-4.2488 -9.44178,-9.44178 z m 18.88356,132.18491 c -10.44497,0 -18.88356,-8.43859 -18.88356,-18.88356 0,-10.44497 8.43859,-18.88356 18.88356,-18.88356 10.44496,0 18.88355,8.43859 18.88355,18.88356 0,10.44497 -8.43859,18.88356 -18.88355,18.88356 z"
     id="path2"
     style="stroke-width:0.590111" />
</svg>
