<?xml version="1.0" standalone="no"?>
<!DOCTYPE svg PUBLIC "-//W3C//DTD SVG 20010904//EN"
 "http://www.w3.org/TR/2001/REC-SVG-20010904/DTD/svg10.dtd">
<svg version="1.0" xmlns="http://www.w3.org/2000/svg"
 width="64.000000pt" height="64.000000pt" viewBox="0 0 64.000000 64.000000"
 preserveAspectRatio="xMidYMid meet">

<g transform="translate(0.000000,64.000000) scale(0.100000,-0.100000)"
fill="#000000" stroke="none">
<path d="M285 590 c-11 -12 -31 -20 -51 -20 -23 0 -37 -6 -44 -20 -6 -11 -17
-20 -25 -20 -7 0 -16 -4 -20 -10 -10 -16 14 -174 28 -185 7 -5 16 -18 20 -27
3 -10 16 -18 27 -18 13 0 20 -7 20 -20 0 -11 5 -20 10 -20 6 0 10 -43 10 -110
l0 -110 60 0 60 0 0 110 c0 67 4 110 10 110 6 0 10 9 10 20 0 13 7 20 20 20
11 0 24 8 27 18 4 9 13 22 20 27 14 11 38 169 28 185 -4 6 -13 10 -20 10 -8 0
-19 9 -25 20 -7 14 -21 20 -44 20 -20 0 -40 8 -51 20 -10 11 -26 20 -35 20 -9
0 -25 -9 -35 -20z m60 -10 c4 -6 -7 -10 -25 -10 -18 0 -29 4 -25 10 3 6 15 10
25 10 10 0 22 -4 25 -10z m90 -40 c4 -6 -37 -10 -115 -10 -78 0 -119 4 -115
10 4 6 53 10 115 10 62 0 111 -4 115 -10z m-205 -110 c0 -78 -1 -80 -24 -80
-22 0 -25 5 -31 48 -3 26 -8 62 -11 80 -5 31 -4 32 31 32 l35 0 0 -80z m80 0
l0 -80 -30 0 -30 0 0 80 0 80 30 0 30 0 0 -80z m80 0 l0 -80 -30 0 -30 0 0 80
0 80 30 0 30 0 0 -80z m86 48 c-3 -18 -8 -54 -11 -80 -6 -43 -9 -48 -31 -48
-23 0 -24 2 -24 80 l0 80 35 0 c35 0 36 -1 31 -32z m-46 -158 c0 -6 -43 -10
-110 -10 -67 0 -110 4 -110 10 0 6 43 10 110 10 67 0 110 -4 110 -10z m-50
-40 c0 -6 -27 -10 -60 -10 -33 0 -60 4 -60 10 0 6 27 10 60 10 33 0 60 -4 60
-10z m-20 -130 l0 -100 -40 0 -40 0 0 100 0 100 40 0 40 0 0 -100z"/>
</g>
</svg>
