<?xml version="1.0" encoding="UTF-8" standalone="no"?>
<svg
   viewBox="0 0 640 512"
   version="1.1"
   id="svg4"
   sodipodi:docname="climb.svg"
   inkscape:version="1.1 (c68e22c387, 2021-05-23)"
   xmlns:inkscape="http://www.inkscape.org/namespaces/inkscape"
   xmlns:sodipodi="http://sodipodi.sourceforge.net/DTD/sodipodi-0.dtd"
   xmlns="http://www.w3.org/2000/svg"
   xmlns:svg="http://www.w3.org/2000/svg">
  <defs
     id="defs8" />
  <sodipodi:namedview
     id="namedview6"
     pagecolor="#ffffff"
     bordercolor="#666666"
     borderopacity="1.0"
     inkscape:pageshadow="2"
     inkscape:pageopacity="0.0"
     inkscape:pagecheckerboard="0"
     showgrid="false"
     inkscape:zoom="0.8125"
     inkscape:cx="465.84615"
     inkscape:cy="22.769231"
     inkscape:window-width="1920"
     inkscape:window-height="1017"
     inkscape:window-x="-8"
     inkscape:window-y="-8"
     inkscape:window-maximized="1"
     inkscape:current-layer="svg4" />
  <!-- Font Awesome Pro 5.15.4 by @fontawesome - https://fontawesome.com License - https://fontawesome.com/license (Commercial License) -->
  <path
     d="m 80.55,407.27 c 6.28,6.84 15.1,10.72 24.33,10.71 l 130.54,-0.18 a 65.62,65.62 0 0 0 29.64,-7.12 L 556.02,263.03 c 26.74,-13.57 50.71,-32.94 67.02,-58.31 18.31,-28.48 20.3,-49.09 13.07,-63.65 -7.21,-14.57 -24.74,-25.27 -58.25,-27.45 -29.85,-1.94 -59.54,5.92 -86.28,19.48 l -98.51,49.99 -218.7,-82.06 a 17.799,17.799 0 0 0 -18,-1.11 l -65.75,33.37 c -10.67,5.41 -13.25,19.65 -5.17,28.53 l 156.22,98.1 -103.21,52.38 -72.35,-36.47 a 17.804,17.804 0 0 0 -16.07,0.02 L 9.91,296.22 c -10.44,5.3 -13.19,19.12 -5.57,28.08 z"
     id="path846" />
</svg>
