<?xml version="1.0" encoding="UTF-8" standalone="no"?>
<svg
   viewBox="0 0 512 512"
   version="1.1"
   id="svg4"
   sodipodi:docname="dead-hidden.svg"
   inkscape:version="1.1 (c68e22c387, 2021-05-23)"
   xmlns:inkscape="http://www.inkscape.org/namespaces/inkscape"
   xmlns:sodipodi="http://sodipodi.sourceforge.net/DTD/sodipodi-0.dtd"
   xmlns="http://www.w3.org/2000/svg"
   xmlns:svg="http://www.w3.org/2000/svg">
  <defs
     id="defs8" />
  <sodipodi:namedview
     id="namedview6"
     pagecolor="#ffffff"
     bordercolor="#666666"
     borderopacity="1.0"
     inkscape:pageshadow="2"
     inkscape:pageopacity="0.0"
     inkscape:pagecheckerboard="0"
     showgrid="false"
     inkscape:zoom="0.8125"
     inkscape:cx="101.53846"
     inkscape:cy="209.84615"
     inkscape:window-width="1920"
     inkscape:window-height="1017"
     inkscape:window-x="-8"
     inkscape:window-y="-8"
     inkscape:window-maximized="1"
     inkscape:current-layer="svg4" />
  <!--! Font Awesome Pro 6.2.1 by @fontawesome - https://fontawesome.com License - https://fontawesome.com/license (Commercial License) Copyright 2022 Fonticons, Inc. -->
  <path
     d="m 336,333.63317 c 29.25,-22.32836 48,-56.55432 48,-95.01779 0,-67.2024 -57.3,-121.6923 -128,-121.6923 -70.7,0 -128,54.4899 -128,121.6923 0,38.40914 18.75,72.68943 48,95.01779 0,0.21731 0,0.38029 0,0.5976 V 369 c 0,14.39663 10.75,26.07692 24,26.07692 h 24 V 369 c 0,-4.78077 3.6,-8.69231 8,-8.69231 4.4,0 8,3.91154 8,8.69231 v 26.07692 h 32 V 369 c 0,-4.78077 3.6,-8.69231 8,-8.69231 4.4,0 8,3.91154 8,8.69231 v 26.07692 h 24 c 13.25,0 24,-11.68029 24,-26.07692 v -34.76923 c 0,-0.21731 0,-0.38029 0,-0.5976 z M 240,256 c 0,19.1774 -14.35,34.76923 -32,34.76923 -17.65,0 -32,-15.59183 -32,-34.76923 0,-19.1774 14.35,-34.76923 32,-34.76923 17.65,0 32,15.59183 32,34.76923 z m 64,34.76923 c -17.65,0 -32,-15.59183 -32,-34.76923 0,-19.1774 14.35,-34.76923 32,-34.76923 17.65,0 32,15.59183 32,34.76923 0,19.1774 -14.35,34.76923 -32,34.76923 z"
     id="path2"
     style="stroke-width:0.521186" />
  <rect
     style="stroke:#fffffc;stroke-width:20;stroke-miterlimit:4;stroke-dasharray:none;stroke-opacity:1;paint-order:stroke fill markers"
     id="rect851-9"
     width="398.59067"
     height="44.384548"
     x="-197.55475"
     y="339.84641"
     rx="20"
     ry="20"
     transform="rotate(-45)" />
</svg>
