<?xml version="1.0" encoding="UTF-8" standalone="no"?>
<svg
   viewBox="0 0 640 512"
   version="1.1"
   id="svg4"
   sodipodi:docname="descend.svg"
   inkscape:version="1.1 (c68e22c387, 2021-05-23)"
   xmlns:inkscape="http://www.inkscape.org/namespaces/inkscape"
   xmlns:sodipodi="http://sodipodi.sourceforge.net/DTD/sodipodi-0.dtd"
   xmlns="http://www.w3.org/2000/svg"
   xmlns:svg="http://www.w3.org/2000/svg">
  <defs
     id="defs8" />
  <sodipodi:namedview
     id="namedview6"
     pagecolor="#ffffff"
     bordercolor="#666666"
     borderopacity="1.0"
     inkscape:pageshadow="2"
     inkscape:pageopacity="0.0"
     inkscape:pagecheckerboard="0"
     showgrid="false"
     inkscape:zoom="0.8125"
     inkscape:cx="313.23077"
     inkscape:cy="312"
     inkscape:window-width="1920"
     inkscape:window-height="1017"
     inkscape:window-x="-8"
     inkscape:window-y="-8"
     inkscape:window-maximized="1"
     inkscape:current-layer="svg4" />
  <!-- Font Awesome Pro 5.15.4 by @fontawesome - https://fontawesome.com License - https://fontawesome.com/license (Commercial License) -->
  <path
     d="m 52.81,265.66 88.74,80 a 62.607,62.607 0 0 0 25.47,13.93 l 287.6,78.35 c 26.48,7.21 54.56,8.72 81,1.36 29.67,-8.27 43.44,-21.21 47.25,-35.71 3.83,-14.5 -1.73,-32.71 -23.37,-54.96 -19.28,-19.82 -44.35,-32.79 -70.83,-40 L 391.16,282.07 290.8,90.22 C 289.29,84.41 284.85,79.87 279.14,78.31 L 214.05,60.58 c -10.56,-2.88 -20.9,5.32 -20.71,16.44 l 47.92,164.21 -102.2,-27.84 -27.59,-67.88 c -1.93,-4.89 -6.01,-8.57 -11.02,-9.93 L 60.72,124.75 c -10.34,-2.82 -20.53,5 -20.72,15.88 l 0.23,101.78 c 0.19,8.91 6.03,17.34 12.58,23.25 z"
     id="path827" />
</svg>
