<svg width="15" height="14" viewBox="0 0 15 14" fill="none" xmlns="http://www.w3.org/2000/svg">
<path d="M10.4766 9.25718L11.3099 8.44468C11.4401 8.31772 11.6667 8.40659 11.6667 8.58941V12.2812C11.6667 12.9541 11.1068 13.5 10.4167 13.5H1.25C0.559896 13.5 0 12.9541 0 12.2812V3.3437C0 2.67085 0.559896 2.12495 1.25 2.12495H8.3724C8.55729 2.12495 8.65104 2.34331 8.52083 2.4728L7.6875 3.2853C7.64844 3.32339 7.59635 3.3437 7.53906 3.3437H1.25V12.2812H10.4167V9.39937C10.4167 9.34605 10.4375 9.29526 10.4766 9.25718ZM14.5547 4.13335L7.71615 10.8009L5.36198 11.0548C4.67969 11.1285 4.09896 10.5673 4.17448 9.89702L4.4349 7.60171L11.2734 0.934131C11.8698 0.352686 12.8333 0.352686 13.4271 0.934131L14.5521 2.03101C15.1484 2.61245 15.1484 3.55444 14.5547 4.13335ZM11.9818 4.91792L10.4688 3.44272L5.63021 8.16284L5.4401 9.82085L7.14063 9.6355L11.9818 4.91792ZM13.6693 2.89429L12.5443 1.79741C12.4375 1.69331 12.263 1.69331 12.1589 1.79741L11.3542 2.58198L12.8672 4.05718L13.6719 3.27261C13.776 3.16597 13.776 2.99839 13.6693 2.89429Z" fill="white"/>
</svg>
