<?xml version="1.0" standalone="no"?>
<!DOCTYPE svg PUBLIC "-//W3C//DTD SVG 20010904//EN"
 "http://www.w3.org/TR/2001/REC-SVG-20010904/DTD/svg10.dtd">
<svg version="1.0" xmlns="http://www.w3.org/2000/svg"
 width="96.000000pt" height="96.000000pt" viewBox="0 0 96.000000 96.000000"
 preserveAspectRatio="xMidYMid meet">

<g transform="translate(0.000000,96.000000) scale(0.100000,-0.100000)"
fill="#000000" stroke="none">
<path d="M400 868 c-48 -16 -133 -104 -147 -151 -14 -45 -9 -64 18 -72 26 -8
45 8 59 50 6 19 27 48 45 64 81 71 202 45 249 -53 34 -72 16 -128 -69 -216
-29 -30 -65 -73 -79 -94 -32 -48 -35 -102 -6 -111 27 -8 37 -1 60 46 11 21 50
70 85 108 100 105 125 183 91 279 -35 97 -107 152 -209 158 -34 2 -78 -2 -97
-8z"/>
<path d="M444 146 c-3 -8 -4 -25 -2 -38 2 -19 9 -23 38 -23 33 0 35 2 35 35 0
32 -3 35 -33 38 -21 2 -34 -2 -38 -12z"/>
</g>
</svg>
