<?xml version="1.0" standalone="no"?>
<!DOCTYPE svg PUBLIC "-//W3C//DTD SVG 20010904//EN"
 "http://www.w3.org/TR/2001/REC-SVG-20010904/DTD/svg10.dtd">
<svg version="1.0" xmlns="http://www.w3.org/2000/svg"
 width="96.000000pt" height="96.000000pt" viewBox="0 0 96.000000 96.000000"
 preserveAspectRatio="xMidYMid meet">

<g transform="translate(0.000000,96.000000) scale(0.100000,-0.100000)"
fill="#000000" stroke="none">
<path d="M386 870 c-63 -16 -153 -70 -197 -117 -22 -24 -55 -74 -72 -111 -29
-61 -32 -76 -32 -163 0 -90 2 -99 37 -171 45 -91 103 -147 196 -191 61 -29 76
-32 162 -32 86 0 101 3 162 32 93 44 151 100 196 191 35 72 37 81 37 172 0 91
-2 100 -37 172 -68 136 -188 217 -336 224 -42 2 -94 -1 -116 -6z m229 -101
c63 -30 124 -90 155 -154 34 -72 34 -198 0 -270 -31 -64 -91 -124 -155 -155
-72 -34 -198 -34 -270 0 -260 126 -238 495 35 594 63 23 170 16 235 -15z"/>
<path d="M415 706 c-37 -16 -70 -52 -84 -89 -19 -49 -15 -57 29 -57 29 0 40 4
40 15 0 27 47 65 80 65 41 0 80 -39 80 -79 0 -23 -13 -44 -51 -83 -46 -48 -69
-84 -69 -109 0 -5 18 -9 40 -9 22 0 40 4 40 10 0 5 24 37 54 70 30 34 58 75
61 91 27 123 -104 226 -220 175z"/>
<path d="M440 280 l0 -40 40 0 40 0 0 40 0 40 -40 0 -40 0 0 -40z"/>
</g>
</svg>
