<?xml version="1.0" standalone="no"?>
<!DOCTYPE svg PUBLIC "-//W3C//DTD SVG 20010904//EN"
 "http://www.w3.org/TR/2001/REC-SVG-20010904/DTD/svg10.dtd">
<svg version="1.0" xmlns="http://www.w3.org/2000/svg"
 width="50.000000pt" height="50.000000pt" viewBox="0 0 50.000000 50.000000"
 preserveAspectRatio="xMidYMid meet">

<g transform="translate(0.000000,50.000000) scale(0.100000,-0.100000)"
fill="#000000" stroke="none">
<path d="M149 442 c-149 -78 -158 -288 -16 -376 198 -122 423 103 301 301 -21
34 -44 55 -83 75 -71 37 -131 37 -202 0z m161 -2 c52 -15 76 -36 61 -53 -10
-13 -17 -12 -48 4 -47 24 -96 24 -147 0 -23 -10 -48 -21 -57 -24 -25 -8 -36
-132 -16 -179 14 -34 72 -88 94 -88 6 0 16 -7 23 -15 15 -18 46 -20 57 -2 4 7
23 19 41 27 77 31 114 136 74 212 -17 32 -18 39 -5 49 18 15 38 -10 54 -66 24
-84 -10 -174 -84 -223 -56 -37 -153 -39 -210 -3 -110 68 -128 220 -37 311 55
55 124 72 200 50z m2 -66 c27 -14 29 -17 15 -31 -11 -12 -19 -12 -35 -4 -62
33 -142 -18 -142 -90 0 -32 26 -74 55 -87 37 -17 65 -15 102 8 37 22 53 76 34
117 -10 21 -9 29 3 41 14 14 17 12 31 -21 26 -63 15 -117 -35 -162 -27 -25
-133 -30 -168 -8 -34 21 -62 73 -62 113 0 40 7 54 33 63 9 3 17 15 17 26 0 44
93 65 152 35z m-172 -34 c0 -5 -4 -10 -10 -10 -5 0 -10 5 -10 10 0 6 5 10 10
10 6 0 10 -4 10 -10z m148 -18 c15 -10 -12 -38 -43 -44 -14 -2 -20 -11 -20
-28 0 -20 5 -25 25 -25 17 0 26 6 28 20 6 31 34 58 44 43 13 -21 9 -65 -7 -72
-8 -3 -15 -12 -15 -20 0 -16 -21 -26 -56 -26 -35 0 -74 42 -74 80 0 57 72 101
118 72z m-28 -72 c0 -5 -4 -10 -10 -10 -5 0 -10 5 -10 10 0 6 5 10 10 10 6 0
10 -4 10 -10z m0 -150 c0 -5 -4 -10 -10 -10 -5 0 -10 5 -10 10 0 6 5 10 10 10
6 0 10 -4 10 -10z"/>
</g>
</svg>
