<?xml version="1.0" standalone="no"?>
<!DOCTYPE svg PUBLIC "-//W3C//DTD SVG 20010904//EN"
 "http://www.w3.org/TR/2001/REC-SVG-20010904/DTD/svg10.dtd">
<svg version="1.0" xmlns="http://www.w3.org/2000/svg"
 width="96.000000pt" height="96.000000pt" viewBox="0 0 96.000000 96.000000"
 preserveAspectRatio="xMidYMid meet">

<g transform="translate(0.000000,96.000000) scale(0.100000,-0.100000)"
fill="#000000" stroke="none">
<path d="M411 846 c-77 -78 -70 -86 69 -86 139 0 146 8 69 86 -29 30 -60 54
-69 54 -9 0 -40 -24 -69 -54z"/>
<path d="M132 668 c-16 -16 -15 -43 2 -57 9 -8 110 -11 351 -9 309 3 339 4
349 21 8 12 8 22 0 35 -10 16 -40 17 -350 20 -256 2 -343 -1 -352 -10z"/>
<path d="M132 508 c-16 -16 -15 -43 2 -57 9 -8 110 -11 351 -9 309 3 339 4
349 21 8 12 8 22 0 35 -10 16 -40 17 -350 20 -256 2 -343 -1 -352 -10z"/>
<path d="M132 348 c-16 -16 -15 -43 2 -57 9 -8 110 -11 351 -9 309 3 339 4
349 21 8 12 8 22 0 35 -10 16 -40 17 -350 20 -256 2 -343 -1 -352 -10z"/>
<path d="M363 184 c-7 -18 92 -124 117 -124 25 0 124 106 117 124 -9 24 -225
24 -234 0z"/>
</g>
</svg>
