<?xml version="1.0" encoding="UTF-8" standalone="no"?>
<svg
   width="15.767666"
   height="14.022505"
   viewBox="0 0 15.767666 14.022505"
   fill="none"
   version="1.1"
   id="svg7279"
   sodipodi:docname="navyunit.svg"
   inkscape:version="1.2.2 (732a01da63, 2022-12-09)"
   xmlns:inkscape="http://www.inkscape.org/namespaces/inkscape"
   xmlns:sodipodi="http://sodipodi.sourceforge.net/DTD/sodipodi-0.dtd"
   xmlns="http://www.w3.org/2000/svg"
   xmlns:svg="http://www.w3.org/2000/svg">
  <defs
     id="defs7283" />
  <sodipodi:namedview
     id="namedview7281"
     pagecolor="#ffffff"
     bordercolor="#666666"
     borderopacity="1.0"
     inkscape:showpageshadow="2"
     inkscape:pageopacity="0.0"
     inkscape:pagecheckerboard="0"
     inkscape:deskcolor="#d1d1d1"
     showgrid="false"
     inkscape:zoom="26.15625"
     inkscape:cx="7.9139785"
     inkscape:cy="7.2640382"
     inkscape:window-width="1920"
     inkscape:window-height="1017"
     inkscape:window-x="1912"
     inkscape:window-y="-8"
     inkscape:window-maximized="1"
     inkscape:current-layer="svg7279" />
  <path
     stroke-width="0"
     d="m 5.2724978,0.875 c 0,-0.46484 0.3828,-0.875 0.875,-0.875 h 3.5 C 10.112298,0 10.522498,0.41016 10.522498,0.875 V 1.75 h 1.3125 c 0.7109,0 1.3125,0.6016 1.3125,1.3125 v 3.5 l 1.2031,0.4102 c 0.6289,0.2187 0.793,1.039 0.3008,1.4765 l -2.7617,2.543 c -0.4375,0.2461 -0.9297,0.4101 -1.3672,0.4101 -0.5469002,0 -1.1211002,-0.2187 -1.6406002,-0.5468 -0.6016,-0.4375 -1.3946,-0.4375 -1.9961,0 -0.4649,0.3007 -1.0391,0.5468 -1.6406,0.5468 -0.4375,0 -0.9297,-0.164 -1.3672,-0.4101 l -2.76175,-2.543 C 0.62405778,8.0117 0.78811778,7.1914 1.4170278,6.9727 l 1.23047,-0.4102 v -3.5 c 0,-0.7109 0.5742,-1.3125 1.3125,-1.3125 h 1.3125 z m -0.875,5.1133 2.9258,-0.9844 c 0.3554,-0.1094 0.7656,-0.1094 1.1211,0 L 11.397498,5.9883 V 3.5 H 4.3974978 Z m 3.9922,5.5508 c 0.6289,0.4375 1.3672,0.7109 2.1328002,0.7109 0.7109,0 1.5039,-0.2734 2.1055,-0.7109 0.3281,-0.2188 0.7656,-0.1914 1.0664,0.0547 0.4101,0.3281 0.9023,0.5742 1.3945,0.6835 0.4648,0.1094 0.7656,0.5743 0.6563,1.0665 -0.1094,0.4648 -0.6016,0.7656 -1.0665,0.6562 -0.6562,-0.1641 -1.2304,-0.4648 -1.5859,-0.6836 -0.793,0.4102 -1.668,0.6836 -2.5703,0.6836 -0.8750002,0 -1.6680002,-0.2461 -2.2148002,-0.4922 -0.1641,-0.082 -0.3008,-0.164 -0.4102,-0.2187 -0.1367,0.0547 -0.2734,0.1367 -0.4375,0.2187 -0.5469,0.2461 -1.3398,0.4922 -2.1875,0.4922 -0.9023,0 -1.8047,-0.2734 -2.5977,-0.6836 -0.3554,0.2188 -0.92964,0.5195 -1.58589,0.6836 -0.46485002,0.1094 -0.95703002,-0.1914 -1.06641002,-0.6562 -0.10938,-0.4649 0.19141,-0.9571 0.65625,-1.0665 0.49219002,-0.1093 1.01172002,-0.3554 1.39455002,-0.6835 0.3008,-0.2461 0.7383,-0.2735 1.0664,-0.0547 0.6016,0.4375 1.3945,0.7109 2.1328,0.7109 0.7383,0 1.5039,-0.2734 2.1055,-0.7109 0.3007,-0.2188 0.7109,-0.2188 1.0117,0 z"
     fill="black"
     id="path7277" />
</svg>
