<?xml version="1.0" encoding="UTF-8"?>
<svg width="50" height="50" version="1.1" viewBox="0 0 50 50" xmlns="http://www.w3.org/2000/svg">
 <rect transform="rotate(45 25 2.3724)" x="25" y="2.3724" width="32" height="32" rx="1.1" fill="white" stroke-width="2"/>
 <rect transform="rotate(45 25 5.2008)" x="25" y="5.2008" width="28" height="28" fill="none" stroke="#082E44" stroke-width="2"/>
 <path d="m19.209 19.55c-0.56415 0-1.0219 0.45771-1.0219 1.0219v6.8124c0 0.56415 0.45771 1.0219 1.0219 1.0219h0.34062c0 1.1283 0.91541 2.0437 2.0437 2.0437 1.1283 0 2.0437-0.91541 2.0437-2.0437h2.725c0 1.1283 0.91542 2.0437 2.0437 2.0437 1.1283 0 2.0437-0.91541 2.0437-2.0437h0.68124c0.37681 0 0.68124-0.30443 0.68124-0.68124s-0.30443-0.68124-0.68124-0.68124v-2.4418c0-0.36191-0.14264-0.70892-0.3981-0.96438l-1.6456-1.6456c-0.25546-0.25546-0.60247-0.3981-0.96438-0.3981h-1.0793v-1.0219c0-0.56415-0.45771-1.0219-1.0219-1.0219zm7.8342 3.4062h1.0793l1.6456 1.6456v0.3981h-2.725zm-6.4718 5.4499a1.0219 1.0219 0 1 1 2.0437 0 1.0219 1.0219 0 1 1-2.0437 0zm7.8342-1.0219a1.0219 1.0219 0 1 1 0 2.0437 1.0219 1.0219 0 1 1 0-2.0437z" fill="none" stroke="#082e44"/>
</svg>
