<svg width="34" height="34" viewBox="0 0 34 34" fill="none" xmlns="http://www.w3.org/2000/svg">
<path d="M0 1.4C0 0.626804 0.626801 0 1.4 0H32.2C32.9732 0 33.6 0.626801 33.6 1.4V32.2C33.6 32.9732 32.9732 33.6 32.2 33.6H1.4C0.626804 33.6 0 32.9732 0 32.2V1.4Z" fill="#3BB9FF"/>
<path fill-rule="evenodd" clip-rule="evenodd" d="M2.8 2.8V30.8H30.8V2.8H2.8ZM1.4 0C0.626801 0 0 0.626804 0 1.4V32.2C0 32.9732 0.626804 33.6 1.4 33.6H32.2C32.9732 33.6 33.6 32.9732 33.6 32.2V1.4C33.6 0.626801 32.9732 0 32.2 0H1.4Z" fill="#082E44"/>
</svg>
