<svg width="35" height="35" viewBox="0 0 35 35" fill="none" xmlns="http://www.w3.org/2000/svg">
<path d="M17.0234 14.3594C17.2285 14.1543 17.3164 13.8906 17.1992 13.627C17.1406 13.4512 17.0527 13.3047 16.9941 13.1582L16.9062 13.0117C16.8184 12.8652 16.7012 12.7188 16.6133 12.5723C16.4375 12.3672 16.1445 12.2793 15.8809 12.3672L15.0605 12.6309C14.7383 12.3965 14.3867 12.1621 14.0059 12.0449L13.8301 11.1953C13.7715 10.9023 13.5371 10.6973 13.2734 10.668C13.0684 10.6387 12.8633 10.6094 12.6875 10.6094C12.4824 10.6094 12.2773 10.6387 12.0723 10.668C11.8086 10.6973 11.6035 10.9023 11.5449 11.166L11.3691 12.0449C10.959 12.1914 10.6074 12.3965 10.2852 12.6309L9.46484 12.3672C9.20117 12.2793 8.9082 12.3672 8.73242 12.5723C8.64453 12.7188 8.55664 12.8652 8.43945 13.0117L8.35156 13.1582C8.29297 13.3047 8.20508 13.4512 8.14648 13.627C8.0293 13.8906 8.11719 14.1543 8.32227 14.3594L8.9668 14.9453C8.9375 15.1211 8.9375 15.3262 8.9375 15.5312C8.9375 15.7656 8.9375 15.9707 8.9668 16.1465L8.32227 16.7324C8.11719 16.9082 8.0293 17.2012 8.14648 17.4648C8.20508 17.6113 8.29297 17.7871 8.35156 17.9336L8.43945 18.0801C8.52734 18.2266 8.64453 18.373 8.73242 18.5195C8.9082 18.7246 9.20117 18.8125 9.46484 18.7246L10.2852 18.4316C10.6074 18.6953 10.959 18.9004 11.3398 19.0469L11.5449 19.8965C11.5742 20.1895 11.8086 20.3945 12.0723 20.4238C12.2773 20.4531 12.4824 20.4531 12.6582 20.4531C12.8633 20.4531 13.0684 20.4531 13.2734 20.4238C13.5371 20.3945 13.7422 20.1895 13.8008 19.8965L13.9766 19.0469C14.3867 18.9004 14.7383 18.6953 15.0605 18.4316L15.8809 18.7246C16.1445 18.8125 16.4375 18.7246 16.6133 18.5195C16.7012 18.373 16.7891 18.2266 16.877 18.0801L16.9648 17.9336C17.0527 17.7871 17.1406 17.6113 17.1992 17.4648C17.3164 17.2012 17.2285 16.9082 17.0234 16.7324L16.3789 16.1465C16.4082 15.9414 16.4082 15.7363 16.4082 15.5312C16.4082 15.3262 16.4082 15.1211 16.3789 14.916L17.0234 14.3594ZM14.0938 15.5312C14.0938 16.3223 13.4492 16.9375 12.6875 16.9375C11.8965 16.9375 11.2812 16.3223 11.2812 15.5312C11.2812 14.7695 11.8965 14.125 12.6875 14.125C13.4492 14.125 14.0938 14.7695 14.0938 15.5312ZM22.7656 25.0527C22.9707 25.2578 23.2344 25.3457 23.498 25.2285C23.6738 25.1699 23.8203 25.082 23.9668 25.0234L24.1133 24.9062C24.2598 24.8184 24.4062 24.7305 24.5527 24.6426C24.7578 24.4668 24.8457 24.1738 24.7578 23.9102L24.4941 23.0898C24.7285 22.7676 24.9629 22.416 25.0801 22.0352L25.959 21.8301C26.2227 21.8008 26.4277 21.5664 26.457 21.3027C26.4863 21.0977 26.5156 20.8926 26.5156 20.7168C26.5156 20.5117 26.4863 20.3066 26.457 20.1016C26.4277 19.8379 26.2227 19.6328 25.959 19.5742L25.0801 19.3691C24.9336 18.9883 24.7285 18.6367 24.4941 18.3145L24.7578 17.4941C24.8457 17.2305 24.7578 16.9375 24.5527 16.7617C24.4062 16.6738 24.2598 16.5859 24.1133 16.4688L23.9668 16.3809C23.8203 16.3223 23.6738 16.2344 23.498 16.1758C23.2637 16.0586 22.9707 16.1465 22.7656 16.3516L22.1797 16.9961C22.0039 16.9668 21.7988 16.9668 21.5938 16.9668C21.3594 16.9668 21.1543 16.9668 20.9785 16.9961L20.3926 16.3516C20.2168 16.1465 19.9238 16.0586 19.6602 16.1758C19.5137 16.2344 19.3379 16.3223 19.1914 16.3809L19.0449 16.4688C18.8984 16.5566 18.752 16.6738 18.6055 16.7617C18.4004 16.9375 18.3125 17.2305 18.4004 17.4941L18.6934 18.3145C18.4297 18.6367 18.2246 18.9883 18.0781 19.3691L17.2285 19.5449C16.9355 19.6035 16.7305 19.8379 16.7012 20.1016C16.6719 20.3066 16.6719 20.4824 16.6719 20.6875C16.6719 20.8926 16.6719 21.0977 16.7012 21.3027C16.7305 21.5664 16.9355 21.7715 17.2285 21.8301L18.0781 22.0059C18.2246 22.416 18.4297 22.7676 18.6934 23.0898L18.4004 23.9102C18.3125 24.1738 18.4004 24.4668 18.6055 24.6133C18.752 24.7305 18.8984 24.8184 19.0449 24.9062L19.1914 24.9941C19.3379 25.082 19.5137 25.1699 19.6602 25.2285C19.9238 25.3457 20.2168 25.2578 20.3926 25.0527L20.9785 24.4082C21.1836 24.4375 21.3887 24.4375 21.5938 24.4375C21.7988 24.4375 22.0039 24.4375 22.209 24.4082L22.7656 25.0527ZM21.5938 22.0938C20.8027 22.0938 20.1875 21.4785 20.1875 20.6875C20.1875 19.9258 20.8027 19.2812 21.5938 19.2812C22.3555 19.2812 23 19.9258 23 20.6875C23 21.4785 22.3555 22.0938 21.5938 22.0938Z" fill="#202831"/>
</svg>
