<svg width="31" height="31" viewBox="0 0 31 31" fill="none" xmlns="http://www.w3.org/2000/svg">
<path d="M21.7297 17.0271C21.6906 16.9349 21.6 16.8755 21.5 16.8755C21.4 16.8755 21.3094 16.9349 21.2703 17.0271L20.5812 18.6349C20.5281 18.7599 20.5 18.8927 20.5 19.0286V20.2318L18.25 21.5442V21.2505C18.25 21.0427 18.0828 20.8755 17.875 20.8755C17.6672 20.8755 17.5 21.0427 17.5 21.2505V22.1255V22.6255V23.0005C17.5 23.2083 17.6672 23.3755 17.875 23.3755C18.0828 23.3755 18.25 23.2083 18.25 23.0005V22.8755H20.5V23.3864L19.5859 24.188C19.5312 24.2349 19.5 24.3036 19.5 24.3755V24.6255C19.5 24.763 19.6125 24.8755 19.75 24.8755H21.25V23.8755C21.25 23.738 21.3625 23.6255 21.5 23.6255C21.6375 23.6255 21.75 23.738 21.75 23.8755V24.8755H23.25C23.3875 24.8755 23.5 24.763 23.5 24.6255V24.3755C23.5 24.3036 23.4688 24.2349 23.4141 24.188L22.5 23.3864V22.8755H24.75V23.0005C24.75 23.2083 24.9172 23.3755 25.125 23.3755C25.3328 23.3755 25.5 23.2083 25.5 23.0005V22.6255V22.1255V21.2505C25.5 21.0427 25.3328 20.8755 25.125 20.8755C24.9172 20.8755 24.75 21.0427 24.75 21.2505V21.5442L22.5 20.2318V19.0286C22.5 18.8927 22.4719 18.7599 22.4187 18.6349L21.7297 17.0271Z" fill="#202831"/>
<path d="M9.72969 7.02705C9.69063 6.93486 9.6 6.87549 9.5 6.87549C9.4 6.87549 9.30938 6.93486 9.27031 7.02705L8.58125 8.63486C8.52812 8.75986 8.5 8.89268 8.5 9.02862V10.2317L6.25 11.5442V11.2505C6.25 11.0427 6.08281 10.8755 5.875 10.8755C5.66719 10.8755 5.5 11.0427 5.5 11.2505V12.1255V12.6255V13.0005C5.5 13.2083 5.66719 13.3755 5.875 13.3755C6.08281 13.3755 6.25 13.2083 6.25 13.0005V12.8755H8.5V13.3864L7.58594 14.188C7.53125 14.2349 7.5 14.3036 7.5 14.3755V14.6255C7.5 14.763 7.6125 14.8755 7.75 14.8755H9.25V13.8755C9.25 13.738 9.3625 13.6255 9.5 13.6255C9.6375 13.6255 9.75 13.738 9.75 13.8755V14.8755H11.25C11.3875 14.8755 11.5 14.763 11.5 14.6255V14.3755C11.5 14.3036 11.4688 14.2349 11.4141 14.188L10.5 13.3864V12.8755H12.75V13.0005C12.75 13.2083 12.9172 13.3755 13.125 13.3755C13.3328 13.3755 13.5 13.2083 13.5 13.0005V12.6255V12.1255V11.2505C13.5 11.0427 13.3328 10.8755 13.125 10.8755C12.9172 10.8755 12.75 11.0427 12.75 11.2505V11.5442L10.5 10.2317V9.02862C10.5 8.89268 10.4719 8.75986 10.4187 8.63486L9.72969 7.02705Z" fill="#202831"/>
</svg>
