<svg width="35" height="35" viewBox="0 0 35 35" fill="none" xmlns="http://www.w3.org/2000/svg">
<path d="M12.4955 18.2238C12.7115 15.3416 13.888 9.51496 16.8654 9.26602C20.5872 8.95485 25.1646 8.07764 24.7964 21.0345" stroke="#202831" stroke-linecap="round" stroke-dasharray="2 2"/>
<path d="M11.8419 26.3021C11.8812 26.3949 11.9723 26.4546 12.0729 26.4546C12.1735 26.4546 12.2646 26.3949 12.3039 26.3021L12.997 24.685C13.0504 24.5592 13.0787 24.4257 13.0787 24.2889L13.0787 23.0788L15.3418 21.7587L15.3418 22.0541C15.3418 22.2631 15.51 22.4313 15.719 22.4313C15.928 22.4313 16.0962 22.2631 16.0962 22.0541L16.0962 21.174L16.0962 20.6711L16.0962 20.2939C16.0962 20.0849 15.928 19.9167 15.719 19.9167C15.51 19.9167 15.3418 20.0849 15.3418 20.2939L15.3418 20.4197L13.0787 20.4197L13.0787 19.9058L13.9981 19.0995C14.0531 19.0523 14.0845 18.9832 14.0845 18.9109L14.0845 18.6595C14.0845 18.5212 13.9714 18.408 13.8331 18.408L12.3244 18.408L12.3244 19.4138C12.3244 19.5521 12.2112 19.6653 12.0729 19.6653C11.9346 19.6653 11.8214 19.5521 11.8214 19.4138L11.8214 18.408L10.3127 18.408C10.1744 18.408 10.0613 18.5212 10.0613 18.6595L10.0613 18.9109C10.0613 18.9832 10.0926 19.0523 10.1477 19.0995L11.0671 19.9058L11.0671 20.4197L8.80398 20.4197L8.80398 20.2939C8.80398 20.0849 8.6358 19.9167 8.42679 19.9167C8.21778 19.9167 8.04961 20.0849 8.04961 20.2939L8.04961 20.6711L8.04961 21.174L8.04961 22.0541C8.04961 22.2631 8.21778 22.4313 8.42679 22.4313C8.6358 22.4313 8.80398 22.2631 8.80398 22.0541L8.80398 21.7587L11.0671 23.0788L11.0671 24.2889C11.0671 24.4257 11.0954 24.5592 11.1488 24.685L11.8419 26.3021Z" fill="#202831"/>
</svg>
