<svg width="31" height="31" viewBox="0 0 31 31" fill="none" xmlns="http://www.w3.org/2000/svg">
<path d="M15.7297 18.0271C15.6906 17.9349 15.6 17.8755 15.5 17.8755C15.4 17.8755 15.3094 17.9349 15.2703 18.0271L14.5812 19.6349C14.5281 19.7599 14.5 19.8927 14.5 20.0286V21.2318L12.25 22.5442V22.2505C12.25 22.0427 12.0828 21.8755 11.875 21.8755C11.6672 21.8755 11.5 22.0427 11.5 22.2505V23.1255V23.6255V24.0005C11.5 24.2083 11.6672 24.3755 11.875 24.3755C12.0828 24.3755 12.25 24.2083 12.25 24.0005V23.8755H14.5V24.3864L13.5859 25.188C13.5312 25.2349 13.5 25.3036 13.5 25.3755V25.6255C13.5 25.763 13.6125 25.8755 13.75 25.8755H15.25V24.8755C15.25 24.738 15.3625 24.6255 15.5 24.6255C15.6375 24.6255 15.75 24.738 15.75 24.8755V25.8755H17.25C17.3875 25.8755 17.5 25.763 17.5 25.6255V25.3755C17.5 25.3036 17.4688 25.2349 17.4141 25.188L16.5 24.3864V23.8755H18.75V24.0005C18.75 24.2083 18.9172 24.3755 19.125 24.3755C19.3328 24.3755 19.5 24.2083 19.5 24.0005V23.6255V23.1255V22.2505C19.5 22.0427 19.3328 21.8755 19.125 21.8755C18.9172 21.8755 18.75 22.0427 18.75 22.2505V22.5442L16.5 21.2318V20.0286C16.5 19.8927 16.4719 19.7599 16.4187 19.6349L15.7297 18.0271Z" fill="#202831"/>
<path d="M15.7297 4.02705C15.6906 3.93486 15.6 3.87549 15.5 3.87549C15.4 3.87549 15.3094 3.93486 15.2703 4.02705L14.5812 5.63486C14.5281 5.75986 14.5 5.89268 14.5 6.02862V7.23174L12.25 8.54424V8.25049C12.25 8.04268 12.0828 7.87549 11.875 7.87549C11.6672 7.87549 11.5 8.04268 11.5 8.25049V9.12549V9.62549V10.0005C11.5 10.2083 11.6672 10.3755 11.875 10.3755C12.0828 10.3755 12.25 10.2083 12.25 10.0005V9.87549H14.5V10.3864L13.5859 11.188C13.5312 11.2349 13.5 11.3036 13.5 11.3755V11.6255C13.5 11.763 13.6125 11.8755 13.75 11.8755H15.25V10.8755C15.25 10.738 15.3625 10.6255 15.5 10.6255C15.6375 10.6255 15.75 10.738 15.75 10.8755V11.8755H17.25C17.3875 11.8755 17.5 11.763 17.5 11.6255V11.3755C17.5 11.3036 17.4688 11.2349 17.4141 11.188L16.5 10.3864V9.87549H18.75V10.0005C18.75 10.2083 18.9172 10.3755 19.125 10.3755C19.3328 10.3755 19.5 10.2083 19.5 10.0005V9.62549V9.12549V8.25049C19.5 8.04268 19.3328 7.87549 19.125 7.87549C18.9172 7.87549 18.75 8.04268 18.75 8.25049V8.54424L16.5 7.23174V6.02862C16.5 5.89268 16.4719 5.75986 16.4187 5.63486L15.7297 4.02705Z" fill="#202831"/>
</svg>
