<svg width="32" height="35" viewBox="0 0 32 35" fill="none" xmlns="http://www.w3.org/2000/svg">
<path d="M11.3732 25.308L1.41127 13.8388C1.38471 13.8085 1.36372 13.7809 1.34807 13.7589C1.30503 13.7021 1.27379 13.6524 1.26825 13.6436C1.26801 13.6432 1.26782 13.6429 1.26768 13.6427C1.26757 13.6425 1.26749 13.6424 1.26744 13.6423L1.2544 13.6228C1.2423 13.6045 1.21436 13.5617 1.18562 13.5064L11.3732 25.308ZM11.3732 25.308L11.2173 25.386L11.2172 25.3861C10.359 25.8158 9.92013 26.9065 10.5398 27.8168L10.5399 27.8169C10.9116 28.3627 11.527 28.6072 12.0845 28.6072C12.1768 28.6072 12.2702 28.6006 12.3637 28.5872V29.1031V32.0208C12.3637 33.1054 13.3334 33.7328 14.1942 33.7328C14.7067 33.7328 15.258 33.5103 15.62 33.1013C15.9821 33.5103 16.5333 33.7328 17.0459 33.7328C17.9066 33.7328 18.8764 33.1054 18.8764 32.0208V29.1032V28.6051C18.9078 28.6066 18.9391 28.6074 18.9704 28.6074C19.5278 28.6074 20.1436 28.3627 20.5151 27.8169C21.1353 26.9061 20.6951 25.8157 19.8377 25.3863L19.8376 25.3862L19.8107 25.3728L29.8307 13.8368L29.8308 13.8367C30.1614 13.456 30.2902 12.9735 30.2183 12.5104C30.0519 5.94191 23.3445 1 15.6125 1C7.78661 1 1 6.06588 1 12.7555C1 12.7985 1.00272 12.8354 1.00566 12.8634C1.01116 12.934 1.0208 12.9917 1.02276 13.0031L1.02603 13.0264C1.02951 13.0502 1.03745 13.1019 1.05356 13.1637L1.05393 13.1651C1.06999 13.2264 1.08805 13.2754 1.09797 13.3014C1.10298 13.3146 1.10769 13.3264 1.1097 13.3315C1.11176 13.3366 1.11227 13.3379 1.11227 13.3379L1.11235 13.3381C1.11236 13.3381 1.11274 13.3392 1.11512 13.3455L1.11524 13.3459C1.11738 13.3516 1.12181 13.3634 1.12699 13.3767C1.13751 13.4035 1.15663 13.4505 1.18496 13.5052L11.3732 25.308ZM24.5628 14.4675L21.0767 18.481L22.2407 14.4675H24.5628ZM14.4865 20.3049L12.7935 14.4675H18.4469L16.7539 20.3049C16.3994 20.1707 16.0147 20.0991 15.6202 20.0991C15.2257 20.0991 14.841 20.1707 14.4865 20.3049ZM10.1637 18.4812L6.67739 14.4675H8.99963L10.1637 18.4812ZM1.26527 13.639L1.26709 13.6418L1.26528 13.639L1.26527 13.639Z" fill="#3BB9FF" stroke="#082E44" stroke-width="2" stroke-linejoin="round"/>
</svg>
