<svg width="15" height="19" viewBox="0 0 15 19" fill="none" xmlns="http://www.w3.org/2000/svg">
<path d="M7.5 2.75049C7.61719 2.75049 7.76367 2.77979 7.88086 2.83838L13.3887 5.18213C14.0332 5.4751 14.5312 6.09033 14.5312 6.85205C14.502 9.78174 13.3008 15.0845 8.26172 17.5161C7.76367 17.7505 7.20703 17.7505 6.70898 17.5161C1.66992 15.0845 0.46875 9.78174 0.46875 6.85205C0.439453 6.09033 0.9375 5.4751 1.58203 5.18213L7.08984 2.83838C7.20703 2.77979 7.35352 2.75049 7.5 2.75049ZM7.5 4.71338V15.7876C11.543 13.8247 12.627 9.51807 12.6562 6.91064L7.5 4.71338Z" fill="#202831"/>
</svg>
