<svg width="35" height="35" viewBox="0 0 35 35" fill="none" xmlns="http://www.w3.org/2000/svg">
<path d="M13.125 14C13.125 13.3164 13.6719 12.75 14.375 12.75H17.5C18.1836 12.75 18.75 13.3164 18.75 14V17.75H18.9062C19.8438 17.75 20.625 18.5312 20.625 19.4688V20.0938C20.625 20.3672 20.8203 20.5625 21.0938 20.5625C21.3477 20.5625 21.5625 20.3672 21.5625 20.0938V17.0859C21.0156 16.9492 20.625 16.4609 20.625 15.875V14.625L20 14C19.8242 13.8438 19.8242 13.5508 20 13.375C20.1562 13.2188 20.4492 13.2188 20.625 13.375L22.1289 14.8984C22.3633 15.1328 22.5 15.4453 22.5 15.7773V16.0312V16.5V17.125V20.0938C22.5 20.875 21.8555 21.5 21.0938 21.5C20.3125 21.5 19.6875 20.875 19.6875 20.0938V19.4688C19.6875 19.0391 19.3359 18.6875 18.9062 18.6875H18.75V21.5C19.082 21.5 19.375 21.793 19.375 22.125C19.375 22.4766 19.082 22.75 18.75 22.75H13.125C12.7734 22.75 12.5 22.4766 12.5 22.125C12.5 21.793 12.7734 21.5 13.125 21.5V14ZM14.375 14.3125V16.1875C14.375 16.3633 14.5117 16.5 14.6875 16.5H17.1875C17.3438 16.5 17.5 16.3633 17.5 16.1875V14.3125C17.5 14.1562 17.3438 14 17.1875 14H14.6875C14.5117 14 14.375 14.1562 14.375 14.3125Z" fill="white"/>
</svg>
