<svg width="35" height="35" viewBox="0 0 35 35" fill="none" xmlns="http://www.w3.org/2000/svg">
<path d="M6.06 17.2178C5.93975 17.2687 5.8623 17.3869 5.8623 17.5174C5.8623 17.6478 5.93975 17.766 6.06 17.817L8.15719 18.7157C8.32023 18.7851 8.49348 18.8217 8.6708 18.8217L10.2401 18.8217L11.9521 21.7566L11.569 21.7566C11.2979 21.7566 11.0798 21.9747 11.0798 22.2457C11.0798 22.5168 11.2979 22.7349 11.569 22.7349L12.7103 22.7349L13.3625 22.7349L13.8516 22.7349C14.1227 22.7349 14.3408 22.5168 14.3408 22.2457C14.3408 21.9747 14.1227 21.7566 13.8516 21.7566L13.6886 21.7566L13.6886 18.8217L14.355 18.8217L15.4006 20.014C15.4617 20.0853 15.5514 20.1261 15.6451 20.1261L15.9712 20.1261C16.1506 20.1261 16.2973 19.9794 16.2973 19.8L16.2973 17.8434L14.9929 17.8434C14.8136 17.8434 14.6669 17.6967 14.6669 17.5174C14.6669 17.338 14.8136 17.1913 14.9929 17.1913L16.2973 17.1913L16.2973 15.2347C16.2973 15.0553 16.1506 14.9086 15.9712 14.9086L15.6451 14.9086C15.5514 14.9086 15.4617 14.9493 15.4006 15.0206L14.355 16.213L13.6886 16.213L13.6886 13.2781L13.8516 13.2781C14.1227 13.2781 14.3408 13.06 14.3408 12.789C14.3408 12.5179 14.1227 12.2998 13.8516 12.2998L13.3625 12.2998L12.7103 12.2998L11.569 12.2998C11.2979 12.2998 11.0798 12.5179 11.0798 12.789C11.0798 13.06 11.2979 13.2781 11.569 13.2781L11.9521 13.2781L10.2401 16.213L8.6708 16.213C8.49348 16.213 8.32023 16.2497 8.15719 16.319L6.06 17.2178Z" fill="#202831"/>
<path d="M18.7021 17.313H29.1372" stroke="#202831" stroke-dasharray="2 2"/>
<path d="M22.2739 19.7632L22.1739 20.6616L23.0845 20.4077L23.1651 21.0229L22.335 21.0815L22.8794 21.8066L22.3252 22.1021L21.9444 21.3379L21.6099 22.0972L21.0337 21.8066L21.5733 21.0815L20.7481 21.0181L20.8433 20.4077L21.7344 20.6616L21.6343 19.7632H22.2739Z" fill="#202831"/>
<path d="M27.2739 21.4214L27.1739 22.3198L28.0845 22.0659L28.1651 22.6812L27.335 22.7397L27.8794 23.4648L27.3252 23.7603L26.9444 22.9961L26.6099 23.7554L26.0337 23.4648L26.5733 22.7397L25.7481 22.6763L25.8433 22.0659L26.7344 22.3198L26.6343 21.4214H27.2739Z" fill="#202831"/>
<path d="M27.2739 10.7632L27.1739 11.6616L28.0845 11.4077L28.1651 12.0229L27.335 12.0815L27.8794 12.8066L27.3252 13.1021L26.9444 12.3379L26.6099 13.0972L26.0337 12.8066L26.5733 12.0815L25.7481 12.0181L25.8433 11.4077L26.7344 11.6616L26.6343 10.7632H27.2739Z" fill="#202831"/>
<path d="M22.2739 12.4214L22.1739 13.3198L23.0845 13.0659L23.1651 13.6812L22.335 13.7397L22.8794 14.4648L22.3252 14.7603L21.9444 13.9961L21.6099 14.7554L21.0337 14.4648L21.5733 13.7397L20.7481 13.6763L20.8433 13.0659L21.7344 13.3198L21.6343 12.4214H22.2739Z" fill="#202831"/>
</svg>
