<svg width="18" height="17" viewBox="0 0 18 17" fill="none" xmlns="http://www.w3.org/2000/svg">
<path fill-rule="evenodd" clip-rule="evenodd" d="M9.48873 0.900581C10.6482 -0.282964 12.5476 -0.302474 13.7311 0.857004L15.5175 2.607C16.0935 3.17128 16.4181 3.94367 16.4181 4.75C16.4181 4.98835 16.3897 5.22373 16.3349 5.45165C16.7777 5.85549 17.1041 6.39558 17.2419 7.02558L17.3634 7.58115L17.3634 7.58116C18.1864 11.3434 15.254 14.75 11.5216 14.75H9.59627C9.45579 15.0566 9.26081 15.3446 9.01119 15.5994C7.85171 16.783 5.95232 16.8025 4.76878 15.643L2.98245 13.893C2.40646 13.3287 2.08187 12.5563 2.08187 11.75C2.08187 11.5117 2.11023 11.2763 2.16507 11.0484C1.72225 10.6445 1.3958 10.1044 1.258 9.47436L1.13648 8.91882C1.13648 8.91881 1.13648 8.9188 1.13648 8.9188C0.313576 5.15664 3.24591 1.75 6.97832 1.75H8.90365C9.04413 1.44337 9.23911 1.15538 9.48873 0.900581ZM8.90365 7.75H8.85271C8.88343 7.77715 8.91372 7.80505 8.94357 7.83367C8.92981 7.80595 8.9165 7.77805 8.90365 7.75ZM9.55635 8.66633C9.57011 8.69406 9.58342 8.72195 9.59627 8.75H9.64721C9.61649 8.72285 9.5862 8.69496 9.55635 8.66633Z" fill="#082E44"/>
<path fill-rule="evenodd" clip-rule="evenodd" d="M11.0958 2.47515C11.3856 2.17926 11.8605 2.17438 12.1564 2.46425L13.9427 4.21425C14.0867 4.35532 14.1678 4.54842 14.1678 4.75C14.1678 4.95158 14.0867 5.14468 13.9427 5.28575L12.1564 7.03575C11.8605 7.32562 11.3856 7.32074 11.0958 7.02486C10.8059 6.72897 10.8108 6.25412 11.1067 5.96425L11.5805 5.5H6.9781C5.54192 5.5 4.50895 6.78851 4.79965 8.11751L4.79965 8.11751L4.92117 8.67308C5.00967 9.07772 4.75339 9.4775 4.34875 9.56601C3.9441 9.65452 3.54432 9.39824 3.45581 8.99359L3.33429 8.43803C3.33429 8.43803 3.33429 8.43803 3.33429 8.43802C2.83071 6.13576 4.62343 4 6.9781 4H11.5805L11.1067 3.53575C10.8108 3.24588 10.8059 2.77103 11.0958 2.47515ZM14.1507 6.93399C14.5554 6.84548 14.9552 7.10175 15.0437 7.5064L15.1652 8.06196L14.4609 8.21604L15.1652 8.06196C15.6688 10.3642 13.8761 12.5 11.5214 12.5H6.91894L7.39283 12.9643C7.68872 13.2541 7.69359 13.729 7.40372 14.0249C7.11385 14.3207 6.63901 14.3256 6.34312 14.0357L4.5568 12.2857C4.4128 12.1447 4.33165 11.9516 4.33165 11.75C4.33165 11.5484 4.4128 11.3553 4.5568 11.2143L6.34312 9.46425C6.63901 9.17438 7.11385 9.17926 7.40372 9.47515C7.69359 9.77103 7.68872 10.2459 7.39283 10.5357L6.91894 11H11.5214C12.9576 11 13.9906 9.71149 13.6998 8.38251L13.5783 7.82694C13.4898 7.42229 13.7461 7.02251 14.1507 6.93399Z" fill="white"/>
</svg>
