<svg width="29" height="29" viewBox="0 0 29 29" fill="none" xmlns="http://www.w3.org/2000/svg">
<path d="M9.20834 4.78954C9.1445 4.63898 8.99647 4.54199 8.83314 4.54199C8.6698 4.54199 8.52179 4.63898 8.45798 4.78954L7.33252 7.41564C7.24574 7.61981 7.1998 7.83673 7.1998 8.05876V10.0238L3.5248 12.1676V11.6878C3.5248 11.3484 3.25173 11.0753 2.9123 11.0753C2.57288 11.0753 2.2998 11.3484 2.2998 11.6878V13.117V13.9337V14.5462C2.2998 14.8856 2.57288 15.1587 2.9123 15.1587C3.25173 15.1587 3.5248 14.8856 3.5248 14.5462V14.342H7.1998V15.1765L5.70684 16.4858C5.61752 16.5623 5.56647 16.6746 5.56647 16.792V17.2003C5.56647 17.4249 5.75022 17.6087 5.9748 17.6087H8.4248V15.9753C8.4248 15.7508 8.60855 15.567 8.83314 15.567C9.0577 15.567 9.24147 15.7508 9.24147 15.9753V17.6087H11.6915C11.916 17.6087 12.0998 17.4249 12.0998 17.2003V16.792C12.0998 16.6746 12.0488 16.5623 11.9594 16.4858L10.4665 15.1765V14.342H14.1415V14.5462C14.1415 14.8856 14.4146 15.1587 14.754 15.1587C15.0934 15.1587 15.3665 14.8856 15.3665 14.5462V13.9337V13.117V11.6878C15.3665 11.3484 15.0934 11.0753 14.754 11.0753C14.4146 11.0753 14.1415 11.3484 14.1415 11.6878V12.1676L10.4665 10.0238V8.05876C10.4665 7.83673 10.4206 7.61981 10.3338 7.41564L9.20834 4.78954Z" fill="#202831"/>
<path d="M19.8732 13.2084C19.8097 13.0816 19.6625 13 19.5 13C19.3375 13 19.1903 13.0816 19.1268 13.2084L18.0071 15.4191C17.9207 15.591 17.875 15.7736 17.875 15.9605V17.6148L14.2188 19.4195V19.0156C14.2188 18.7299 13.9471 18.5 13.6094 18.5C13.2717 18.5 13 18.7299 13 19.0156V20.2188V20.9062V21.4219C13 21.7076 13.2717 21.9375 13.6094 21.9375C13.9471 21.9375 14.2188 21.7076 14.2188 21.4219V21.25H17.875V21.9525L16.3896 23.0547C16.3008 23.1191 16.25 23.2137 16.25 23.3125V23.6562C16.25 23.8453 16.4328 24 16.6563 24H19.0938V22.625C19.0938 22.4359 19.2765 22.2812 19.5 22.2812C19.7235 22.2812 19.9063 22.4359 19.9063 22.625V24H22.3438C22.5672 24 22.75 23.8453 22.75 23.6562V23.3125C22.75 23.2137 22.6992 23.1191 22.6104 23.0547L21.125 21.9525V21.25H24.7812V21.4219C24.7812 21.7076 25.053 21.9375 25.3906 21.9375C25.7283 21.9375 26 21.7076 26 21.4219V20.9062V20.2188V19.0156C26 18.7299 25.7283 18.5 25.3906 18.5C25.053 18.5 24.7812 18.7299 24.7812 19.0156V19.4195L21.125 17.6148V15.9605C21.125 15.7736 21.0793 15.591 20.9929 15.4191L19.8732 13.2084Z" fill="#202831"/>
</svg>
