<svg width="19" height="15" viewBox="0 0 19 15" fill="none" xmlns="http://www.w3.org/2000/svg">
<path d="M9.8125 4.99219L5.5 8.55469V12.375C5.5 12.5859 5.66406 12.75 5.875 12.75H8.5C8.6875 12.75 8.85156 12.5859 8.85156 12.375V10.125C8.85156 9.9375 9.03906 9.75 9.22656 9.75H10.7266C10.9375 9.75 11.1016 9.9375 11.1016 10.125V12.375C11.1016 12.5859 11.2891 12.75 11.4766 12.75H14.125C14.3125 12.75 14.5 12.5859 14.5 12.375V8.53125L10.1641 4.99219C10.1172 4.94531 10.0469 4.92188 10 4.92188C9.92969 4.92188 9.85938 4.94531 9.8125 4.99219ZM16.6328 7.40625L14.6875 5.78906V2.55469C14.6875 2.39062 14.5469 2.27344 14.4062 2.27344H13.0938C12.9297 2.27344 12.8125 2.39062 12.8125 2.55469V4.24219L10.7031 2.50781C10.5156 2.36719 10.2578 2.27344 10 2.27344C9.71875 2.27344 9.46094 2.36719 9.27344 2.50781L3.34375 7.40625C3.27344 7.45312 3.22656 7.54688 3.22656 7.61719C3.22656 7.6875 3.27344 7.75781 3.29688 7.80469L3.90625 8.53125C3.95312 8.60156 4.02344 8.625 4.11719 8.625C4.1875 8.625 4.25781 8.60156 4.30469 8.55469L9.8125 4.03125C9.85938 3.98438 9.92969 3.96094 10 3.96094C10.0469 3.96094 10.1172 3.98438 10.1641 4.03125L15.6719 8.55469C15.7188 8.60156 15.7891 8.625 15.8594 8.625C15.9531 8.625 16.0234 8.60156 16.0703 8.53125L16.6797 7.80469C16.7266 7.75781 16.75 7.6875 16.75 7.61719C16.75 7.54688 16.7031 7.45312 16.6328 7.40625Z" fill="white"/>
<path fill-rule="evenodd" clip-rule="evenodd" d="M14.5 8.53125V12.375C14.5 12.5859 14.3125 12.75 14.125 12.75H11.4766C11.2891 12.75 11.1016 12.5859 11.1016 12.375V10.125C11.1016 9.9375 10.9375 9.75 10.7266 9.75H9.22656C9.03906 9.75 8.85156 9.9375 8.85156 10.125V12.375C8.85156 12.5859 8.6875 12.75 8.5 12.75H5.875C5.66406 12.75 5.5 12.5859 5.5 12.375V8.55469L9.8125 4.99219C9.85938 4.94531 9.92969 4.92188 10 4.92188C10.0469 4.92188 10.1172 4.94531 10.1641 4.99219L14.5 8.53125ZM15.6719 8.55469C15.673 8.55582 15.6741 8.55693 15.6753 8.55803C15.7136 8.5945 15.7664 8.61608 15.8218 8.62275C15.8342 8.62425 15.8468 8.625 15.8594 8.625C15.9531 8.625 16.0234 8.60156 16.0703 8.53125L16.6797 7.80469C16.7266 7.75781 16.75 7.6875 16.75 7.61719C16.75 7.58321 16.7391 7.54375 16.7198 7.50676C16.6992 7.46721 16.6691 7.43047 16.6328 7.40625L14.6875 5.78906V2.55469C14.6875 2.39062 14.5469 2.27344 14.4062 2.27344H13.0938C12.9297 2.27344 12.8125 2.39062 12.8125 2.55469V4.24219L10.7031 2.50781C10.6607 2.47601 10.6147 2.44661 10.5659 2.42014C10.399 2.32958 10.1995 2.27344 10 2.27344C9.71875 2.27344 9.46094 2.36719 9.27344 2.50781L3.34375 7.40625C3.31845 7.42312 3.29618 7.44605 3.27804 7.47178C3.27013 7.483 3.26301 7.49475 3.25676 7.50676C3.25438 7.51134 3.25212 7.51595 3.25 7.52059C3.23497 7.55343 3.22656 7.58741 3.22656 7.61719C3.22656 7.64997 3.23675 7.68274 3.25 7.71315C3.25988 7.73582 3.27147 7.75718 3.2818 7.77623C3.28734 7.78642 3.29251 7.79596 3.29688 7.80469L3.90625 8.53125C3.9119 8.53973 3.9179 8.54753 3.92423 8.55469C3.97043 8.60688 4.03475 8.625 4.11719 8.625C4.12975 8.625 4.14232 8.62425 4.15475 8.62275C4.20858 8.61627 4.2599 8.59576 4.29785 8.56121C4.30018 8.55909 4.30246 8.55692 4.30469 8.55469L9.8125 4.03125C9.85938 3.98438 9.92969 3.96094 10 3.96094C10.0469 3.96094 10.1172 3.98438 10.1641 4.03125L15.6719 8.55469ZM3.25 10.7274C2.87411 10.5959 2.46972 10.355 2.13819 9.92451L1.40281 9.04772L1.29673 8.83555C1.29616 8.83449 1.29556 8.83338 1.29494 8.83223C1.28063 8.80565 1.24385 8.73712 1.20461 8.65078C1.13819 8.50467 0.976562 8.12434 0.976562 7.61719C0.976562 7.12558 1.1254 6.71911 1.27773 6.4362C1.41591 6.17958 1.63146 5.88605 1.95204 5.63749L7.88118 0.739506L7.92344 0.707813C8.5004 0.275088 9.23192 0.0234375 10 0.0234375C10.6011 0.0234375 11.1776 0.186404 11.6675 0.458244C12.0727 0.183444 12.5631 0.0234375 13.0938 0.0234375H14.4062C15.6666 0.0234375 16.9375 1.02855 16.9375 2.55469V4.73359L18.0288 5.64079C18.347 5.88864 18.5613 6.18072 18.6988 6.4362C18.8512 6.71911 19 7.12558 19 7.61719C19 8.10158 18.8551 8.74439 18.3724 9.28773L17.8384 9.92451C17.5137 10.3461 17.1192 10.5858 16.75 10.719V12.375C16.75 13.9179 15.4639 15 14.125 15H11.4766C10.9469 15 10.4254 14.8306 9.98865 14.5304C9.57667 14.823 9.06944 15 8.5 15H5.875C4.42142 15 3.25 13.8286 3.25 12.375V10.7274Z" fill="#082E44"/>
</svg>
