<svg width="16" height="19" viewBox="0 0 16 19" fill="none" xmlns="http://www.w3.org/2000/svg">
<path d="M12.1875 8.84424C12.1875 10.1919 11.748 11.4517 11.0156 12.4478L14.707 16.1685C15.0879 16.52 15.0879 17.1353 14.707 17.4868C14.3555 17.8677 13.7402 17.8677 13.3887 17.4868L9.66797 13.7661C8.67188 14.5278 7.41211 14.938 6.09375 14.938C2.72461 14.938 0 12.2134 0 8.84424C0 5.50439 2.72461 2.75049 6.09375 2.75049C9.43359 2.75049 12.1875 5.50439 12.1875 8.84424ZM6.09375 13.063C8.4082 13.063 10.3125 11.188 10.3125 8.84424C10.3125 6.52979 8.4082 4.62549 6.09375 4.62549C3.75 4.62549 1.875 6.52979 1.875 8.84424C1.875 11.188 3.75 13.063 6.09375 13.063Z" fill="#5CA7FF"/>
</svg>
