<svg width="35" height="35" viewBox="0 0 35 35" fill="none" xmlns="http://www.w3.org/2000/svg">
<path d="M17.5 10.375C17.6172 10.375 17.7637 10.4043 17.8809 10.4629L23.3887 12.8066C24.0332 13.0996 24.5312 13.7148 24.5312 14.4766C24.502 17.4062 23.3008 22.709 18.2617 25.1406C17.7637 25.375 17.207 25.375 16.709 25.1406C11.6699 22.709 10.4688 17.4062 10.4688 14.4766C10.4395 13.7148 10.9375 13.0996 11.582 12.8066L17.0898 10.4629C17.207 10.4043 17.3535 10.375 17.5 10.375ZM17.5 12.3379V23.4121C21.543 21.4492 22.627 17.1426 22.6562 14.5352L17.5 12.3379Z" fill="#202831"/>
</svg>
