<svg width="35" height="35" viewBox="0 0 35 35" fill="none" xmlns="http://www.w3.org/2000/svg">
<path d="M26.7297 13.6516C26.6906 13.5594 26.6 13.5 26.5 13.5C26.4 13.5 26.3094 13.5594 26.2703 13.6516L25.5812 15.2594C25.5281 15.3844 25.5 15.5172 25.5 15.6531V16.8563L23.25 18.1687V17.875C23.25 17.6672 23.0828 17.5 22.875 17.5C22.6672 17.5 22.5 17.6672 22.5 17.875V18.75V19.25V19.625C22.5 19.8328 22.6672 20 22.875 20C23.0828 20 23.25 19.8328 23.25 19.625V19.5H25.5V20.0109L24.5859 20.8125C24.5312 20.8594 24.5 20.9281 24.5 21V21.25C24.5 21.3875 24.6125 21.5 24.75 21.5H26.25V20.5C26.25 20.3625 26.3625 20.25 26.5 20.25C26.6375 20.25 26.75 20.3625 26.75 20.5V21.5H28.25C28.3875 21.5 28.5 21.3875 28.5 21.25V21C28.5 20.9281 28.4688 20.8594 28.4141 20.8125L27.5 20.0109V19.5H29.75V19.625C29.75 19.8328 29.9172 20 30.125 20C30.3328 20 30.5 19.8328 30.5 19.625V19.25V18.75V17.875C30.5 17.6672 30.3328 17.5 30.125 17.5C29.9172 17.5 29.75 17.6672 29.75 17.875V18.1687L27.5 16.8563V15.6531C27.5 15.5172 27.4719 15.3844 27.4187 15.2594L26.7297 13.6516Z" fill="#202831"/>
<path d="M9.72969 13.6516C9.69063 13.5594 9.6 13.5 9.5 13.5C9.4 13.5 9.30938 13.5594 9.27031 13.6516L8.58125 15.2594C8.52812 15.3844 8.5 15.5172 8.5 15.6531V16.8563L6.25 18.1687V17.875C6.25 17.6672 6.08281 17.5 5.875 17.5C5.66719 17.5 5.5 17.6672 5.5 17.875V18.75V19.25V19.625C5.5 19.8328 5.66719 20 5.875 20C6.08281 20 6.25 19.8328 6.25 19.625V19.5H8.5V20.0109L7.58594 20.8125C7.53125 20.8594 7.5 20.9281 7.5 21V21.25C7.5 21.3875 7.6125 21.5 7.75 21.5H9.25V20.5C9.25 20.3625 9.3625 20.25 9.5 20.25C9.6375 20.25 9.75 20.3625 9.75 20.5V21.5H11.25C11.3875 21.5 11.5 21.3875 11.5 21.25V21C11.5 20.9281 11.4687 20.8594 11.4141 20.8125L10.5 20.0109V19.5H12.75V19.625C12.75 19.8328 12.9172 20 13.125 20C13.3328 20 13.5 19.8328 13.5 19.625V19.25V18.75V17.875C13.5 17.6672 13.3328 17.5 13.125 17.5C12.9172 17.5 12.75 17.6672 12.75 17.875V18.1687L10.5 16.8563V15.6531C10.5 15.5172 10.4719 15.3844 10.4187 15.2594L9.72969 13.6516Z" fill="#202831"/>
<path d="M16 19H20" stroke="#202831" stroke-linecap="round" stroke-dasharray="2 2"/>
</svg>
