<svg width="15" height="19" viewBox="0 0 15 19" fill="none" xmlns="http://www.w3.org/2000/svg">
<path d="M7.5 2.75049C7.99805 2.75049 8.4375 3.18994 8.4375 3.68799V4.01025C11.1621 4.42041 13.3301 6.58838 13.7402 9.31299H14.0625C14.5605 9.31299 15 9.75244 15 10.2505C15 10.7778 14.5605 11.188 14.0625 11.188H13.7402C13.3301 13.9419 11.1621 16.1099 8.4375 16.52V16.813C8.4375 17.3403 7.99805 17.7505 7.5 17.7505C6.97266 17.7505 6.5625 17.3403 6.5625 16.813V16.52C3.80859 16.1099 1.64062 13.9419 1.23047 11.188H0.9375C0.410156 11.188 0 10.7778 0 10.2505C0 9.75244 0.410156 9.31299 0.9375 9.31299H1.23047C1.64062 6.58838 3.80859 4.42041 6.5625 4.01025V3.68799C6.5625 3.18994 6.97266 2.75049 7.5 2.75049ZM3.13477 11.188C3.48633 12.9165 4.83398 14.2642 6.5625 14.6157V14.0005C6.5625 13.5024 6.97266 13.063 7.5 13.063C7.99805 13.063 8.4375 13.5024 8.4375 14.0005V14.6157C10.1367 14.2642 11.4844 12.9165 11.8359 11.188H11.25C10.7227 11.188 10.3125 10.7778 10.3125 10.2505C10.3125 9.75244 10.7227 9.31299 11.25 9.31299H11.8359C11.4844 7.61377 10.1367 6.26611 8.4375 5.91455V6.50049C8.4375 7.02783 7.99805 7.43799 7.5 7.43799C6.97266 7.43799 6.5625 7.02783 6.5625 6.50049V5.91455C4.83398 6.26611 3.48633 7.61377 3.13477 9.31299H3.75C4.24805 9.31299 4.6875 9.75244 4.6875 10.2505C4.6875 10.7778 4.24805 11.188 3.75 11.188H3.13477ZM7.5 11.188C6.97266 11.188 6.5625 10.7778 6.5625 10.2505C6.5625 9.75244 6.97266 9.31299 7.5 9.31299C7.99805 9.31299 8.4375 9.75244 8.4375 10.2505C8.4375 10.7778 7.99805 11.188 7.5 11.188Z" fill="#5CA7FF"/>
</svg>
