<svg width="15" height="19" viewBox="0 0 15 19" fill="none" xmlns="http://www.w3.org/2000/svg">
<path d="M11.7188 6.50049C11.7188 7.81885 10.957 8.96143 9.84375 9.63525V10.2505C9.84375 10.7778 9.4043 11.188 8.90625 11.188H6.09375C5.56641 11.188 5.15625 10.7778 5.15625 10.2505V9.63525C4.01367 8.96143 3.28125 7.81885 3.28125 6.50049C3.28125 4.44971 5.15625 2.75049 7.5 2.75049C9.81445 2.75049 11.7188 4.44971 11.7188 6.50049ZM5.85938 7.90674C6.35742 7.90674 6.79688 7.49658 6.79688 6.96924C6.79688 6.47119 6.35742 6.03174 5.85938 6.03174C5.33203 6.03174 4.92188 6.47119 4.92188 6.96924C4.92188 7.49658 5.33203 7.90674 5.85938 7.90674ZM10.0781 6.96924C10.0781 6.47119 9.63867 6.03174 9.14062 6.03174C8.61328 6.03174 8.20312 6.47119 8.20312 6.96924C8.20312 7.49658 8.61328 7.90674 9.14062 7.90674C9.63867 7.90674 10.0781 7.49658 10.0781 6.96924ZM1.02539 10.7778C1.25977 10.3091 1.81641 10.1333 2.28516 10.3677L7.5 12.9751L12.6855 10.3677C13.1543 10.1333 13.7109 10.3091 13.9453 10.7778C14.1797 11.2466 14.0039 11.8032 13.5352 12.0376L9.58008 14.0005L13.5352 15.9927C14.0039 16.2271 14.1797 16.7837 13.9453 17.2524C13.7109 17.7212 13.1543 17.897 12.6855 17.6626L7.5 15.0552L2.28516 17.6626C1.81641 17.897 1.25977 17.7212 1.02539 17.2524C0.791016 16.7837 0.966797 16.2271 1.43555 15.9927L5.39062 14.0005L1.43555 12.0376C0.966797 11.8032 0.791016 11.2466 1.02539 10.7778Z" fill="#5CA7FF"/>
</svg>
