<svg width="17" height="19" viewBox="0 0 17 19" fill="none" xmlns="http://www.w3.org/2000/svg">
<path d="M16.8457 10.2505C16.8457 10.7778 16.4062 11.188 15.9082 11.188H14.9707L15 15.8755C15 15.9634 15 16.0513 15 16.1099V16.5786C15 17.2524 14.4727 17.7505 13.8281 17.7505H13.3594C13.3008 17.7505 13.2715 17.7505 13.2422 17.7505C13.2129 17.7505 13.1543 17.7505 13.125 17.7505H12.1875H11.4844C10.8105 17.7505 10.3125 17.2524 10.3125 16.5786V15.8755V14.0005C10.3125 13.5024 9.87305 13.063 9.375 13.063H7.5C6.97266 13.063 6.5625 13.5024 6.5625 14.0005V15.8755V16.5786C6.5625 17.2524 6.03516 17.7505 5.39062 17.7505H4.6875H3.75C3.69141 17.7505 3.66211 17.7505 3.60352 17.7505C3.57422 17.7505 3.54492 17.7505 3.51562 17.7505H3.04688C2.37305 17.7505 1.875 17.2524 1.875 16.5786V13.2974C1.875 13.2974 1.875 13.2681 1.875 13.2388V11.188H0.9375C0.410156 11.188 0 10.7778 0 10.2505C0 9.98682 0.0878906 9.75244 0.292969 9.54736L7.79297 2.98486C7.99805 2.77979 8.23242 2.75049 8.4375 2.75049C8.64258 2.75049 8.87695 2.80908 9.05273 2.95557L16.5234 9.54736C16.7578 9.75244 16.875 9.98682 16.8457 10.2505Z" fill="#5CA7FF"/>
</svg>
