<svg width="16" height="19" viewBox="0 0 16 19" fill="none" xmlns="http://www.w3.org/2000/svg">
<path d="M9.4375 3.68799C9.4375 3.18994 8.99805 2.75049 8.5 2.75049C7.97266 2.75049 7.5625 3.18994 7.5625 3.68799V9.78174C7.5625 10.0454 7.32812 10.2505 7.09375 10.2505C6.83008 10.2505 6.625 10.0454 6.625 9.78174V4.62549C6.625 4.12744 6.18555 3.68799 5.6875 3.68799C5.16016 3.68799 4.75 4.12744 4.75 4.62549V12.5942C4.75 12.6528 4.75 12.7114 4.75 12.7407L2.96289 11.0415C2.49414 10.6021 1.76172 10.6313 1.32227 11.1001C0.853516 11.5688 0.882812 12.3013 1.35156 12.7407L4.63281 15.8755C5.89258 17.106 7.5918 17.7505 9.32031 17.7505H9.90625C12.748 17.7505 15.0625 15.4653 15.0625 12.5942V6.50049C15.0625 6.00244 14.623 5.56299 14.125 5.56299C13.5977 5.56299 13.1875 6.00244 13.1875 6.50049V9.78174C13.1875 10.0454 12.9531 10.2505 12.7188 10.2505C12.4551 10.2505 12.25 10.0454 12.25 9.78174V4.62549C12.25 4.12744 11.8105 3.68799 11.3125 3.68799C10.7852 3.68799 10.375 4.12744 10.375 4.62549V9.78174C10.375 10.0454 10.1406 10.2505 9.90625 10.2505C9.64258 10.2505 9.4375 10.0454 9.4375 9.78174V3.68799Z" fill="#202831"/>
</svg>
