<svg width="35" height="35" viewBox="0 0 35 35" fill="none" xmlns="http://www.w3.org/2000/svg">
<path d="M12.25 13.5C12.25 12.6797 12.9062 12 13.75 12H17.5C18.3203 12 19 12.6797 19 13.5V18H19.1875C20.3125 18 21.25 18.9375 21.25 20.0625V20.8125C21.25 21.1406 21.4844 21.375 21.8125 21.375C22.1172 21.375 22.375 21.1406 22.375 20.8125V17.2031C21.7188 17.0391 21.25 16.4531 21.25 15.75V14.25L20.5 13.5C20.2891 13.3125 20.2891 12.9609 20.5 12.75C20.6875 12.5625 21.0391 12.5625 21.25 12.75L23.0547 14.5781C23.3359 14.8594 23.5 15.2344 23.5 15.6328V15.9375V16.5V17.25V20.8125C23.5 21.75 22.7266 22.5 21.8125 22.5C20.875 22.5 20.125 21.75 20.125 20.8125V20.0625C20.125 19.5469 19.7031 19.125 19.1875 19.125H19V22.5C19.3984 22.5 19.75 22.8516 19.75 23.25C19.75 23.6719 19.3984 24 19 24H12.25C11.8281 24 11.5 23.6719 11.5 23.25C11.5 22.8516 11.8281 22.5 12.25 22.5V13.5ZM13.75 13.875V16.125C13.75 16.3359 13.9141 16.5 14.125 16.5H17.125C17.3125 16.5 17.5 16.3359 17.5 16.125V13.875C17.5 13.6875 17.3125 13.5 17.125 13.5H14.125C13.9141 13.5 13.75 13.6875 13.75 13.875Z" fill="#202831"/>
</svg>
