<svg width="31" height="31" viewBox="0 0 31 31" fill="none" xmlns="http://www.w3.org/2000/svg">
<path d="M24.7297 12.0271C24.6906 11.9349 24.6 11.8755 24.5 11.8755C24.4 11.8755 24.3094 11.9349 24.2703 12.0271L23.5812 13.6349C23.5281 13.7599 23.5 13.8927 23.5 14.0286V15.2318L21.25 16.5442V16.2505C21.25 16.0427 21.0828 15.8755 20.875 15.8755C20.6672 15.8755 20.5 16.0427 20.5 16.2505V17.1255V17.6255V18.0005C20.5 18.2083 20.6672 18.3755 20.875 18.3755C21.0828 18.3755 21.25 18.2083 21.25 18.0005V17.8755H23.5V18.3864L22.5859 19.188C22.5312 19.2349 22.5 19.3036 22.5 19.3755V19.6255C22.5 19.763 22.6125 19.8755 22.75 19.8755H24.25V18.8755C24.25 18.738 24.3625 18.6255 24.5 18.6255C24.6375 18.6255 24.75 18.738 24.75 18.8755V19.8755H26.25C26.3875 19.8755 26.5 19.763 26.5 19.6255V19.3755C26.5 19.3036 26.4688 19.2349 26.4141 19.188L25.5 18.3864V17.8755H27.75V18.0005C27.75 18.2083 27.9172 18.3755 28.125 18.3755C28.3328 18.3755 28.5 18.2083 28.5 18.0005V17.6255V17.1255V16.2505C28.5 16.0427 28.3328 15.8755 28.125 15.8755C27.9172 15.8755 27.75 16.0427 27.75 16.2505V16.5442L25.5 15.2318V14.0286C25.5 13.8927 25.4719 13.7599 25.4187 13.6349L24.7297 12.0271Z" fill="#202831"/>
<path d="M7.72969 12.0271C7.69063 11.9349 7.6 11.8755 7.5 11.8755C7.4 11.8755 7.30938 11.9349 7.27031 12.0271L6.58125 13.6349C6.52812 13.7599 6.5 13.8927 6.5 14.0286V15.2318L4.25 16.5442V16.2505C4.25 16.0427 4.08281 15.8755 3.875 15.8755C3.66719 15.8755 3.5 16.0427 3.5 16.2505V17.1255V17.6255V18.0005C3.5 18.2083 3.66719 18.3755 3.875 18.3755C4.08281 18.3755 4.25 18.2083 4.25 18.0005V17.8755H6.5V18.3864L5.58594 19.188C5.53125 19.2349 5.5 19.3036 5.5 19.3755V19.6255C5.5 19.763 5.6125 19.8755 5.75 19.8755H7.25V18.8755C7.25 18.738 7.3625 18.6255 7.5 18.6255C7.6375 18.6255 7.75 18.738 7.75 18.8755V19.8755H9.25C9.3875 19.8755 9.5 19.763 9.5 19.6255V19.3755C9.5 19.3036 9.46875 19.2349 9.41406 19.188L8.5 18.3864V17.8755H10.75V18.0005C10.75 18.2083 10.9172 18.3755 11.125 18.3755C11.3328 18.3755 11.5 18.2083 11.5 18.0005V17.6255V17.1255V16.2505C11.5 16.0427 11.3328 15.8755 11.125 15.8755C10.9172 15.8755 10.75 16.0427 10.75 16.2505V16.5442L8.5 15.2318V14.0286C8.5 13.8927 8.47187 13.7599 8.41875 13.6349L7.72969 12.0271Z" fill="#202831"/>
<path d="M14 17.3755H18" stroke="#202831" stroke-linecap="round" stroke-dasharray="2 2"/>
</svg>
