<svg width="35" height="35" viewBox="0 0 35 35" fill="none" xmlns="http://www.w3.org/2000/svg">
<path d="M19.4199 20.4688C20.1055 20.3672 20.7402 19.9609 21.1211 19.377L25.2344 13.0293C25.5391 12.5215 25.4629 11.8613 25.0312 11.4551C24.5996 11.0488 23.9395 11.0234 23.4824 11.3789L17.4648 15.8984C16.8555 16.3555 16.5 17.0664 16.5 17.8281L19.4199 20.4688ZM18.9121 21.1035L15.9668 18.4629C14.4434 18.5137 13.25 19.7578 13.25 21.2812C13.25 21.3828 13.25 21.4844 13.25 21.5859C13.3008 22.043 12.9961 22.5 12.5391 22.5H12.4375C11.9805 22.5 11.625 22.8809 11.625 23.3125C11.625 23.7695 11.9805 24.125 12.4375 24.125H16.0938C17.6426 24.125 18.9375 22.8555 18.9375 21.2812C18.9375 21.2305 18.9121 21.1543 18.9121 21.1035Z" fill="#5CA7FF"/>
</svg>
