<svg width="35" height="35" viewBox="0 0 35 35" fill="none" xmlns="http://www.w3.org/2000/svg">
<path d="M5.75589 22.6552C5.71059 22.7671 5.73725 22.895 5.82251 22.9802C5.90777 23.0655 6.03565 23.0921 6.14756 23.0468L8.10587 22.2635C8.25775 22.2022 8.39497 22.113 8.51087 21.9971L9.53665 20.9713L12.574 21.7706L12.3236 22.021C12.1464 22.1982 12.1464 22.4833 12.3236 22.6605C12.5008 22.8377 12.7859 22.8377 12.963 22.6605L13.7091 21.9145L14.1354 21.4882L14.4551 21.1684C14.6323 20.9913 14.6323 20.7062 14.4551 20.529C14.2779 20.3518 13.9928 20.3518 13.8156 20.529L13.7091 20.6356L11.7907 18.7172L12.2263 18.2816L13.6891 18.3775C13.7757 18.3841 13.8609 18.3522 13.9222 18.2909L14.1354 18.0778C14.2526 17.9605 14.2526 17.7687 14.1354 17.6515L12.8565 16.3726L12.0039 17.2252C11.8866 17.3424 11.6948 17.3424 11.5776 17.2252C11.4603 17.1079 11.4603 16.9161 11.5776 16.7989L12.4302 15.9463L11.1513 14.6674C11.034 14.5501 10.8422 14.5501 10.725 14.6674L10.5118 14.8805C10.4505 14.9418 10.4185 15.027 10.4252 15.1136L10.5211 16.5764L10.0855 17.012L8.16716 15.0937L8.27373 14.9871C8.4509 14.8099 8.4509 14.5248 8.27373 14.3476C8.09656 14.1705 7.81145 14.1705 7.63428 14.3476L7.31456 14.6674L6.88826 15.0937L6.14223 15.8397C5.96506 16.0169 5.96506 16.302 6.14223 16.4791C6.3194 16.6563 6.60451 16.6563 6.78168 16.4791L7.03209 16.2287L7.83145 19.2661L6.80567 20.2919C6.68976 20.4078 6.6005 20.545 6.53922 20.6969L5.75589 22.6552Z" fill="#5CA7FF"/>
<path d="M14.8257 13.4509C17.3895 11.1202 23.2162 7.01815 26.013 9.25562C29.5091 12.0525 30.2083 18.3452 23.2162 26.0365" stroke="#5CA7FF" stroke-linecap="round" stroke-dasharray="2 2"/>
<path d="M20.5171 20.9448L20.417 21.8433L21.3276 21.5894L21.4082 22.2046L20.5781 22.2632L21.1225 22.9883L20.5683 23.2837L20.1875 22.5195L19.853 23.2788L19.2768 22.9883L19.8164 22.2632L18.9912 22.1997L19.0864 21.5894L19.9775 21.8433L19.8774 20.9448H20.5171Z" fill="#5CA7FF"/>
<path d="M19.1186 15.3511L19.0185 16.2495L19.9292 15.9956L20.0097 16.6108L19.1797 16.6694L19.7241 17.3945L19.1699 17.6899L18.789 16.9258L18.4546 17.6851L17.8784 17.3945L18.4179 16.6694L17.5927 16.606L17.688 15.9956L18.5791 16.2495L18.479 15.3511H19.1186Z" fill="#5CA7FF"/>
<path d="M24.7119 15.3511L24.6118 16.2495L25.5224 15.9956L25.603 16.6108L24.7729 16.6694L25.3174 17.3945L24.7632 17.6899L24.3823 16.9258L24.0478 17.6851L23.4717 17.3945L24.0112 16.6694L23.186 16.606L23.2812 15.9956L24.1723 16.2495L24.0722 15.3511H24.7119Z" fill="#5CA7FF"/>
</svg>
