<svg width="50" height="50" viewBox="0 0 50 50" fill="none" xmlns="http://www.w3.org/2000/svg">
<path d="M45.5 36L25.0024 36L4.5048 36C4.41436 31.8747 5.58559 25.4289 9.58105 20.5787C12.6882 16.8068 17.5033 14 24.7613 14C32.1369 14 37.0534 16.8986 40.2395 20.7629C44.2204 25.5911 45.5 31.9268 45.5 36Z" fill="#3BB9FF"/>
<path d="M25.0024 36L45.5 36C45.5 31.9268 44.2204 25.5911 40.2395 20.7629M25.0024 36L4.5048 36C4.41436 31.8747 5.58559 25.4289 9.58105 20.5787M25.0024 36L9.58105 20.5787M25.0024 36L40.2395 20.7629M9.58105 20.5787C12.6882 16.8068 17.5033 14 24.7613 14C32.1369 14 37.0534 16.8986 40.2395 20.7629" stroke="#082E44" stroke-width="2"/>
</svg>
