<svg width="50" height="50" viewBox="0 0 50 50" fill="none" xmlns="http://www.w3.org/2000/svg">
<path d="M8.2002 9.6002C8.2002 8.827 8.827 8.2002 9.6002 8.2002H40.4002C41.1734 8.2002 41.8002 8.827 41.8002 9.6002V40.4002C41.8002 41.1734 41.1734 41.8002 40.4002 41.8002H9.6002C8.827 41.8002 8.2002 41.1734 8.2002 40.4002V9.6002Z" fill="#CFD9E8"/>
<path fill-rule="evenodd" clip-rule="evenodd" d="M11.0002 11.0002V39.0002H39.0002V11.0002H11.0002ZM9.6002 8.2002C8.827 8.2002 8.2002 8.827 8.2002 9.6002V40.4002C8.2002 41.1734 8.827 41.8002 9.6002 41.8002H40.4002C41.1734 41.8002 41.8002 41.1734 41.8002 40.4002V9.6002C41.8002 8.827 41.1734 8.2002 40.4002 8.2002H9.6002Z" fill="#2F2F2F"/>
</svg>
