<svg width="50" height="50" viewBox="0 0 50 50" fill="none" xmlns="http://www.w3.org/2000/svg">
<path d="M6.32755 18.2328L6.32753 18.2328C5.8934 18.8371 5.93517 19.6562 6.4176 20.2133L6.41763 20.2133L23.8957 40.3947C24.5337 41.1314 25.6766 41.1314 26.3146 40.3947L43.5823 20.4562L43.5824 20.4562C44.065 19.8989 44.1066 19.0796 43.6722 18.4752C39.7848 13.0674 33.7515 9 24.8299 9C16.0514 9 10.1304 12.9391 6.32755 18.2328Z" fill="white" stroke="white" stroke-width="3"/>
<path d="M24.8299 10.5C16.5441 10.5 11.0471 14.1999 7.5 19.1719L25.1052 39.5L42.5 19.4147C38.8627 14.3209 33.25 10.5 24.8299 10.5Z" fill="white" stroke="#2F2F2F" stroke-width="2"/>
<path d="M16.5 30.5C16.5 30.5 19.2321 25.4999 25 25.5C30.7679 25.5001 33.5 30.5 33.5 30.5" stroke="#2F2F2F" stroke-width="2"/>
</svg>
