<svg width="15" height="19" viewBox="0 0 15 19" fill="none" xmlns="http://www.w3.org/2000/svg">
<path d="M11.582 7.17432C11.9629 6.82275 11.9629 6.20752 11.582 5.85596C11.2305 5.4751 10.6152 5.4751 10.2637 5.85596L7.1875 8.93213L4.08203 5.85596C3.73047 5.4751 3.11523 5.4751 2.76367 5.85596C2.38281 6.20752 2.38281 6.82275 2.76367 7.17432L5.83984 10.2505L2.76367 13.356C2.38281 13.7075 2.38281 14.3228 2.76367 14.6743C3.11523 15.0552 3.73047 15.0552 4.08203 14.6743L7.1875 11.5981L10.2637 14.6743C10.6152 15.0552 11.2305 15.0552 11.582 14.6743C11.9629 14.3228 11.9629 13.7075 11.582 13.356L8.50586 10.2505L11.582 7.17432Z" fill="#202831"/>
</svg>
