<svg width="35" height="35" viewBox="0 0 35 35" fill="none" xmlns="http://www.w3.org/2000/svg">
<path d="M24.5996 17.625C24.5996 18.082 24.2188 18.4375 23.7871 18.4375H22.9746L23 22.5C23 22.5762 23 22.6523 23 22.7031V23.1094C23 23.6934 22.543 24.125 21.9844 24.125H21.5781C21.5273 24.125 21.502 24.125 21.4766 24.125C21.4512 24.125 21.4004 24.125 21.375 24.125H20.5625H19.9531C19.3691 24.125 18.9375 23.6934 18.9375 23.1094V22.5V20.875C18.9375 20.4434 18.5566 20.0625 18.125 20.0625H16.5C16.043 20.0625 15.6875 20.4434 15.6875 20.875V22.5V23.1094C15.6875 23.6934 15.2305 24.125 14.6719 24.125H14.0625H13.25C13.1992 24.125 13.1738 24.125 13.123 24.125C13.0977 24.125 13.0723 24.125 13.0469 24.125H12.6406C12.0566 24.125 11.625 23.6934 11.625 23.1094V20.2656C11.625 20.2656 11.625 20.2402 11.625 20.2148V18.4375H10.8125C10.3555 18.4375 10 18.082 10 17.625C10 17.3965 10.0762 17.1934 10.2539 17.0156L16.7539 11.3281C16.9316 11.1504 17.1348 11.125 17.3125 11.125C17.4902 11.125 17.6934 11.1758 17.8457 11.3027L24.3203 17.0156C24.5234 17.1934 24.625 17.3965 24.5996 17.625Z" fill="#202831"/>
</svg>
