<svg width="43" height="24" viewBox="0 0 43 24" fill="none" xmlns="http://www.w3.org/2000/svg">
<path d="M42 23L21.5024 23L1.0048 23C0.91436 18.8747 2.08559 12.4289 6.08105 7.57865C9.18818 3.80683 14.0033 0.999998 21.2613 0.999998C28.6369 0.999999 33.5534 3.89859 36.7395 7.76289C40.7204 12.5911 42 18.9268 42 23Z" fill="#FF5858"/>
<path d="M21.5024 23L42 23C42 18.9268 40.7204 12.5911 36.7395 7.76289M21.5024 23L1.0048 23C0.91436 18.8747 2.08559 12.4289 6.08105 7.57865M21.5024 23L6.08105 7.57865M21.5024 23L36.7395 7.76289M6.08105 7.57865C9.18818 3.80683 14.0033 0.999997 21.2613 0.999998C28.6369 0.999998 33.5534 3.89859 36.7395 7.76289" stroke="#262222" stroke-width="2"/>
</svg>
