<svg width="49" height="30" viewBox="0 0 49 30" fill="none" xmlns="http://www.w3.org/2000/svg">
<path d="M46.7 28L24.5026 28L2.29921 28C2.13591 28 2.00245 27.8712 2.00101 27.7079C1.958 22.8244 3.27813 15.3936 7.57676 9.77478C10.987 5.31716 16.2719 2 24.238 2C32.3332 2 37.7293 5.42561 41.2263 9.99251C45.5063 15.582 46.9414 22.881 46.9982 27.7017C47.0002 27.8674 46.8657 28 46.7 28Z" fill="#FF5858"/>
<path d="M24.5026 28L46.7 28C46.8657 28 47.0002 27.8674 46.9982 27.7017C46.9414 22.881 45.5063 15.582 41.2263 9.99251M24.5026 28L2.29921 28C2.13591 28 2.00245 27.8712 2.00101 27.7079C1.958 22.8244 3.27813 15.3936 7.57676 9.77478M24.5026 28L7.57676 9.77478M24.5026 28L41.2263 9.99251M7.57676 9.77478C10.987 5.31716 16.2719 2 24.238 2C32.3332 2 37.7293 5.42561 41.2263 9.99251" stroke="white" stroke-width="3"/>
<path d="M45 26L24.5024 26L4.0048 26C3.91436 21.8747 5.08559 15.4289 9.08105 10.5787C12.1882 6.80683 17.0033 4 24.2613 4C31.6369 4 36.5534 6.89859 39.7395 10.7629C43.7204 15.5911 45 21.9268 45 26Z" fill="#FF5858"/>
<path d="M24.5024 26L45 26C45 21.9268 43.7204 15.5911 39.7395 10.7629M24.5024 26L4.0048 26C3.91436 21.8747 5.08559 15.4289 9.08105 10.5787M24.5024 26L9.08105 10.5787M24.5024 26L39.7395 10.7629M9.08105 10.5787C12.1882 6.80683 17.0033 4 24.2613 4C31.6369 4 36.5534 6.89859 39.7395 10.7629" stroke="#262222" stroke-width="2"/>
</svg>
