<svg width="35" height="35" viewBox="0 0 35 35" fill="none" xmlns="http://www.w3.org/2000/svg">
<path d="M17.5 10.375C17.998 10.375 18.4375 10.8145 18.4375 11.3125V11.6348C21.1621 12.0449 23.3301 14.2129 23.7402 16.9375H24.0625C24.5605 16.9375 25 17.377 25 17.875C25 18.4023 24.5605 18.8125 24.0625 18.8125H23.7402C23.3301 21.5664 21.1621 23.7344 18.4375 24.1445V24.4375C18.4375 24.9648 17.998 25.375 17.5 25.375C16.9727 25.375 16.5625 24.9648 16.5625 24.4375V24.1445C13.8086 23.7344 11.6406 21.5664 11.2305 18.8125H10.9375C10.4102 18.8125 10 18.4023 10 17.875C10 17.377 10.4102 16.9375 10.9375 16.9375H11.2305C11.6406 14.2129 13.8086 12.0449 16.5625 11.6348V11.3125C16.5625 10.8145 16.9727 10.375 17.5 10.375ZM13.1348 18.8125C13.4863 20.541 14.834 21.8887 16.5625 22.2402V21.625C16.5625 21.127 16.9727 20.6875 17.5 20.6875C17.998 20.6875 18.4375 21.127 18.4375 21.625V22.2402C20.1367 21.8887 21.4844 20.541 21.8359 18.8125H21.25C20.7227 18.8125 20.3125 18.4023 20.3125 17.875C20.3125 17.377 20.7227 16.9375 21.25 16.9375H21.8359C21.4844 15.2383 20.1367 13.8906 18.4375 13.5391V14.125C18.4375 14.6523 17.998 15.0625 17.5 15.0625C16.9727 15.0625 16.5625 14.6523 16.5625 14.125V13.5391C14.834 13.8906 13.4863 15.2383 13.1348 16.9375H13.75C14.248 16.9375 14.6875 17.377 14.6875 17.875C14.6875 18.4023 14.248 18.8125 13.75 18.8125H13.1348ZM17.5 18.8125C16.9727 18.8125 16.5625 18.4023 16.5625 17.875C16.5625 17.377 16.9727 16.9375 17.5 16.9375C17.998 16.9375 18.4375 17.377 18.4375 17.875C18.4375 18.4023 17.998 18.8125 17.5 18.8125Z" fill="#202831"/>
</svg>
