<svg width="35" height="35" viewBox="0 0 35 35" fill="none" xmlns="http://www.w3.org/2000/svg">
<path d="M23.1211 16C24.1172 16 25.875 16.8496 25.875 17.875C25.875 18.9297 24.1172 19.75 23.1211 19.75H19.6934L16.7637 24.9062C16.5879 25.1992 16.2656 25.375 15.9434 25.375H14.3027C13.9805 25.375 13.7461 25.082 13.834 24.7891L15.2695 19.75H12.2812L10.9922 21.4492C10.9043 21.5664 10.7871 21.625 10.6406 21.625H9.41016C9.17578 21.625 9 21.4492 9 21.2148C9 21.1855 9 21.1562 9 21.127L9.9375 17.875L9 14.6523C9 14.623 9 14.5938 9 14.5352C9 14.3301 9.17578 14.125 9.41016 14.125H10.6406C10.7871 14.125 10.9043 14.2129 10.9922 14.3301L12.2812 16H15.2695L13.834 10.9902C13.7461 10.6973 13.9805 10.375 14.3027 10.375H15.9434C16.2656 10.375 16.5879 10.5801 16.7637 10.873L19.6934 16H23.1211Z" fill="white"/>
</svg>
