<svg width="15" height="19" viewBox="0 0 15 19" fill="none" xmlns="http://www.w3.org/2000/svg">
<path d="M3.66211 7.43799H5.15625C5.6543 7.43799 6.09375 7.87744 6.09375 8.37549C6.09375 8.90283 5.6543 9.31299 5.15625 9.31299H1.40625C0.878906 9.31299 0.46875 8.90283 0.46875 8.37549V4.62549C0.46875 4.12744 0.878906 3.68799 1.40625 3.68799C1.9043 3.68799 2.34375 4.12744 2.34375 4.62549V6.14893L2.8418 5.62158C5.41992 3.07275 9.55078 3.07275 12.1289 5.62158C14.6777 8.19971 14.6777 12.3306 12.1289 14.9087C9.55078 17.4575 5.41992 17.4575 2.8418 14.9087C2.49023 14.5278 2.49023 13.9419 2.8418 13.5903C3.22266 13.2095 3.80859 13.2095 4.16016 13.5903C6.00586 15.4067 8.96484 15.4067 10.8105 13.5903C12.627 11.7446 12.627 8.78564 10.8105 6.93994C8.96484 5.12354 6.00586 5.12354 4.16016 6.93994L3.66211 7.43799Z" fill="#5CA7FF"/>
</svg>
