<svg width="19" height="15" viewBox="0 0 19 15" fill="none" xmlns="http://www.w3.org/2000/svg">
<path d="M8.85938 4.99219L4.54688 8.55469V12.375C4.54688 12.5859 4.71094 12.75 4.92188 12.75H7.54688C7.73438 12.75 7.89844 12.5859 7.89844 12.375V10.125C7.89844 9.9375 8.08594 9.75 8.27344 9.75H9.77344C9.98438 9.75 10.1484 9.9375 10.1484 10.125V12.375C10.1484 12.5859 10.3359 12.75 10.5234 12.75H13.1719C13.3594 12.75 13.5469 12.5859 13.5469 12.375V8.53125L9.21094 4.99219C9.16406 4.94531 9.09375 4.92188 9.04688 4.92188C8.97656 4.92188 8.90625 4.94531 8.85938 4.99219ZM15.6797 7.40625L13.7344 5.78906V2.55469C13.7344 2.39062 13.5938 2.27344 13.4531 2.27344H12.1406C11.9766 2.27344 11.8594 2.39062 11.8594 2.55469V4.24219L9.75 2.50781C9.5625 2.36719 9.30469 2.27344 9.04688 2.27344C8.76562 2.27344 8.50781 2.36719 8.32031 2.50781L2.39062 7.40625C2.32031 7.45312 2.27344 7.54688 2.27344 7.61719C2.27344 7.6875 2.32031 7.75781 2.34375 7.80469L2.95312 8.53125C3 8.60156 3.07031 8.625 3.16406 8.625C3.23438 8.625 3.30469 8.60156 3.35156 8.55469L8.85938 4.03125C8.90625 3.98438 8.97656 3.96094 9.04688 3.96094C9.09375 3.96094 9.16406 3.98438 9.21094 4.03125L14.7188 8.55469C14.7656 8.60156 14.8359 8.625 14.9062 8.625C15 8.625 15.0703 8.60156 15.1172 8.53125L15.7266 7.80469C15.7734 7.75781 15.7969 7.6875 15.7969 7.61719C15.7969 7.54688 15.75 7.45312 15.6797 7.40625Z" fill="white"/>
<path fill-rule="evenodd" clip-rule="evenodd" d="M13.5469 8.53125V12.375C13.5469 12.5859 13.3594 12.75 13.1719 12.75H10.5234C10.3359 12.75 10.1484 12.5859 10.1484 12.375V10.125C10.1484 9.9375 9.98438 9.75 9.77344 9.75H8.27344C8.08594 9.75 7.89844 9.9375 7.89844 10.125V12.375C7.89844 12.5859 7.73438 12.75 7.54688 12.75H4.92188C4.71094 12.75 4.54688 12.5859 4.54688 12.375V8.55469L8.85938 4.99219C8.90625 4.94531 8.97656 4.92188 9.04688 4.92188C9.09375 4.92188 9.16406 4.94531 9.21094 4.99219L13.5469 8.53125ZM14.7188 8.55469C14.7199 8.55582 14.721 8.55693 14.7222 8.55803C14.7604 8.5945 14.8132 8.61608 14.8687 8.62275C14.8811 8.62425 14.8937 8.625 14.9062 8.625C15 8.625 15.0703 8.60156 15.1172 8.53125L15.7266 7.80469C15.7734 7.75781 15.7969 7.6875 15.7969 7.61719C15.7969 7.58321 15.7859 7.54375 15.7667 7.50676C15.7461 7.46721 15.716 7.43047 15.6797 7.40625L13.7344 5.78906V2.55469C13.7344 2.39062 13.5938 2.27344 13.4531 2.27344H12.1406C11.9766 2.27344 11.8594 2.39062 11.8594 2.55469V4.24219L9.75 2.50781C9.7076 2.47601 9.6616 2.44661 9.61282 2.42014C9.4459 2.32958 9.24639 2.27344 9.04688 2.27344C8.76562 2.27344 8.50781 2.36719 8.32031 2.50781L2.39062 7.40625C2.36532 7.42312 2.34306 7.44605 2.32492 7.47178C2.31701 7.483 2.30989 7.49475 2.30364 7.50676C2.30125 7.51134 2.299 7.51595 2.29688 7.52059C2.28184 7.55343 2.27344 7.58741 2.27344 7.61719C2.27344 7.64997 2.28362 7.68274 2.29688 7.71315C2.30676 7.73582 2.31834 7.75718 2.32868 7.77623C2.33421 7.78642 2.33939 7.79596 2.34375 7.80469L2.95312 8.53125C2.95878 8.53973 2.96477 8.54753 2.97111 8.55469C3.0173 8.60688 3.08162 8.625 3.16406 8.625C3.17663 8.625 3.1892 8.62425 3.20163 8.62275C3.25545 8.61627 3.30677 8.59576 3.34472 8.56121C3.34705 8.55909 3.34933 8.55692 3.35156 8.55469L8.85938 4.03125C8.90625 3.98438 8.97656 3.96094 9.04688 3.96094C9.09375 3.96094 9.16406 3.98438 9.21094 4.03125L14.7188 8.55469ZM2.29688 10.7274C1.92098 10.5959 1.51659 10.355 1.18506 9.92451L0.449688 9.04772L0.343607 8.83555C0.343034 8.83449 0.342438 8.83338 0.341816 8.83223C0.327503 8.80565 0.290725 8.73712 0.25148 8.65078C0.185064 8.50467 0.0234375 8.12434 0.0234375 7.61719C0.0234375 7.12558 0.172273 6.71911 0.324604 6.4362C0.462785 6.17958 0.67834 5.88605 0.998912 5.63749L6.92805 0.739506L6.97031 0.707813C7.54728 0.275088 8.27879 0.0234375 9.04688 0.0234375C9.64799 0.0234375 10.2245 0.186404 10.7144 0.458244C11.1195 0.183444 11.61 0.0234375 12.1406 0.0234375H13.4531C14.7135 0.0234375 15.9844 1.02855 15.9844 2.55469V4.73359L17.0756 5.64079C17.3939 5.88864 17.6081 6.18072 17.7457 6.4362C17.898 6.71911 18.0469 7.12558 18.0469 7.61719C18.0469 8.10158 17.902 8.74439 17.4193 9.28773L16.8852 9.92451C16.5606 10.3461 16.1661 10.5858 15.7969 10.719V12.375C15.7969 13.9179 14.5108 15 13.1719 15H10.5234C9.99374 15 9.47232 14.8306 9.03552 14.5304C8.62355 14.823 8.11631 15 7.54688 15H4.92188C3.4683 15 2.29688 13.8286 2.29688 12.375V10.7274Z" fill="#2F2F2F"/>
</svg>
