<svg width="16" height="19" viewBox="0 0 16 19" fill="none" xmlns="http://www.w3.org/2000/svg">
<path d="M1.9375 5.56299H11.3125V3.68799C11.3125 3.33643 11.5176 2.98486 11.8691 2.83838C12.2207 2.69189 12.6309 2.77979 12.8945 3.04346L15.707 5.85596C15.8828 6.03174 16 6.26611 16 6.50049C16 6.76416 15.8828 6.99854 15.707 7.17432L12.8945 9.98682C12.6309 10.2505 12.2207 10.3384 11.8691 10.1919C11.5176 10.0454 11.3125 9.69385 11.3125 9.31299V7.43799H1.9375C1.41016 7.43799 1 7.02783 1 6.50049C1 6.00244 1.41016 5.56299 1.9375 5.56299ZM15.0625 13.063C15.5605 13.063 16 13.5024 16 14.0005C16 14.5278 15.5605 14.938 15.0625 14.938H5.6875V16.813C5.6875 17.1938 5.45312 17.5454 5.10156 17.6919C4.75 17.8384 4.33984 17.7505 4.07617 17.4868L1.26367 14.6743C1.08789 14.4985 0.970703 14.2642 0.970703 14.0298C0.970703 13.7661 1.08789 13.5317 1.26367 13.356L4.07617 10.5435C4.33984 10.2798 4.75 10.1919 5.10156 10.3384C5.45312 10.4849 5.6875 10.8364 5.6875 11.2173V13.0923H15.0625V13.063Z" fill="#5CA7FF"/>
</svg>
