<svg width="50" height="50" viewBox="0 0 50 50" fill="none" xmlns="http://www.w3.org/2000/svg">
<path d="M40.4002 7.2002H9.6002C8.27471 7.2002 7.2002 8.27472 7.2002 9.6002V40.4002C7.2002 41.7257 8.27472 42.8002 9.6002 42.8002H40.4002C41.7257 42.8002 42.8002 41.7257 42.8002 40.4002V9.6002C42.8002 8.27471 41.7257 7.2002 40.4002 7.2002Z" fill="white" stroke="white" stroke-width="2"/>
<path fill-rule="evenodd" clip-rule="evenodd" d="M11.0002 11.0002V39.0002H39.0002V11.0002H11.0002ZM9.6002 8.2002C8.827 8.2002 8.2002 8.827 8.2002 9.6002V40.4002C8.2002 41.1734 8.827 41.8002 9.6002 41.8002H40.4002C41.1734 41.8002 41.8002 41.1734 41.8002 40.4002V9.6002C41.8002 8.827 41.1734 8.2002 40.4002 8.2002H9.6002Z" fill="#082E44"/>
</svg>
