<svg width="15" height="19" viewBox="0 0 15 19" fill="none" xmlns="http://www.w3.org/2000/svg">
<path d="M0.9375 4.62549C0.9375 3.6001 1.75781 2.75049 2.8125 2.75049H7.5C8.52539 2.75049 9.375 3.6001 9.375 4.62549V10.2505H9.60938C11.0156 10.2505 12.1875 11.4224 12.1875 12.8286V13.7661C12.1875 14.1763 12.4805 14.4692 12.8906 14.4692C13.2715 14.4692 13.5938 14.1763 13.5938 13.7661V9.25439C12.7734 9.04932 12.1875 8.31689 12.1875 7.43799V5.56299L11.25 4.62549C10.9863 4.39111 10.9863 3.95166 11.25 3.68799C11.4844 3.45361 11.9238 3.45361 12.1875 3.68799L14.4434 5.97314C14.7949 6.32471 15 6.79346 15 7.2915V7.67236V8.37549V9.31299V13.7661C15 14.938 14.0332 15.8755 12.8906 15.8755C11.7188 15.8755 10.7812 14.938 10.7812 13.7661V12.8286C10.7812 12.1841 10.2539 11.6567 9.60938 11.6567H9.375V15.8755C9.87305 15.8755 10.3125 16.3149 10.3125 16.813C10.3125 17.3403 9.87305 17.7505 9.375 17.7505H0.9375C0.410156 17.7505 0 17.3403 0 16.813C0 16.3149 0.410156 15.8755 0.9375 15.8755V4.62549ZM2.8125 5.09424V7.90674C2.8125 8.17041 3.01758 8.37549 3.28125 8.37549H7.03125C7.26562 8.37549 7.5 8.17041 7.5 7.90674V5.09424C7.5 4.85986 7.26562 4.62549 7.03125 4.62549H3.28125C3.01758 4.62549 2.8125 4.85986 2.8125 5.09424Z" fill="#5CA7FF"/>
</svg>
