<svg width="35" height="35" viewBox="0 0 35 35" fill="none" xmlns="http://www.w3.org/2000/svg">
<path d="M21.582 14.7988C21.9629 14.4473 21.9629 13.832 21.582 13.4805C21.2305 13.0996 20.6152 13.0996 20.2637 13.4805L17.1875 16.5566L14.082 13.4805C13.7305 13.0996 13.1152 13.0996 12.7637 13.4805C12.3828 13.832 12.3828 14.4473 12.7637 14.7988L15.8398 17.875L12.7637 20.9805C12.3828 21.332 12.3828 21.9473 12.7637 22.2988C13.1152 22.6797 13.7305 22.6797 14.082 22.2988L17.1875 19.2227L20.2637 22.2988C20.6152 22.6797 21.2305 22.6797 21.582 22.2988C21.9629 21.9473 21.9629 21.332 21.582 20.9805L18.5059 17.875L21.582 14.7988Z" fill="#5CA7FF"/>
</svg>
