<svg width="35" height="35" viewBox="0 0 35 35" fill="none" xmlns="http://www.w3.org/2000/svg">
<g clip-path="url(#clip0_536_3452)">
<path d="M18.2465 21.8155C18.2868 21.4033 17.9852 21.0364 17.5729 20.9962C17.4743 20.9866 17.3683 20.9621 17.257 20.9252L22.8034 15.3787C22.8858 15.2964 22.9478 15.196 22.9846 15.0856L24.0453 11.9036C24.2407 11.3173 23.6829 10.7595 23.0966 10.9549L19.9146 12.0156C19.8042 12.0524 19.7038 12.1144 19.6215 12.1968L14.0656 17.7526C14.0323 17.6468 14.0117 17.5467 14.006 17.4545C13.9809 17.041 13.6253 16.7263 13.2119 16.7514C12.7984 16.7766 12.4837 17.1321 12.5088 17.5456C12.5429 18.1052 12.8217 18.753 13.2473 19.3918C13.2522 19.3997 13.2566 19.4078 13.2619 19.4156C13.3201 19.5018 13.3817 19.5879 13.445 19.6736C13.4497 19.68 13.4542 19.6863 13.4589 19.6926C13.4791 19.7198 13.4995 19.7469 13.5202 19.774C13.5383 19.7979 13.5568 19.8217 13.5753 19.8454C13.5987 19.8754 13.6223 19.9054 13.6463 19.9353C13.6679 19.9623 13.6897 19.9892 13.7118 20.016C13.7274 20.035 13.7429 20.0539 13.7587 20.0728C13.7751 20.0923 13.7917 20.1118 13.8082 20.1312L11.6664 22.273C11.3735 21.9802 10.8987 21.9802 10.6058 22.273C10.3129 22.5659 10.3129 23.0407 10.6058 23.3336L11.6665 24.3943C11.9594 24.6872 12.4342 24.6872 12.7271 24.3943C13.02 24.1014 13.02 23.6266 12.7271 23.3337L14.8721 21.1887C15.7157 21.8987 16.6489 22.4131 17.4272 22.4891C17.8395 22.5293 18.2063 22.2278 18.2465 21.8155ZM14.8728 19.0668L20.5569 13.3826L22.1479 12.8523L21.6176 14.4433L15.9381 20.1228C15.7916 20.0043 15.6474 19.878 15.5079 19.746C15.4986 19.7373 15.4895 19.7284 15.4803 19.7196C15.4451 19.6861 15.4103 19.6521 15.3758 19.6179C15.3639 19.6061 15.3521 19.5942 15.3402 19.5823C15.1733 19.4142 15.0169 19.2419 14.8728 19.0668Z" fill="#202831"/>
</g>
<defs>
<clipPath id="clip0_536_3452">
<rect width="10" height="18" fill="white" transform="translate(20.3286 7.60059) rotate(45)"/>
</clipPath>
</defs>
</svg>
