<?xml version="1.0" encoding="UTF-8" standalone="no"?>
<svg
   xmlns:dc="http://purl.org/dc/elements/1.1/"
   xmlns:cc="http://creativecommons.org/ns#"
   xmlns:rdf="http://www.w3.org/1999/02/22-rdf-syntax-ns#"
   xmlns:svg="http://www.w3.org/2000/svg"
   xmlns="http://www.w3.org/2000/svg"
   xmlns:sodipodi="http://sodipodi.sourceforge.net/DTD/sodipodi-0.dtd"
   xmlns:inkscape="http://www.inkscape.org/namespaces/inkscape"
   inkscape:version="1.0 (4035a4fb49, 2020-05-01)"
   sodipodi:docname="spawn_aircraft.svg"
   id="svg8"
   version="1.1"
   fill="none"
   viewBox="0 0 32 32"
   height="32"
   width="32">
  <metadata
     id="metadata14">
    <rdf:RDF>
      <cc:Work
         rdf:about="">
        <dc:format>image/svg+xml</dc:format>
        <dc:type
           rdf:resource="http://purl.org/dc/dcmitype/StillImage" />
        <dc:title></dc:title>
      </cc:Work>
    </rdf:RDF>
  </metadata>
  <defs
     id="defs12" />
  <sodipodi:namedview
     inkscape:current-layer="svg8"
     inkscape:window-maximized="1"
     inkscape:window-y="-8"
     inkscape:window-x="-8"
     inkscape:cy="22.261162"
     inkscape:cx="31.929932"
     inkscape:zoom="18.782524"
     showgrid="false"
     id="namedview10"
     inkscape:window-height="1017"
     inkscape:window-width="1920"
     inkscape:pageshadow="2"
     inkscape:pageopacity="0"
     guidetolerance="10"
     gridtolerance="10"
     objecttolerance="10"
     borderopacity="1"
     bordercolor="#666666"
     pagecolor="#ffffff" />
  <rect
     style="fill:none"
     id="rect2"
     fill="white"
     rx="7.5"
     height="31"
     width="31"
     y="0.5"
     x="0.5" />
  <path
     style="fill:#ffffff;fill-opacity:1"
     id="path4"
     fill="#202831"
     d="M21.3047 14C22.2344 14 23.875 14.793 23.875 15.75C23.875 16.7344 22.2344 17.5 21.3047 17.5H18.1055L15.3711 22.3125C15.207 22.5859 14.9062 22.75 14.6055 22.75H13.0742C12.7734 22.75 12.5547 22.4766 12.6367 22.2031L13.9766 17.5H11.1875L9.98438 19.0859C9.90234 19.1953 9.79297 19.25 9.65625 19.25H8.50781C8.28906 19.25 8.125 19.0859 8.125 18.8672C8.125 18.8398 8.125 18.8125 8.125 18.7852L9 15.75L8.125 12.7422C8.125 12.7148 8.125 12.6875 8.125 12.6328C8.125 12.4414 8.28906 12.25 8.50781 12.25H9.65625C9.79297 12.25 9.90234 12.332 9.98438 12.4414L11.1875 14H13.9766L12.6367 9.32422C12.5547 9.05078 12.7734 8.75 13.0742 8.75H14.6055C14.9062 8.75 15.207 8.94141 15.3711 9.21484L18.1055 14H21.3047Z" />
  <rect
     style="fill:none;stroke:none"
     id="rect6"
     stroke="white"
     rx="7.5"
     height="31"
     width="31"
     y="0.5"
     x="0.5" />
</svg>
