<?xml version="1.0" encoding="UTF-8" standalone="no"?>
<svg
   xmlns:dc="http://purl.org/dc/elements/1.1/"
   xmlns:cc="http://creativecommons.org/ns#"
   xmlns:rdf="http://www.w3.org/1999/02/22-rdf-syntax-ns#"
   xmlns:svg="http://www.w3.org/2000/svg"
   xmlns="http://www.w3.org/2000/svg"
   xmlns:sodipodi="http://sodipodi.sourceforge.net/DTD/sodipodi-0.dtd"
   xmlns:inkscape="http://www.inkscape.org/namespaces/inkscape"
   width="32"
   height="32"
   viewBox="0 0 32 32"
   fill="none"
   version="1.1"
   id="svg8"
   sodipodi:docname="spawn_aircraft.svg"
   inkscape:version="1.0 (4035a4fb49, 2020-05-01)">
  <metadata
     id="metadata14">
    <rdf:RDF>
      <cc:Work
         rdf:about="">
        <dc:format>image/svg+xml</dc:format>
        <dc:type
           rdf:resource="http://purl.org/dc/dcmitype/StillImage" />
        <dc:title />
      </cc:Work>
    </rdf:RDF>
  </metadata>
  <defs
     id="defs12" />
  <sodipodi:namedview
     inkscape:document-rotation="0"
     pagecolor="#ffffff"
     bordercolor="#666666"
     borderopacity="1"
     objecttolerance="10"
     gridtolerance="10"
     guidetolerance="10"
     inkscape:pageopacity="0"
     inkscape:pageshadow="2"
     inkscape:window-width="1920"
     inkscape:window-height="1017"
     id="namedview10"
     showgrid="false"
     inkscape:zoom="18.782524"
     inkscape:cx="26.073424"
     inkscape:cy="15.446316"
     inkscape:window-x="1912"
     inkscape:window-y="-8"
     inkscape:window-maximized="1"
     inkscape:current-layer="svg8" />
  <rect
     x="0.5"
     y="0.5"
     width="31"
     height="31"
     rx="7.5"
     fill="white"
     id="rect2"
     style="fill:none" />
  <path
     d="m 22.011184,13.780381 c 1.003947,0 2.775568,0.85633 2.775568,1.889757 0,1.063016 -1.771621,1.889759 -2.775568,1.889759 h -3.454693 l -2.952773,5.196833 c -0.177205,0.295233 -0.502027,0.472439 -0.826742,0.472439 h -1.653592 c -0.324822,0 -0.560988,-0.295235 -0.472439,-0.590577 l 1.446906,-5.078695 H 11.086009 L 9.786807,19.272448 C 9.698217,19.390585 9.58011,19.449654 9.432472,19.449654 H 8.192315 c -0.236219,0 -0.413381,-0.177206 -0.413381,-0.413371 0,-0.02959 0,-0.05907 0,-0.08855 L 8.723813,15.670138 7.778934,12.422131 c 0,-0.02959 0,-0.05907 0,-0.118137 0,-0.206685 0.177162,-0.413371 0.413381,-0.413371 h 1.240157 c 0.147638,0 0.265743,0.08855 0.354335,0.206686 l 1.299202,1.683072 h 3.011842 L 12.650945,8.7311863 C 12.562399,8.435909 12.798562,8.1111082 13.123384,8.1111082 h 1.653592 c 0.324715,0 0.649537,0.2066963 0.826742,0.5019629 l 2.952773,5.1673099 z"
     fill="#202831"
     id="path4"
     style="fill:#ffffff;fill-opacity:1;stroke-width:1.07987" />
  <rect
     x="0.5"
     y="0.5"
     width="31"
     height="31"
     rx="7.5"
     stroke="white"
     id="rect6"
     style="fill:none;stroke:none" />
</svg>
