<svg width="32" height="32" viewBox="0 0 32 32" fill="none" xmlns="http://www.w3.org/2000/svg">
<path d="M13.375 9.625C13.375 9.16016 13.7578 8.75 14.25 8.75H17.75C18.2148 8.75 18.625 9.16016 18.625 9.625V10.5H19.9375C20.6484 10.5 21.25 11.1016 21.25 11.8125V15.3125L22.4531 15.7227C23.082 15.9414 23.2461 16.7617 22.7539 17.1992L19.9922 19.7422C19.5547 19.9883 19.0625 20.1523 18.625 20.1523C18.0781 20.1523 17.5039 19.9336 16.9844 19.6055C16.3828 19.168 15.5898 19.168 14.9883 19.6055C14.5234 19.9062 13.9492 20.1523 13.3477 20.1523C12.9102 20.1523 12.418 19.9883 11.9805 19.7422L9.21875 17.1992C8.72656 16.7617 8.89062 15.9414 9.51953 15.7227L10.75 15.3125V11.8125C10.75 11.1016 11.3242 10.5 12.0625 10.5H13.375V9.625ZM12.5 14.7383L15.4258 13.7539C15.7812 13.6445 16.1914 13.6445 16.5469 13.7539L19.5 14.7383V12.25H12.5V14.7383ZM16.4922 20.2891C17.1211 20.7266 17.8594 21 18.625 21C19.3359 21 20.1289 20.7266 20.7305 20.2891C21.0586 20.0703 21.4961 20.0977 21.7969 20.3438C22.207 20.6719 22.6992 20.918 23.1914 21.0273C23.6562 21.1367 23.957 21.6016 23.8477 22.0938C23.7383 22.5586 23.2461 22.8594 22.7812 22.75C22.125 22.5859 21.5508 22.2852 21.1953 22.0664C20.4023 22.4766 19.5273 22.75 18.625 22.75C17.75 22.75 16.957 22.5039 16.4102 22.2578C16.2461 22.1758 16.1094 22.0938 16 22.0391C15.8633 22.0938 15.7266 22.1758 15.5625 22.2578C15.0156 22.5039 14.2227 22.75 13.375 22.75C12.4727 22.75 11.5703 22.4766 10.7773 22.0664C10.4219 22.2852 9.84766 22.5859 9.19141 22.75C8.72656 22.8594 8.23438 22.5586 8.125 22.0938C8.01562 21.6289 8.31641 21.1367 8.78125 21.0273C9.27344 20.918 9.79297 20.6719 10.1758 20.3438C10.4766 20.0977 10.9141 20.0703 11.2422 20.2891C11.8438 20.7266 12.6367 21 13.375 21C14.1133 21 14.8789 20.7266 15.4805 20.2891C15.7812 20.0703 16.1914 20.0703 16.4922 20.2891Z" fill="white"/>
<rect x="0.5" y="0.5" width="31" height="31" rx="7.5" stroke="white"/>
</svg>
