<svg width="50" height="50" viewBox="0 0 50 50" fill="none" xmlns="http://www.w3.org/2000/svg">
    <path
        d="M20.7546 32.9417L10.7926 21.4726C10.766 21.4422 10.7451 21.4146 10.7294 21.3927C10.6864 21.3359 10.6551 21.2862 10.6496 21.2774C10.6494 21.277 10.6492 21.2767 10.649 21.2765C10.6489 21.2763 10.6488 21.2762 10.6488 21.2761L10.6357 21.2566C10.6236 21.2383 10.5957 21.1955 10.567 21.1402L20.7546 32.9417ZM20.7546 32.9417L20.5986 33.0198L20.5985 33.0199C19.7404 33.4496 19.3015 34.5403 19.9212 35.4506L19.9212 35.4507C20.2929 35.9965 20.9084 36.241 21.4658 36.241C21.5582 36.241 21.6516 36.2344 21.7451 36.221V36.7369V39.6546C21.7451 40.7392 22.7148 41.3666 23.5755 41.3666C24.0881 41.3666 24.6393 41.1441 25.0014 40.7351C25.3635 41.1441 25.9147 41.3666 26.4272 41.3666C27.288 41.3666 28.2577 40.7392 28.2577 39.6546V36.737V36.2389C28.2891 36.2404 28.3205 36.2412 28.3517 36.2412C28.9092 36.2412 29.5249 35.9965 29.8964 35.4507C30.5166 34.5399 30.0765 33.4495 29.2191 33.0201L29.2189 33.02L29.1921 33.0066L39.2121 21.4705L39.2121 21.4705C39.5428 21.0898 39.6715 20.6073 39.5996 20.1442C39.4332 13.5757 32.7259 8.63379 24.9939 8.63379C17.168 8.63379 10.3813 13.6997 10.3813 20.3893C10.3813 20.4323 10.3841 20.4691 10.387 20.4971C10.3925 20.5678 10.4021 20.6255 10.4041 20.6369L10.4074 20.6602C10.4109 20.684 10.4188 20.7356 10.4349 20.7975L10.4353 20.7989C10.4513 20.8602 10.4694 20.9092 10.4793 20.9352C10.4841 20.9478 10.4886 20.9591 10.4908 20.9645L10.4911 20.9652L10.4931 20.9703C10.4938 20.9721 10.4937 20.9718 10.4935 20.9713L10.4937 20.9719C10.4937 20.9719 10.4941 20.9729 10.4965 20.9793L10.4966 20.9796C10.4987 20.9853 10.5031 20.9972 10.5083 21.0105C10.5189 21.0373 10.538 21.0843 10.5663 21.1389L20.7546 32.9417ZM33.9441 22.1013L30.4581 26.1148L31.622 22.1013H33.9441ZM23.8679 27.9387L22.1749 22.1013H27.8282L26.1353 27.9387C25.7808 27.8045 25.3961 27.7329 25.0016 27.7329C24.607 27.7329 24.2223 27.8045 23.8679 27.9387ZM19.545 26.115L16.0587 22.1013H18.381L19.545 26.115ZM10.6466 21.2727L10.6485 21.2756L10.6466 21.2727L10.6466 21.2727Z"
        fill="#3BB9FF" stroke="#082E44" stroke-width="2" stroke-linejoin="round" />
</svg>