<?xml version="1.0" encoding="UTF-8"?>
<svg width="50" height="50" version="1.1" viewBox="0 0 50 50" xml:space="preserve"
    xmlns="http://www.w3.org/2000/svg"><rect transform="rotate(45 25 2.3724)" x="25" y="2.3724" width="32" height="32" rx="1.1" fill="white" stroke-width="2"/><rect transform="rotate(45 25 5.2008)" x="25" y="5.2008" width="28" height="28" fill="none" stroke="#082E44" stroke-width="2"/><path d="m22.431 22.053-0.55497 1.5863h6.2472l-0.55497-1.5863c-0.09568-0.27217-0.35297-0.45504-0.64216-0.45504h-3.8529c-0.28918 0-0.54647 0.18287-0.64216 0.45504zm-2.0328 1.6883 0.74847-2.137c0.28706-0.81864 1.0589-1.3672 1.9265-1.3672h3.8529c0.86754 0 1.6394 0.5486 1.9265 1.3672l0.74847 2.137c0.49331 0.20412 0.84203 0.69106 0.84203 1.2588v4.0826c0 0.37636-0.30407 0.68042-0.68043 0.68042h-0.68042c-0.37636 0-0.68043-0.30407-0.68043-0.68042v-1.0206h-6.8043v1.0206c0 0.37636-0.30407 0.68042-0.68043 0.68042h-0.68042c-0.37636 0-0.68043-0.30407-0.68043-0.68042v-4.0826c0-0.56773 0.34872-1.0547 0.84203-1.2588zm1.8797 1.9392a0.68043 0.68043 0 1 0-1.3609 0 0.68043 0.68043 0 1 0 1.3609 0zm6.1239 0.68043a0.68043 0.68043 0 1 0 0-1.3609 0.68043 0.68043 0 1 0 0 1.3609z" fill="none" stroke="#082e44"/></svg>