<?xml version="1.0" encoding="UTF-8" standalone="no"?>
<svg
   version="1.1"
   width="640"
   height="480"
   id="svg10"
   sodipodi:docname="ussr.svg"
   inkscape:version="1.1 (c68e22c387, 2021-05-23)"
   xmlns:inkscape="http://www.inkscape.org/namespaces/inkscape"
   xmlns:sodipodi="http://sodipodi.sourceforge.net/DTD/sodipodi-0.dtd"
   xmlns="http://www.w3.org/2000/svg"
   xmlns:svg="http://www.w3.org/2000/svg"
   xmlns:rdf="http://www.w3.org/1999/02/22-rdf-syntax-ns#"
   xmlns:cc="http://creativecommons.org/ns#"
   xmlns:dc="http://purl.org/dc/elements/1.1/">
  <sodipodi:namedview
     id="namedview10"
     pagecolor="#ffffff"
     bordercolor="#666666"
     borderopacity="1.0"
     inkscape:pageshadow="2"
     inkscape:pageopacity="0.0"
     inkscape:pagecheckerboard="0"
     showgrid="false"
     fit-margin-top="0"
     fit-margin-left="0"
     fit-margin-right="0"
     fit-margin-bottom="0"
     inkscape:zoom="0.88166667"
     inkscape:cx="497.3535"
     inkscape:cy="300"
     inkscape:window-width="1920"
     inkscape:window-height="1017"
     inkscape:window-x="-8"
     inkscape:window-y="-8"
     inkscape:window-maximized="1"
     inkscape:current-layer="svg10" />
  <metadata
     id="metadata16">
    <rdf:RDF>
      <cc:Work
         rdf:about="">
        <dc:format>image/svg+xml</dc:format>
        <dc:type
           rdf:resource="http://purl.org/dc/dcmitype/StillImage" />
      </cc:Work>
    </rdf:RDF>
  </metadata>
  <defs
     id="defs14" />
  <path
     fill="#bc0000"
     fill-opacity="1"
     d="M 0,0 H 639.99998 V 480 H 0 Z"
     id="path2"
     style="fill:#cc0000;fill-opacity:1;stroke-width:0.999997" />
  <path
     id="path11728"
     d="m 160.0004,30 -6.73546,20.729509 H 131.4688 L 149.10222,63.540898 142.36675,84.2704 160.0004,71.458772 177.63406,84.2704 170.89859,63.540898 188.532,50.729509 h -21.79613 z m 0,10.79999 4.31062,13.266778 h 13.94975 l -11.2856,8.199597 4.31061,13.266777 -11.28538,-8.199363 -11.28538,8.199363 4.31062,-13.266777 -11.28561,-8.199597 h 13.94975 z"
     style="fill:#ffd700;fill-opacity:1;stroke:none;stroke-width:0.15px;stroke-linecap:butt;stroke-linejoin:miter;stroke-opacity:1" />
  <g
     style="fill:#ffd700;fill-opacity:1;stroke-width:1.25"
     id="g2900"
     transform="matrix(0.79145503,0,0,0.78939049,3.0638126,3.0127518)">
    <path
       id="rect4165-6"
       d="m 137.43744,171.69421 18.86296,18.9937 17.78834,-17.66589 c 27.05847,29.021 55.43807,56.99501 82.28704,86.12782 4.03444,4.06233 10.59815,4.085 14.66056,0.0506 4.06232,-4.03445 4.08499,-10.59815 0.0506,-14.66056 -28.81871,-27.1901 -57.72545,-54.60143 -86.55328,-81.89095 l 23.96499,-23.80003 -33.34026,-4.61605 z"
       style="fill:#ffd700;fill-opacity:1;stroke:none;stroke-width:0.611489;stroke-miterlimit:4;stroke-dasharray:none;stroke-dashoffset:0;stroke-opacity:1" />
    <path
       id="path4179-3"
       d="m 198.2887,110.1955 c 15.51743,8.7394 27.29872,21.28122 34.2484,34.3924 7.04394,13.28902 10.13959,27.16218 10.20325,38.25433 0.13054,22.74374 -18.43771,41.18184 -41.18183,41.18184 -12.13597,0 -23.04607,-5.24868 -30.58302,-13.60085 l -4.16863,3.51033 c -0.70999,-0.27231 -1.46387,-0.41221 -2.22429,-0.41276 -1.82948,1.9e-4 -3.56621,0.80531 -4.74859,2.20136 -2.97368,0.38896 -5.46251,2.44529 -6.40534,5.29224 -3.13486,6.28843 -8.63524,11.21997 -15.29104,13.4776 -0.0637,0.0216 -0.11992,0.05 -0.1758,0.0783 -3.07749,1.12758 -6.16259,3.1643 -8.78919,5.80245 -5.19155,5.23656 -7.72858,11.93658 -6.30024,16.63822 -0.14098,0.40857 -0.21361,0.83759 -0.21498,1.26979 1.5e-4,2.17082 1.75991,3.93058 3.93073,3.93073 0.54341,-0.002 1.08053,-0.11639 1.57745,-0.33632 4.69369,1.05881 11.06885,-1.54582 16.05444,-6.55917 2.82624,-2.85072 4.94356,-6.22349 5.98303,-9.53062 2.31696,-6.62278 7.29699,-12.01856 13.62281,-15.05312 0.15105,-0.0725 0.27303,-0.14714 0.38218,-0.22358 2.12082,-1.01408 3.67251,-2.92895 4.225,-5.2139 9.70222,11.44481 24.25255,18.75299 40.51876,19.13577 29.83352,0.70205 52.13299,-21.25802 53.16414,-52.83642 0.51894,-15.89259 -5.62993,-36.3847 -19.6412,-53.19089 -10.70835,-12.84441 -26.40987,-23.50795 -44.18699,-28.20777 z"
       style="fill:#ffd700;fill-opacity:1;stroke:none;stroke-width:0.625044;stroke-miterlimit:4;stroke-dasharray:none;stroke-dashoffset:0;stroke-opacity:1" />
  </g>
</svg>
