<?xml version="1.0" encoding="UTF-8" standalone="no"?>
<!-- Created with Inkscape (http://www.inkscape.org/) -->

<svg
   width="210mm"
   height="297mm"
   viewBox="0 0 210 297"
   version="1.1"
   id="svg1"
   xml:space="preserve"
   inkscape:version="1.3.2 (091e20e, 2023-11-25, custom)"
   sodipodi:docname="bullseye.svg"
   xmlns:inkscape="http://www.inkscape.org/namespaces/inkscape"
   xmlns:sodipodi="http://sodipodi.sourceforge.net/DTD/sodipodi-0.dtd"
   xmlns="http://www.w3.org/2000/svg"
   xmlns:svg="http://www.w3.org/2000/svg"><sodipodi:namedview
     id="namedview1"
     pagecolor="#505050"
     bordercolor="#eeeeee"
     borderopacity="1"
     inkscape:showpageshadow="0"
     inkscape:pageopacity="0"
     inkscape:pagecheckerboard="0"
     inkscape:deskcolor="#505050"
     inkscape:document-units="mm"
     inkscape:zoom="1.4485269"
     inkscape:cx="489.80794"
     inkscape:cy="612.00105"
     inkscape:window-width="1920"
     inkscape:window-height="1009"
     inkscape:window-x="1912"
     inkscape:window-y="-8"
     inkscape:window-maximized="1"
     inkscape:current-layer="g1" /><defs
     id="defs1" /><g
     inkscape:label="Layer 1"
     inkscape:groupmode="layer"
     id="layer1"><g
       id="g1"
       transform="matrix(0.26458333,0,0,0.26458333,37.294343,80.766668)"><circle
         style="fill-opacity:1;stroke:none;stroke-linecap:round"
         id="path927"
         cx="256"
         cy="256"
         r="256" /><path
         d="M 0,256 C 0,114.61501 114.61511,1.1113408e-4 256,1.1113408e-4 397.38489,1.1113408e-4 512,114.61501 512,256 512,397.38499 397.38489,511.99989 256,511.99989 114.61511,511.99989 0,397.38499 0,256 Z M 256,112 c 79.52906,0 143.99994,64.471 143.99994,144 0,79.529 -64.47088,144 -143.99994,144 -79.52906,0 -143.99994,-64.471 -143.99994,-144 0,-79.529 64.47088,-144 143.99994,-144 z m -32,144 c 0,-17.67312 14.32689,-31.99999 32,-31.99999 17.67311,0 32,14.32687 32,31.99999 0,17.67312 -14.32689,31.99999 -32,31.99999 -17.67311,0 -32,-14.32687 -32,-31.99999 z"
         id="path168"
         style="fill:none;stroke-width:64;stroke-dasharray:none;stroke-opacity:1"
         sodipodi:nodetypes="sssssssssssssss" /></g></g></svg>
