<?xml version="1.0" encoding="UTF-8" standalone="no"?>
<svg
   width="32"
   height="32"
   viewBox="0 0 32 32"
   fill="none"
   version="1.1"
   id="svg5"
   sodipodi:docname="path.svg"
   inkscape:version="1.3.2 (091e20e, 2023-11-25, custom)"
   xmlns:inkscape="http://www.inkscape.org/namespaces/inkscape"
   xmlns:sodipodi="http://sodipodi.sourceforge.net/DTD/sodipodi-0.dtd"
   xmlns="http://www.w3.org/2000/svg"
   xmlns:svg="http://www.w3.org/2000/svg">
  <sodipodi:namedview
     id="namedview5"
     pagecolor="#505050"
     bordercolor="#eeeeee"
     borderopacity="1"
     inkscape:showpageshadow="0"
     inkscape:pageopacity="0"
     inkscape:pagecheckerboard="0"
     inkscape:deskcolor="#505050"
     inkscape:zoom="15.941176"
     inkscape:cx="20.512916"
     inkscape:cy="25.500001"
     inkscape:window-width="2560"
     inkscape:window-height="1369"
     inkscape:window-x="1912"
     inkscape:window-y="-8"
     inkscape:window-maximized="1"
     inkscape:current-layer="svg5" />
  <g
     filter="url(#filter0_d_1082_10311)"
     id="g3"
     transform="matrix(0.65082874,0,0,0.65082874,3.8892989,2.018336)">
    <mask
       id="path-1-outside-1_1082_10311"
       maskUnits="userSpaceOnUse"
       x="2"
       y="0"
       width="33"
       height="43"
       fill="#000000">
      <rect
         fill="#ffffff"
         x="2"
         width="33"
         height="43"
         id="rect1"
         y="0" />
      <path
         d="m 19.957,39.8594 c -0.8906,1.1133 -2.5976,1.1133 -3.4882,0 C 12.6836,35.0352 4,23.5312 4,17 4,9.13281 10.3828,2.75 18.25,2.75 26.1172,2.75 32.5,9.13281 32.5,17 c 0,6.5312 -8.6836,18.0352 -12.543,22.8594 z M 18.25,12.25 c -1.707,0 -3.2656,0.9648 -4.1562,2.375 -0.8165,1.4844 -0.8165,3.3398 0,4.75 0.8906,1.4844 2.4492,2.375 4.1562,2.375 1.6328,0 3.1914,-0.8906 4.082,-2.375 0.8164,-1.4102 0.8164,-3.2656 0,-4.75 C 21.4414,13.2148 19.8828,12.25 18.25,12.25 Z"
         id="path1" />
    </mask>
    <path
       d="m 19.957,39.8594 c -0.8906,1.1133 -2.5976,1.1133 -3.4882,0 C 12.6836,35.0352 4,23.5312 4,17 4,9.13281 10.3828,2.75 18.25,2.75 26.1172,2.75 32.5,9.13281 32.5,17 c 0,6.5312 -8.6836,18.0352 -12.543,22.8594 z M 18.25,12.25 c -1.707,0 -3.2656,0.9648 -4.1562,2.375 -0.8165,1.4844 -0.8165,3.3398 0,4.75 0.8906,1.4844 2.4492,2.375 4.1562,2.375 1.6328,0 3.1914,-0.8906 4.082,-2.375 0.8164,-1.4102 0.8164,-3.2656 0,-4.75 C 21.4414,13.2148 19.8828,12.25 18.25,12.25 Z"
       fill="#247be2"
       id="path2" />
    <path
       d="m 16.4688,39.8594 -1.5735,1.2345 0.0058,0.0075 0.0059,0.0074 z m -2.375,-25.2344 -1.691,-1.068 -0.0323,0.0512 -0.0292,0.053 z m 0,4.75 -1.7309,1.0021 0.0078,0.0135 0.0081,0.0134 z m 8.2382,0 1.715,1.029 0.0081,-0.0134 0.0078,-0.0135 z m 0,-4.75 1.7525,-0.9638 -0.0292,-0.053 L 24.023,13.557 Z M 18.3953,38.61 c -0.0427,0.0533 -0.1026,0.0843 -0.1824,0.0843 -0.0798,0 -0.1398,-0.031 -0.1824,-0.0843 l -3.1235,2.4988 c 1.6913,2.1141 4.9205,2.1141 6.6118,0 z m -0.3531,0.0148 C 16.1614,36.2276 13.101,32.2175 10.5181,28.0214 9.22642,25.923 8.07852,23.817 7.25901,21.8721 6.42596,19.8951 6,18.2407 6,17 H 2 c 0,2.0249 0.65949,4.2577 1.5729,6.4254 0.92695,2.1998 2.18652,4.4959 3.53885,6.6928 2.70521,4.3948 5.87925,8.5487 7.78355,10.9757 z M 6,17 C 6,10.2374 11.4874,4.75 18.25,4.75 v -4 C 9.27824,0.75 2,8.02824 2,17 Z M 18.25,4.75 c 6.7626,0 12.25,5.4874 12.25,12.25 h 4 C 34.5,8.02824 27.2218,0.75 18.25,0.75 Z M 30.5,17 c 0,1.2405 -0.4259,2.8948 -1.2598,4.8712 -0.8204,1.9444 -1.9702,4.0499 -3.266,6.1476 -2.5908,4.1941 -5.6686,8.2033 -7.5789,10.5912 l 3.1235,2.4988 c 1.949,-2.4364 5.1427,-6.5913 7.8585,-10.9879 1.3576,-2.1978 2.6199,-4.4943 3.5483,-6.6947 C 33.8404,21.258 34.5,19.0251 34.5,17 Z M 18.25,10.25 c -2.4681,0 -4.632,1.3829 -5.8472,3.307 l 3.3819,2.136 C 16.3507,14.7968 17.304,14.25 18.25,14.25 Z m -5.9087,3.4112 c -1.1377,2.0685 -1.1625,4.6706 0.0216,6.7159 l 3.4617,-2.0042 c -0.4487,-0.775 -0.4736,-1.8838 0.0216,-2.7841 z m 0.0375,6.7428 c 1.2458,2.0763 3.4496,3.346 5.8712,3.346 v -4 c -0.9924,0 -1.9058,-0.5116 -2.4413,-1.404 z M 18.25,23.75 c 2.3645,0 4.5602,-1.2847 5.797,-3.346 l -3.43,-2.058 c -0.5444,0.9074 -1.4659,1.404 -2.367,1.404 z m 5.8129,-3.3729 c 1.1841,-2.0453 1.1592,-4.6474 0.0216,-6.7159 l -3.5049,1.9276 c 0.4951,0.9003 0.4703,2.0091 0.0216,2.7841 z M 24.023,13.557 C 22.8175,11.6483 20.6603,10.25 18.25,10.25 v 4 c 0.8553,0 1.8153,0.5314 2.3911,1.443 z"
       fill="#ffffff"
       mask="url(#path-1-outside-1_1082_10311)"
       id="path3" />
  </g>
  <defs
     id="defs5">
    <filter
       id="filter0_d_1082_10311"
       x="0"
       y="0.75"
       width="40.5"
       height="49.944302"
       filterUnits="userSpaceOnUse"
       color-interpolation-filters="sRGB">
      <feFlood
         flood-opacity="0"
         result="BackgroundImageFix"
         id="feFlood3" />
      <feColorMatrix
         in="SourceAlpha"
         type="matrix"
         values="0 0 0 0 0 0 0 0 0 0 0 0 0 0 0 0 0 0 127 0"
         result="hardAlpha"
         id="feColorMatrix3" />
      <feOffset
         dx="2"
         dy="4"
         id="feOffset3" />
      <feGaussianBlur
         stdDeviation="2"
         id="feGaussianBlur3" />
      <feComposite
         in2="hardAlpha"
         operator="out"
         id="feComposite3" />
      <feColorMatrix
         type="matrix"
         values="0 0 0 0 0 0 0 0 0 0 0 0 0 0 0 0 0 0 0.25 0"
         id="feColorMatrix4" />
      <feBlend
         mode="normal"
         in2="BackgroundImageFix"
         result="effect1_dropShadow_1082_10311"
         id="feBlend4" />
      <feBlend
         mode="normal"
         in="SourceGraphic"
         in2="effect1_dropShadow_1082_10311"
         result="shape"
         id="feBlend5" />
    </filter>
  </defs>
</svg>
