<?xml version="1.0" encoding="UTF-8" standalone="no"?>
<svg
   width="23.317165"
   height="17.896727"
   viewBox="0 0 23.317165 17.896727"
   fill="none"
   version="1.1"
   id="svg12"
   sodipodi:docname="evade.svg"
   inkscape:version="1.3.2 (091e20e, 2023-11-25, custom)"
   xmlns:inkscape="http://www.inkscape.org/namespaces/inkscape"
   xmlns:sodipodi="http://sodipodi.sourceforge.net/DTD/sodipodi-0.dtd"
   xmlns="http://www.w3.org/2000/svg"
   xmlns:svg="http://www.w3.org/2000/svg">
  <sodipodi:namedview
     id="namedview14"
     pagecolor="#ffffff"
     bordercolor="#666666"
     borderopacity="1.0"
     inkscape:pageshadow="2"
     inkscape:pageopacity="0.0"
     inkscape:pagecheckerboard="0"
     showgrid="false"
     fit-margin-top="0"
     fit-margin-left="0"
     fit-margin-right="0"
     fit-margin-bottom="0"
     inkscape:zoom="33.617877"
     inkscape:cx="16.761915"
     inkscape:cy="9.1469191"
     inkscape:window-width="1920"
     inkscape:window-height="1009"
     inkscape:window-x="1912"
     inkscape:window-y="-8"
     inkscape:window-maximized="1"
     inkscape:current-layer="path4"
     inkscape:showpageshadow="0"
     inkscape:deskcolor="#505050" />
  <defs
     id="defs16" />
  <path
     d="m 0.02182384,14.515426 c -0.0453,0.1119 -0.01864,0.2398 0.06662,0.325 0.08526,0.0853 0.21314,0.1119 0.32505,0.0666 l 1.95830996,-0.7833 c 0.15188,-0.0613 0.2891,-0.1505 0.405,-0.2664 l 1.02578,-1.0258 3.03735,0.7993 -0.2504,0.2504 c -0.1772,0.1772 -0.1772,0.4623 0,0.6395 0.1772,0.1772 0.4623,0.1772 0.6394,0 l 0.7461,-0.746 0.4263,-0.4263 0.3197,-0.3198 c 0.1772,-0.1771 0.1772,-0.4622 0,-0.6394 -0.1772,-0.1772 -0.4623,-0.1772 -0.6395,0 l -0.1065,0.1066 -1.9184,-1.9184 0.4356,-0.4356 1.4628,0.0959 c 0.0866,0.0066 0.1718,-0.0253 0.2331,-0.0866 l 0.2132,-0.2130999 c 0.1172,-0.1173 0.1172,-0.3091 0,-0.4263 l -1.2789,-1.2789 -0.8526,0.8526 c -0.1173,0.1172 -0.3091,0.1172 -0.4263,0 -0.1173,-0.1173 -0.1173,-0.3091 0,-0.4263 l 0.8526,-0.8526 -1.2789,-1.2789 c -0.1173,-0.1173 -0.3091,-0.1173 -0.4263,0 l -0.2132,0.2131 c -0.0613,0.0613 -0.0933,0.1465 -0.0866,0.2331 l 0.0959,1.4628 -0.4356,0.4356 -1.91834,-1.9183 0.10657,-0.1066 c 0.17717,-0.1772 0.17717,-0.4623 0,-0.6395 -0.17717,-0.1771 -0.46228,-0.1771 -0.63945,0 l -0.31972,0.3198 -0.4263,0.4263 -0.74602996,0.746 c -0.17717,0.1772 -0.17717,0.4623 0,0.6394 0.17717,0.1772 0.46228,0.1772 0.63944996,0 l 0.25041,-0.2504 0.79936,3.0373999 -1.02578,1.0258 c -0.11590996,0.1159 -0.20516996,0.2531 -0.26644996,0.405 z"
     fill="#5ca7ff"
     id="path2"
     style="stroke: none" />
  <g
     id="path4">
    <path
       style="color:#000000;fill:#000000;stroke-linecap:round;stroke-dasharray:2, 2;-inkscape-stroke:none"
       d="M 9.09163,5.31113 C 9.52102,4.92078 10.0419,4.48075 10.6248,4.02913 m 1.6233,-1.1672 c 0.5514,-0.36616 1.1277,-0.71785 1.7123,-1.03361 m 1.8146,-0.838 c 0.6645,-0.249206 1.3176,-0.42323 1.9345,-0.490428 m 1.9608,0.245768 c 0.2155,0.095942 0.419,0.218495 0.6086,0.37019 0.3338,0.26698 0.642,0.56583 0.9205,0.8947 m 1.0464,1.69552 c 0.2526,0.58814 0.4328,1.23087 0.5286,1.92301 m 0.0433,1.99609 c -0.0542,0.62718 -0.1704,1.28349 -0.3551,1.96621 m -0.661,1.88542 c -0.249,0.5812 -0.5452,1.1777 -0.8919,1.7881 m -1.0681,1.6909 c -0.3638,0.5236 -0.764,1.0559 -1.2023,1.596 m -1.1572,1.3449"
       id="path1" />
    <path
       style="color:#000000;fill:#5ca7ff;stroke-linecap:round;stroke-dasharray:2, 2;-inkscape-stroke:none"
       d="m 17.644531,0.00390625 -0.242187,0.03125 -0.253907,0.04296875 -0.255859,0.05273437 -0.255859,0.0625 -0.259766,0.0703125 -0.257812,0.078125 -0.259766,0.0859375 -0.253906,0.0917969 a 0.5,0.5 0 0 0 -0.300781,0.64062495 0.5,0.5 0 0 0 0.640625,0.3007813 l 0.242187,-0.087891 0.234375,-0.078125 0.232422,-0.070312 0.230469,-0.0625 0.224609,-0.054687 0.222656,-0.046875 0.21875,-0.035156 0.222656,-0.0292968 A 0.5,0.5 0 0 0 18.205078,0.43554688 0.5,0.5 0 0 0 17.644531,0.00390625 Z m 1.853516,0.27148438 a 0.5,0.5 0 0 0 -0.28125,0.25976562 0.5,0.5 0 0 0 0.242187,0.66406245 l 0.07422,0.033203 0.06445,0.033203 0.06445,0.035156 0.0625,0.037109 0.0625,0.039063 0.06055,0.041016 0.06055,0.042969 0.05859,0.046875 0.115234,0.091797 0.111328,0.097656 0.111328,0.099609 0.107422,0.1015625 0.105469,0.1054688 0.101563,0.1074218 0.101562,0.109375 0.101563,0.1171875 a 0.5,0.5 0 0 0 0.705078,0.050781 0.5,0.5 0 0 0 0.04883,-0.7050782 l -0.109375,-0.1269531 -0.117188,-0.1289062 -0.11914,-0.125 -0.123047,-0.1210938 -0.125,-0.1191406 -0.126953,-0.11523437 -0.13086,-0.11328125 -0.134765,-0.10937501 -0.08398,-0.0644531 -0.08594,-0.0625 -0.08789,-0.0585938 -0.08789,-0.0566406 -0.0918,-0.0527344 -0.0918,-0.0507813 -0.0918,-0.046875 -0.08789,-0.0390625 A 0.5,0.5 0 0 0 19.498047,0.27539063 Z M 14.099609,1.3496094 A 0.5,0.5 0 0 0 13.71875,1.390625 l -0.220703,0.1210937 -0.222656,0.1269532 -0.222657,0.1289062 -0.220703,0.1308594 -0.216797,0.1347656 -0.216796,0.1347657 -0.214844,0.1386718 -0.210938,0.1367188 a 0.5,0.5 0 0 0 -0.142578,0.6933594 0.5,0.5 0 0 0 0.69336,0.1425781 l 0.205078,-0.1347656 0.205078,-0.1328125 0.208984,-0.1289063 0.208985,-0.1289062 0.208984,-0.125 0.212891,-0.1230469 0.210937,-0.1210938 0.216797,-0.1171875 A 0.5,0.5 0 0 0 14.398438,1.5878906 0.5,0.5 0 0 0 14.099609,1.3496094 Z m 7.957032,1.8945312 a 0.5,0.5 0 0 0 -0.273438,0.6503907 l 0.08789,0.2167968 0.07813,0.2109375 0.07227,0.2167969 0.06445,0.2226562 0.05859,0.2265625 0.05273,0.2324219 0.04492,0.2363281 0.03711,0.2480469 a 0.5,0.5 0 0 0 0.572265,0.4179688 0.5,0.5 0 0 0 0.416016,-0.5703125 l -0.04102,-0.265625 -0.05078,-0.2695313 -0.05859,-0.2636719 -0.06641,-0.2578125 -0.07422,-0.2558593 -0.08398,-0.2480469 -0.08984,-0.2441406 -0.09375,-0.2304688 A 0.5,0.5 0 0 0 22.056641,3.2441406 Z M 10.316406,3.6347656 10.099609,3.8046875 9.8867188,3.9765625 9.6796875,4.1445312 9.4785156,4.3105469 9.1015625,4.6328125 8.7597656,4.9375 A 0.5,0.5 0 0 0 8.71875,5.6425781 0.5,0.5 0 0 0 9.4238281,5.6855469 L 9.7597656,5.3867187 10.123047,5.0761719 10.314453,4.9160156 10.513672,4.7539062 10.71875,4.5898437 10.933594,4.4238281 a 0.5,0.5 0 0 0 0.08594,-0.703125 0.5,0.5 0 0 0 -0.703125,-0.085937 z m 12.550781,3.4921875 a 0.5,0.5 0 0 0 -0.546875,0.4492188 l -0.02344,0.2304687 -0.02734,0.2285157 -0.0332,0.2304687 -0.03906,0.2324219 -0.04492,0.2363281 -0.05078,0.2402344 -0.05859,0.2421875 -0.06445,0.2480469 a 0.5,0.5 0 0 0 0.359375,0.6093752 0.5,0.5 0 0 0 0.609375,-0.3574221 l 0.06641,-0.2597656 0.0625,-0.2636719 0.05664,-0.2597656 0.04883,-0.2578125 0.04297,-0.2558594 0.03711,-0.2519531 0.0293,-0.2519532 0.02344,-0.2421875 a 0.5,0.5 0 0 0 -0.447266,-0.546875 z m -1.248046,3.8847659 a 0.5,0.5 0 0 0 -0.275391,0.265625 l -0.09375,0.214844 -0.09766,0.21289 -0.101563,0.214844 -0.105469,0.216797 -0.111328,0.21875 -0.115234,0.21875 -0.119141,0.220703 -0.126953,0.226562 a 0.5,0.5 0 0 0 0.19336,0.679688 0.5,0.5 0 0 0 0.679687,-0.191406 l 0.128906,-0.232422 0.126953,-0.232422 0.121094,-0.232422 0.117188,-0.230469 0.111328,-0.228515 0.109375,-0.228516 0.101562,-0.226562 0.09766,-0.220704 a 0.5,0.5 0 0 0 -0.257813,-0.658203 0.5,0.5 0 0 0 -0.382812,-0.0078 z m -1.488282,3.537109 a 0.5,0.5 0 0 0 -0.697265,0.117188 l -0.277344,0.390625 -0.287109,0.390625 -0.302735,0.392578 -0.318359,0.40039 a 0.5,0.5 0 0 0 0.08008,0.703125 0.5,0.5 0 0 0 0.703125,-0.08008 l 0.324219,-0.40625 0.3125,-0.408203 0.298828,-0.40625 L 20.25,15.244141 a 0.5,0.5 0 0 0 -0.119141,-0.695313 z"
       id="path3" />
  </g>
  <path
     d="m 14.783034,12.805026 -0.1001,0.8985 0.9106,-0.2539 0.0806,0.6152 -0.8301,0.0586 0.5444,0.7251 -0.5542,0.2954 -0.3808,-0.7642 -0.3345,0.7593 -0.5762,-0.2905 0.5396,-0.7251 -0.8252,-0.0635 0.0952,-0.6103 0.8911,0.2539 -0.1001,-0.8985 z"
     fill="#5ca7ff"
     id="path6"
     style="stroke: none" />
  <path
     d="m 13.384534,7.2113261 -0.1001,0.8984 0.9107,-0.2539 0.0805,0.6152 -0.83,0.0586 0.5444,0.7251 -0.5542,0.2954 -0.3809,-0.7641 -0.3344,0.7593 -0.5762,-0.2906 0.5395,-0.7251 -0.8252,-0.0634 0.0953,-0.6104 0.8911,0.2539 -0.1001,-0.8984 z"
     fill="#5ca7ff"
     id="path8"
     style="stroke: none" />
  <path
     d="m 18.977834,7.2113261 -0.1001,0.8984 0.9106,-0.2539 0.0806,0.6152 -0.8301,0.0586 0.5445,0.7251 -0.5542,0.2954 -0.3809,-0.7641 -0.3345,0.7593 -0.5761,-0.2906 0.5395,-0.7251 -0.8252,-0.0634 0.0952,-0.6104 0.8911,0.2539 -0.1001,-0.8984 z"
     fill="#5ca7ff"
     id="path10"
     style="stroke: none" />
</svg>
