<?xml version="1.0" encoding="iso-8859-1"?>
<!-- Uploaded to: SVG Repo, www.svgrepo.com, Generator: SVG Repo Mixer Tools -->
<svg height="800px" width="800px" version="1.1" id="Layer_1" xmlns="http://www.w3.org/2000/svg" xmlns:xlink="http://www.w3.org/1999/xlink" 
	 viewBox="0 0 460 460" xml:space="preserve">
<g id="XMLID_2582_">
	<path id="XMLID_4_" style="fill:#871A27;" d="M353.16,459.97L353.16,459.97c-32.138-3.383-61.944-18.336-83.849-42.066
		L65.784,206.343c-6.885-7.157-3.266-19.083,6.439-21.217l26.729-5.878l258.429,272.378
		C360.487,455.023,357.74,460.452,353.16,459.97z"/>
	<path id="XMLID_2108_" style="fill:#A52531;" d="M403.222,459.97L403.222,459.97c-32.138-3.383-61.944-18.336-83.849-42.066
		L100.124,190l48.891-10.752l258.429,272.378C410.549,455.023,407.802,460.452,403.222,459.97z"/>
	<path id="XMLID_2018_" style="fill:#CC3248;" d="M454.455,459.97L454.455,459.97c-32.138-3.383-61.944-18.336-83.849-42.066
		L151.357,190l48.891-10.752l258.429,272.378C461.782,455.023,459.035,460.452,454.455,459.97z"/>
	<path id="XMLID_2391_" style="fill:#C1A991;" d="M280.347,380h-80.099l-9.48,37.873C188.984,425,182.572,430,175.217,430
		s-13.767-5-15.551-12.127L150.186,380h-0.277c-40.008,0-73.881-29.485-79.348-69.069L44.112,119.414
		C30.376,116.668,20.025,104.544,20.025,90H0c0-20.678,15.692-37.69,35.817-39.781C35.079,22.989,56.998,0,84.812,0l0,0
		c21.102,0,39.837,13.487,46.51,33.481l0.617,1.848c8.632,25.864,26.455,47.418,49.597,61.877
		c8.184,5.113,15.785,13.683,19.63,27.974L280.347,380z"/>
	<path id="XMLID_2087_" style="fill:#473C3F;" d="M180.223,420v10v10v5c0,8.284-6.724,15-15.019,15h-50.062
		c-2.765,0-5.006-2.239-5.006-5l0,0c0-8.284,6.724-15,15.019-15h35.043c5.53,0,10.012-4.477,10.012-10v-10H180.223z"/>
	<path id="XMLID_1701_" style="fill:#9B1C2B;" d="M280.347,380h-80.099l-9.48,37.873C188.984,425,182.572,430,175.217,430
		s-13.767-5-15.551-12.127L150.186,380h-0.277c-40.008,0-73.881-29.485-79.348-69.069L44.112,119.414L30.382,90H52.77
		c4.803,0,9.541-1.117,13.837-3.262l16.413-8.197c10.482-5.234,17.103-15.935,17.103-27.639C100.124,33.835,86.272,20,69.184,20
		H45.307C54.179,7.937,68.475,0,84.812,0l0,0c21.102,0,39.837,13.487,46.51,33.481l0.617,1.848
		c8.632,25.864,26.455,47.418,49.597,61.877c8.184,5.113,15.785,13.683,19.63,27.974L280.347,380z"/>
	<path id="XMLID_2389_" style="fill:#8C735D;" d="M40.05,90l4.062,29.414C30.376,116.668,20.025,104.544,20.025,90H0
		c0-3.454,0.447-6.803,1.27-10h37.667L40.05,90z"/>
	<path id="XMLID_1631_" style="fill:#AF8F6D;" d="M40.05,90H0c0-20.676,15.688-37.686,35.81-39.781
		c0.037,1.375,0.121,2.759,0.276,4.154L40.05,90z"/>
	<path id="XMLID_2088_" style="fill:#66313A;" d="M70.087,45c0,2.761-2.241,5-5.006,5s-5.006-2.239-5.006-5s2.241-5,5.006-5
		C67.845,40,70.087,42.239,70.087,45z"/>
	<path id="XMLID_1864_" style="fill:#720C1F;" d="M150.186,380h50.062l-5.006,20h-40.049L150.186,380z"/>
	<path id="XMLID_1836_" style="fill:#720C1F;" d="M331.261,397.796L246.772,194.5c-19.25-46.319-62.419-73.992-106.431-68.225
		l-33.801,4.429c-6.283,0.823-10.071,7.378-7.641,13.223l82.08,197.501c19.25,46.32,62.419,73.992,106.431,68.226l40.03-5.245
		C330.582,403.996,332.476,400.719,331.261,397.796z"/>
	<path id="XMLID_1924_" style="fill:#871A27;" d="M349.271,380.344l-39.554,8.084c-43.488,8.888-88.523-15.638-111.033-60.467
		l-95.979-191.149c-2.841-5.657,0.469-12.465,6.677-13.734l33.398-6.826c43.488-8.888,88.523,15.638,111.033,60.468l98.796,196.758
		C354.03,376.305,352.375,379.709,349.271,380.344z"/>
	<path id="XMLID_1905_" style="fill:#A52531;" d="M351.863,378.865c-39.327,2.272-78.009-21.643-98.331-62.115l-73.749-146.618
		c-1.957-3.897-0.994-8.339,1.823-11.141c37.969-0.535,74.788,23.122,94.439,62.258l76.565,152.227
		C353.548,375.345,353.139,377.459,351.863,378.865z"/>
	<path id="XMLID_1810_" style="fill:#82542E;" d="M349.27,380.344L310.841,385c-43.488,8.888-89.648-12.21-112.158-57.04
		l-66.414-132.268c34.538,30.088,78.926,43.67,122.276,34.81l23.828-4.87l74.236,147.845
		C354.029,376.305,352.374,379.709,349.27,380.344z"/>
	<path id="XMLID_1705_" style="fill:#684627;" d="M351.864,378.865c-0.656,0.723-1.538,1.263-2.592,1.479l-39.307,6.781
		c-43.488,8.888-88.77-14.335-111.28-59.165l-66.414-132.268c22.958,20,50.271,32.696,78.737,36.365l42.526,84.693
		C273.856,357.223,312.537,381.137,351.864,378.865z"/>
	<path id="XMLID_1636_" style="fill:#385056;" d="M349.27,380.344l-39.554,8.084c-43.488,8.888-88.523-15.638-111.033-60.467
		l-21.17-42.161c28.416,19.045,62.146,26.827,95.205,20.07l41.667-8.516l38.223,76.123
		C354.029,376.305,352.374,379.709,349.27,380.344z"/>
	<path id="XMLID_1807_" style="fill:#446772;" d="M249.716,308.257c7.802-0.018,15.644-0.792,23.45-2.388l41.667-8.516
		l38.223,76.123c0.594,1.184,0.644,2.466,0.281,3.606c-0.209,0.65-0.552,1.254-1.012,1.765c-0.005,0.006-0.01,0.012-0.016,0.018
		c-39.326,2.271-78.007-21.643-98.329-62.115L249.716,308.257z"/>
</g>
</svg>