<?xml version="1.0" encoding="UTF-8" standalone="no"?>
<svg
   viewBox="0 0 512 512"
   version="1.1"
   id="svg4"
   sodipodi:docname="tower.svg"
   inkscape:version="1.2.2 (732a01da63, 2022-12-09)"
   xmlns:inkscape="http://www.inkscape.org/namespaces/inkscape"
   xmlns:sodipodi="http://sodipodi.sourceforge.net/DTD/sodipodi-0.dtd"
   xmlns="http://www.w3.org/2000/svg"
   xmlns:svg="http://www.w3.org/2000/svg">
   <defs
      id="defs8" />
   <sodipodi:namedview
      id="namedview6"
      pagecolor="#ffffff"
      bordercolor="#666666"
      borderopacity="1.0"
      inkscape:showpageshadow="2"
      inkscape:pageopacity="0.0"
      inkscape:pagecheckerboard="0"
      inkscape:deskcolor="#d1d1d1"
      showgrid="false"
      inkscape:zoom="0.40869141"
      inkscape:cx="532.18638"
      inkscape:cy="298.51374"
      inkscape:window-width="1920"
      inkscape:window-height="1017"
      inkscape:window-x="1912"
      inkscape:window-y="-8"
      inkscape:window-maximized="1"
      inkscape:current-layer="svg4" />
   <!--!
   Font Awesome Pro 6.4.0 by @fontawesome - https://fontawesome.com License -
   https://fontawesome.com/license (Commercial License) Copyright 2023 Fonticons, Inc. -->
   <path
      d="m 130.61192,122.94993 c 4.83398,-2.4171 10.52734,-2.4171 15.36132,0 l 85.9375,42.97085 c 8.48633,4.24336 11.92383,14.55637 7.68066,23.04312 -3.00781,6.01593 -9.07714,9.5073 -15.36132,9.5073 v 42.97085 c 0,9.50729 -7.68066,17.18833 -17.1875,17.18833 h -2.63184 l 17.1875,103.13004 266.68729,0 c 9.50683,0 17.1875,7.68105 17.1875,17.18835 0,9.5073 -7.68067,17.18833 -17.1875,17.18833 l -280.97441,0 H 206.72031 69.86485 69.27404 17.98008 c -9.50683,0 -17.1875,-7.68103 -17.1875,-17.18833 0,-9.5073 7.68067,-17.18835 17.1875,-17.18835 h 37.00684 l 17.1875,-103.13004 h -2.63184 c -9.50684,0 -17.1875,-7.68104 -17.1875,-17.18833 V 198.4712 c -6.28418,0 -12.35351,-3.49137 -15.36132,-9.5073 -4.24317,-8.48675 -0.80567,-18.79976 7.68066,-23.04312 z m 39.10155,238.81049 -31.42089,-26.21222 -31.4209,26.21222 z m -62.68066,-103.13004 -2.52441,15.20096 33.78418,28.19961 33.78418,-28.19961 -2.52441,-15.20096 z m -7.46582,44.68969 -6.01561,35.98808 24.59961,-20.51857 z m 58.86718,15.46951 24.59961,20.46487 -6.01561,-35.98809 z M 95.32383,189.87702 c -4.72656,0 -8.59374,3.86738 -8.59374,8.59418 0,4.72679 3.86718,8.59417 8.59374,8.59417 h 85.9375 c 4.72656,0 8.59374,-3.86738 8.59374,-8.59417 0,-4.7268 -3.86718,-8.59418 -8.59374,-8.59418 z"
      id="path2"
      style="stroke-width:0.537122"
      sodipodi:nodetypes="cccscssccsssccccsssccsscsccccccccccccccccccccsssssss" />
   <path
      d="m 387.14987,87.347348 -58.62532,-21.98825 c -5.0233,-1.86494 -10.58805,-1.59423 -15.37072,0.81215 l -13.80658,6.88825 c -3.33884,1.68446 -3.57948,6.34681 -0.45119,8.36215 l 44.18707,28.425312 -29.6285,15.13009 -17.50638,-7.79064 c -2.61694,-1.17311 -5.65498,-1.11295 -8.21176,0.18048 l -9.68566,4.84283 c -2.79741,1.41374 -3.5494,5.05338 -1.50398,7.42968 l 21.98825,25.65798 c 1.83486,2.13566 4.51196,3.36892 7.30937,3.36892 h 41.41973 c 1.50399,0 2.97789,-0.36095 4.3014,-1.02271 l 82.08748,-41.0287 c 13.98706,-7.00856 24.81575,-19.040442 30.32033,-33.689252 2.85757,-7.58008 -2.76733,-15.7016 -10.88885,-15.7016 h -17.26574 c -6.0761,0 -12.09204,1.44382 -17.50638,4.21116 z"
      id="path1903"
      sodipodi:nodetypes="ccccccccccccsscccsscc"
      style="stroke-width:0.300797" />
</svg>