<?xml version="1.0" encoding="UTF-8" standalone="no"?>
<svg
   width="13.126647"
   height="15.015483"
   viewBox="0 0 13.126647 15.015483"
   fill="none"
   version="1.1"
   id="svg4"
   sodipodi:docname="free.svg"
   inkscape:version="1.1 (c68e22c387, 2021-05-23)"
   xmlns:inkscape="http://www.inkscape.org/namespaces/inkscape"
   xmlns:sodipodi="http://sodipodi.sourceforge.net/DTD/sodipodi-0.dtd"
   xmlns="http://www.w3.org/2000/svg"
   xmlns:svg="http://www.w3.org/2000/svg">
  <defs
     id="defs8" />
  <sodipodi:namedview
     id="namedview6"
     pagecolor="#ffffff"
     bordercolor="#666666"
     borderopacity="1.0"
     inkscape:pageshadow="2"
     inkscape:pageopacity="0.0"
     inkscape:pagecheckerboard="0"
     showgrid="false"
     fit-margin-top="0"
     fit-margin-left="0"
     fit-margin-right="0"
     fit-margin-bottom="0"
     inkscape:zoom="43.789474"
     inkscape:cx="4.5330529"
     inkscape:cy="6.7710337"
     inkscape:window-width="1920"
     inkscape:window-height="1017"
     inkscape:window-x="-8"
     inkscape:window-y="-8"
     inkscape:window-maximized="1"
     inkscape:current-layer="svg4" />
  <path 
     d="m 10.796771,3.75 c 0,1.31836 -0.7618,2.46094 -1.8750496,3.13476 v 0.61525 c 0,0.5273 -0.43945,0.9375 -0.9375,0.9375 h -2.8125 c -0.52734,0 -0.9375,-0.4102 -0.9375,-0.9375 V 6.88476 c -1.14258,-0.67382 -1.875,-1.8164 -1.875,-3.13476 0,-2.05078 1.875,-3.75 4.21875,-3.75 2.31445,0 4.2187996,1.69922 4.2187996,3.75 z M 4.9373514,5.15625 c 0.49804,0 0.9375,-0.41016 0.9375,-0.9375 0,-0.49805 -0.43946,-0.9375 -0.9375,-0.9375 -0.52735,0 -0.9375,0.43945 -0.9375,0.9375 0,0.52734 0.41015,0.9375 0.9375,0.9375 z m 4.21872,-0.9375 c 0,-0.49805 -0.43943,-0.9375 -0.93748,-0.9375 -0.52734,0 -0.9375,0.43945 -0.9375,0.9375 0,0.52734 0.41016,0.9375 0.9375,0.9375 0.49805,0 0.93748,-0.41016 0.93748,-0.9375 z M 0.10336144,8.02731 c 0.23438,-0.4687 0.79102,-0.6445 1.25976996,-0.4101 l 5.21484,2.6074 5.1854996,-2.6074 c 0.4688,-0.2344 1.0254,-0.0586 1.2598,0.4101 0.2344,0.4688 0.0586,1.0254 -0.4101,1.2598 l -3.9551196,1.9629 3.9551196,1.9922 c 0.4687,0.2344 0.6445,0.791 0.4101,1.2597 -0.2344,0.4688 -0.791,0.6446 -1.2598,0.4102 l -5.1854996,-2.6074 -5.21484,2.6074 c -0.46874996,0.2344 -1.02538996,0.0586 -1.25976996,-0.4102 -0.234374,-0.4687 -0.058593,-1.0253 0.41016,-1.2597 L 4.4685914,11.25001 0.51352144,9.28711 c -0.468753,-0.2344 -0.644534,-0.791 -0.41016,-1.2598 z"
     fill="#5ca7ff"
     id="path2" />
</svg>
