<?xml version="1.0" encoding="UTF-8" standalone="no"?>
<svg
   viewBox="0 0 32 31.999584"
   version="1.1"
   id="svg4"
   sodipodi:docname="explosion.svg"
   width="32"
   height="31.999584"
   inkscape:version="1.2.2 (732a01da63, 2022-12-09)"
   xmlns:inkscape="http://www.inkscape.org/namespaces/inkscape"
   xmlns:sodipodi="http://sodipodi.sourceforge.net/DTD/sodipodi-0.dtd"
   xmlns="http://www.w3.org/2000/svg"
   xmlns:svg="http://www.w3.org/2000/svg">
   <defs
      id="defs8" />
   <sodipodi:namedview
      id="namedview6"
      pagecolor="#ffffff"
      bordercolor="#666666"
      borderopacity="1.0"
      inkscape:showpageshadow="2"
      inkscape:pageopacity="0.0"
      inkscape:pagecheckerboard="0"
      inkscape:deskcolor="#d1d1d1"
      showgrid="false"
      inkscape:zoom="13.078125"
      inkscape:cx="18.389486"
      inkscape:cy="12.157706"
      inkscape:window-width="1920"
      inkscape:window-height="1017"
      inkscape:window-x="1912"
      inkscape:window-y="-8"
      inkscape:window-maximized="1"
      inkscape:current-layer="svg4" />
   <!--!
   Font Awesome Pro 6.4.0 by @fontawesome - https://fontawesome.com License -
   https://fontawesome.com/license (Commercial License) Copyright 2023 Fonticons, Inc. -->
   <path
      d="m 26.759564,2.1225723 c 0.340688,-0.6068538 1.042401,-0.822372 1.611908,-0.4820802 0.569507,0.3402919 0.80341,1.1059486 0.538997,1.7581747 L 21.939094,20.685494 c 0.111864,0.130442 0.218653,0.266561 0.320348,0.402678 l 4.942507,-3.102328 c 0.533912,-0.334619 1.200033,-0.175817 1.571229,0.362979 0.371196,0.538795 0.320348,1.304451 -0.111863,1.786531 l -4.423848,4.934232 h -3.635691 c -0.671205,-2.11548 -2.476338,-3.629779 -4.601819,-3.629779 -2.125482,0 -3.9357,1.514299 -4.601818,3.629779 H 7.345485 L 3.506398,22.109048 C 3.013164,21.729056 2.840278,20.997429 3.104692,20.390574 3.369106,19.783721 3.989462,19.488801 4.564053,19.687305 L 9.50656,21.411449 C 9.659102,21.190258 9.8167362,20.974741 9.9845364,20.770566 L 6.816656,14.883519 c -0.310177,-0.572827 -0.198311,-1.310126 0.25933,-1.741162 0.457639,-0.431036 1.128844,-0.425365 1.581397,0.0055 l 5.20692,4.985277 c 0.07626,-0.02268 0.152542,-0.04537 0.22882,-0.06239 l 0.691544,-8.093192 c 0.06101,-0.6975963 0.584761,-1.2307211 1.215286,-1.2307211 0.630526,0 1.154267,0.5331248 1.215285,1.2307211 l 0.686461,8.047904 z M 4.609817,26.890147 v 0 H 27.39009 v 0 h 1.627161 c 0.900024,0 1.627164,0.81103 1.627164,1.814891 0,1.003862 -0.72714,1.814889 -1.627164,1.814889 H 2.982655 c -0.900024,0 -1.627163,-0.811027 -1.627163,-1.814889 0,-1.003861 0.727139,-1.814891 1.627163,-1.814891 z M 15.999953,1.4816894 c 0.676288,0 1.220371,0.6068538 1.220371,1.3611673 v 2.7223348 c 0,0.7543135 -0.544083,1.3611677 -1.220371,1.3611677 -0.676289,0 -1.220372,-0.6068542 -1.220372,-1.3611677 V 2.8428567 c 0,-0.7543135 0.544083,-1.3611673 1.220372,-1.3611673 z"
      fill="#ffffff"
      stroke="#ffffff"
      id="path2"
      style="fill-opacity:1;stroke-width:0.0537019" />
</svg>