<?xml version="1.0" encoding="UTF-8" standalone="no"?>
<svg
   width="32"
   height="32"
   viewBox="0 0 32 32"
   version="1.1"
   id="svg8"
   sodipodi:docname="helicopter.svg"
   inkscape:version="1.2.2 (732a01da63, 2022-12-09)"
   xmlns:inkscape="http://www.inkscape.org/namespaces/inkscape"
   xmlns:sodipodi="http://sodipodi.sourceforge.net/DTD/sodipodi-0.dtd"
   xmlns="http://www.w3.org/2000/svg"
   xmlns:svg="http://www.w3.org/2000/svg"
   xmlns:rdf="http://www.w3.org/1999/02/22-rdf-syntax-ns#"
   xmlns:cc="http://creativecommons.org/ns#"
   xmlns:dc="http://purl.org/dc/elements/1.1/">
   <metadata
      id="metadata14">
      <rdf:RDF>
         <cc:Work
            rdf:about="">
            <dc:format>image/svg+xml</dc:format>
            <dc:type
               rdf:resource="http://purl.org/dc/dcmitype/StillImage" />
            <dc:title />
         </cc:Work>
      </rdf:RDF>
   </metadata>
   <defs
      id="defs12" />
   <sodipodi:namedview
      inkscape:document-rotation="0"
      pagecolor="#ffffff"
      bordercolor="#666666"
      borderopacity="1"
      objecttolerance="10"
      gridtolerance="10"
      guidetolerance="10"
      inkscape:pageopacity="0"
      inkscape:pageshadow="2"
      inkscape:window-width="1920"
      inkscape:window-height="1017"
      id="namedview10"
      showgrid="false"
      inkscape:zoom="13.28125"
      inkscape:cx="11.858824"
      inkscape:cy="13.101176"
      inkscape:window-x="1912"
      inkscape:window-y="-8"
      inkscape:window-maximized="1"
      inkscape:current-layer="svg8"
      inkscape:showpageshadow="2"
      inkscape:pagecheckerboard="0"
      inkscape:deskcolor="#d1d1d1" />
   <path
      d="m 6.3544349,4.6930773 c 0,-0.8721964 0.7046585,-1.5768552 1.5768567,-1.5768552 H 26.853493 c 0.872197,0 1.576856,0.7046588 1.576856,1.5768552 0,0.8721978 -0.704659,1.5768478 -1.576856,1.5768478 h -7.884254 v 3.1537018 h 1.576855 c 4.356045,0 7.884255,3.5282031 7.884255,7.8842541 v 3.153697 c 0,0.872195 -0.704659,1.576855 -1.576856,1.576855 h -7.884254 -3.153695 c -0.990466,0 -1.926715,-0.468129 -2.522966,-1.26148 L 9.7742292,16.085817 c -0.1724691,-0.2316 -0.4089908,-0.408991 -0.67509,-0.517398 l -6.72625,-2.690505 C 1.90476,12.690662 1.5499693,12.286593 1.4267781,11.793826 L 0.29342123,7.25053 C 0.16529133,6.7528385 0.54472759,6.2699251 1.0572018,6.2699251 h 1.3551113 c 0.49769,0 0.9658193,0.2315996 1.2614793,0.6307441 L 5.5660161,9.4236269 H 15.815544 V 6.2699251 H 7.9312916 c -0.8721982,0 -1.5768567,-0.70465 -1.5768567,-1.5768478 z M 18.969239,18.884729 h 6.307407 v -1.576848 c 0,-2.611659 -2.118892,-4.73055 -4.730552,-4.73055 h -1.576855 z m 12.151606,5.19375 c 0.615961,0.615957 0.615961,1.616279 0,2.232229 l -0.192176,0.192183 c -1.182641,1.182634 -2.789057,1.84787 -4.459529,1.84787 h -13.8073 c -0.872195,0 -1.576855,-0.704658 -1.576855,-1.576847 0,-0.872197 0.70466,-1.576855 1.576855,-1.576855 h 13.8073 c 0.837698,0 1.640911,-0.330154 2.232231,-0.921474 l 0.192176,-0.192177 c 0.615959,-0.615959 1.61627,-0.615959 2.232229,0 z"
      id="path1174"
      style="fill-opacity:1;stroke-width:0.0492765" />
</svg>