<?xml version="1.0" encoding="UTF-8" standalone="no"?>
<svg
   width="50"
   height="50"
   viewBox="0 0 50 50"
   fill="none"
   version="1.1"
   id="svg6"
   sodipodi:docname="groundunit-sam-radar.svg"
   inkscape:version="1.1 (c68e22c387, 2021-05-23)"
   xmlns:inkscape="http://www.inkscape.org/namespaces/inkscape"
   xmlns:sodipodi="http://sodipodi.sourceforge.net/DTD/sodipodi-0.dtd"
   xmlns="http://www.w3.org/2000/svg"
   xmlns:svg="http://www.w3.org/2000/svg">
   <path
      d="M45.7733 41.3423L25.9481 7.63951C25.5228 6.91648 24.4772 6.91646 24.0519 7.63951L4.22671 41.3423C3.79536 42.0756 4.32409 43 5.17484 43H44.8252C45.6759 43 46.2046 42.0756 45.7733 41.3423Z"
      fill="#3BB9FF"
      stroke="none"
      stroke-width="2"
      id="path2" />
   <path
      d="M6.74842 41L25 9.97231L43.2516 41H6.74842Z"
      fill="none"
      stroke="#082E44"
      stroke-width="2"
      id="path4"
      style="fill:none;fill-opacity:1" />
   <path
      style="fill:none;stroke:#082e44;stroke-width:1.5;stroke-linecap:round;stroke-linejoin:miter;stroke-miterlimit:4;stroke-dasharray:none;stroke-opacity:1;fill-opacity:1"
      d="m 23.148216,33.643859 5.192016,-2.949206 -3.388454,-2.048829 5.07282,-3.186251"
      id="path942"
      sodipodi:nodetypes="cccc" />
   <path
      style="fill:none;stroke:#082e44;stroke-width:1.5;stroke-linecap:round;stroke-linejoin:miter;stroke-miterlimit:4;stroke-dasharray:none;stroke-opacity:1;fill-opacity:1"
      d="m 27.294508,24.649847 2.900324,0.729775 -0.652429,2.591717"
      id="path1230" />
   <path
      style="fill:none;fill-opacity:1;stroke:#082e44;stroke-width:2;stroke-linecap:round;stroke-linejoin:round;stroke-miterlimit:4;stroke-dasharray:none;stroke-dashoffset:5.6;stroke-opacity:1;paint-order:stroke fill markers"
      id="path1657"
      sodipodi:type="arc"
      sodipodi:cx="27.684952"
      sodipodi:cy="28.990719"
      sodipodi:rx="8.8697948"
      sodipodi:ry="8.8809643"
      sodipodi:start="1.0594149"
      sodipodi:end="3.5325464"
      sodipodi:arc-type="arc"
      sodipodi:open="true"
      d="M 32.025673,36.735535 A 8.8697948,8.8809643 0 0 1 21.801853,35.63703 8.8697948,8.8809643 0 0 1 19.484418,25.606446" />
</svg>